G04 #@! TF.GenerationSoftware,KiCad,Pcbnew,(6.0.2)*
G04 #@! TF.CreationDate,2022-09-28T01:39:31+02:00*
G04 #@! TF.ProjectId,LoRa-Gateway-E32,4c6f5261-2d47-4617-9465-7761792d4533,v1r1b*
G04 #@! TF.SameCoordinates,Original*
G04 #@! TF.FileFunction,Legend,Bot*
G04 #@! TF.FilePolarity,Positive*
%FSLAX46Y46*%
G04 Gerber Fmt 4.6, Leading zero omitted, Abs format (unit mm)*
G04 Created by KiCad (PCBNEW (6.0.2)) date 2022-09-28 01:39:31*
%MOMM*%
%LPD*%
G01*
G04 APERTURE LIST*
%ADD10C,0.150000*%
G04 APERTURE END LIST*
D10*
X155719047Y-96452380D02*
X155719047Y-97166666D01*
X155766666Y-97309523D01*
X155861904Y-97404761D01*
X156004761Y-97452380D01*
X156100000Y-97452380D01*
X154766666Y-97452380D02*
X155242857Y-97452380D01*
X155242857Y-96452380D01*
X153861904Y-97357142D02*
X153909523Y-97404761D01*
X154052380Y-97452380D01*
X154147619Y-97452380D01*
X154290476Y-97404761D01*
X154385714Y-97309523D01*
X154433333Y-97214285D01*
X154480952Y-97023809D01*
X154480952Y-96880952D01*
X154433333Y-96690476D01*
X154385714Y-96595238D01*
X154290476Y-96500000D01*
X154147619Y-96452380D01*
X154052380Y-96452380D01*
X153909523Y-96500000D01*
X153861904Y-96547619D01*
X153147619Y-96452380D02*
X153147619Y-97166666D01*
X153195238Y-97309523D01*
X153290476Y-97404761D01*
X153433333Y-97452380D01*
X153528571Y-97452380D01*
X152195238Y-97452380D02*
X152671428Y-97452380D01*
X152671428Y-96452380D01*
X151290476Y-97357142D02*
X151338095Y-97404761D01*
X151480952Y-97452380D01*
X151576190Y-97452380D01*
X151719047Y-97404761D01*
X151814285Y-97309523D01*
X151861904Y-97214285D01*
X151909523Y-97023809D01*
X151909523Y-96880952D01*
X151861904Y-96690476D01*
X151814285Y-96595238D01*
X151719047Y-96500000D01*
X151576190Y-96452380D01*
X151480952Y-96452380D01*
X151338095Y-96500000D01*
X151290476Y-96547619D01*
X150576190Y-96452380D02*
X150576190Y-97166666D01*
X150623809Y-97309523D01*
X150719047Y-97404761D01*
X150861904Y-97452380D01*
X150957142Y-97452380D01*
X149623809Y-97452380D02*
X150100000Y-97452380D01*
X150100000Y-96452380D01*
X148719047Y-97357142D02*
X148766666Y-97404761D01*
X148909523Y-97452380D01*
X149004761Y-97452380D01*
X149147619Y-97404761D01*
X149242857Y-97309523D01*
X149290476Y-97214285D01*
X149338095Y-97023809D01*
X149338095Y-96880952D01*
X149290476Y-96690476D01*
X149242857Y-96595238D01*
X149147619Y-96500000D01*
X149004761Y-96452380D01*
X148909523Y-96452380D01*
X148766666Y-96500000D01*
X148719047Y-96547619D01*
X148004761Y-96452380D02*
X148004761Y-97166666D01*
X148052380Y-97309523D01*
X148147619Y-97404761D01*
X148290476Y-97452380D01*
X148385714Y-97452380D01*
X147052380Y-97452380D02*
X147528571Y-97452380D01*
X147528571Y-96452380D01*
X146147619Y-97357142D02*
X146195238Y-97404761D01*
X146338095Y-97452380D01*
X146433333Y-97452380D01*
X146576190Y-97404761D01*
X146671428Y-97309523D01*
X146719047Y-97214285D01*
X146766666Y-97023809D01*
X146766666Y-96880952D01*
X146719047Y-96690476D01*
X146671428Y-96595238D01*
X146576190Y-96500000D01*
X146433333Y-96452380D01*
X146338095Y-96452380D01*
X146195238Y-96500000D01*
X146147619Y-96547619D01*
M02*
