G04 #@! TF.GenerationSoftware,KiCad,Pcbnew,(6.0.2)*
G04 #@! TF.CreationDate,2022-09-28T01:39:31+02:00*
G04 #@! TF.ProjectId,LoRa-Gateway-E32,4c6f5261-2d47-4617-9465-7761792d4533,v1r1b*
G04 #@! TF.SameCoordinates,Original*
G04 #@! TF.FileFunction,Copper,L1,Top*
G04 #@! TF.FilePolarity,Positive*
%FSLAX46Y46*%
G04 Gerber Fmt 4.6, Leading zero omitted, Abs format (unit mm)*
G04 Created by KiCad (PCBNEW (6.0.2)) date 2022-09-28 01:39:31*
%MOMM*%
%LPD*%
G01*
G04 APERTURE LIST*
G04 Aperture macros list*
%AMRoundRect*
0 Rectangle with rounded corners*
0 $1 Rounding radius*
0 $2 $3 $4 $5 $6 $7 $8 $9 X,Y pos of 4 corners*
0 Add a 4 corners polygon primitive as box body*
4,1,4,$2,$3,$4,$5,$6,$7,$8,$9,$2,$3,0*
0 Add four circle primitives for the rounded corners*
1,1,$1+$1,$2,$3*
1,1,$1+$1,$4,$5*
1,1,$1+$1,$6,$7*
1,1,$1+$1,$8,$9*
0 Add four rect primitives between the rounded corners*
20,1,$1+$1,$2,$3,$4,$5,0*
20,1,$1+$1,$4,$5,$6,$7,0*
20,1,$1+$1,$6,$7,$8,$9,0*
20,1,$1+$1,$8,$9,$2,$3,0*%
G04 Aperture macros list end*
G04 #@! TA.AperFunction,ComponentPad*
%ADD10R,1.700000X1.700000*%
G04 #@! TD*
G04 #@! TA.AperFunction,ComponentPad*
%ADD11O,1.700000X1.700000*%
G04 #@! TD*
G04 #@! TA.AperFunction,SMDPad,CuDef*
%ADD12RoundRect,0.250000X-0.250000X-0.475000X0.250000X-0.475000X0.250000X0.475000X-0.250000X0.475000X0*%
G04 #@! TD*
G04 #@! TA.AperFunction,ComponentPad*
%ADD13C,1.700000*%
G04 #@! TD*
G04 #@! TA.AperFunction,SMDPad,CuDef*
%ADD14RoundRect,0.250000X0.475000X-0.250000X0.475000X0.250000X-0.475000X0.250000X-0.475000X-0.250000X0*%
G04 #@! TD*
G04 #@! TA.AperFunction,ComponentPad*
%ADD15C,0.800000*%
G04 #@! TD*
G04 #@! TA.AperFunction,ComponentPad*
%ADD16C,5.000000*%
G04 #@! TD*
G04 #@! TA.AperFunction,SMDPad,CuDef*
%ADD17R,1.000000X1.800000*%
G04 #@! TD*
G04 #@! TA.AperFunction,SMDPad,CuDef*
%ADD18R,1.800000X1.000000*%
G04 #@! TD*
G04 #@! TA.AperFunction,SMDPad,CuDef*
%ADD19RoundRect,0.250000X-1.450000X0.312500X-1.450000X-0.312500X1.450000X-0.312500X1.450000X0.312500X0*%
G04 #@! TD*
G04 #@! TA.AperFunction,ComponentPad*
%ADD20R,2.600000X2.600000*%
G04 #@! TD*
G04 #@! TA.AperFunction,ComponentPad*
%ADD21C,2.600000*%
G04 #@! TD*
G04 #@! TA.AperFunction,ComponentPad*
%ADD22R,1.524000X1.524000*%
G04 #@! TD*
G04 #@! TA.AperFunction,ComponentPad*
%ADD23C,1.524000*%
G04 #@! TD*
G04 #@! TA.AperFunction,ViaPad*
%ADD24C,0.600000*%
G04 #@! TD*
G04 #@! TA.AperFunction,ViaPad*
%ADD25C,0.500000*%
G04 #@! TD*
G04 #@! TA.AperFunction,Conductor*
%ADD26C,0.600000*%
G04 #@! TD*
G04 #@! TA.AperFunction,Conductor*
%ADD27C,0.400000*%
G04 #@! TD*
G04 #@! TA.AperFunction,Conductor*
%ADD28C,0.300000*%
G04 #@! TD*
G04 #@! TA.AperFunction,Conductor*
%ADD29C,0.250000*%
G04 #@! TD*
G04 APERTURE END LIST*
D10*
X99150000Y-90300000D03*
D11*
X99150000Y-92840000D03*
X99150000Y-95380000D03*
D12*
X137350000Y-74750000D03*
X139250000Y-74750000D03*
D13*
X157880000Y-47375000D03*
X157880000Y-67695000D03*
X157880000Y-65155000D03*
X129940000Y-67695000D03*
X132480000Y-52455000D03*
X155340000Y-52455000D03*
X132480000Y-57535000D03*
X155340000Y-60075000D03*
X155340000Y-57535000D03*
X132480000Y-60075000D03*
X132480000Y-62615000D03*
X155340000Y-54995000D03*
X129940000Y-62615000D03*
X155340000Y-62615000D03*
X129940000Y-65155000D03*
X155340000Y-67695000D03*
X155340000Y-65155000D03*
X157880000Y-62615000D03*
X157880000Y-60075000D03*
X157880000Y-57535000D03*
X157880000Y-54995000D03*
X157880000Y-52455000D03*
X157880000Y-49915000D03*
X155340000Y-49915000D03*
X155340000Y-47375000D03*
X132480000Y-67695000D03*
X132480000Y-65155000D03*
X129940000Y-60075000D03*
X129940000Y-57535000D03*
X132480000Y-54995000D03*
X129940000Y-54995000D03*
X129940000Y-52455000D03*
X132480000Y-49915000D03*
X129940000Y-49915000D03*
X132480000Y-47375000D03*
X129940000Y-47375000D03*
D14*
X157850000Y-45200000D03*
X157850000Y-43300000D03*
D15*
X159400000Y-41175000D03*
X159400000Y-37425000D03*
X161275000Y-39300000D03*
D16*
X159400000Y-39300000D03*
D15*
X160725825Y-40625825D03*
X158074175Y-37974175D03*
X160725825Y-37974175D03*
X157525000Y-39300000D03*
X158074175Y-40625825D03*
X100500000Y-81825000D03*
X101825825Y-85025825D03*
X98625000Y-83700000D03*
X100500000Y-85575000D03*
X99174175Y-82374175D03*
D16*
X100500000Y-83700000D03*
D15*
X102375000Y-83700000D03*
X101825825Y-82374175D03*
X99174175Y-85025825D03*
X158074175Y-94674175D03*
X160725825Y-97325825D03*
X161275000Y-96000000D03*
D16*
X159400000Y-96000000D03*
D15*
X157525000Y-96000000D03*
X158074175Y-97325825D03*
X160725825Y-94674175D03*
X159400000Y-97875000D03*
X159400000Y-94125000D03*
D17*
X153700000Y-77397500D03*
X152430000Y-77397500D03*
X151160000Y-77397500D03*
X145590000Y-77397500D03*
X144320000Y-77397500D03*
X143050000Y-77397500D03*
X141780000Y-77397500D03*
X140510000Y-77397500D03*
X139240000Y-77397500D03*
X137970000Y-77397500D03*
X136700000Y-77397500D03*
D18*
X134900000Y-82297500D03*
X134900000Y-83557500D03*
X134900000Y-84827500D03*
X134900000Y-86107500D03*
D17*
X136700000Y-90997500D03*
X137970000Y-90997500D03*
X139240000Y-90997500D03*
X140510000Y-90997500D03*
X141780000Y-90997500D03*
X143050000Y-90997500D03*
X144320000Y-90997500D03*
X145590000Y-90997500D03*
X151160000Y-90997500D03*
X152430000Y-90997500D03*
X153700000Y-90997500D03*
D19*
X117850000Y-89400000D03*
X117850000Y-93675000D03*
D15*
X98625000Y-39300000D03*
X100500000Y-41175000D03*
X99174175Y-37974175D03*
D16*
X100500000Y-39300000D03*
D15*
X100500000Y-37425000D03*
X101825825Y-40625825D03*
X102375000Y-39300000D03*
X101825825Y-37974175D03*
X99174175Y-40625825D03*
D20*
X107300000Y-94205000D03*
D21*
X112380000Y-94205000D03*
D22*
X98700000Y-42740000D03*
D23*
X98700000Y-45280000D03*
X98700000Y-47820000D03*
X98700000Y-50360000D03*
X98700000Y-52900000D03*
X98700000Y-55440000D03*
X98700000Y-57980000D03*
X98700000Y-60520000D03*
X98700000Y-63060000D03*
X98700000Y-65600000D03*
X98700000Y-68140000D03*
X98700000Y-70680000D03*
X98700000Y-73220000D03*
X98700000Y-75760000D03*
X98700000Y-78300000D03*
X124100000Y-78300000D03*
X124100000Y-75760000D03*
X124100000Y-73220000D03*
X124100000Y-70680000D03*
X124100000Y-68140000D03*
X124100000Y-65600000D03*
X124100000Y-63060000D03*
X124100000Y-60520000D03*
X124100000Y-57980000D03*
X124100000Y-55440000D03*
X124100000Y-52900000D03*
X124100000Y-50360000D03*
X124100000Y-47820000D03*
X124100000Y-45280000D03*
X124100000Y-42740000D03*
D24*
X145400000Y-88200000D03*
X148100000Y-77450000D03*
X137800000Y-86000000D03*
X149600000Y-88450000D03*
X153200000Y-83500000D03*
X145950000Y-83000000D03*
X148500000Y-90700000D03*
X148800000Y-81000000D03*
X153100000Y-79800000D03*
X142700000Y-84450000D03*
X134000000Y-90800000D03*
X142550000Y-80400000D03*
X141400000Y-86500000D03*
X138000000Y-80100000D03*
X135100000Y-76550000D03*
X135050000Y-79650000D03*
X151700000Y-86350000D03*
X150800000Y-79850000D03*
X146000000Y-79750000D03*
X148600000Y-85600000D03*
X159300000Y-43300000D03*
X135150000Y-91950000D03*
X139450000Y-83000000D03*
D25*
X111400000Y-71950000D03*
X144320000Y-89800000D03*
X143050000Y-76200000D03*
X125750000Y-70700000D03*
X111400000Y-64350000D03*
X111400000Y-66850000D03*
X143910000Y-63900000D03*
X111400000Y-69400000D03*
X143910000Y-61350000D03*
X143910000Y-58800000D03*
X143910000Y-56275000D03*
X143910000Y-46000000D03*
X139240000Y-92200000D03*
X112049511Y-77900489D03*
X141780000Y-89800000D03*
X111400000Y-74450000D03*
X143050000Y-92200000D03*
X111400000Y-77000000D03*
X125750000Y-78300000D03*
X140510000Y-89200000D03*
X141780000Y-76200000D03*
X125750000Y-73250000D03*
X125750000Y-75800000D03*
X132850000Y-82900000D03*
D26*
X157850000Y-43300000D02*
X159300000Y-43300000D01*
X136000000Y-74750000D02*
X137350000Y-74750000D01*
X135100000Y-75650000D02*
X135100000Y-76550000D01*
X135100000Y-75650000D02*
X136000000Y-74750000D01*
D27*
X102510000Y-71950000D02*
X111400000Y-71950000D01*
D28*
X144320000Y-89800000D02*
X144320000Y-91000000D01*
D27*
X98700000Y-68140000D02*
X102510000Y-71950000D01*
D28*
X125750000Y-70700000D02*
X125750000Y-69790000D01*
X143050000Y-76200000D02*
X143050000Y-77400000D01*
X124100000Y-68140000D02*
X125750000Y-69790000D01*
D29*
X111400000Y-64350000D02*
X102530000Y-64350000D01*
X102530000Y-64350000D02*
X98700000Y-60520000D01*
D28*
X143910000Y-63900000D02*
X154055000Y-63900000D01*
X102490000Y-66850000D02*
X111400000Y-66850000D01*
X154055000Y-63900000D02*
X155340000Y-62615000D01*
X98700000Y-63060000D02*
X102490000Y-66850000D01*
D29*
X102500000Y-69400000D02*
X98700000Y-65600000D01*
X111400000Y-69400000D02*
X102500000Y-69400000D01*
D28*
X128360000Y-58800000D02*
X124100000Y-63060000D01*
X132480000Y-57535000D02*
X131215000Y-58800000D01*
X131215000Y-58800000D02*
X128360000Y-58800000D01*
X156539511Y-60571855D02*
X155761366Y-61350000D01*
X155761366Y-61350000D02*
X143910000Y-61350000D01*
X155340000Y-52455000D02*
X156539511Y-53654511D01*
X156539511Y-53654511D02*
X156539511Y-60571855D01*
X155340000Y-60075000D02*
X154065000Y-58800000D01*
X154065000Y-58800000D02*
X143910000Y-58800000D01*
X154080000Y-56275000D02*
X155340000Y-57535000D01*
X143925000Y-56275000D02*
X154080000Y-56275000D01*
X127475000Y-56275000D02*
X124100000Y-52900000D01*
X133750000Y-58805000D02*
X133750000Y-57000000D01*
X133750000Y-57000000D02*
X133025000Y-56275000D01*
X133025000Y-56275000D02*
X127475000Y-56275000D01*
X132480000Y-60075000D02*
X133750000Y-58805000D01*
X125300000Y-46480000D02*
X124100000Y-45280000D01*
X133047344Y-53725000D02*
X129400000Y-53725000D01*
X125300000Y-49625000D02*
X125300000Y-46480000D01*
X132480000Y-62615000D02*
X134325000Y-60770000D01*
X134325000Y-55002656D02*
X133047344Y-53725000D01*
X129400000Y-53725000D02*
X125300000Y-49625000D01*
X134325000Y-60770000D02*
X134325000Y-55002656D01*
X143910000Y-46000000D02*
X143910000Y-46010000D01*
X143910000Y-46010000D02*
X152895000Y-54995000D01*
X152895000Y-54995000D02*
X155340000Y-54995000D01*
X99950000Y-61098928D02*
X102001072Y-63150000D01*
X139240000Y-92200000D02*
X139240000Y-91000000D01*
X98710000Y-50360000D02*
X99950000Y-51600000D01*
X112049511Y-63900489D02*
X112049511Y-77900489D01*
X99950000Y-51600000D02*
X99950000Y-61098928D01*
X102001072Y-63150000D02*
X111299022Y-63150000D01*
X98700000Y-50360000D02*
X98710000Y-50360000D01*
X111299022Y-63150000D02*
X112049511Y-63900489D01*
X97500000Y-93730000D02*
X99150000Y-95380000D01*
X97500000Y-59180000D02*
X97500000Y-93730000D01*
X98700000Y-57980000D02*
X97500000Y-59180000D01*
D27*
X102470000Y-74450000D02*
X98700000Y-70680000D01*
X111400000Y-74450000D02*
X102470000Y-74450000D01*
D28*
X141780000Y-90000000D02*
X141780000Y-91200000D01*
D27*
X102480000Y-77000000D02*
X98700000Y-73220000D01*
X111400000Y-77000000D02*
X102480000Y-77000000D01*
D28*
X143050000Y-92200000D02*
X143050000Y-91000000D01*
X123501107Y-77050000D02*
X124500000Y-77050000D01*
X124500000Y-77050000D02*
X125750000Y-78300000D01*
X124100000Y-65600000D02*
X122900000Y-66800000D01*
X122900000Y-66800000D02*
X122900000Y-76448893D01*
X140510000Y-89200000D02*
X140510000Y-91000000D01*
X122900000Y-76448893D02*
X123501107Y-77050000D01*
X124100000Y-70680000D02*
X125750000Y-72330000D01*
X141780000Y-76200000D02*
X141780000Y-77400000D01*
X125750000Y-72330000D02*
X125750000Y-73250000D01*
X125750000Y-74870000D02*
X125750000Y-75800000D01*
X132850000Y-91950000D02*
X134200000Y-93300000D01*
X134200000Y-93300000D02*
X144629970Y-93300000D01*
X145590000Y-92339970D02*
X145590000Y-90997500D01*
X144629970Y-93300000D02*
X145590000Y-92339970D01*
X132850000Y-82900000D02*
X132850000Y-91950000D01*
X124100000Y-73220000D02*
X125750000Y-74870000D01*
G04 #@! TA.AperFunction,Conductor*
G36*
X157819313Y-36528002D02*
G01*
X157865806Y-36581658D01*
X157875910Y-36651932D01*
X157846416Y-36716512D01*
X157818148Y-36740737D01*
X157654279Y-36843532D01*
X157651443Y-36845804D01*
X157651436Y-36845809D01*
X157522478Y-36949124D01*
X157383509Y-37060459D01*
X157139466Y-37307071D01*
X157137225Y-37309929D01*
X157080732Y-37381978D01*
X156925386Y-37580098D01*
X156923493Y-37583187D01*
X156923491Y-37583190D01*
X156878918Y-37655927D01*
X156744105Y-37875921D01*
X156742580Y-37879206D01*
X156742578Y-37879210D01*
X156703505Y-37963386D01*
X156598027Y-38190620D01*
X156489087Y-38520023D01*
X156488351Y-38523578D01*
X156488350Y-38523581D01*
X156419465Y-38856214D01*
X156418730Y-38859764D01*
X156387888Y-39205341D01*
X156387983Y-39208971D01*
X156387983Y-39208972D01*
X156390367Y-39300000D01*
X156396970Y-39552171D01*
X156445856Y-39895660D01*
X156533897Y-40231253D01*
X156659927Y-40554503D01*
X156661624Y-40557708D01*
X156795113Y-40809825D01*
X156822275Y-40861126D01*
X156824325Y-40864109D01*
X156824327Y-40864112D01*
X157016733Y-41144064D01*
X157016739Y-41144071D01*
X157018790Y-41147056D01*
X157246866Y-41408505D01*
X157324371Y-41479029D01*
X157459268Y-41601775D01*
X157503481Y-41642006D01*
X157785233Y-41844466D01*
X158088388Y-42013200D01*
X158091737Y-42014587D01*
X158175037Y-42049091D01*
X158230318Y-42093639D01*
X158252739Y-42161003D01*
X158235181Y-42229794D01*
X158183219Y-42278172D01*
X158126819Y-42291500D01*
X157324600Y-42291500D01*
X157321354Y-42291837D01*
X157321350Y-42291837D01*
X157225692Y-42301762D01*
X157225688Y-42301763D01*
X157218834Y-42302474D01*
X157212298Y-42304655D01*
X157212296Y-42304655D01*
X157099893Y-42342156D01*
X157051054Y-42358450D01*
X156900652Y-42451522D01*
X156775695Y-42576697D01*
X156771855Y-42582927D01*
X156771854Y-42582928D01*
X156749591Y-42619046D01*
X156682885Y-42727262D01*
X156680581Y-42734209D01*
X156634383Y-42873493D01*
X156627203Y-42895139D01*
X156616500Y-42999600D01*
X156616500Y-43600400D01*
X156616837Y-43603646D01*
X156616837Y-43603650D01*
X156623919Y-43671902D01*
X156627474Y-43706166D01*
X156629655Y-43712702D01*
X156629655Y-43712704D01*
X156650843Y-43776211D01*
X156683450Y-43873946D01*
X156776522Y-44024348D01*
X156901697Y-44149305D01*
X156906235Y-44152102D01*
X156946824Y-44209353D01*
X156950054Y-44280276D01*
X156914428Y-44341687D01*
X156905932Y-44349062D01*
X156895793Y-44357098D01*
X156781261Y-44471829D01*
X156772249Y-44483240D01*
X156687184Y-44621243D01*
X156681037Y-44634424D01*
X156664989Y-44682806D01*
X156664500Y-44696899D01*
X156670711Y-44700000D01*
X159022578Y-44700000D01*
X159036109Y-44696027D01*
X159037090Y-44689201D01*
X159018412Y-44633216D01*
X159012239Y-44620038D01*
X158926937Y-44482193D01*
X158917901Y-44470792D01*
X158803172Y-44356262D01*
X158794238Y-44349206D01*
X158753177Y-44291288D01*
X158749947Y-44220365D01*
X158785574Y-44158954D01*
X158793406Y-44152155D01*
X158799348Y-44148478D01*
X158804525Y-44143292D01*
X158810254Y-44138751D01*
X158811580Y-44140424D01*
X158864625Y-44111402D01*
X158891511Y-44108500D01*
X159237584Y-44108500D01*
X159254248Y-44109607D01*
X159275979Y-44112507D01*
X159275984Y-44112507D01*
X159282961Y-44113438D01*
X159289972Y-44112800D01*
X159289976Y-44112800D01*
X159331516Y-44109019D01*
X159338579Y-44108698D01*
X159338579Y-44108696D01*
X159342088Y-44108500D01*
X159345610Y-44108500D01*
X159349103Y-44108108D01*
X159349106Y-44108108D01*
X159362079Y-44106653D01*
X159380450Y-44104592D01*
X159383050Y-44104329D01*
X159463600Y-44096998D01*
X159469961Y-44094931D01*
X159470501Y-44094809D01*
X159473075Y-44094252D01*
X159473603Y-44094143D01*
X159480255Y-44093397D01*
X159556667Y-44066787D01*
X159559167Y-44065946D01*
X159636108Y-44040947D01*
X159641857Y-44037520D01*
X159642327Y-44037295D01*
X159644715Y-44036181D01*
X159645237Y-44035944D01*
X159651552Y-44033745D01*
X159676558Y-44018120D01*
X159720173Y-43990867D01*
X159722424Y-43989494D01*
X159785856Y-43951680D01*
X159785861Y-43951676D01*
X159791912Y-43948069D01*
X159796751Y-43943460D01*
X159797218Y-43943090D01*
X159799308Y-43941468D01*
X159799687Y-43941180D01*
X159805376Y-43937626D01*
X159862823Y-43880579D01*
X159864684Y-43878769D01*
X159923266Y-43822982D01*
X159926966Y-43817414D01*
X159927328Y-43816963D01*
X159929007Y-43814918D01*
X159929325Y-43814539D01*
X159934082Y-43809815D01*
X159977434Y-43741504D01*
X159978870Y-43739293D01*
X160019742Y-43677775D01*
X160019745Y-43677769D01*
X160023643Y-43671902D01*
X160026021Y-43665642D01*
X160026260Y-43665151D01*
X160027438Y-43662799D01*
X160027684Y-43662321D01*
X160031273Y-43656666D01*
X160058407Y-43580464D01*
X160059317Y-43577993D01*
X160085553Y-43508925D01*
X160085553Y-43508924D01*
X160088055Y-43502338D01*
X160088987Y-43495704D01*
X160089104Y-43495206D01*
X160089728Y-43492663D01*
X160089873Y-43492097D01*
X160092119Y-43485790D01*
X160101699Y-43405445D01*
X160102030Y-43402902D01*
X160113299Y-43322717D01*
X160113529Y-43306243D01*
X160113596Y-43305680D01*
X160113544Y-43305182D01*
X160113616Y-43300000D01*
X160113176Y-43296076D01*
X160103866Y-43213076D01*
X160103771Y-43212202D01*
X160095313Y-43131733D01*
X160094636Y-43125288D01*
X160093715Y-43122584D01*
X160093397Y-43119745D01*
X160064609Y-43037077D01*
X160064395Y-43036455D01*
X160052944Y-43002817D01*
X160036182Y-42953579D01*
X160034684Y-42951144D01*
X160033745Y-42948448D01*
X160030320Y-42942966D01*
X159987375Y-42874237D01*
X159986913Y-42873493D01*
X159944525Y-42804594D01*
X159941138Y-42799088D01*
X159939141Y-42797049D01*
X159937626Y-42794624D01*
X159875941Y-42732507D01*
X159875324Y-42731881D01*
X159818749Y-42674109D01*
X159814229Y-42669493D01*
X159811830Y-42667947D01*
X159809815Y-42665918D01*
X159735926Y-42619027D01*
X159735212Y-42618571D01*
X159661762Y-42571235D01*
X159659079Y-42570259D01*
X159656666Y-42568727D01*
X159589419Y-42544781D01*
X159531956Y-42503088D01*
X159506156Y-42436945D01*
X159520211Y-42367354D01*
X159569659Y-42316409D01*
X159623117Y-42300375D01*
X159774072Y-42290084D01*
X159774079Y-42290083D01*
X159777704Y-42289836D01*
X159781279Y-42289173D01*
X159781282Y-42289173D01*
X160115279Y-42227270D01*
X160115283Y-42227269D01*
X160118844Y-42226609D01*
X160450456Y-42124592D01*
X160768145Y-41985136D01*
X161012511Y-41842341D01*
X161064560Y-41811926D01*
X161064562Y-41811925D01*
X161067700Y-41810091D01*
X161070609Y-41807907D01*
X161342244Y-41603958D01*
X161342248Y-41603955D01*
X161345151Y-41601775D01*
X161596819Y-41362950D01*
X161669337Y-41276220D01*
X161728378Y-41236791D01*
X161799364Y-41235541D01*
X161859757Y-41272867D01*
X161890382Y-41336918D01*
X161892000Y-41357043D01*
X161892000Y-93941293D01*
X161871998Y-94009414D01*
X161818342Y-94055907D01*
X161748068Y-94066011D01*
X161683488Y-94036517D01*
X161673713Y-94027077D01*
X161485842Y-93824904D01*
X161222019Y-93599578D01*
X160934047Y-93406069D01*
X160625741Y-93246940D01*
X160301189Y-93124302D01*
X160297668Y-93123418D01*
X160297663Y-93123416D01*
X160107222Y-93075581D01*
X159964692Y-93039780D01*
X159921039Y-93034033D01*
X159624315Y-92994968D01*
X159624307Y-92994967D01*
X159620711Y-92994494D01*
X159476045Y-92992221D01*
X159277446Y-92989101D01*
X159277442Y-92989101D01*
X159273804Y-92989044D01*
X159270190Y-92989405D01*
X159270184Y-92989405D01*
X159052841Y-93011099D01*
X158928569Y-93023503D01*
X158589583Y-93097414D01*
X158586156Y-93098587D01*
X158586150Y-93098589D01*
X158264765Y-93208624D01*
X158261339Y-93209797D01*
X157948188Y-93359163D01*
X157654279Y-93543532D01*
X157651443Y-93545804D01*
X157651436Y-93545809D01*
X157430166Y-93723080D01*
X157383509Y-93760459D01*
X157263595Y-93881635D01*
X157189004Y-93957012D01*
X157139466Y-94007071D01*
X157137225Y-94009929D01*
X157057351Y-94111797D01*
X156925386Y-94280098D01*
X156744105Y-94575921D01*
X156742580Y-94579206D01*
X156742578Y-94579210D01*
X156669873Y-94735840D01*
X156598027Y-94890620D01*
X156541716Y-95060888D01*
X156509811Y-95157361D01*
X156489087Y-95220023D01*
X156418730Y-95559764D01*
X156387888Y-95905341D01*
X156387983Y-95908971D01*
X156387983Y-95908972D01*
X156389492Y-95966612D01*
X156396970Y-96252171D01*
X156445856Y-96595660D01*
X156533897Y-96931253D01*
X156659927Y-97254503D01*
X156822275Y-97561126D01*
X156824325Y-97564109D01*
X156824327Y-97564112D01*
X157016733Y-97844064D01*
X157016739Y-97844071D01*
X157018790Y-97847056D01*
X157021178Y-97849793D01*
X157224788Y-98083196D01*
X157246866Y-98108505D01*
X157249551Y-98110948D01*
X157427431Y-98272806D01*
X157464354Y-98333447D01*
X157462631Y-98404422D01*
X157422809Y-98463199D01*
X157357531Y-98491116D01*
X157342632Y-98492000D01*
X121949398Y-98492000D01*
X121881277Y-98471998D01*
X121834784Y-98418342D01*
X121824680Y-98348068D01*
X121838810Y-98305615D01*
X121881117Y-98228136D01*
X121960805Y-98082199D01*
X121977032Y-98049784D01*
X121984498Y-98033437D01*
X121998381Y-97999921D01*
X122048597Y-97865288D01*
X122091414Y-97750490D01*
X122091416Y-97750485D01*
X122091810Y-97749428D01*
X122103269Y-97714997D01*
X122108332Y-97697751D01*
X122117294Y-97662637D01*
X122174119Y-97401416D01*
X122180555Y-97365742D01*
X122183113Y-97347954D01*
X122186992Y-97311884D01*
X122206385Y-97040726D01*
X122207355Y-97022618D01*
X122207676Y-97013630D01*
X122208000Y-96995499D01*
X122208000Y-92454501D01*
X122207676Y-92436370D01*
X122207355Y-92427382D01*
X122206385Y-92409274D01*
X122186992Y-92138116D01*
X122183113Y-92102046D01*
X122180555Y-92084258D01*
X122176439Y-92061445D01*
X122174317Y-92049679D01*
X122174312Y-92049655D01*
X122174119Y-92048584D01*
X122173537Y-92045906D01*
X122117529Y-91788444D01*
X122117293Y-91787359D01*
X122108329Y-91752237D01*
X122103266Y-91734992D01*
X122091809Y-91700569D01*
X122086565Y-91686507D01*
X121998768Y-91451117D01*
X121998381Y-91450079D01*
X121984498Y-91416563D01*
X121977032Y-91400216D01*
X121960805Y-91367801D01*
X121960250Y-91366784D01*
X121833225Y-91134156D01*
X121833215Y-91134138D01*
X121832684Y-91133166D01*
X121814180Y-91101979D01*
X121804461Y-91086856D01*
X121783779Y-91057068D01*
X121701275Y-90946856D01*
X121624243Y-90843953D01*
X121624229Y-90843935D01*
X121623571Y-90843056D01*
X121600808Y-90814810D01*
X121589035Y-90801224D01*
X121564334Y-90774694D01*
X121375306Y-90585666D01*
X121348776Y-90560965D01*
X121335190Y-90549192D01*
X121306944Y-90526429D01*
X121306065Y-90525771D01*
X121306047Y-90525757D01*
X121202229Y-90448040D01*
X121092932Y-90366221D01*
X121063144Y-90345539D01*
X121060936Y-90344120D01*
X121048938Y-90336409D01*
X121048925Y-90336401D01*
X121048021Y-90335820D01*
X121016834Y-90317316D01*
X121015862Y-90316785D01*
X121015844Y-90316775D01*
X120783216Y-90189750D01*
X120783202Y-90189743D01*
X120782199Y-90189195D01*
X120749784Y-90172968D01*
X120733437Y-90165502D01*
X120732421Y-90165081D01*
X120732400Y-90165072D01*
X120700952Y-90152046D01*
X120700949Y-90152045D01*
X120699921Y-90151619D01*
X120698865Y-90151225D01*
X120450477Y-90058581D01*
X120450464Y-90058577D01*
X120449428Y-90058190D01*
X120448372Y-90057839D01*
X120448362Y-90057835D01*
X120416066Y-90047086D01*
X120416059Y-90047084D01*
X120415002Y-90046732D01*
X120413925Y-90046416D01*
X120413916Y-90046413D01*
X120398837Y-90041986D01*
X120398827Y-90041983D01*
X120397760Y-90041670D01*
X120396705Y-90041401D01*
X120396695Y-90041398D01*
X120363695Y-90032976D01*
X120362641Y-90032707D01*
X120202158Y-89997796D01*
X120102493Y-89976115D01*
X120102478Y-89976112D01*
X120101416Y-89975881D01*
X120100344Y-89975688D01*
X120100326Y-89975684D01*
X120066855Y-89969645D01*
X120066841Y-89969643D01*
X120065734Y-89969443D01*
X120047951Y-89966886D01*
X120033268Y-89965307D01*
X120026078Y-89964534D01*
X120023092Y-89963658D01*
X120010105Y-89962500D01*
X120009274Y-89962500D01*
X120000285Y-89962179D01*
X119995364Y-89961827D01*
X119790111Y-89947147D01*
X119740727Y-89943615D01*
X119740237Y-89943589D01*
X119740225Y-89943588D01*
X119733779Y-89943243D01*
X119722618Y-89942645D01*
X119713630Y-89942324D01*
X119713133Y-89942315D01*
X119713092Y-89942314D01*
X119701293Y-89942104D01*
X119695499Y-89942000D01*
X119506680Y-89942000D01*
X119425244Y-89948570D01*
X119422737Y-89948977D01*
X119422730Y-89948978D01*
X119399982Y-89952673D01*
X119385369Y-89955046D01*
X119382628Y-89955721D01*
X119382236Y-89955790D01*
X119380416Y-89956161D01*
X119380405Y-89956109D01*
X119365482Y-89958709D01*
X119336011Y-89961766D01*
X119335426Y-89961827D01*
X119322424Y-89962500D01*
X116377111Y-89962500D01*
X116364269Y-89961844D01*
X116364103Y-89961827D01*
X116346814Y-89960056D01*
X116346808Y-89960055D01*
X116346807Y-89960054D01*
X116335911Y-89958938D01*
X116318791Y-89955979D01*
X116317329Y-89955621D01*
X116314413Y-89954907D01*
X116311928Y-89954506D01*
X116311925Y-89954505D01*
X116301672Y-89952849D01*
X116274746Y-89948500D01*
X116234245Y-89945250D01*
X116196267Y-89942202D01*
X116196256Y-89942202D01*
X116193744Y-89942000D01*
X111804501Y-89942000D01*
X111798707Y-89942104D01*
X111786908Y-89942314D01*
X111786867Y-89942315D01*
X111786370Y-89942324D01*
X111777382Y-89942645D01*
X111766221Y-89943243D01*
X111759775Y-89943588D01*
X111759763Y-89943589D01*
X111759273Y-89943615D01*
X111709889Y-89947147D01*
X111500000Y-89962159D01*
X111500000Y-89950000D01*
X100634500Y-89950000D01*
X100566379Y-89929998D01*
X100519886Y-89876342D01*
X100508500Y-89824000D01*
X100508500Y-89401866D01*
X100501745Y-89339684D01*
X100450615Y-89203295D01*
X100363261Y-89086739D01*
X100246705Y-88999385D01*
X100110316Y-88948255D01*
X100048134Y-88941500D01*
X98284500Y-88941500D01*
X98216379Y-88921498D01*
X98169886Y-88867842D01*
X98162611Y-88834399D01*
X115689500Y-88834399D01*
X115695711Y-88837500D01*
X117269385Y-88837500D01*
X117284624Y-88833025D01*
X117285829Y-88831635D01*
X117287500Y-88823952D01*
X117287500Y-88819385D01*
X118412500Y-88819385D01*
X118416975Y-88834624D01*
X118418365Y-88835829D01*
X118426048Y-88837500D01*
X119997578Y-88837500D01*
X120011109Y-88833527D01*
X120012090Y-88826701D01*
X119993412Y-88770716D01*
X119987239Y-88757538D01*
X119901937Y-88619693D01*
X119892901Y-88608292D01*
X119778171Y-88493761D01*
X119766760Y-88484749D01*
X119628757Y-88399684D01*
X119615576Y-88393537D01*
X119461290Y-88342362D01*
X119447914Y-88339495D01*
X119353562Y-88329828D01*
X119347145Y-88329500D01*
X118430615Y-88329500D01*
X118415376Y-88333975D01*
X118414171Y-88335365D01*
X118412500Y-88343048D01*
X118412500Y-88819385D01*
X117287500Y-88819385D01*
X117287500Y-88347616D01*
X117283025Y-88332377D01*
X117281635Y-88331172D01*
X117273952Y-88329501D01*
X116352905Y-88329501D01*
X116346386Y-88329838D01*
X116250794Y-88339757D01*
X116237400Y-88342649D01*
X116083216Y-88394088D01*
X116070038Y-88400261D01*
X115932193Y-88485563D01*
X115920792Y-88494599D01*
X115806261Y-88609329D01*
X115797249Y-88620740D01*
X115712184Y-88758743D01*
X115706037Y-88771924D01*
X115689989Y-88820306D01*
X115689500Y-88834399D01*
X98162611Y-88834399D01*
X98158500Y-88815500D01*
X98158500Y-85922111D01*
X98178502Y-85853990D01*
X98232158Y-85807497D01*
X98302432Y-85797393D01*
X98369297Y-85828916D01*
X98603481Y-86042006D01*
X98885233Y-86244466D01*
X99188388Y-86413200D01*
X99508928Y-86545972D01*
X99512422Y-86546967D01*
X99512424Y-86546968D01*
X99839103Y-86640025D01*
X99839108Y-86640026D01*
X99842604Y-86641022D01*
X100039304Y-86673233D01*
X100181412Y-86696504D01*
X100181419Y-86696505D01*
X100184993Y-86697090D01*
X100358276Y-86705262D01*
X100527931Y-86713263D01*
X100527932Y-86713263D01*
X100531558Y-86713434D01*
X100540415Y-86712830D01*
X100874073Y-86690084D01*
X100874081Y-86690083D01*
X100877704Y-86689836D01*
X100881279Y-86689173D01*
X100881282Y-86689173D01*
X101215279Y-86627270D01*
X101215283Y-86627269D01*
X101218844Y-86626609D01*
X101550456Y-86524592D01*
X101868145Y-86385136D01*
X102112511Y-86242341D01*
X102164560Y-86211926D01*
X102164562Y-86211925D01*
X102167700Y-86210091D01*
X102170609Y-86207907D01*
X102442244Y-86003958D01*
X102442248Y-86003955D01*
X102445151Y-86001775D01*
X102696819Y-85762950D01*
X102919370Y-85496783D01*
X103109853Y-85206799D01*
X103187798Y-85051822D01*
X103264117Y-84900080D01*
X103264120Y-84900072D01*
X103265744Y-84896844D01*
X103384977Y-84571026D01*
X103385822Y-84567504D01*
X103385825Y-84567496D01*
X103465124Y-84237191D01*
X103465125Y-84237187D01*
X103465971Y-84233662D01*
X103507652Y-83889225D01*
X103513599Y-83700000D01*
X103493627Y-83353626D01*
X103433976Y-83011842D01*
X103397690Y-82889343D01*
X132086775Y-82889343D01*
X132103381Y-83058699D01*
X132157094Y-83220167D01*
X132160741Y-83226189D01*
X132160742Y-83226191D01*
X132173276Y-83246887D01*
X132191500Y-83312158D01*
X132191500Y-91867944D01*
X132190941Y-91879800D01*
X132189212Y-91887537D01*
X132189461Y-91895459D01*
X132191438Y-91958369D01*
X132191500Y-91962327D01*
X132191500Y-91991432D01*
X132192056Y-91995832D01*
X132192988Y-92007664D01*
X132194438Y-92053831D01*
X132198207Y-92066802D01*
X132200419Y-92074416D01*
X132204430Y-92093782D01*
X132207118Y-92115064D01*
X132210034Y-92122429D01*
X132210035Y-92122433D01*
X132224126Y-92158021D01*
X132227965Y-92169231D01*
X132240855Y-92213600D01*
X132251775Y-92232065D01*
X132260466Y-92249805D01*
X132268365Y-92269756D01*
X132295516Y-92307126D01*
X132302033Y-92317048D01*
X132321507Y-92349977D01*
X132321510Y-92349981D01*
X132325547Y-92356807D01*
X132340711Y-92371971D01*
X132353551Y-92387004D01*
X132366159Y-92404357D01*
X132396946Y-92429826D01*
X132401752Y-92433802D01*
X132410532Y-92441792D01*
X133044322Y-93075581D01*
X133676341Y-93707600D01*
X133684331Y-93716381D01*
X133684339Y-93716390D01*
X133688584Y-93723080D01*
X133715391Y-93748253D01*
X133740273Y-93771619D01*
X133743115Y-93774374D01*
X133763667Y-93794926D01*
X133766801Y-93797357D01*
X133767163Y-93797638D01*
X133776191Y-93805348D01*
X133809867Y-93836972D01*
X133816818Y-93840793D01*
X133816819Y-93840794D01*
X133828655Y-93847301D01*
X133845184Y-93858158D01*
X133855869Y-93866447D01*
X133855871Y-93866448D01*
X133862131Y-93871304D01*
X133904544Y-93889657D01*
X133915181Y-93894868D01*
X133955663Y-93917124D01*
X133963342Y-93919096D01*
X133963343Y-93919096D01*
X133976434Y-93922457D01*
X133995136Y-93928859D01*
X134014823Y-93937379D01*
X134022652Y-93938619D01*
X134060448Y-93944605D01*
X134072074Y-93947013D01*
X134109135Y-93956529D01*
X134109136Y-93956529D01*
X134116812Y-93958500D01*
X134138258Y-93958500D01*
X134157968Y-93960051D01*
X134179151Y-93963406D01*
X134225135Y-93959059D01*
X134236994Y-93958500D01*
X144547914Y-93958500D01*
X144559770Y-93959059D01*
X144559773Y-93959059D01*
X144567507Y-93960788D01*
X144638339Y-93958562D01*
X144642297Y-93958500D01*
X144671402Y-93958500D01*
X144675802Y-93957944D01*
X144687634Y-93957012D01*
X144733801Y-93955562D01*
X144754391Y-93949580D01*
X144773752Y-93945570D01*
X144781394Y-93944605D01*
X144787174Y-93943875D01*
X144787175Y-93943875D01*
X144795034Y-93942882D01*
X144802399Y-93939966D01*
X144802403Y-93939965D01*
X144837991Y-93925874D01*
X144849201Y-93922035D01*
X144893570Y-93909145D01*
X144912035Y-93898225D01*
X144929775Y-93889534D01*
X144949726Y-93881635D01*
X144987099Y-93854482D01*
X144997018Y-93847967D01*
X145029947Y-93828493D01*
X145029951Y-93828490D01*
X145036777Y-93824453D01*
X145051941Y-93809289D01*
X145066975Y-93796448D01*
X145077913Y-93788501D01*
X145084327Y-93783841D01*
X145113768Y-93748253D01*
X145121758Y-93739473D01*
X145849331Y-93011900D01*
X145911643Y-92977874D01*
X145982458Y-92982939D01*
X146007568Y-92997837D01*
X146008375Y-92996581D01*
X146015956Y-93001453D01*
X146022767Y-93007355D01*
X146154293Y-93067421D01*
X146178047Y-93074396D01*
X146218091Y-93086154D01*
X146218095Y-93086155D01*
X146222414Y-93087423D01*
X146226862Y-93088063D01*
X146226869Y-93088064D01*
X146361085Y-93107361D01*
X146361092Y-93107362D01*
X146365533Y-93108000D01*
X150391571Y-93108000D01*
X150395466Y-93107512D01*
X150395473Y-93107512D01*
X150512890Y-93092814D01*
X150512897Y-93092813D01*
X150516793Y-93092325D01*
X150536066Y-93087423D01*
X150573189Y-93077981D01*
X150573192Y-93077980D01*
X150576994Y-93077013D01*
X150694484Y-93030956D01*
X150810381Y-92944499D01*
X150860667Y-92894381D01*
X150947513Y-92778771D01*
X150998268Y-92643380D01*
X151013475Y-92574031D01*
X151015315Y-92548902D01*
X151017225Y-92522801D01*
X151042147Y-92456323D01*
X151099054Y-92413871D01*
X151142889Y-92406000D01*
X151708134Y-92406000D01*
X151723259Y-92404357D01*
X151762464Y-92400098D01*
X151769874Y-92399293D01*
X151770316Y-92399245D01*
X151770321Y-92399293D01*
X151819679Y-92399293D01*
X151819684Y-92399245D01*
X151827536Y-92400098D01*
X151866742Y-92404357D01*
X151881866Y-92406000D01*
X152978134Y-92406000D01*
X152993259Y-92404357D01*
X153032464Y-92400098D01*
X153039874Y-92399293D01*
X153040316Y-92399245D01*
X153040321Y-92399293D01*
X153089679Y-92399293D01*
X153089684Y-92399245D01*
X153097536Y-92400098D01*
X153136742Y-92404357D01*
X153151866Y-92406000D01*
X154248134Y-92406000D01*
X154310316Y-92399245D01*
X154446705Y-92348115D01*
X154563261Y-92260761D01*
X154593497Y-92220418D01*
X154624423Y-92179153D01*
X154681282Y-92136638D01*
X154752031Y-92131597D01*
X154779963Y-92137673D01*
X154779966Y-92137673D01*
X154788768Y-92139588D01*
X154900509Y-92131597D01*
X154928505Y-92129595D01*
X154928507Y-92129595D01*
X154932992Y-92129274D01*
X154964440Y-92122433D01*
X154997969Y-92115140D01*
X154997976Y-92115138D01*
X155002366Y-92114183D01*
X155006581Y-92112611D01*
X155006584Y-92112610D01*
X155129401Y-92066802D01*
X155129403Y-92066801D01*
X155137843Y-92063653D01*
X155150964Y-92053831D01*
X155249992Y-91979700D01*
X155249999Y-91979694D01*
X155253595Y-91977002D01*
X155303797Y-91926800D01*
X155390447Y-91811050D01*
X155460805Y-91682200D01*
X155477032Y-91649784D01*
X155484498Y-91633437D01*
X155498381Y-91599921D01*
X155530704Y-91513261D01*
X155591414Y-91350490D01*
X155591416Y-91350485D01*
X155591810Y-91349428D01*
X155603269Y-91314997D01*
X155608332Y-91297751D01*
X155617294Y-91262637D01*
X155674119Y-91001416D01*
X155680555Y-90965742D01*
X155683113Y-90947954D01*
X155686992Y-90911884D01*
X155706385Y-90640726D01*
X155707355Y-90622618D01*
X155707676Y-90613630D01*
X155708000Y-90595499D01*
X155708000Y-77764501D01*
X155707676Y-77746370D01*
X155707355Y-77737382D01*
X155706385Y-77719274D01*
X155686992Y-77448116D01*
X155683113Y-77412046D01*
X155680555Y-77394258D01*
X155674119Y-77358584D01*
X155617293Y-77097359D01*
X155608329Y-77062237D01*
X155603266Y-77044992D01*
X155591809Y-77010569D01*
X155572897Y-76959862D01*
X155498768Y-76761117D01*
X155498381Y-76760079D01*
X155493672Y-76748710D01*
X155484928Y-76727600D01*
X155484919Y-76727579D01*
X155484498Y-76726563D01*
X155477032Y-76710216D01*
X155460809Y-76677807D01*
X155460259Y-76676799D01*
X155460256Y-76676794D01*
X155446923Y-76652376D01*
X155446909Y-76652351D01*
X155437722Y-76635528D01*
X155437719Y-76635523D01*
X155425943Y-76613957D01*
X155390447Y-76548950D01*
X155387674Y-76544799D01*
X155355936Y-76497301D01*
X155340132Y-76473648D01*
X155326466Y-76456690D01*
X155313828Y-76441007D01*
X155313822Y-76441000D01*
X155312057Y-76438810D01*
X155310103Y-76436785D01*
X155310096Y-76436777D01*
X155263156Y-76388132D01*
X155249187Y-76373655D01*
X155240406Y-76368011D01*
X155131345Y-76297919D01*
X155127550Y-76295480D01*
X155062970Y-76265986D01*
X155058658Y-76264720D01*
X155058653Y-76264718D01*
X154932870Y-76227785D01*
X154932869Y-76227785D01*
X154924226Y-76225247D01*
X154779634Y-76225247D01*
X154719829Y-76233846D01*
X154649557Y-76223741D01*
X154601074Y-76184693D01*
X154577364Y-76153056D01*
X154563261Y-76134239D01*
X154446705Y-76046885D01*
X154310316Y-75995755D01*
X154248134Y-75989000D01*
X153151866Y-75989000D01*
X153148469Y-75989369D01*
X153097536Y-75994902D01*
X153089684Y-75995755D01*
X153089679Y-75995707D01*
X153040321Y-75995707D01*
X153040316Y-75995755D01*
X153039874Y-75995707D01*
X153032464Y-75994902D01*
X152981531Y-75989369D01*
X152978134Y-75989000D01*
X151881866Y-75989000D01*
X151878469Y-75989369D01*
X151827536Y-75994902D01*
X151819684Y-75995755D01*
X151819679Y-75995707D01*
X151770321Y-75995707D01*
X151770316Y-75995755D01*
X151769874Y-75995707D01*
X151762464Y-75994902D01*
X151711531Y-75989369D01*
X151708134Y-75989000D01*
X151238480Y-75989000D01*
X151170359Y-75968998D01*
X151123866Y-75915342D01*
X151112480Y-75863000D01*
X151112480Y-75831635D01*
X151104191Y-75773982D01*
X151103017Y-75765817D01*
X151103016Y-75765813D01*
X151102376Y-75761361D01*
X151091958Y-75725879D01*
X151064179Y-75631275D01*
X151061640Y-75622628D01*
X150983468Y-75500990D01*
X150968291Y-75483474D01*
X150939915Y-75450727D01*
X150936975Y-75447334D01*
X150827699Y-75352645D01*
X150696173Y-75292579D01*
X150672419Y-75285604D01*
X150632375Y-75273846D01*
X150632371Y-75273845D01*
X150628052Y-75272577D01*
X150623604Y-75271937D01*
X150623597Y-75271936D01*
X150489381Y-75252639D01*
X150489374Y-75252638D01*
X150484933Y-75252000D01*
X146265067Y-75252000D01*
X146261172Y-75252488D01*
X146261165Y-75252488D01*
X146143748Y-75267186D01*
X146143741Y-75267187D01*
X146139845Y-75267675D01*
X146136036Y-75268644D01*
X146136035Y-75268644D01*
X146083449Y-75282019D01*
X146083446Y-75282020D01*
X146079644Y-75282987D01*
X145962154Y-75329044D01*
X145846257Y-75415501D01*
X145795971Y-75465619D01*
X145709125Y-75581229D01*
X145705961Y-75589669D01*
X145705960Y-75589671D01*
X145702646Y-75598512D01*
X145658370Y-75716620D01*
X145643163Y-75785969D01*
X145636886Y-75871737D01*
X145636852Y-75872197D01*
X145611931Y-75938676D01*
X145555025Y-75981129D01*
X145511188Y-75989000D01*
X145041866Y-75989000D01*
X145038469Y-75989369D01*
X144987536Y-75994902D01*
X144979684Y-75995755D01*
X144979679Y-75995707D01*
X144930321Y-75995707D01*
X144930316Y-75995755D01*
X144929874Y-75995707D01*
X144922464Y-75994902D01*
X144871531Y-75989369D01*
X144868134Y-75989000D01*
X143869286Y-75989000D01*
X143801165Y-75968998D01*
X143754672Y-75915342D01*
X143750295Y-75904438D01*
X143747240Y-75895666D01*
X143738368Y-75870189D01*
X143648192Y-75725879D01*
X143638998Y-75716620D01*
X143572788Y-75649946D01*
X143528286Y-75605132D01*
X143512039Y-75594821D01*
X143447332Y-75553757D01*
X143384608Y-75513951D01*
X143224300Y-75456868D01*
X143055329Y-75436720D01*
X143048326Y-75437456D01*
X143048325Y-75437456D01*
X142893101Y-75453770D01*
X142893097Y-75453771D01*
X142886093Y-75454507D01*
X142879422Y-75456778D01*
X142731673Y-75507075D01*
X142731670Y-75507076D01*
X142725003Y-75509346D01*
X142719005Y-75513036D01*
X142719003Y-75513037D01*
X142586065Y-75594821D01*
X142586063Y-75594823D01*
X142580066Y-75598512D01*
X142502993Y-75673988D01*
X142440331Y-75707358D01*
X142369572Y-75701553D01*
X142325431Y-75672748D01*
X142302788Y-75649946D01*
X142258286Y-75605132D01*
X142242039Y-75594821D01*
X142177332Y-75553757D01*
X142114608Y-75513951D01*
X141954300Y-75456868D01*
X141785329Y-75436720D01*
X141778326Y-75437456D01*
X141778325Y-75437456D01*
X141623101Y-75453770D01*
X141623097Y-75453771D01*
X141616093Y-75454507D01*
X141609422Y-75456778D01*
X141461673Y-75507075D01*
X141461670Y-75507076D01*
X141455003Y-75509346D01*
X141449005Y-75513036D01*
X141449003Y-75513037D01*
X141316065Y-75594821D01*
X141316063Y-75594823D01*
X141310066Y-75598512D01*
X141251180Y-75656178D01*
X141226980Y-75679877D01*
X141188486Y-75717573D01*
X141184675Y-75723487D01*
X141184673Y-75723489D01*
X141147940Y-75780488D01*
X141096304Y-75860610D01*
X141080352Y-75904438D01*
X141079749Y-75906095D01*
X141037654Y-75963266D01*
X140971333Y-75988604D01*
X140961348Y-75989000D01*
X140112224Y-75989000D01*
X140044103Y-75968998D01*
X139997610Y-75915342D01*
X139987506Y-75845068D01*
X140017000Y-75780488D01*
X140023051Y-75773982D01*
X140093739Y-75703171D01*
X140102751Y-75691760D01*
X140187816Y-75553757D01*
X140193963Y-75540576D01*
X140245138Y-75386290D01*
X140248005Y-75372914D01*
X140257672Y-75278562D01*
X140258000Y-75272146D01*
X140258000Y-75268115D01*
X140253525Y-75252876D01*
X140252135Y-75251671D01*
X140244452Y-75250000D01*
X139768115Y-75250000D01*
X139752876Y-75254475D01*
X139751671Y-75255865D01*
X139750000Y-75263548D01*
X139750000Y-75922576D01*
X139750995Y-75925965D01*
X139753218Y-75988254D01*
X139752127Y-75993268D01*
X139747330Y-76002851D01*
X139742757Y-76023874D01*
X139708733Y-76086187D01*
X139695204Y-76097917D01*
X139646739Y-76134239D01*
X139559385Y-76250795D01*
X139508255Y-76387184D01*
X139501500Y-76449366D01*
X139501500Y-77771500D01*
X139481498Y-77839621D01*
X139427842Y-77886114D01*
X139375500Y-77897500D01*
X139104500Y-77897500D01*
X139036379Y-77877498D01*
X138989886Y-77823842D01*
X138978500Y-77771500D01*
X138978500Y-76449366D01*
X138971745Y-76387184D01*
X138920615Y-76250795D01*
X138833261Y-76134239D01*
X138790433Y-76102141D01*
X138747920Y-76045284D01*
X138740000Y-76001317D01*
X138740000Y-75989501D01*
X138743167Y-75989501D01*
X138743169Y-75947399D01*
X138750000Y-75930011D01*
X138750000Y-74231885D01*
X139750000Y-74231885D01*
X139754475Y-74247124D01*
X139755865Y-74248329D01*
X139763548Y-74250000D01*
X140239884Y-74250000D01*
X140255123Y-74245525D01*
X140256328Y-74244135D01*
X140257999Y-74236452D01*
X140257999Y-74227905D01*
X140257662Y-74221386D01*
X140247743Y-74125794D01*
X140244851Y-74112400D01*
X140193412Y-73958216D01*
X140187239Y-73945038D01*
X140101937Y-73807193D01*
X140092901Y-73795792D01*
X139978171Y-73681261D01*
X139966760Y-73672249D01*
X139828757Y-73587184D01*
X139815576Y-73581037D01*
X139767194Y-73564989D01*
X139753101Y-73564500D01*
X139750000Y-73570711D01*
X139750000Y-74231885D01*
X138750000Y-74231885D01*
X138750000Y-73577422D01*
X138746027Y-73563891D01*
X138739201Y-73562910D01*
X138683216Y-73581588D01*
X138670038Y-73587761D01*
X138532193Y-73673063D01*
X138520792Y-73682099D01*
X138406262Y-73796828D01*
X138399206Y-73805762D01*
X138341288Y-73846823D01*
X138270365Y-73850053D01*
X138208954Y-73814426D01*
X138202154Y-73806593D01*
X138198478Y-73800652D01*
X138073303Y-73675695D01*
X137958247Y-73604773D01*
X137928968Y-73586725D01*
X137928966Y-73586724D01*
X137922738Y-73582885D01*
X137762254Y-73529655D01*
X137761389Y-73529368D01*
X137761387Y-73529368D01*
X137754861Y-73527203D01*
X137748025Y-73526503D01*
X137748022Y-73526502D01*
X137704969Y-73522091D01*
X137650400Y-73516500D01*
X137049600Y-73516500D01*
X137046354Y-73516837D01*
X137046350Y-73516837D01*
X136950692Y-73526762D01*
X136950688Y-73526763D01*
X136943834Y-73527474D01*
X136937298Y-73529655D01*
X136937296Y-73529655D01*
X136837620Y-73562910D01*
X136776054Y-73583450D01*
X136625652Y-73676522D01*
X136500695Y-73801697D01*
X136496855Y-73807927D01*
X136496854Y-73807928D01*
X136451432Y-73881616D01*
X136398660Y-73929109D01*
X136344172Y-73941500D01*
X136009165Y-73941500D01*
X136007846Y-73941493D01*
X135917779Y-73940550D01*
X135910901Y-73942037D01*
X135910891Y-73942038D01*
X135875413Y-73949709D01*
X135862838Y-73951769D01*
X135819745Y-73956603D01*
X135788074Y-73967632D01*
X135773265Y-73971795D01*
X135747371Y-73977393D01*
X135747368Y-73977394D01*
X135740490Y-73978881D01*
X135701187Y-73997208D01*
X135689411Y-74001990D01*
X135648448Y-74016255D01*
X135642473Y-74019989D01*
X135642470Y-74019990D01*
X135620005Y-74034027D01*
X135606488Y-74041366D01*
X135582481Y-74052561D01*
X135582477Y-74052563D01*
X135576098Y-74055538D01*
X135548184Y-74077190D01*
X135541844Y-74082108D01*
X135531395Y-74089397D01*
X135494624Y-74112374D01*
X135489625Y-74117339D01*
X135489623Y-74117340D01*
X135465815Y-74140983D01*
X135465192Y-74141566D01*
X135464530Y-74142079D01*
X135438680Y-74167929D01*
X135384849Y-74221386D01*
X135365918Y-74240185D01*
X135365258Y-74241225D01*
X135364157Y-74242452D01*
X134534796Y-75071812D01*
X134533859Y-75072739D01*
X134469493Y-75135771D01*
X134446002Y-75172221D01*
X134438583Y-75182546D01*
X134411524Y-75216443D01*
X134408459Y-75222784D01*
X134408458Y-75222785D01*
X134396928Y-75246637D01*
X134389399Y-75260054D01*
X134371235Y-75288238D01*
X134368827Y-75294855D01*
X134368824Y-75294860D01*
X134356408Y-75328973D01*
X134351447Y-75340716D01*
X134335646Y-75373403D01*
X134335644Y-75373408D01*
X134332579Y-75379749D01*
X134330995Y-75386611D01*
X134329610Y-75392607D01*
X134294795Y-75454481D01*
X134259192Y-75478868D01*
X134250220Y-75482966D01*
X134217803Y-75499194D01*
X134216800Y-75499742D01*
X134216786Y-75499749D01*
X134174843Y-75522652D01*
X133984156Y-75626775D01*
X133984138Y-75626785D01*
X133983166Y-75627316D01*
X133951979Y-75645820D01*
X133951075Y-75646401D01*
X133951062Y-75646409D01*
X133945559Y-75649946D01*
X133936856Y-75655539D01*
X133935936Y-75656178D01*
X133910286Y-75673987D01*
X133907068Y-75676221D01*
X133799100Y-75757045D01*
X133693953Y-75835757D01*
X133693935Y-75835771D01*
X133693056Y-75836429D01*
X133664810Y-75859192D01*
X133651224Y-75870965D01*
X133624694Y-75895666D01*
X133435666Y-76084694D01*
X133410965Y-76111224D01*
X133399192Y-76124810D01*
X133398486Y-76125686D01*
X133398476Y-76125698D01*
X133377134Y-76152181D01*
X133376429Y-76153056D01*
X133375771Y-76153935D01*
X133375757Y-76153953D01*
X133322387Y-76225247D01*
X133216221Y-76367068D01*
X133215573Y-76368001D01*
X133215566Y-76368011D01*
X133205280Y-76382826D01*
X133195539Y-76396856D01*
X133194942Y-76397785D01*
X133188384Y-76407990D01*
X133185820Y-76411979D01*
X133167315Y-76443167D01*
X133166768Y-76444168D01*
X133166765Y-76444174D01*
X133128576Y-76514112D01*
X133078349Y-76606097D01*
X133053086Y-76652362D01*
X133039199Y-76677793D01*
X133022968Y-76710216D01*
X133015502Y-76726563D01*
X133015081Y-76727579D01*
X133015072Y-76727600D01*
X133006328Y-76748710D01*
X133001619Y-76760079D01*
X133001232Y-76761117D01*
X132927104Y-76959862D01*
X132908191Y-77010569D01*
X132896734Y-77044992D01*
X132891671Y-77062237D01*
X132882707Y-77097359D01*
X132825881Y-77358584D01*
X132819445Y-77394258D01*
X132816887Y-77412046D01*
X132813008Y-77448116D01*
X132793615Y-77719274D01*
X132792645Y-77737382D01*
X132792324Y-77746370D01*
X132792000Y-77764501D01*
X132792000Y-81522402D01*
X132792488Y-81526299D01*
X132792488Y-81526302D01*
X132796515Y-81558467D01*
X132807676Y-81647626D01*
X132822988Y-81707826D01*
X132824420Y-81711478D01*
X132863171Y-81810331D01*
X132869044Y-81825314D01*
X132951711Y-81936130D01*
X132976410Y-82002692D01*
X132961202Y-82072041D01*
X132910916Y-82122159D01*
X132855264Y-82136106D01*
X132855329Y-82136720D01*
X132850997Y-82137175D01*
X132850995Y-82137176D01*
X132848326Y-82137456D01*
X132848322Y-82137456D01*
X132693101Y-82153770D01*
X132693097Y-82153771D01*
X132686093Y-82154507D01*
X132679422Y-82156778D01*
X132531673Y-82207075D01*
X132531670Y-82207076D01*
X132525003Y-82209346D01*
X132519005Y-82213036D01*
X132519003Y-82213037D01*
X132386065Y-82294821D01*
X132386063Y-82294823D01*
X132380066Y-82298512D01*
X132258486Y-82417573D01*
X132166304Y-82560610D01*
X132108103Y-82720516D01*
X132086775Y-82889343D01*
X103397690Y-82889343D01*
X103335437Y-82679180D01*
X103284863Y-82560610D01*
X103200740Y-82363386D01*
X103200738Y-82363383D01*
X103199316Y-82360048D01*
X103162112Y-82294821D01*
X103029208Y-82061816D01*
X103027417Y-82058676D01*
X102822018Y-81779060D01*
X102585842Y-81524904D01*
X102322019Y-81299578D01*
X102034047Y-81106069D01*
X101725741Y-80946940D01*
X101401189Y-80824302D01*
X101397668Y-80823418D01*
X101397663Y-80823416D01*
X101236378Y-80782904D01*
X101064692Y-80739780D01*
X101042476Y-80736855D01*
X100724315Y-80694968D01*
X100724307Y-80694967D01*
X100720711Y-80694494D01*
X100576045Y-80692221D01*
X100377446Y-80689101D01*
X100377442Y-80689101D01*
X100373804Y-80689044D01*
X100370190Y-80689405D01*
X100370184Y-80689405D01*
X100126843Y-80713694D01*
X100028569Y-80723503D01*
X99689583Y-80797414D01*
X99686156Y-80798587D01*
X99686150Y-80798589D01*
X99607296Y-80825587D01*
X99361339Y-80909797D01*
X99048188Y-81059163D01*
X98754279Y-81243532D01*
X98751443Y-81245804D01*
X98751436Y-81245809D01*
X98507384Y-81441332D01*
X98483509Y-81460459D01*
X98480958Y-81463037D01*
X98374061Y-81571059D01*
X98311927Y-81605410D01*
X98241086Y-81600716D01*
X98184028Y-81558467D01*
X98158870Y-81492078D01*
X98158500Y-81482431D01*
X98158500Y-79633913D01*
X98178502Y-79565792D01*
X98232158Y-79519299D01*
X98302432Y-79509195D01*
X98317111Y-79512206D01*
X98473309Y-79554059D01*
X98484104Y-79555962D01*
X98694522Y-79574372D01*
X98705483Y-79574371D01*
X98863306Y-79560563D01*
X98874314Y-79556257D01*
X98868904Y-79546534D01*
X98700000Y-79377631D01*
X98195405Y-78873036D01*
X98161380Y-78810724D01*
X98158500Y-78783940D01*
X98158500Y-78301132D01*
X99782828Y-78301132D01*
X99782959Y-78302965D01*
X99787210Y-78309580D01*
X99946172Y-78468542D01*
X99956547Y-78474208D01*
X99960519Y-78463813D01*
X99974371Y-78305486D01*
X99974371Y-78294514D01*
X99960563Y-78136694D01*
X99956257Y-78125686D01*
X99946534Y-78131096D01*
X99790442Y-78287188D01*
X99782828Y-78301132D01*
X98158500Y-78301132D01*
X98158500Y-77816059D01*
X98178502Y-77747938D01*
X98195405Y-77726964D01*
X98700000Y-77222369D01*
X98877001Y-77045369D01*
X98933484Y-77012757D01*
X99130889Y-76959862D01*
X99136196Y-76958440D01*
X99183292Y-76936479D01*
X99332690Y-76866814D01*
X99332695Y-76866811D01*
X99337677Y-76864488D01*
X99486788Y-76760079D01*
X99515270Y-76740136D01*
X99515273Y-76740134D01*
X99519781Y-76736977D01*
X99676977Y-76579781D01*
X99689082Y-76562494D01*
X99801331Y-76402185D01*
X99801332Y-76402183D01*
X99804488Y-76397676D01*
X99806811Y-76392694D01*
X99806814Y-76392689D01*
X99896117Y-76201178D01*
X99896118Y-76201177D01*
X99898440Y-76196196D01*
X99911113Y-76148902D01*
X99938877Y-76045284D01*
X99955978Y-75981463D01*
X99972935Y-75787634D01*
X99998798Y-75721517D01*
X100056302Y-75679877D01*
X100127189Y-75675936D01*
X100187551Y-75709521D01*
X101084126Y-76606097D01*
X101958557Y-77480528D01*
X101964411Y-77486793D01*
X101995949Y-77522945D01*
X102002439Y-77530385D01*
X102054729Y-77567136D01*
X102059971Y-77571028D01*
X102110282Y-77610476D01*
X102117201Y-77613600D01*
X102119493Y-77614988D01*
X102134165Y-77623357D01*
X102136525Y-77624622D01*
X102142739Y-77628990D01*
X102149818Y-77631750D01*
X102149820Y-77631751D01*
X102202275Y-77652202D01*
X102208344Y-77654753D01*
X102266573Y-77681045D01*
X102274046Y-77682430D01*
X102276612Y-77683234D01*
X102292835Y-77687855D01*
X102295427Y-77688520D01*
X102302509Y-77691282D01*
X102310044Y-77692274D01*
X102365861Y-77699622D01*
X102372377Y-77700654D01*
X102396538Y-77705132D01*
X102435186Y-77712295D01*
X102442766Y-77711858D01*
X102442767Y-77711858D01*
X102497380Y-77708709D01*
X102504633Y-77708500D01*
X111106287Y-77708500D01*
X111150203Y-77716401D01*
X111207506Y-77737712D01*
X111264379Y-77780203D01*
X111289253Y-77846699D01*
X111288590Y-77871593D01*
X111286286Y-77889832D01*
X111302892Y-78059188D01*
X111305116Y-78065873D01*
X111305116Y-78065874D01*
X111310924Y-78083334D01*
X111356605Y-78220656D01*
X111360252Y-78226678D01*
X111360253Y-78226680D01*
X111415175Y-78317366D01*
X111444757Y-78366212D01*
X111562966Y-78488621D01*
X111705357Y-78581799D01*
X111711961Y-78584255D01*
X111711963Y-78584256D01*
X111748355Y-78597790D01*
X111864852Y-78641115D01*
X112033526Y-78663621D01*
X112040537Y-78662983D01*
X112040541Y-78662983D01*
X112195973Y-78648837D01*
X112202994Y-78648198D01*
X112209696Y-78646020D01*
X112209698Y-78646020D01*
X112358134Y-78597790D01*
X112358137Y-78597789D01*
X112364833Y-78595613D01*
X112511001Y-78508479D01*
X112516095Y-78503628D01*
X112516099Y-78503625D01*
X112583344Y-78439588D01*
X112634232Y-78391128D01*
X112728402Y-78249391D01*
X112788830Y-78090314D01*
X112812512Y-77921802D01*
X112812810Y-77900489D01*
X112793842Y-77731381D01*
X112789817Y-77719821D01*
X112751738Y-77610476D01*
X112737879Y-77570678D01*
X112734147Y-77564706D01*
X112734142Y-77564695D01*
X112727157Y-77553517D01*
X112708011Y-77486748D01*
X112708011Y-66779152D01*
X122236594Y-66779152D01*
X122237340Y-66787043D01*
X122240941Y-66825138D01*
X122241500Y-66836996D01*
X122241500Y-76366837D01*
X122240941Y-76378693D01*
X122239212Y-76386430D01*
X122239461Y-76394352D01*
X122241438Y-76457262D01*
X122241500Y-76461220D01*
X122241500Y-76490325D01*
X122242056Y-76494725D01*
X122242988Y-76506557D01*
X122244438Y-76552724D01*
X122246650Y-76560337D01*
X122246650Y-76560338D01*
X122250419Y-76573309D01*
X122254430Y-76592675D01*
X122257118Y-76613957D01*
X122260034Y-76621322D01*
X122260035Y-76621326D01*
X122274126Y-76656914D01*
X122277965Y-76668124D01*
X122290855Y-76712493D01*
X122301775Y-76730958D01*
X122310466Y-76748698D01*
X122318365Y-76768649D01*
X122345516Y-76806019D01*
X122352033Y-76815941D01*
X122371507Y-76848870D01*
X122371510Y-76848874D01*
X122375547Y-76855700D01*
X122390711Y-76870864D01*
X122403551Y-76885897D01*
X122416159Y-76903250D01*
X122451752Y-76932695D01*
X122460532Y-76940685D01*
X122977452Y-77457605D01*
X122985442Y-77466385D01*
X122989691Y-77473080D01*
X122995470Y-77478507D01*
X123000523Y-77484615D01*
X122998969Y-77485900D01*
X123029550Y-77537953D01*
X123026710Y-77608892D01*
X123010546Y-77640854D01*
X122995512Y-77662324D01*
X122993189Y-77667306D01*
X122993186Y-77667311D01*
X122912837Y-77839621D01*
X122901560Y-77863804D01*
X122900138Y-77869112D01*
X122900137Y-77869114D01*
X122897891Y-77877498D01*
X122844022Y-78078537D01*
X122824647Y-78300000D01*
X122844022Y-78521463D01*
X122901560Y-78736196D01*
X122903882Y-78741177D01*
X122903883Y-78741178D01*
X122993186Y-78932689D01*
X122993189Y-78932694D01*
X122995512Y-78937676D01*
X122998668Y-78942183D01*
X122998669Y-78942185D01*
X123119861Y-79115265D01*
X123123023Y-79119781D01*
X123280219Y-79276977D01*
X123284727Y-79280134D01*
X123284730Y-79280136D01*
X123360495Y-79333187D01*
X123462323Y-79404488D01*
X123467305Y-79406811D01*
X123467310Y-79406814D01*
X123658822Y-79496117D01*
X123663804Y-79498440D01*
X123669112Y-79499862D01*
X123669114Y-79499863D01*
X123703942Y-79509195D01*
X123878537Y-79555978D01*
X124100000Y-79575353D01*
X124321463Y-79555978D01*
X124496058Y-79509195D01*
X124530886Y-79499863D01*
X124530888Y-79499862D01*
X124536196Y-79498440D01*
X124541178Y-79496117D01*
X124732690Y-79406814D01*
X124732695Y-79406811D01*
X124737677Y-79404488D01*
X124839505Y-79333187D01*
X124915270Y-79280136D01*
X124915273Y-79280134D01*
X124919781Y-79276977D01*
X125076977Y-79119781D01*
X125080136Y-79115270D01*
X125080140Y-79115265D01*
X125176772Y-78977259D01*
X125232229Y-78932930D01*
X125302848Y-78925621D01*
X125348977Y-78944096D01*
X125405846Y-78981310D01*
X125412450Y-78983766D01*
X125412452Y-78983767D01*
X125448844Y-78997301D01*
X125565341Y-79040626D01*
X125734015Y-79063132D01*
X125741026Y-79062494D01*
X125741030Y-79062494D01*
X125896462Y-79048348D01*
X125903483Y-79047709D01*
X125910185Y-79045531D01*
X125910187Y-79045531D01*
X126058623Y-78997301D01*
X126058626Y-78997300D01*
X126065322Y-78995124D01*
X126211490Y-78907990D01*
X126216584Y-78903139D01*
X126216588Y-78903136D01*
X126283833Y-78839099D01*
X126334721Y-78790639D01*
X126428891Y-78648902D01*
X126489319Y-78489825D01*
X126513001Y-78321313D01*
X126513165Y-78309580D01*
X126513244Y-78303961D01*
X126513244Y-78303955D01*
X126513299Y-78300000D01*
X126494331Y-78130892D01*
X126477770Y-78083334D01*
X126440686Y-77976846D01*
X126438368Y-77970189D01*
X126348192Y-77825879D01*
X126338441Y-77816059D01*
X126249966Y-77726964D01*
X126228286Y-77705132D01*
X126193781Y-77683234D01*
X126168690Y-77667311D01*
X126084608Y-77613951D01*
X125972523Y-77574040D01*
X125925696Y-77544436D01*
X125103990Y-76722730D01*
X125069964Y-76660418D01*
X125075029Y-76589603D01*
X125089870Y-76561368D01*
X125157565Y-76464689D01*
X125213022Y-76420361D01*
X125283642Y-76413052D01*
X125329771Y-76431528D01*
X125344257Y-76441007D01*
X125405846Y-76481310D01*
X125412450Y-76483766D01*
X125412452Y-76483767D01*
X125473749Y-76506563D01*
X125565341Y-76540626D01*
X125734015Y-76563132D01*
X125741026Y-76562494D01*
X125741030Y-76562494D01*
X125896462Y-76548348D01*
X125903483Y-76547709D01*
X125910185Y-76545531D01*
X125910187Y-76545531D01*
X126058623Y-76497301D01*
X126058626Y-76497300D01*
X126065322Y-76495124D01*
X126211490Y-76407990D01*
X126216584Y-76403139D01*
X126216588Y-76403136D01*
X126327076Y-76297919D01*
X126334721Y-76290639D01*
X126347439Y-76271498D01*
X126424990Y-76154773D01*
X126428891Y-76148902D01*
X126489319Y-75989825D01*
X126513001Y-75821313D01*
X126513299Y-75800000D01*
X126494331Y-75630892D01*
X126438368Y-75470189D01*
X126434636Y-75464217D01*
X126434631Y-75464206D01*
X126427646Y-75453028D01*
X126408500Y-75386259D01*
X126408500Y-74952056D01*
X126409059Y-74940200D01*
X126409059Y-74940197D01*
X126410788Y-74932463D01*
X126408562Y-74861631D01*
X126408500Y-74857673D01*
X126408500Y-74828568D01*
X126407944Y-74824168D01*
X126407012Y-74812330D01*
X126405811Y-74774094D01*
X126405562Y-74766169D01*
X126399580Y-74745579D01*
X126395570Y-74726216D01*
X126393875Y-74712796D01*
X126393875Y-74712795D01*
X126392882Y-74704936D01*
X126389966Y-74697571D01*
X126389965Y-74697567D01*
X126375874Y-74661979D01*
X126372035Y-74650769D01*
X126359145Y-74606400D01*
X126348229Y-74587943D01*
X126339534Y-74570193D01*
X126331635Y-74550244D01*
X126326976Y-74543831D01*
X126304477Y-74512864D01*
X126297960Y-74502943D01*
X126274452Y-74463193D01*
X126259291Y-74448032D01*
X126246449Y-74432997D01*
X126233841Y-74415643D01*
X126227737Y-74410593D01*
X126227735Y-74410591D01*
X126198243Y-74386193D01*
X126189465Y-74378204D01*
X125977538Y-74166277D01*
X125943512Y-74103965D01*
X125948577Y-74033150D01*
X125991124Y-73976314D01*
X126027696Y-73957349D01*
X126044868Y-73951770D01*
X126058623Y-73947301D01*
X126058626Y-73947300D01*
X126065322Y-73945124D01*
X126211490Y-73857990D01*
X126216584Y-73853139D01*
X126216588Y-73853136D01*
X126283833Y-73789099D01*
X126334721Y-73740639D01*
X126347439Y-73721498D01*
X126424990Y-73604773D01*
X126428891Y-73598902D01*
X126489319Y-73439825D01*
X126513001Y-73271313D01*
X126513299Y-73250000D01*
X126494331Y-73080892D01*
X126438368Y-72920189D01*
X126434636Y-72914217D01*
X126434631Y-72914206D01*
X126427646Y-72903028D01*
X126408500Y-72836259D01*
X126408500Y-72412056D01*
X126409059Y-72400200D01*
X126409059Y-72400197D01*
X126410788Y-72392463D01*
X126408562Y-72321631D01*
X126408500Y-72317673D01*
X126408500Y-72288568D01*
X126407944Y-72284168D01*
X126407012Y-72272330D01*
X126405811Y-72234094D01*
X126405562Y-72226169D01*
X126399580Y-72205579D01*
X126395570Y-72186216D01*
X126393875Y-72172796D01*
X126393875Y-72172795D01*
X126392882Y-72164936D01*
X126389966Y-72157571D01*
X126389965Y-72157567D01*
X126375874Y-72121979D01*
X126372035Y-72110769D01*
X126359145Y-72066400D01*
X126348229Y-72047943D01*
X126339534Y-72030193D01*
X126331635Y-72010244D01*
X126326976Y-72003831D01*
X126304477Y-71972864D01*
X126297960Y-71962943D01*
X126274452Y-71923193D01*
X126259291Y-71908032D01*
X126246449Y-71892997D01*
X126233841Y-71875643D01*
X126227737Y-71870593D01*
X126227735Y-71870591D01*
X126198237Y-71846188D01*
X126189459Y-71838199D01*
X125969990Y-71618730D01*
X125935964Y-71556418D01*
X125941029Y-71485603D01*
X125983576Y-71428767D01*
X126020148Y-71409802D01*
X126058625Y-71397300D01*
X126065322Y-71395124D01*
X126211490Y-71307990D01*
X126216584Y-71303139D01*
X126216588Y-71303136D01*
X126317773Y-71206778D01*
X126334721Y-71190639D01*
X126428891Y-71048902D01*
X126489319Y-70889825D01*
X126513001Y-70721313D01*
X126513299Y-70700000D01*
X126494331Y-70530892D01*
X126438368Y-70370189D01*
X126434636Y-70364217D01*
X126434631Y-70364206D01*
X126427646Y-70353028D01*
X126408500Y-70286259D01*
X126408500Y-69872056D01*
X126409059Y-69860200D01*
X126409059Y-69860197D01*
X126410788Y-69852463D01*
X126408562Y-69781631D01*
X126408500Y-69777673D01*
X126408500Y-69748568D01*
X126407944Y-69744168D01*
X126407012Y-69732330D01*
X126405811Y-69694094D01*
X126405562Y-69686169D01*
X126399580Y-69665579D01*
X126395570Y-69646216D01*
X126393875Y-69632796D01*
X126393875Y-69632795D01*
X126392882Y-69624936D01*
X126389966Y-69617571D01*
X126389965Y-69617567D01*
X126375874Y-69581979D01*
X126372035Y-69570769D01*
X126359145Y-69526400D01*
X126348229Y-69507943D01*
X126339534Y-69490193D01*
X126331635Y-69470244D01*
X126326976Y-69463831D01*
X126304477Y-69432864D01*
X126297960Y-69422943D01*
X126274452Y-69383193D01*
X126259291Y-69368032D01*
X126246449Y-69352997D01*
X126233841Y-69335643D01*
X126227737Y-69330593D01*
X126227735Y-69330591D01*
X126198243Y-69306193D01*
X126189465Y-69298205D01*
X125385597Y-68494338D01*
X125351572Y-68432025D01*
X125352985Y-68372633D01*
X125354553Y-68366781D01*
X125355978Y-68361463D01*
X125375353Y-68140000D01*
X125355978Y-67918537D01*
X125298440Y-67703804D01*
X125292771Y-67691646D01*
X125206814Y-67507311D01*
X125206811Y-67507306D01*
X125204488Y-67502324D01*
X125194892Y-67488619D01*
X125080136Y-67324730D01*
X125080134Y-67324727D01*
X125076977Y-67320219D01*
X124919781Y-67163023D01*
X124915273Y-67159866D01*
X124915270Y-67159864D01*
X124766351Y-67055590D01*
X124737677Y-67035512D01*
X124732695Y-67033189D01*
X124732690Y-67033186D01*
X124627627Y-66984195D01*
X124574342Y-66937278D01*
X124554881Y-66869001D01*
X124575423Y-66801041D01*
X124627627Y-66755805D01*
X124732690Y-66706814D01*
X124732695Y-66706811D01*
X124737677Y-66704488D01*
X124906842Y-66586037D01*
X124915270Y-66580136D01*
X124915273Y-66580134D01*
X124919781Y-66576977D01*
X125076977Y-66419781D01*
X125101795Y-66384338D01*
X125201331Y-66242185D01*
X125201332Y-66242183D01*
X125204488Y-66237676D01*
X125206811Y-66232694D01*
X125206814Y-66232689D01*
X125296117Y-66041178D01*
X125296118Y-66041177D01*
X125298440Y-66036196D01*
X125355978Y-65821463D01*
X125375353Y-65600000D01*
X125355978Y-65378537D01*
X125307919Y-65199178D01*
X125299863Y-65169114D01*
X125299862Y-65169112D01*
X125298440Y-65163804D01*
X125281890Y-65128313D01*
X125206814Y-64967311D01*
X125206811Y-64967306D01*
X125204488Y-64962324D01*
X125188772Y-64939879D01*
X125080136Y-64784730D01*
X125080134Y-64784727D01*
X125076977Y-64780219D01*
X124919781Y-64623023D01*
X124915273Y-64619866D01*
X124915270Y-64619864D01*
X124766351Y-64515590D01*
X124737677Y-64495512D01*
X124732695Y-64493189D01*
X124732690Y-64493186D01*
X124627627Y-64444195D01*
X124574342Y-64397278D01*
X124554881Y-64329001D01*
X124575423Y-64261041D01*
X124627627Y-64215805D01*
X124632605Y-64213484D01*
X124642217Y-64209002D01*
X124732690Y-64166814D01*
X124732695Y-64166811D01*
X124737677Y-64164488D01*
X124839505Y-64093187D01*
X124915270Y-64040136D01*
X124915273Y-64040134D01*
X124919781Y-64036977D01*
X125076977Y-63879781D01*
X125088713Y-63863021D01*
X125201331Y-63702185D01*
X125201332Y-63702183D01*
X125204488Y-63697676D01*
X125206811Y-63692694D01*
X125206814Y-63692689D01*
X125296117Y-63501178D01*
X125296118Y-63501177D01*
X125298440Y-63496196D01*
X125355978Y-63281463D01*
X125375353Y-63060000D01*
X125355978Y-62838537D01*
X125352987Y-62827374D01*
X125354673Y-62756398D01*
X125385597Y-62705663D01*
X128389539Y-59701721D01*
X128451851Y-59667695D01*
X128522666Y-59672760D01*
X128579502Y-59715307D01*
X128604313Y-59781827D01*
X128602401Y-59814434D01*
X128602374Y-59814577D01*
X128600989Y-59819570D01*
X128577251Y-60041695D01*
X128577548Y-60046848D01*
X128577548Y-60046851D01*
X128583011Y-60141590D01*
X128590110Y-60264715D01*
X128591247Y-60269761D01*
X128591248Y-60269767D01*
X128597732Y-60298537D01*
X128639222Y-60482639D01*
X128688408Y-60603770D01*
X128715108Y-60669524D01*
X128723266Y-60689616D01*
X128762378Y-60753441D01*
X128837291Y-60875688D01*
X128839987Y-60880088D01*
X128986250Y-61048938D01*
X129158126Y-61191632D01*
X129177924Y-61203201D01*
X129231445Y-61234476D01*
X129280169Y-61286114D01*
X129293240Y-61355897D01*
X129266509Y-61421669D01*
X129226055Y-61455027D01*
X129213607Y-61461507D01*
X129209474Y-61464610D01*
X129209471Y-61464612D01*
X129160088Y-61501690D01*
X129034965Y-61595635D01*
X128880629Y-61757138D01*
X128877720Y-61761403D01*
X128877714Y-61761411D01*
X128848647Y-61804022D01*
X128754743Y-61941680D01*
X128739003Y-61975590D01*
X128675591Y-62112200D01*
X128660688Y-62144305D01*
X128600989Y-62359570D01*
X128577251Y-62581695D01*
X128577548Y-62586848D01*
X128577548Y-62586851D01*
X128585624Y-62726920D01*
X128590110Y-62804715D01*
X128591247Y-62809761D01*
X128591248Y-62809767D01*
X128597732Y-62838537D01*
X128639222Y-63022639D01*
X128677461Y-63116811D01*
X128718440Y-63217730D01*
X128723266Y-63229616D01*
X128761885Y-63292636D01*
X128837291Y-63415688D01*
X128839987Y-63420088D01*
X128986250Y-63588938D01*
X129158126Y-63731632D01*
X129217871Y-63766544D01*
X129231445Y-63774476D01*
X129280169Y-63826114D01*
X129293240Y-63895897D01*
X129266509Y-63961669D01*
X129226055Y-63995027D01*
X129213607Y-64001507D01*
X129209474Y-64004610D01*
X129209471Y-64004612D01*
X129146769Y-64051690D01*
X129034965Y-64135635D01*
X128880629Y-64297138D01*
X128877720Y-64301403D01*
X128877714Y-64301411D01*
X128848647Y-64344022D01*
X128754743Y-64481680D01*
X128710836Y-64576271D01*
X128670949Y-64662200D01*
X128660688Y-64684305D01*
X128600989Y-64899570D01*
X128577251Y-65121695D01*
X128577548Y-65126848D01*
X128577548Y-65126851D01*
X128583011Y-65221590D01*
X128590110Y-65344715D01*
X128591247Y-65349761D01*
X128591248Y-65349767D01*
X128597732Y-65378537D01*
X128639222Y-65562639D01*
X128723266Y-65769616D01*
X128761885Y-65832636D01*
X128837291Y-65955688D01*
X128839987Y-65960088D01*
X128986250Y-66128938D01*
X129158126Y-66271632D01*
X129179868Y-66284337D01*
X129231445Y-66314476D01*
X129280169Y-66366114D01*
X129293240Y-66435897D01*
X129266509Y-66501669D01*
X129226055Y-66535027D01*
X129213607Y-66541507D01*
X129209474Y-66544610D01*
X129209471Y-66544612D01*
X129039100Y-66672530D01*
X129034965Y-66675635D01*
X128880629Y-66837138D01*
X128877720Y-66841403D01*
X128877714Y-66841411D01*
X128858212Y-66870000D01*
X128754743Y-67021680D01*
X128660688Y-67224305D01*
X128600989Y-67439570D01*
X128577251Y-67661695D01*
X128577548Y-67666848D01*
X128577548Y-67666851D01*
X128583011Y-67761590D01*
X128590110Y-67884715D01*
X128591247Y-67889761D01*
X128591248Y-67889767D01*
X128597732Y-67918537D01*
X128639222Y-68102639D01*
X128723266Y-68309616D01*
X128774019Y-68392438D01*
X128837291Y-68495688D01*
X128839987Y-68500088D01*
X128986250Y-68668938D01*
X129158126Y-68811632D01*
X129351000Y-68924338D01*
X129559692Y-69004030D01*
X129564760Y-69005061D01*
X129564763Y-69005062D01*
X129672017Y-69026883D01*
X129778597Y-69048567D01*
X129783772Y-69048757D01*
X129783774Y-69048757D01*
X129996673Y-69056564D01*
X129996677Y-69056564D01*
X130001837Y-69056753D01*
X130006957Y-69056097D01*
X130006959Y-69056097D01*
X130218288Y-69029025D01*
X130218289Y-69029025D01*
X130223416Y-69028368D01*
X130228366Y-69026883D01*
X130432429Y-68965661D01*
X130432434Y-68965659D01*
X130437384Y-68964174D01*
X130637994Y-68865896D01*
X130819860Y-68736173D01*
X130978096Y-68578489D01*
X131037594Y-68495689D01*
X131108453Y-68397077D01*
X131109776Y-68398028D01*
X131156645Y-68354857D01*
X131226580Y-68342625D01*
X131292026Y-68370144D01*
X131319875Y-68401994D01*
X131379987Y-68500088D01*
X131526250Y-68668938D01*
X131698126Y-68811632D01*
X131891000Y-68924338D01*
X132099692Y-69004030D01*
X132104760Y-69005061D01*
X132104763Y-69005062D01*
X132212017Y-69026883D01*
X132318597Y-69048567D01*
X132323772Y-69048757D01*
X132323774Y-69048757D01*
X132536673Y-69056564D01*
X132536677Y-69056564D01*
X132541837Y-69056753D01*
X132546957Y-69056097D01*
X132546959Y-69056097D01*
X132758288Y-69029025D01*
X132758289Y-69029025D01*
X132763416Y-69028368D01*
X132768366Y-69026883D01*
X132972429Y-68965661D01*
X132972434Y-68965659D01*
X132977384Y-68964174D01*
X133177994Y-68865896D01*
X133359860Y-68736173D01*
X133518096Y-68578489D01*
X133577594Y-68495689D01*
X133645435Y-68401277D01*
X133648453Y-68397077D01*
X133666055Y-68361463D01*
X133745136Y-68201453D01*
X133745137Y-68201451D01*
X133747430Y-68196811D01*
X133812370Y-67983069D01*
X133841529Y-67761590D01*
X133841611Y-67758240D01*
X133843074Y-67698365D01*
X133843074Y-67698361D01*
X133843156Y-67695000D01*
X133824852Y-67472361D01*
X133770431Y-67255702D01*
X133681354Y-67050840D01*
X133610658Y-66941560D01*
X133562822Y-66867617D01*
X133562820Y-66867614D01*
X133560014Y-66863277D01*
X133409670Y-66698051D01*
X133405619Y-66694852D01*
X133405615Y-66694848D01*
X133238414Y-66562800D01*
X133238410Y-66562798D01*
X133234359Y-66559598D01*
X133193053Y-66536796D01*
X133143084Y-66486364D01*
X133128312Y-66416921D01*
X133153428Y-66350516D01*
X133180780Y-66323909D01*
X133247462Y-66276345D01*
X133359860Y-66196173D01*
X133364550Y-66191500D01*
X133468186Y-66088225D01*
X133518096Y-66038489D01*
X133558529Y-65982221D01*
X133645435Y-65861277D01*
X133648453Y-65857077D01*
X133660533Y-65832636D01*
X133745136Y-65661453D01*
X133745137Y-65661451D01*
X133747430Y-65656811D01*
X133801321Y-65479436D01*
X133810865Y-65448023D01*
X133810865Y-65448021D01*
X133812370Y-65443069D01*
X133841529Y-65221590D01*
X133842077Y-65199178D01*
X133843074Y-65158365D01*
X133843074Y-65158361D01*
X133843156Y-65155000D01*
X133824852Y-64932361D01*
X133770431Y-64715702D01*
X133681354Y-64510840D01*
X133608975Y-64398959D01*
X133562822Y-64327617D01*
X133562820Y-64327614D01*
X133560014Y-64323277D01*
X133409670Y-64158051D01*
X133405619Y-64154852D01*
X133405615Y-64154848D01*
X133238414Y-64022800D01*
X133238410Y-64022798D01*
X133234359Y-64019598D01*
X133193053Y-63996796D01*
X133143084Y-63946364D01*
X133130954Y-63889343D01*
X143146775Y-63889343D01*
X143163381Y-64058699D01*
X143217094Y-64220167D01*
X143220741Y-64226189D01*
X143220742Y-64226191D01*
X143279540Y-64323277D01*
X143305246Y-64365723D01*
X143423455Y-64488132D01*
X143465415Y-64515590D01*
X143558146Y-64576271D01*
X143565846Y-64581310D01*
X143572450Y-64583766D01*
X143572452Y-64583767D01*
X143608844Y-64597301D01*
X143725341Y-64640626D01*
X143894015Y-64663132D01*
X143901026Y-64662494D01*
X143901030Y-64662494D01*
X144056462Y-64648348D01*
X144063483Y-64647709D01*
X144070185Y-64645531D01*
X144070187Y-64645531D01*
X144218623Y-64597301D01*
X144218626Y-64597300D01*
X144225322Y-64595124D01*
X144256948Y-64576271D01*
X144321466Y-64558500D01*
X153929879Y-64558500D01*
X153998000Y-64578502D01*
X154044493Y-64632158D01*
X154054597Y-64702432D01*
X154051298Y-64718165D01*
X154000989Y-64899570D01*
X153977251Y-65121695D01*
X153977548Y-65126848D01*
X153977548Y-65126851D01*
X153983011Y-65221590D01*
X153990110Y-65344715D01*
X153991247Y-65349761D01*
X153991248Y-65349767D01*
X153997732Y-65378537D01*
X154039222Y-65562639D01*
X154123266Y-65769616D01*
X154161885Y-65832636D01*
X154237291Y-65955688D01*
X154239987Y-65960088D01*
X154386250Y-66128938D01*
X154558126Y-66271632D01*
X154579868Y-66284337D01*
X154631445Y-66314476D01*
X154680169Y-66366114D01*
X154693240Y-66435897D01*
X154666509Y-66501669D01*
X154626055Y-66535027D01*
X154613607Y-66541507D01*
X154609474Y-66544610D01*
X154609471Y-66544612D01*
X154439100Y-66672530D01*
X154434965Y-66675635D01*
X154280629Y-66837138D01*
X154277720Y-66841403D01*
X154277714Y-66841411D01*
X154258212Y-66870000D01*
X154154743Y-67021680D01*
X154060688Y-67224305D01*
X154000989Y-67439570D01*
X153977251Y-67661695D01*
X153977548Y-67666848D01*
X153977548Y-67666851D01*
X153983011Y-67761590D01*
X153990110Y-67884715D01*
X153991247Y-67889761D01*
X153991248Y-67889767D01*
X153997732Y-67918537D01*
X154039222Y-68102639D01*
X154123266Y-68309616D01*
X154174019Y-68392438D01*
X154237291Y-68495688D01*
X154239987Y-68500088D01*
X154386250Y-68668938D01*
X154558126Y-68811632D01*
X154751000Y-68924338D01*
X154959692Y-69004030D01*
X154964760Y-69005061D01*
X154964763Y-69005062D01*
X155072017Y-69026883D01*
X155178597Y-69048567D01*
X155183772Y-69048757D01*
X155183774Y-69048757D01*
X155396673Y-69056564D01*
X155396677Y-69056564D01*
X155401837Y-69056753D01*
X155406957Y-69056097D01*
X155406959Y-69056097D01*
X155618288Y-69029025D01*
X155618289Y-69029025D01*
X155623416Y-69028368D01*
X155628366Y-69026883D01*
X155832429Y-68965661D01*
X155832434Y-68965659D01*
X155837384Y-68964174D01*
X156037994Y-68865896D01*
X156219860Y-68736173D01*
X156378096Y-68578489D01*
X156437594Y-68495689D01*
X156508453Y-68397077D01*
X156509776Y-68398028D01*
X156556645Y-68354857D01*
X156626580Y-68342625D01*
X156692026Y-68370144D01*
X156719875Y-68401994D01*
X156779987Y-68500088D01*
X156926250Y-68668938D01*
X157098126Y-68811632D01*
X157291000Y-68924338D01*
X157499692Y-69004030D01*
X157504760Y-69005061D01*
X157504763Y-69005062D01*
X157612017Y-69026883D01*
X157718597Y-69048567D01*
X157723772Y-69048757D01*
X157723774Y-69048757D01*
X157936673Y-69056564D01*
X157936677Y-69056564D01*
X157941837Y-69056753D01*
X157946957Y-69056097D01*
X157946959Y-69056097D01*
X158158288Y-69029025D01*
X158158289Y-69029025D01*
X158163416Y-69028368D01*
X158168366Y-69026883D01*
X158372429Y-68965661D01*
X158372434Y-68965659D01*
X158377384Y-68964174D01*
X158577994Y-68865896D01*
X158759860Y-68736173D01*
X158918096Y-68578489D01*
X158977594Y-68495689D01*
X159045435Y-68401277D01*
X159048453Y-68397077D01*
X159066055Y-68361463D01*
X159145136Y-68201453D01*
X159145137Y-68201451D01*
X159147430Y-68196811D01*
X159212370Y-67983069D01*
X159241529Y-67761590D01*
X159241611Y-67758240D01*
X159243074Y-67698365D01*
X159243074Y-67698361D01*
X159243156Y-67695000D01*
X159224852Y-67472361D01*
X159170431Y-67255702D01*
X159081354Y-67050840D01*
X159010658Y-66941560D01*
X158962822Y-66867617D01*
X158962820Y-66867614D01*
X158960014Y-66863277D01*
X158809670Y-66698051D01*
X158805619Y-66694852D01*
X158805615Y-66694848D01*
X158638414Y-66562800D01*
X158638410Y-66562798D01*
X158634359Y-66559598D01*
X158593053Y-66536796D01*
X158543084Y-66486364D01*
X158528312Y-66416921D01*
X158553428Y-66350516D01*
X158580780Y-66323909D01*
X158647462Y-66276345D01*
X158759860Y-66196173D01*
X158764550Y-66191500D01*
X158868186Y-66088225D01*
X158918096Y-66038489D01*
X158958529Y-65982221D01*
X159045435Y-65861277D01*
X159048453Y-65857077D01*
X159060533Y-65832636D01*
X159145136Y-65661453D01*
X159145137Y-65661451D01*
X159147430Y-65656811D01*
X159201321Y-65479436D01*
X159210865Y-65448023D01*
X159210865Y-65448021D01*
X159212370Y-65443069D01*
X159241529Y-65221590D01*
X159242077Y-65199178D01*
X159243074Y-65158365D01*
X159243074Y-65158361D01*
X159243156Y-65155000D01*
X159224852Y-64932361D01*
X159170431Y-64715702D01*
X159081354Y-64510840D01*
X159008975Y-64398959D01*
X158962822Y-64327617D01*
X158962820Y-64327614D01*
X158960014Y-64323277D01*
X158809670Y-64158051D01*
X158805619Y-64154852D01*
X158805615Y-64154848D01*
X158638414Y-64022800D01*
X158638410Y-64022798D01*
X158634359Y-64019598D01*
X158593053Y-63996796D01*
X158543084Y-63946364D01*
X158528312Y-63876921D01*
X158553428Y-63810516D01*
X158580780Y-63783909D01*
X158648752Y-63735425D01*
X158759860Y-63656173D01*
X158786054Y-63630071D01*
X158849112Y-63567232D01*
X158918096Y-63498489D01*
X158977594Y-63415689D01*
X159045435Y-63321277D01*
X159048453Y-63317077D01*
X159055193Y-63303441D01*
X159145136Y-63121453D01*
X159145137Y-63121451D01*
X159147430Y-63116811D01*
X159212370Y-62903069D01*
X159241529Y-62681590D01*
X159241640Y-62677055D01*
X159243074Y-62618365D01*
X159243074Y-62618361D01*
X159243156Y-62615000D01*
X159224852Y-62392361D01*
X159170431Y-62175702D01*
X159081354Y-61970840D01*
X159038239Y-61904195D01*
X158962822Y-61787617D01*
X158962820Y-61787614D01*
X158960014Y-61783277D01*
X158809670Y-61618051D01*
X158805619Y-61614852D01*
X158805615Y-61614848D01*
X158638414Y-61482800D01*
X158638410Y-61482798D01*
X158634359Y-61479598D01*
X158593053Y-61456796D01*
X158543084Y-61406364D01*
X158528312Y-61336921D01*
X158553428Y-61270516D01*
X158580780Y-61243909D01*
X158633460Y-61206333D01*
X158759860Y-61116173D01*
X158795225Y-61080932D01*
X158862052Y-61014337D01*
X158918096Y-60958489D01*
X158977594Y-60875689D01*
X159045435Y-60781277D01*
X159048453Y-60777077D01*
X159066055Y-60741463D01*
X159145136Y-60581453D01*
X159145137Y-60581451D01*
X159147430Y-60576811D01*
X159212370Y-60363069D01*
X159241529Y-60141590D01*
X159243156Y-60075000D01*
X159224852Y-59852361D01*
X159170431Y-59635702D01*
X159081354Y-59430840D01*
X159008975Y-59318959D01*
X158962822Y-59247617D01*
X158962820Y-59247614D01*
X158960014Y-59243277D01*
X158809670Y-59078051D01*
X158805619Y-59074852D01*
X158805615Y-59074848D01*
X158638414Y-58942800D01*
X158638410Y-58942798D01*
X158634359Y-58939598D01*
X158593053Y-58916796D01*
X158543084Y-58866364D01*
X158528312Y-58796921D01*
X158553428Y-58730516D01*
X158580780Y-58703909D01*
X158697693Y-58620516D01*
X158759860Y-58576173D01*
X158918096Y-58418489D01*
X159048453Y-58237077D01*
X159063408Y-58206819D01*
X159145136Y-58041453D01*
X159145137Y-58041451D01*
X159147430Y-58036811D01*
X159212370Y-57823069D01*
X159241529Y-57601590D01*
X159243156Y-57535000D01*
X159224852Y-57312361D01*
X159170431Y-57095702D01*
X159081354Y-56890840D01*
X159030332Y-56811972D01*
X158962822Y-56707617D01*
X158962820Y-56707614D01*
X158960014Y-56703277D01*
X158809670Y-56538051D01*
X158805619Y-56534852D01*
X158805615Y-56534848D01*
X158638414Y-56402800D01*
X158638410Y-56402798D01*
X158634359Y-56399598D01*
X158593053Y-56376796D01*
X158543084Y-56326364D01*
X158528312Y-56256921D01*
X158553428Y-56190516D01*
X158580780Y-56163909D01*
X158666864Y-56102506D01*
X158759860Y-56036173D01*
X158918096Y-55878489D01*
X159048453Y-55697077D01*
X159057664Y-55678441D01*
X159145136Y-55501453D01*
X159145137Y-55501451D01*
X159147430Y-55496811D01*
X159212370Y-55283069D01*
X159241529Y-55061590D01*
X159243156Y-54995000D01*
X159224852Y-54772361D01*
X159170431Y-54555702D01*
X159081354Y-54350840D01*
X158965010Y-54170999D01*
X158962822Y-54167617D01*
X158962820Y-54167614D01*
X158960014Y-54163277D01*
X158809670Y-53998051D01*
X158805619Y-53994852D01*
X158805615Y-53994848D01*
X158638414Y-53862800D01*
X158638410Y-53862798D01*
X158634359Y-53859598D01*
X158593053Y-53836796D01*
X158543084Y-53786364D01*
X158528312Y-53716921D01*
X158553428Y-53650516D01*
X158580780Y-53623909D01*
X158624603Y-53592650D01*
X158759860Y-53496173D01*
X158918096Y-53338489D01*
X158977594Y-53255689D01*
X159045435Y-53161277D01*
X159045436Y-53161275D01*
X159048453Y-53157077D01*
X159066055Y-53121463D01*
X159145136Y-52961453D01*
X159145137Y-52961451D01*
X159147430Y-52956811D01*
X159212370Y-52743069D01*
X159241529Y-52521590D01*
X159243156Y-52455000D01*
X159224852Y-52232361D01*
X159170431Y-52015702D01*
X159081354Y-51810840D01*
X159008975Y-51698959D01*
X158962822Y-51627617D01*
X158962820Y-51627614D01*
X158960014Y-51623277D01*
X158809670Y-51458051D01*
X158805619Y-51454852D01*
X158805615Y-51454848D01*
X158638414Y-51322800D01*
X158638410Y-51322798D01*
X158634359Y-51319598D01*
X158593053Y-51296796D01*
X158543084Y-51246364D01*
X158528312Y-51176921D01*
X158553428Y-51110516D01*
X158580780Y-51083909D01*
X158624603Y-51052650D01*
X158759860Y-50956173D01*
X158918096Y-50798489D01*
X158977594Y-50715689D01*
X159045435Y-50621277D01*
X159048453Y-50617077D01*
X159066055Y-50581463D01*
X159145136Y-50421453D01*
X159145137Y-50421451D01*
X159147430Y-50416811D01*
X159212370Y-50203069D01*
X159241529Y-49981590D01*
X159243156Y-49915000D01*
X159224852Y-49692361D01*
X159170431Y-49475702D01*
X159081354Y-49270840D01*
X159008975Y-49158959D01*
X158962822Y-49087617D01*
X158962820Y-49087614D01*
X158960014Y-49083277D01*
X158809670Y-48918051D01*
X158805619Y-48914852D01*
X158805615Y-48914848D01*
X158638414Y-48782800D01*
X158638410Y-48782798D01*
X158634359Y-48779598D01*
X158438789Y-48671638D01*
X158433920Y-48669914D01*
X158433916Y-48669912D01*
X158233087Y-48598795D01*
X158233083Y-48598794D01*
X158228212Y-48597069D01*
X158223119Y-48596162D01*
X158223116Y-48596161D01*
X158013373Y-48558800D01*
X158013367Y-48558799D01*
X158008284Y-48557894D01*
X157934452Y-48556992D01*
X157790081Y-48555228D01*
X157790079Y-48555228D01*
X157784911Y-48555165D01*
X157564091Y-48588955D01*
X157351756Y-48658357D01*
X157153607Y-48761507D01*
X157149474Y-48764610D01*
X157149471Y-48764612D01*
X156979100Y-48892530D01*
X156974965Y-48895635D01*
X156820629Y-49057138D01*
X156713201Y-49214621D01*
X156658293Y-49259621D01*
X156587768Y-49267792D01*
X156524021Y-49236538D01*
X156503324Y-49212054D01*
X156422822Y-49087617D01*
X156422820Y-49087614D01*
X156420014Y-49083277D01*
X156269670Y-48918051D01*
X156265619Y-48914852D01*
X156265615Y-48914848D01*
X156098414Y-48782800D01*
X156098410Y-48782798D01*
X156094359Y-48779598D01*
X156053053Y-48756796D01*
X156003084Y-48706364D01*
X155988312Y-48636921D01*
X156013428Y-48570516D01*
X156040780Y-48543909D01*
X156084603Y-48512650D01*
X156219860Y-48416173D01*
X156378096Y-48258489D01*
X156437594Y-48175689D01*
X156505435Y-48081277D01*
X156508453Y-48077077D01*
X156526055Y-48041463D01*
X156605136Y-47881453D01*
X156605137Y-47881451D01*
X156607430Y-47876811D01*
X156672370Y-47663069D01*
X156701529Y-47441590D01*
X156703128Y-47376130D01*
X159087279Y-47376130D01*
X159087411Y-47377966D01*
X159091660Y-47384579D01*
X159217472Y-47510390D01*
X159228594Y-47516464D01*
X159232396Y-47507128D01*
X159240590Y-47444887D01*
X159241109Y-47438212D01*
X159242572Y-47378364D01*
X159242378Y-47371646D01*
X159231940Y-47244680D01*
X159227731Y-47233750D01*
X159217888Y-47239193D01*
X159094890Y-47362192D01*
X159087279Y-47376130D01*
X156703128Y-47376130D01*
X156703156Y-47375000D01*
X156684852Y-47152361D01*
X156630431Y-46935702D01*
X156541354Y-46730840D01*
X156468975Y-46618959D01*
X156422822Y-46547617D01*
X156422820Y-46547614D01*
X156420014Y-46543277D01*
X156269670Y-46378051D01*
X156265619Y-46374852D01*
X156265615Y-46374848D01*
X156098414Y-46242800D01*
X156098410Y-46242798D01*
X156094359Y-46239598D01*
X156057260Y-46219118D01*
X155903314Y-46134136D01*
X155903315Y-46134136D01*
X155898789Y-46131638D01*
X155893920Y-46129914D01*
X155893916Y-46129912D01*
X155693087Y-46058795D01*
X155693083Y-46058794D01*
X155688212Y-46057069D01*
X155683119Y-46056162D01*
X155683116Y-46056161D01*
X155473373Y-46018800D01*
X155473367Y-46018799D01*
X155468284Y-46017894D01*
X155394452Y-46016992D01*
X155250081Y-46015228D01*
X155250079Y-46015228D01*
X155244911Y-46015165D01*
X155024091Y-46048955D01*
X154811756Y-46118357D01*
X154781445Y-46134136D01*
X154675269Y-46189408D01*
X154613607Y-46221507D01*
X154609474Y-46224610D01*
X154609471Y-46224612D01*
X154447724Y-46346055D01*
X154434965Y-46355635D01*
X154431393Y-46359373D01*
X154324117Y-46471631D01*
X154280629Y-46517138D01*
X154277720Y-46521403D01*
X154277714Y-46521411D01*
X154256371Y-46552699D01*
X154154743Y-46701680D01*
X154060688Y-46904305D01*
X154000989Y-47119570D01*
X153977251Y-47341695D01*
X153977548Y-47346848D01*
X153977548Y-47346851D01*
X153983011Y-47441590D01*
X153990110Y-47564715D01*
X153991247Y-47569761D01*
X153991248Y-47569767D01*
X153997732Y-47598537D01*
X154039222Y-47782639D01*
X154123266Y-47989616D01*
X154174019Y-48072438D01*
X154237291Y-48175688D01*
X154239987Y-48180088D01*
X154386250Y-48348938D01*
X154558126Y-48491632D01*
X154628595Y-48532811D01*
X154631445Y-48534476D01*
X154680169Y-48586114D01*
X154693240Y-48655897D01*
X154666509Y-48721669D01*
X154626055Y-48755027D01*
X154613607Y-48761507D01*
X154609474Y-48764610D01*
X154609471Y-48764612D01*
X154439100Y-48892530D01*
X154434965Y-48895635D01*
X154280629Y-49057138D01*
X154277720Y-49061403D01*
X154277714Y-49061411D01*
X154248647Y-49104022D01*
X154154743Y-49241680D01*
X154060688Y-49444305D01*
X154000989Y-49659570D01*
X153977251Y-49881695D01*
X153977548Y-49886848D01*
X153977548Y-49886851D01*
X153983011Y-49981590D01*
X153990110Y-50104715D01*
X153991247Y-50109761D01*
X153991248Y-50109767D01*
X153997732Y-50138537D01*
X154039222Y-50322639D01*
X154123266Y-50529616D01*
X154161614Y-50592194D01*
X154237291Y-50715688D01*
X154239987Y-50720088D01*
X154386250Y-50888938D01*
X154558126Y-51031632D01*
X154628595Y-51072811D01*
X154631445Y-51074476D01*
X154680169Y-51126114D01*
X154693240Y-51195897D01*
X154666509Y-51261669D01*
X154626055Y-51295027D01*
X154613607Y-51301507D01*
X154609474Y-51304610D01*
X154609471Y-51304612D01*
X154439100Y-51432530D01*
X154434965Y-51435635D01*
X154280629Y-51597138D01*
X154277720Y-51601403D01*
X154277714Y-51601411D01*
X154248647Y-51644022D01*
X154154743Y-51781680D01*
X154060688Y-51984305D01*
X154000989Y-52199570D01*
X153977251Y-52421695D01*
X153977548Y-52426848D01*
X153977548Y-52426851D01*
X153983011Y-52521590D01*
X153990110Y-52644715D01*
X153991247Y-52649761D01*
X153991248Y-52649767D01*
X153997732Y-52678537D01*
X154039222Y-52862639D01*
X154123266Y-53069616D01*
X154125965Y-53074020D01*
X154179435Y-53161275D01*
X154239987Y-53260088D01*
X154386250Y-53428938D01*
X154558126Y-53571632D01*
X154628595Y-53612811D01*
X154631445Y-53614476D01*
X154680169Y-53666114D01*
X154693240Y-53735897D01*
X154666509Y-53801669D01*
X154626055Y-53835027D01*
X154613607Y-53841507D01*
X154609474Y-53844610D01*
X154609471Y-53844612D01*
X154439100Y-53972530D01*
X154434965Y-53975635D01*
X154280629Y-54137138D01*
X154277715Y-54141410D01*
X154277714Y-54141411D01*
X154182149Y-54281504D01*
X154127238Y-54326507D01*
X154078061Y-54336500D01*
X153219950Y-54336500D01*
X153151829Y-54316498D01*
X153130855Y-54299595D01*
X144670558Y-45839298D01*
X144640662Y-45791640D01*
X144616124Y-45721178D01*
X144612510Y-45710799D01*
X156662910Y-45710799D01*
X156681588Y-45766784D01*
X156687761Y-45779962D01*
X156773063Y-45917807D01*
X156782099Y-45929208D01*
X156896829Y-46043739D01*
X156908240Y-46052751D01*
X157046243Y-46137816D01*
X157059424Y-46143963D01*
X157098207Y-46156827D01*
X157115332Y-46157421D01*
X157127375Y-46150555D01*
X157337192Y-45940737D01*
X157350000Y-45917281D01*
X157350000Y-45849814D01*
X158350000Y-45849814D01*
X158357530Y-45875459D01*
X158616749Y-46134678D01*
X158631740Y-46142864D01*
X158644414Y-46142180D01*
X158654958Y-46137241D01*
X158792807Y-46051937D01*
X158804208Y-46042901D01*
X158918739Y-45928171D01*
X158927751Y-45916760D01*
X159012816Y-45778757D01*
X159018963Y-45765576D01*
X159035011Y-45717194D01*
X159035500Y-45703101D01*
X159029289Y-45700000D01*
X158368115Y-45700000D01*
X158352876Y-45704475D01*
X158351671Y-45705865D01*
X158350000Y-45713548D01*
X158350000Y-45849814D01*
X157350000Y-45849814D01*
X157350000Y-45718115D01*
X157345525Y-45702876D01*
X157344135Y-45701671D01*
X157336452Y-45700000D01*
X156677422Y-45700000D01*
X156663891Y-45703973D01*
X156662910Y-45710799D01*
X144612510Y-45710799D01*
X144598368Y-45670189D01*
X144592383Y-45660610D01*
X144537028Y-45572026D01*
X144508192Y-45525879D01*
X144388286Y-45405132D01*
X144372039Y-45394821D01*
X144333406Y-45370304D01*
X144244608Y-45313951D01*
X144084300Y-45256868D01*
X143915329Y-45236720D01*
X143908326Y-45237456D01*
X143908325Y-45237456D01*
X143753101Y-45253770D01*
X143753097Y-45253771D01*
X143746093Y-45254507D01*
X143739422Y-45256778D01*
X143591673Y-45307075D01*
X143591670Y-45307076D01*
X143585003Y-45309346D01*
X143579005Y-45313036D01*
X143579003Y-45313037D01*
X143446065Y-45394821D01*
X143446063Y-45394823D01*
X143440066Y-45398512D01*
X143318486Y-45517573D01*
X143226304Y-45660610D01*
X143168103Y-45820516D01*
X143146775Y-45989343D01*
X143163381Y-46158699D01*
X143217094Y-46320167D01*
X143220741Y-46326189D01*
X143220742Y-46326191D01*
X143255810Y-46384094D01*
X143305246Y-46465723D01*
X143423455Y-46588132D01*
X143467995Y-46617278D01*
X143555620Y-46674618D01*
X143565846Y-46681310D01*
X143572450Y-46683766D01*
X143572452Y-46683767D01*
X143674158Y-46721591D01*
X143719333Y-46750593D01*
X152370145Y-55401405D01*
X152404171Y-55463717D01*
X152399106Y-55534532D01*
X152356559Y-55591368D01*
X152290039Y-55616179D01*
X152281050Y-55616500D01*
X144324624Y-55616500D01*
X144257110Y-55596885D01*
X144256330Y-55596390D01*
X144244608Y-55588951D01*
X144084300Y-55531868D01*
X143915329Y-55511720D01*
X143908326Y-55512456D01*
X143908325Y-55512456D01*
X143753101Y-55528770D01*
X143753097Y-55528771D01*
X143746093Y-55529507D01*
X143739422Y-55531778D01*
X143591673Y-55582075D01*
X143591670Y-55582076D01*
X143585003Y-55584346D01*
X143579005Y-55588036D01*
X143579003Y-55588037D01*
X143446065Y-55669821D01*
X143446063Y-55669823D01*
X143440066Y-55673512D01*
X143318486Y-55792573D01*
X143314675Y-55798487D01*
X143314673Y-55798489D01*
X143268016Y-55870886D01*
X143226304Y-55935610D01*
X143168103Y-56095516D01*
X143146775Y-56264343D01*
X143163381Y-56433699D01*
X143217094Y-56595167D01*
X143220741Y-56601189D01*
X143220742Y-56601191D01*
X143275366Y-56691385D01*
X143305246Y-56740723D01*
X143423455Y-56863132D01*
X143493902Y-56909231D01*
X143558146Y-56951271D01*
X143565846Y-56956310D01*
X143572450Y-56958766D01*
X143572452Y-56958767D01*
X143603746Y-56970405D01*
X143725341Y-57015626D01*
X143894015Y-57038132D01*
X143901026Y-57037494D01*
X143901030Y-57037494D01*
X144056462Y-57023348D01*
X144063483Y-57022709D01*
X144070185Y-57020531D01*
X144070187Y-57020531D01*
X144218623Y-56972301D01*
X144218626Y-56972300D01*
X144225322Y-56970124D01*
X144256948Y-56951271D01*
X144321466Y-56933500D01*
X153755050Y-56933500D01*
X153823171Y-56953502D01*
X153844145Y-56970405D01*
X153982101Y-57108361D01*
X154016127Y-57170673D01*
X154014424Y-57231125D01*
X154000989Y-57279570D01*
X153977251Y-57501695D01*
X153977548Y-57506848D01*
X153977548Y-57506851D01*
X153983011Y-57601590D01*
X153990110Y-57724715D01*
X153991247Y-57729761D01*
X153991248Y-57729767D01*
X153997732Y-57758537D01*
X154039222Y-57942639D01*
X154041164Y-57947421D01*
X154041165Y-57947425D01*
X154049559Y-57968096D01*
X154056655Y-58038737D01*
X154024433Y-58102000D01*
X153963123Y-58137801D01*
X153932816Y-58141500D01*
X144324624Y-58141500D01*
X144257110Y-58121885D01*
X144256330Y-58121390D01*
X144244608Y-58113951D01*
X144084300Y-58056868D01*
X143915329Y-58036720D01*
X143908326Y-58037456D01*
X143908325Y-58037456D01*
X143753101Y-58053770D01*
X143753097Y-58053771D01*
X143746093Y-58054507D01*
X143739422Y-58056778D01*
X143591673Y-58107075D01*
X143591670Y-58107076D01*
X143585003Y-58109346D01*
X143579005Y-58113036D01*
X143579003Y-58113037D01*
X143446065Y-58194821D01*
X143446063Y-58194823D01*
X143440066Y-58198512D01*
X143405422Y-58232438D01*
X143324689Y-58311499D01*
X143318486Y-58317573D01*
X143314675Y-58323487D01*
X143314673Y-58323489D01*
X143258349Y-58410886D01*
X143226304Y-58460610D01*
X143223894Y-58467232D01*
X143184243Y-58576173D01*
X143168103Y-58620516D01*
X143146775Y-58789343D01*
X143163381Y-58958699D01*
X143217094Y-59120167D01*
X143220741Y-59126189D01*
X143220742Y-59126191D01*
X143296329Y-59250999D01*
X143305246Y-59265723D01*
X143423455Y-59388132D01*
X143482075Y-59426492D01*
X143558146Y-59476271D01*
X143565846Y-59481310D01*
X143572450Y-59483766D01*
X143572452Y-59483767D01*
X143603746Y-59495405D01*
X143725341Y-59540626D01*
X143894015Y-59563132D01*
X143901026Y-59562494D01*
X143901030Y-59562494D01*
X144056462Y-59548348D01*
X144063483Y-59547709D01*
X144070185Y-59545531D01*
X144070187Y-59545531D01*
X144218623Y-59497301D01*
X144218626Y-59497300D01*
X144225322Y-59495124D01*
X144256948Y-59476271D01*
X144321466Y-59458500D01*
X153740050Y-59458500D01*
X153808171Y-59478502D01*
X153829145Y-59495405D01*
X153982101Y-59648361D01*
X154016127Y-59710673D01*
X154014424Y-59771125D01*
X154000989Y-59819570D01*
X153977251Y-60041695D01*
X153977548Y-60046848D01*
X153977548Y-60046851D01*
X153983011Y-60141590D01*
X153990110Y-60264715D01*
X153991247Y-60269761D01*
X153991248Y-60269767D01*
X153997732Y-60298537D01*
X154039222Y-60482639D01*
X154041165Y-60487425D01*
X154041167Y-60487430D01*
X154053619Y-60518097D01*
X154060714Y-60588739D01*
X154028492Y-60652002D01*
X153967182Y-60687801D01*
X153936876Y-60691500D01*
X144324624Y-60691500D01*
X144257110Y-60671885D01*
X144256330Y-60671390D01*
X144244608Y-60663951D01*
X144084300Y-60606868D01*
X143915329Y-60586720D01*
X143908326Y-60587456D01*
X143908325Y-60587456D01*
X143753101Y-60603770D01*
X143753097Y-60603771D01*
X143746093Y-60604507D01*
X143739422Y-60606778D01*
X143591673Y-60657075D01*
X143591670Y-60657076D01*
X143585003Y-60659346D01*
X143579005Y-60663036D01*
X143579003Y-60663037D01*
X143446065Y-60744821D01*
X143446063Y-60744823D01*
X143440066Y-60748512D01*
X143318486Y-60867573D01*
X143314675Y-60873487D01*
X143314673Y-60873489D01*
X143267076Y-60947345D01*
X143226304Y-61010610D01*
X143168103Y-61170516D01*
X143146775Y-61339343D01*
X143163381Y-61508699D01*
X143217094Y-61670167D01*
X143220741Y-61676189D01*
X143220742Y-61676191D01*
X143298160Y-61804022D01*
X143305246Y-61815723D01*
X143423455Y-61938132D01*
X143454839Y-61958669D01*
X143558146Y-62026271D01*
X143565846Y-62031310D01*
X143572450Y-62033766D01*
X143572452Y-62033767D01*
X143608844Y-62047301D01*
X143725341Y-62090626D01*
X143894015Y-62113132D01*
X143901026Y-62112494D01*
X143901030Y-62112494D01*
X144056462Y-62098348D01*
X144063483Y-62097709D01*
X144070185Y-62095531D01*
X144070187Y-62095531D01*
X144218623Y-62047301D01*
X144218626Y-62047300D01*
X144225322Y-62045124D01*
X144256948Y-62026271D01*
X144321466Y-62008500D01*
X153932652Y-62008500D01*
X154000773Y-62028502D01*
X154047266Y-62082158D01*
X154057370Y-62152432D01*
X154054069Y-62168172D01*
X154000989Y-62359570D01*
X153977251Y-62581695D01*
X153977548Y-62586848D01*
X153977548Y-62586851D01*
X153985624Y-62726920D01*
X153990110Y-62804715D01*
X153991247Y-62809762D01*
X153991248Y-62809766D01*
X153995217Y-62827375D01*
X154012276Y-62903069D01*
X154016951Y-62923815D01*
X154012415Y-62994666D01*
X153983129Y-63040611D01*
X153819145Y-63204595D01*
X153756833Y-63238621D01*
X153730050Y-63241500D01*
X144324624Y-63241500D01*
X144257110Y-63221885D01*
X144256330Y-63221390D01*
X144244608Y-63213951D01*
X144084300Y-63156868D01*
X143915329Y-63136720D01*
X143908326Y-63137456D01*
X143908325Y-63137456D01*
X143753101Y-63153770D01*
X143753097Y-63153771D01*
X143746093Y-63154507D01*
X143739422Y-63156778D01*
X143591673Y-63207075D01*
X143591670Y-63207076D01*
X143585003Y-63209346D01*
X143579005Y-63213036D01*
X143579003Y-63213037D01*
X143446065Y-63294821D01*
X143446063Y-63294823D01*
X143440066Y-63298512D01*
X143318486Y-63417573D01*
X143314675Y-63423487D01*
X143314673Y-63423489D01*
X143237419Y-63543363D01*
X143226304Y-63560610D01*
X143168103Y-63720516D01*
X143146775Y-63889343D01*
X133130954Y-63889343D01*
X133128312Y-63876921D01*
X133153428Y-63810516D01*
X133180780Y-63783909D01*
X133248752Y-63735425D01*
X133359860Y-63656173D01*
X133386054Y-63630071D01*
X133449112Y-63567232D01*
X133518096Y-63498489D01*
X133577594Y-63415689D01*
X133645435Y-63321277D01*
X133648453Y-63317077D01*
X133655193Y-63303441D01*
X133745136Y-63121453D01*
X133745137Y-63121451D01*
X133747430Y-63116811D01*
X133812370Y-62903069D01*
X133841529Y-62681590D01*
X133841640Y-62677055D01*
X133843074Y-62618365D01*
X133843074Y-62618361D01*
X133843156Y-62615000D01*
X133824852Y-62392361D01*
X133803919Y-62309022D01*
X133806723Y-62238081D01*
X133837028Y-62189232D01*
X134732605Y-61293655D01*
X134741385Y-61285665D01*
X134741387Y-61285663D01*
X134748080Y-61281416D01*
X134796605Y-61229742D01*
X134799359Y-61226901D01*
X134819927Y-61206333D01*
X134822647Y-61202826D01*
X134830353Y-61193804D01*
X134856544Y-61165913D01*
X134861972Y-61160133D01*
X134866064Y-61152689D01*
X134872303Y-61141342D01*
X134883157Y-61124818D01*
X134891445Y-61114132D01*
X134896304Y-61107868D01*
X134906948Y-61083271D01*
X134914654Y-61065465D01*
X134919876Y-61054805D01*
X134938305Y-61021284D01*
X134938306Y-61021282D01*
X134942124Y-61014337D01*
X134947459Y-60993559D01*
X134953858Y-60974869D01*
X134962380Y-60955176D01*
X134969606Y-60909552D01*
X134972013Y-60897929D01*
X134981528Y-60860868D01*
X134983500Y-60853188D01*
X134983500Y-60831741D01*
X134985051Y-60812031D01*
X134987166Y-60798677D01*
X134988406Y-60790848D01*
X134984059Y-60744859D01*
X134983500Y-60733004D01*
X134983500Y-55084712D01*
X134984059Y-55072856D01*
X134984059Y-55072853D01*
X134985788Y-55065119D01*
X134983562Y-54994287D01*
X134983500Y-54990329D01*
X134983500Y-54961224D01*
X134982944Y-54956824D01*
X134982012Y-54944986D01*
X134980811Y-54906750D01*
X134980562Y-54898825D01*
X134974580Y-54878235D01*
X134970570Y-54858872D01*
X134968875Y-54845452D01*
X134968875Y-54845451D01*
X134967882Y-54837592D01*
X134964966Y-54830227D01*
X134964965Y-54830223D01*
X134950876Y-54794638D01*
X134947031Y-54783409D01*
X134936356Y-54746666D01*
X134934145Y-54739055D01*
X134923230Y-54720599D01*
X134914531Y-54702843D01*
X134914182Y-54701963D01*
X134906635Y-54682900D01*
X134879480Y-54645524D01*
X134872965Y-54635605D01*
X134853492Y-54602679D01*
X134853489Y-54602675D01*
X134849452Y-54595849D01*
X134834291Y-54580688D01*
X134821449Y-54565653D01*
X134817865Y-54560720D01*
X134808841Y-54548299D01*
X134773242Y-54518849D01*
X134764463Y-54510860D01*
X133624728Y-53371125D01*
X133590702Y-53308813D01*
X133595767Y-53237998D01*
X133611499Y-53208505D01*
X133645436Y-53161275D01*
X133648453Y-53157077D01*
X133666055Y-53121463D01*
X133745136Y-52961453D01*
X133745137Y-52961451D01*
X133747430Y-52956811D01*
X133812370Y-52743069D01*
X133841529Y-52521590D01*
X133843156Y-52455000D01*
X133824852Y-52232361D01*
X133770431Y-52015702D01*
X133681354Y-51810840D01*
X133608975Y-51698959D01*
X133562822Y-51627617D01*
X133562820Y-51627614D01*
X133560014Y-51623277D01*
X133409670Y-51458051D01*
X133405619Y-51454852D01*
X133405615Y-51454848D01*
X133238414Y-51322800D01*
X133238410Y-51322798D01*
X133234359Y-51319598D01*
X133193053Y-51296796D01*
X133143084Y-51246364D01*
X133128312Y-51176921D01*
X133153428Y-51110516D01*
X133180780Y-51083909D01*
X133224603Y-51052650D01*
X133359860Y-50956173D01*
X133518096Y-50798489D01*
X133577594Y-50715689D01*
X133645435Y-50621277D01*
X133648453Y-50617077D01*
X133666055Y-50581463D01*
X133745136Y-50421453D01*
X133745137Y-50421451D01*
X133747430Y-50416811D01*
X133812370Y-50203069D01*
X133841529Y-49981590D01*
X133843156Y-49915000D01*
X133824852Y-49692361D01*
X133770431Y-49475702D01*
X133681354Y-49270840D01*
X133608975Y-49158959D01*
X133562822Y-49087617D01*
X133562820Y-49087614D01*
X133560014Y-49083277D01*
X133409670Y-48918051D01*
X133405619Y-48914852D01*
X133405615Y-48914848D01*
X133238414Y-48782800D01*
X133238410Y-48782798D01*
X133234359Y-48779598D01*
X133193053Y-48756796D01*
X133143084Y-48706364D01*
X133128312Y-48636921D01*
X133153428Y-48570516D01*
X133180780Y-48543909D01*
X133224603Y-48512650D01*
X133359860Y-48416173D01*
X133518096Y-48258489D01*
X133577594Y-48175689D01*
X133645435Y-48081277D01*
X133648453Y-48077077D01*
X133666055Y-48041463D01*
X133745136Y-47881453D01*
X133745137Y-47881451D01*
X133747430Y-47876811D01*
X133812370Y-47663069D01*
X133841529Y-47441590D01*
X133843156Y-47375000D01*
X133824852Y-47152361D01*
X133770431Y-46935702D01*
X133681354Y-46730840D01*
X133608975Y-46618959D01*
X133562822Y-46547617D01*
X133562820Y-46547614D01*
X133560014Y-46543277D01*
X133409670Y-46378051D01*
X133405619Y-46374852D01*
X133405615Y-46374848D01*
X133238414Y-46242800D01*
X133238410Y-46242798D01*
X133234359Y-46239598D01*
X133197260Y-46219118D01*
X133043314Y-46134136D01*
X133043315Y-46134136D01*
X133038789Y-46131638D01*
X133033920Y-46129914D01*
X133033916Y-46129912D01*
X132833087Y-46058795D01*
X132833083Y-46058794D01*
X132828212Y-46057069D01*
X132823119Y-46056162D01*
X132823116Y-46056161D01*
X132613373Y-46018800D01*
X132613367Y-46018799D01*
X132608284Y-46017894D01*
X132534452Y-46016992D01*
X132390081Y-46015228D01*
X132390079Y-46015228D01*
X132384911Y-46015165D01*
X132164091Y-46048955D01*
X131951756Y-46118357D01*
X131921445Y-46134136D01*
X131815269Y-46189408D01*
X131753607Y-46221507D01*
X131749474Y-46224610D01*
X131749471Y-46224612D01*
X131587724Y-46346055D01*
X131574965Y-46355635D01*
X131571393Y-46359373D01*
X131464117Y-46471631D01*
X131420629Y-46517138D01*
X131313201Y-46674621D01*
X131258293Y-46719621D01*
X131187768Y-46727792D01*
X131124021Y-46696538D01*
X131103324Y-46672054D01*
X131022822Y-46547617D01*
X131022820Y-46547614D01*
X131020014Y-46543277D01*
X130869670Y-46378051D01*
X130865619Y-46374852D01*
X130865615Y-46374848D01*
X130698414Y-46242800D01*
X130698410Y-46242798D01*
X130694359Y-46239598D01*
X130657260Y-46219118D01*
X130503314Y-46134136D01*
X130503315Y-46134136D01*
X130498789Y-46131638D01*
X130493920Y-46129914D01*
X130493916Y-46129912D01*
X130293087Y-46058795D01*
X130293083Y-46058794D01*
X130288212Y-46057069D01*
X130283119Y-46056162D01*
X130283116Y-46056161D01*
X130073373Y-46018800D01*
X130073367Y-46018799D01*
X130068284Y-46017894D01*
X129994452Y-46016992D01*
X129850081Y-46015228D01*
X129850079Y-46015228D01*
X129844911Y-46015165D01*
X129624091Y-46048955D01*
X129411756Y-46118357D01*
X129381445Y-46134136D01*
X129275269Y-46189408D01*
X129213607Y-46221507D01*
X129209474Y-46224610D01*
X129209471Y-46224612D01*
X129047724Y-46346055D01*
X129034965Y-46355635D01*
X129031393Y-46359373D01*
X128924117Y-46471631D01*
X128880629Y-46517138D01*
X128877720Y-46521403D01*
X128877714Y-46521411D01*
X128856371Y-46552699D01*
X128754743Y-46701680D01*
X128660688Y-46904305D01*
X128600989Y-47119570D01*
X128577251Y-47341695D01*
X128577548Y-47346848D01*
X128577548Y-47346851D01*
X128583011Y-47441590D01*
X128590110Y-47564715D01*
X128591247Y-47569761D01*
X128591248Y-47569767D01*
X128597732Y-47598537D01*
X128639222Y-47782639D01*
X128723266Y-47989616D01*
X128774019Y-48072438D01*
X128837291Y-48175688D01*
X128839987Y-48180088D01*
X128986250Y-48348938D01*
X129158126Y-48491632D01*
X129228595Y-48532811D01*
X129231445Y-48534476D01*
X129280169Y-48586114D01*
X129293240Y-48655897D01*
X129266509Y-48721669D01*
X129226055Y-48755027D01*
X129213607Y-48761507D01*
X129209474Y-48764610D01*
X129209471Y-48764612D01*
X129039100Y-48892530D01*
X129034965Y-48895635D01*
X128880629Y-49057138D01*
X128877720Y-49061403D01*
X128877714Y-49061411D01*
X128848647Y-49104022D01*
X128754743Y-49241680D01*
X128660688Y-49444305D01*
X128600989Y-49659570D01*
X128577251Y-49881695D01*
X128577548Y-49886848D01*
X128577548Y-49886851D01*
X128583011Y-49981590D01*
X128590110Y-50104715D01*
X128591247Y-50109761D01*
X128591248Y-50109767D01*
X128597732Y-50138537D01*
X128639222Y-50322639D01*
X128723266Y-50529616D01*
X128761614Y-50592194D01*
X128837291Y-50715688D01*
X128839987Y-50720088D01*
X128986250Y-50888938D01*
X129158126Y-51031632D01*
X129228595Y-51072811D01*
X129231445Y-51074476D01*
X129280169Y-51126114D01*
X129293240Y-51195897D01*
X129266509Y-51261669D01*
X129226055Y-51295027D01*
X129213607Y-51301507D01*
X129209474Y-51304610D01*
X129209471Y-51304612D01*
X129039100Y-51432530D01*
X129034965Y-51435635D01*
X128880629Y-51597138D01*
X128877720Y-51601403D01*
X128877714Y-51601411D01*
X128848647Y-51644022D01*
X128754743Y-51781680D01*
X128739003Y-51815590D01*
X128714362Y-51868674D01*
X128667538Y-51922041D01*
X128599295Y-51941622D01*
X128531299Y-51921199D01*
X128510979Y-51904719D01*
X125995405Y-49389145D01*
X125961379Y-49326833D01*
X125958500Y-49300050D01*
X125958500Y-46562056D01*
X125959059Y-46550200D01*
X125959059Y-46550197D01*
X125960788Y-46542463D01*
X125958562Y-46471631D01*
X125958500Y-46467673D01*
X125958500Y-46438568D01*
X125957944Y-46434168D01*
X125957012Y-46422330D01*
X125955811Y-46384094D01*
X125955562Y-46376169D01*
X125949580Y-46355579D01*
X125945570Y-46336216D01*
X125943875Y-46322796D01*
X125943875Y-46322795D01*
X125942882Y-46314936D01*
X125939966Y-46307571D01*
X125939965Y-46307567D01*
X125925874Y-46271979D01*
X125922035Y-46260769D01*
X125909145Y-46216400D01*
X125898229Y-46197943D01*
X125889534Y-46180193D01*
X125881635Y-46160244D01*
X125875420Y-46151690D01*
X125854477Y-46122864D01*
X125847960Y-46112943D01*
X125842481Y-46103678D01*
X125824452Y-46073193D01*
X125809291Y-46058032D01*
X125796449Y-46042997D01*
X125783841Y-46025643D01*
X125748242Y-45996193D01*
X125739463Y-45988204D01*
X125385597Y-45634338D01*
X125351571Y-45572026D01*
X125352984Y-45512636D01*
X125354554Y-45506777D01*
X125354554Y-45506776D01*
X125355978Y-45501463D01*
X125375353Y-45280000D01*
X125355978Y-45058537D01*
X125298440Y-44843804D01*
X125229937Y-44696899D01*
X125206814Y-44647311D01*
X125206811Y-44647306D01*
X125204488Y-44642324D01*
X125201331Y-44637815D01*
X125080136Y-44464730D01*
X125080134Y-44464727D01*
X125076977Y-44460219D01*
X124919781Y-44303023D01*
X124915273Y-44299866D01*
X124915270Y-44299864D01*
X124829365Y-44239713D01*
X124737677Y-44175512D01*
X124732695Y-44173189D01*
X124732690Y-44173186D01*
X124627627Y-44124195D01*
X124574342Y-44077278D01*
X124554881Y-44009001D01*
X124575423Y-43941041D01*
X124627627Y-43895805D01*
X124732690Y-43846814D01*
X124732695Y-43846811D01*
X124737677Y-43844488D01*
X124887911Y-43739293D01*
X124915270Y-43720136D01*
X124915273Y-43720134D01*
X124919781Y-43716977D01*
X125076977Y-43559781D01*
X125081354Y-43553531D01*
X125201331Y-43382185D01*
X125201332Y-43382183D01*
X125204488Y-43377676D01*
X125206811Y-43372694D01*
X125206814Y-43372689D01*
X125296117Y-43181178D01*
X125296118Y-43181177D01*
X125298440Y-43176196D01*
X125312893Y-43122259D01*
X125354554Y-42966776D01*
X125355978Y-42961463D01*
X125375353Y-42740000D01*
X125355978Y-42518537D01*
X125314116Y-42362306D01*
X125299863Y-42309114D01*
X125299862Y-42309112D01*
X125298440Y-42303804D01*
X125291927Y-42289836D01*
X125206814Y-42107311D01*
X125206811Y-42107306D01*
X125204488Y-42102324D01*
X125123453Y-41986594D01*
X125080136Y-41924730D01*
X125080134Y-41924727D01*
X125076977Y-41920219D01*
X124919781Y-41763023D01*
X124915273Y-41759866D01*
X124915270Y-41759864D01*
X124743462Y-41639563D01*
X124737677Y-41635512D01*
X124732695Y-41633189D01*
X124732690Y-41633186D01*
X124541178Y-41543883D01*
X124541177Y-41543882D01*
X124536196Y-41541560D01*
X124530888Y-41540138D01*
X124530886Y-41540137D01*
X124446437Y-41517509D01*
X124321463Y-41484022D01*
X124100000Y-41464647D01*
X123878537Y-41484022D01*
X123753563Y-41517509D01*
X123669114Y-41540137D01*
X123669112Y-41540138D01*
X123663804Y-41541560D01*
X123658823Y-41543882D01*
X123658822Y-41543883D01*
X123467311Y-41633186D01*
X123467306Y-41633189D01*
X123462324Y-41635512D01*
X123457817Y-41638668D01*
X123457815Y-41638669D01*
X123284730Y-41759864D01*
X123284727Y-41759866D01*
X123280219Y-41763023D01*
X123123023Y-41920219D01*
X123119866Y-41924727D01*
X123119864Y-41924730D01*
X123076547Y-41986594D01*
X122995512Y-42102324D01*
X122993189Y-42107306D01*
X122993186Y-42107311D01*
X122908073Y-42289836D01*
X122901560Y-42303804D01*
X122900138Y-42309112D01*
X122900137Y-42309114D01*
X122885884Y-42362306D01*
X122844022Y-42518537D01*
X122824647Y-42740000D01*
X122844022Y-42961463D01*
X122845446Y-42966776D01*
X122887108Y-43122259D01*
X122901560Y-43176196D01*
X122903882Y-43181177D01*
X122903883Y-43181178D01*
X122993186Y-43372689D01*
X122993189Y-43372694D01*
X122995512Y-43377676D01*
X122998668Y-43382183D01*
X122998669Y-43382185D01*
X123118647Y-43553531D01*
X123123023Y-43559781D01*
X123280219Y-43716977D01*
X123284727Y-43720134D01*
X123284730Y-43720136D01*
X123312089Y-43739293D01*
X123462323Y-43844488D01*
X123467305Y-43846811D01*
X123467310Y-43846814D01*
X123572373Y-43895805D01*
X123625658Y-43942722D01*
X123645119Y-44010999D01*
X123624577Y-44078959D01*
X123572373Y-44124195D01*
X123467311Y-44173186D01*
X123467306Y-44173189D01*
X123462324Y-44175512D01*
X123457817Y-44178668D01*
X123457815Y-44178669D01*
X123284730Y-44299864D01*
X123284727Y-44299866D01*
X123280219Y-44303023D01*
X123123023Y-44460219D01*
X123119866Y-44464727D01*
X123119864Y-44464730D01*
X122998669Y-44637815D01*
X122995512Y-44642324D01*
X122993189Y-44647306D01*
X122993186Y-44647311D01*
X122970063Y-44696899D01*
X122901560Y-44843804D01*
X122844022Y-45058537D01*
X122824647Y-45280000D01*
X122844022Y-45501463D01*
X122901560Y-45716196D01*
X122903882Y-45721177D01*
X122903883Y-45721178D01*
X122993186Y-45912689D01*
X122993189Y-45912694D01*
X122995512Y-45917676D01*
X122998668Y-45922183D01*
X122998669Y-45922185D01*
X123118782Y-46093724D01*
X123123023Y-46099781D01*
X123280219Y-46256977D01*
X123284727Y-46260134D01*
X123284730Y-46260136D01*
X123285600Y-46260745D01*
X123462323Y-46384488D01*
X123467305Y-46386811D01*
X123467310Y-46386814D01*
X123556220Y-46428273D01*
X123569905Y-46434654D01*
X123572373Y-46435805D01*
X123625658Y-46482722D01*
X123645119Y-46550999D01*
X123624577Y-46618959D01*
X123572373Y-46664195D01*
X123467311Y-46713186D01*
X123467306Y-46713189D01*
X123462324Y-46715512D01*
X123457817Y-46718668D01*
X123457815Y-46718669D01*
X123284730Y-46839864D01*
X123284727Y-46839866D01*
X123280219Y-46843023D01*
X123123023Y-47000219D01*
X123119866Y-47004727D01*
X123119864Y-47004730D01*
X122998669Y-47177815D01*
X122995512Y-47182324D01*
X122993189Y-47187306D01*
X122993186Y-47187311D01*
X122911638Y-47362192D01*
X122901560Y-47383804D01*
X122844022Y-47598537D01*
X122824647Y-47820000D01*
X122844022Y-48041463D01*
X122901560Y-48256196D01*
X122903882Y-48261177D01*
X122903883Y-48261178D01*
X122993186Y-48452689D01*
X122993189Y-48452694D01*
X122995512Y-48457676D01*
X122998668Y-48462183D01*
X122998669Y-48462185D01*
X123118782Y-48633724D01*
X123123023Y-48639781D01*
X123280219Y-48796977D01*
X123284727Y-48800134D01*
X123284730Y-48800136D01*
X123360495Y-48853187D01*
X123462323Y-48924488D01*
X123467305Y-48926811D01*
X123467310Y-48926814D01*
X123572373Y-48975805D01*
X123625658Y-49022722D01*
X123645119Y-49090999D01*
X123624577Y-49158959D01*
X123572373Y-49204195D01*
X123467311Y-49253186D01*
X123467306Y-49253189D01*
X123462324Y-49255512D01*
X123457817Y-49258668D01*
X123457815Y-49258669D01*
X123284730Y-49379864D01*
X123284727Y-49379866D01*
X123280219Y-49383023D01*
X123123023Y-49540219D01*
X123119866Y-49544727D01*
X123119864Y-49544730D01*
X122998669Y-49717815D01*
X122995512Y-49722324D01*
X122993189Y-49727306D01*
X122993186Y-49727311D01*
X122908000Y-49909993D01*
X122901560Y-49923804D01*
X122844022Y-50138537D01*
X122824647Y-50360000D01*
X122844022Y-50581463D01*
X122901560Y-50796196D01*
X122903882Y-50801177D01*
X122903883Y-50801178D01*
X122993186Y-50992689D01*
X122993189Y-50992694D01*
X122995512Y-50997676D01*
X122998668Y-51002183D01*
X122998669Y-51002185D01*
X123118782Y-51173724D01*
X123123023Y-51179781D01*
X123280219Y-51336977D01*
X123284727Y-51340134D01*
X123284730Y-51340136D01*
X123290257Y-51344006D01*
X123462323Y-51464488D01*
X123467305Y-51466811D01*
X123467310Y-51466814D01*
X123572373Y-51515805D01*
X123625658Y-51562722D01*
X123645119Y-51630999D01*
X123624577Y-51698959D01*
X123572373Y-51744195D01*
X123467311Y-51793186D01*
X123467306Y-51793189D01*
X123462324Y-51795512D01*
X123457817Y-51798668D01*
X123457815Y-51798669D01*
X123284730Y-51919864D01*
X123284727Y-51919866D01*
X123280219Y-51923023D01*
X123123023Y-52080219D01*
X123119866Y-52084727D01*
X123119864Y-52084730D01*
X122998669Y-52257815D01*
X122995512Y-52262324D01*
X122993189Y-52267306D01*
X122993186Y-52267311D01*
X122908000Y-52449993D01*
X122901560Y-52463804D01*
X122844022Y-52678537D01*
X122824647Y-52900000D01*
X122844022Y-53121463D01*
X122901560Y-53336196D01*
X122903882Y-53341177D01*
X122903883Y-53341178D01*
X122993186Y-53532689D01*
X122993189Y-53532694D01*
X122995512Y-53537676D01*
X122998668Y-53542183D01*
X122998669Y-53542185D01*
X123118782Y-53713724D01*
X123123023Y-53719781D01*
X123280219Y-53876977D01*
X123284727Y-53880134D01*
X123284730Y-53880136D01*
X123360495Y-53933187D01*
X123462323Y-54004488D01*
X123467305Y-54006811D01*
X123467310Y-54006814D01*
X123572373Y-54055805D01*
X123625658Y-54102722D01*
X123645119Y-54170999D01*
X123624577Y-54238959D01*
X123572373Y-54284195D01*
X123467311Y-54333186D01*
X123467306Y-54333189D01*
X123462324Y-54335512D01*
X123457817Y-54338668D01*
X123457815Y-54338669D01*
X123284730Y-54459864D01*
X123284727Y-54459866D01*
X123280219Y-54463023D01*
X123123023Y-54620219D01*
X123119866Y-54624727D01*
X123119864Y-54624730D01*
X123008756Y-54783409D01*
X122995512Y-54802324D01*
X122993189Y-54807306D01*
X122993186Y-54807311D01*
X122907229Y-54991646D01*
X122901560Y-55003804D01*
X122844022Y-55218537D01*
X122824647Y-55440000D01*
X122844022Y-55661463D01*
X122901560Y-55876196D01*
X122903882Y-55881177D01*
X122903883Y-55881178D01*
X122993186Y-56072689D01*
X122993189Y-56072694D01*
X122995512Y-56077676D01*
X122998668Y-56082183D01*
X122998669Y-56082185D01*
X123118782Y-56253724D01*
X123123023Y-56259781D01*
X123280219Y-56416977D01*
X123284727Y-56420134D01*
X123284730Y-56420136D01*
X123304100Y-56433699D01*
X123462323Y-56544488D01*
X123467305Y-56546811D01*
X123467310Y-56546814D01*
X123572373Y-56595805D01*
X123625658Y-56642722D01*
X123645119Y-56710999D01*
X123624577Y-56778959D01*
X123572373Y-56824195D01*
X123467311Y-56873186D01*
X123467306Y-56873189D01*
X123462324Y-56875512D01*
X123457817Y-56878668D01*
X123457815Y-56878669D01*
X123284730Y-56999864D01*
X123284727Y-56999866D01*
X123280219Y-57003023D01*
X123123023Y-57160219D01*
X123119866Y-57164727D01*
X123119864Y-57164730D01*
X122998669Y-57337815D01*
X122995512Y-57342324D01*
X122993189Y-57347306D01*
X122993186Y-57347311D01*
X122908000Y-57529993D01*
X122901560Y-57543804D01*
X122844022Y-57758537D01*
X122824647Y-57980000D01*
X122844022Y-58201463D01*
X122901560Y-58416196D01*
X122903882Y-58421177D01*
X122903883Y-58421178D01*
X122993186Y-58612689D01*
X122993189Y-58612694D01*
X122995512Y-58617676D01*
X122998668Y-58622183D01*
X122998669Y-58622185D01*
X123111134Y-58782801D01*
X123123023Y-58799781D01*
X123280219Y-58956977D01*
X123284727Y-58960134D01*
X123284730Y-58960136D01*
X123360495Y-59013187D01*
X123462323Y-59084488D01*
X123467305Y-59086811D01*
X123467310Y-59086814D01*
X123572373Y-59135805D01*
X123625658Y-59182722D01*
X123645119Y-59250999D01*
X123624577Y-59318959D01*
X123572373Y-59364195D01*
X123467311Y-59413186D01*
X123467306Y-59413189D01*
X123462324Y-59415512D01*
X123457817Y-59418668D01*
X123457815Y-59418669D01*
X123284730Y-59539864D01*
X123284727Y-59539866D01*
X123280219Y-59543023D01*
X123123023Y-59700219D01*
X123119866Y-59704727D01*
X123119864Y-59704730D01*
X122998669Y-59877815D01*
X122995512Y-59882324D01*
X122993189Y-59887306D01*
X122993186Y-59887311D01*
X122907229Y-60071646D01*
X122901560Y-60083804D01*
X122844022Y-60298537D01*
X122824647Y-60520000D01*
X122844022Y-60741463D01*
X122901560Y-60956196D01*
X122903882Y-60961177D01*
X122903883Y-60961178D01*
X122993186Y-61152689D01*
X122993189Y-61152694D01*
X122995512Y-61157676D01*
X122998668Y-61162183D01*
X122998669Y-61162185D01*
X123098206Y-61304338D01*
X123123023Y-61339781D01*
X123280219Y-61496977D01*
X123284727Y-61500134D01*
X123284730Y-61500136D01*
X123306508Y-61515385D01*
X123462323Y-61624488D01*
X123467305Y-61626811D01*
X123467310Y-61626814D01*
X123572373Y-61675805D01*
X123625658Y-61722722D01*
X123645119Y-61790999D01*
X123624577Y-61858959D01*
X123572373Y-61904195D01*
X123467311Y-61953186D01*
X123467306Y-61953189D01*
X123462324Y-61955512D01*
X123457817Y-61958668D01*
X123457815Y-61958669D01*
X123284730Y-62079864D01*
X123284727Y-62079866D01*
X123280219Y-62083023D01*
X123123023Y-62240219D01*
X123119866Y-62244727D01*
X123119864Y-62244730D01*
X122998669Y-62417815D01*
X122995512Y-62422324D01*
X122993189Y-62427306D01*
X122993186Y-62427311D01*
X122916464Y-62591843D01*
X122901560Y-62623804D01*
X122900138Y-62629112D01*
X122900137Y-62629114D01*
X122893909Y-62652356D01*
X122844022Y-62838537D01*
X122824647Y-63060000D01*
X122844022Y-63281463D01*
X122901560Y-63496196D01*
X122903882Y-63501177D01*
X122903883Y-63501178D01*
X122993186Y-63692689D01*
X122993189Y-63692694D01*
X122995512Y-63697676D01*
X122998668Y-63702183D01*
X122998669Y-63702185D01*
X123111288Y-63863021D01*
X123123023Y-63879781D01*
X123280219Y-64036977D01*
X123284727Y-64040134D01*
X123284730Y-64040136D01*
X123360495Y-64093187D01*
X123462323Y-64164488D01*
X123467305Y-64166811D01*
X123467310Y-64166814D01*
X123557783Y-64209002D01*
X123567396Y-64213484D01*
X123572373Y-64215805D01*
X123625658Y-64262722D01*
X123645119Y-64330999D01*
X123624577Y-64398959D01*
X123572373Y-64444195D01*
X123467311Y-64493186D01*
X123467306Y-64493189D01*
X123462324Y-64495512D01*
X123457817Y-64498668D01*
X123457815Y-64498669D01*
X123284730Y-64619864D01*
X123284727Y-64619866D01*
X123280219Y-64623023D01*
X123123023Y-64780219D01*
X123119866Y-64784727D01*
X123119864Y-64784730D01*
X123011228Y-64939879D01*
X122995512Y-64962324D01*
X122993189Y-64967306D01*
X122993186Y-64967311D01*
X122918110Y-65128313D01*
X122901560Y-65163804D01*
X122900138Y-65169112D01*
X122900137Y-65169114D01*
X122892081Y-65199178D01*
X122844022Y-65378537D01*
X122824647Y-65600000D01*
X122844022Y-65821463D01*
X122845446Y-65826776D01*
X122845446Y-65826777D01*
X122847016Y-65832636D01*
X122845324Y-65903613D01*
X122814403Y-65954338D01*
X122492396Y-66276345D01*
X122483613Y-66284337D01*
X122476920Y-66288584D01*
X122471494Y-66294362D01*
X122428395Y-66340258D01*
X122425640Y-66343100D01*
X122405073Y-66363667D01*
X122402356Y-66367170D01*
X122394648Y-66376195D01*
X122363028Y-66409867D01*
X122359207Y-66416818D01*
X122359206Y-66416819D01*
X122352697Y-66428658D01*
X122341843Y-66445182D01*
X122336836Y-66451638D01*
X122328696Y-66462132D01*
X122325549Y-66469404D01*
X122325548Y-66469406D01*
X122310346Y-66504535D01*
X122305124Y-66515195D01*
X122290659Y-66541507D01*
X122282876Y-66555663D01*
X122277541Y-66576441D01*
X122271142Y-66595131D01*
X122262620Y-66614824D01*
X122261380Y-66622655D01*
X122255394Y-66660448D01*
X122252987Y-66672071D01*
X122247139Y-66694848D01*
X122241500Y-66716812D01*
X122241500Y-66738259D01*
X122239949Y-66757969D01*
X122236594Y-66779152D01*
X112708011Y-66779152D01*
X112708011Y-63982548D01*
X112708570Y-63970692D01*
X112710300Y-63962952D01*
X112708073Y-63892100D01*
X112708011Y-63888142D01*
X112708011Y-63859057D01*
X112707457Y-63854668D01*
X112706524Y-63842826D01*
X112705509Y-63810516D01*
X112705073Y-63796658D01*
X112699091Y-63776068D01*
X112695081Y-63756705D01*
X112693386Y-63743285D01*
X112693386Y-63743284D01*
X112692393Y-63735425D01*
X112689477Y-63728060D01*
X112689476Y-63728056D01*
X112675385Y-63692468D01*
X112671546Y-63681258D01*
X112658656Y-63636889D01*
X112647736Y-63618424D01*
X112639045Y-63600684D01*
X112631146Y-63580733D01*
X112603993Y-63543360D01*
X112597478Y-63533441D01*
X112578004Y-63500512D01*
X112578001Y-63500508D01*
X112573964Y-63493682D01*
X112558800Y-63478518D01*
X112545959Y-63463484D01*
X112538012Y-63452546D01*
X112533352Y-63446132D01*
X112497758Y-63416686D01*
X112488979Y-63408697D01*
X111822677Y-62742395D01*
X111814687Y-62733615D01*
X111814685Y-62733613D01*
X111810438Y-62726920D01*
X111758764Y-62678395D01*
X111755923Y-62675641D01*
X111735355Y-62655073D01*
X111731848Y-62652353D01*
X111722826Y-62644647D01*
X111694935Y-62618456D01*
X111689155Y-62613028D01*
X111676515Y-62606079D01*
X111670364Y-62602697D01*
X111653840Y-62591843D01*
X111643154Y-62583555D01*
X111636890Y-62578696D01*
X111629618Y-62575549D01*
X111629616Y-62575548D01*
X111594487Y-62560346D01*
X111583827Y-62555124D01*
X111550306Y-62536695D01*
X111550304Y-62536694D01*
X111543359Y-62532876D01*
X111522581Y-62527541D01*
X111503891Y-62521142D01*
X111484198Y-62512620D01*
X111438574Y-62505394D01*
X111426951Y-62502987D01*
X111398950Y-62495798D01*
X111382210Y-62491500D01*
X111360763Y-62491500D01*
X111341053Y-62489949D01*
X111327699Y-62487834D01*
X111319870Y-62486594D01*
X111273881Y-62490941D01*
X111262026Y-62491500D01*
X102326022Y-62491500D01*
X102257901Y-62471498D01*
X102236927Y-62454595D01*
X100645405Y-60863073D01*
X100611379Y-60800761D01*
X100608500Y-60773978D01*
X100608500Y-51682059D01*
X100609059Y-51670203D01*
X100610789Y-51662463D01*
X100610210Y-51644022D01*
X100608562Y-51591611D01*
X100608500Y-51587653D01*
X100608500Y-51558568D01*
X100607946Y-51554179D01*
X100607013Y-51542337D01*
X100605811Y-51504094D01*
X100605562Y-51496169D01*
X100599580Y-51475579D01*
X100595570Y-51456216D01*
X100593875Y-51442796D01*
X100593875Y-51442795D01*
X100592882Y-51434936D01*
X100589966Y-51427571D01*
X100589965Y-51427567D01*
X100575874Y-51391979D01*
X100572035Y-51380769D01*
X100559145Y-51336400D01*
X100548225Y-51317935D01*
X100539534Y-51300195D01*
X100531635Y-51280244D01*
X100504482Y-51242871D01*
X100497967Y-51232952D01*
X100478493Y-51200023D01*
X100478490Y-51200019D01*
X100474453Y-51193193D01*
X100459289Y-51178029D01*
X100446448Y-51162995D01*
X100438501Y-51152057D01*
X100433841Y-51145643D01*
X100398247Y-51116197D01*
X100389468Y-51108208D01*
X99987711Y-50706451D01*
X99953685Y-50644139D01*
X99954914Y-50592426D01*
X99953599Y-50592194D01*
X99954554Y-50586776D01*
X99955978Y-50581463D01*
X99975353Y-50360000D01*
X99955978Y-50138537D01*
X99898440Y-49923804D01*
X99892000Y-49909993D01*
X99806814Y-49727311D01*
X99806811Y-49727306D01*
X99804488Y-49722324D01*
X99801331Y-49717815D01*
X99680136Y-49544730D01*
X99680134Y-49544727D01*
X99676977Y-49540219D01*
X99519781Y-49383023D01*
X99515273Y-49379866D01*
X99515270Y-49379864D01*
X99439505Y-49326813D01*
X99337677Y-49255512D01*
X99332695Y-49253189D01*
X99332690Y-49253186D01*
X99227627Y-49204195D01*
X99174342Y-49157278D01*
X99154881Y-49089001D01*
X99175423Y-49021041D01*
X99227627Y-48975805D01*
X99332690Y-48926814D01*
X99332695Y-48926811D01*
X99337677Y-48924488D01*
X99439505Y-48853187D01*
X99515270Y-48800136D01*
X99515273Y-48800134D01*
X99519781Y-48796977D01*
X99676977Y-48639781D01*
X99681219Y-48633724D01*
X99801331Y-48462185D01*
X99801332Y-48462183D01*
X99804488Y-48457676D01*
X99806811Y-48452694D01*
X99806814Y-48452689D01*
X99896117Y-48261178D01*
X99896118Y-48261177D01*
X99898440Y-48256196D01*
X99955978Y-48041463D01*
X99975353Y-47820000D01*
X99955978Y-47598537D01*
X99898440Y-47383804D01*
X99888362Y-47362192D01*
X99806814Y-47187311D01*
X99806811Y-47187306D01*
X99804488Y-47182324D01*
X99801331Y-47177815D01*
X99680136Y-47004730D01*
X99680134Y-47004727D01*
X99676977Y-47000219D01*
X99519781Y-46843023D01*
X99515273Y-46839866D01*
X99515270Y-46839864D01*
X99439505Y-46786813D01*
X99337677Y-46715512D01*
X99332695Y-46713189D01*
X99332690Y-46713186D01*
X99227627Y-46664195D01*
X99174342Y-46617278D01*
X99154881Y-46549001D01*
X99175423Y-46481041D01*
X99227627Y-46435805D01*
X99230096Y-46434654D01*
X99243780Y-46428273D01*
X99332690Y-46386814D01*
X99332695Y-46386811D01*
X99337677Y-46384488D01*
X99514400Y-46260745D01*
X99515270Y-46260136D01*
X99515273Y-46260134D01*
X99519781Y-46256977D01*
X99676977Y-46099781D01*
X99681219Y-46093724D01*
X99801331Y-45922185D01*
X99801332Y-45922183D01*
X99804488Y-45917676D01*
X99806811Y-45912694D01*
X99806814Y-45912689D01*
X99896117Y-45721178D01*
X99896118Y-45721177D01*
X99898440Y-45716196D01*
X99955978Y-45501463D01*
X99975353Y-45280000D01*
X99955978Y-45058537D01*
X99898440Y-44843804D01*
X99829937Y-44696899D01*
X99806814Y-44647311D01*
X99806811Y-44647306D01*
X99804488Y-44642324D01*
X99801331Y-44637815D01*
X99680136Y-44464730D01*
X99680134Y-44464727D01*
X99676977Y-44460219D01*
X99519781Y-44303023D01*
X99515273Y-44299866D01*
X99515270Y-44299864D01*
X99456869Y-44258971D01*
X99429365Y-44239713D01*
X99385037Y-44184256D01*
X99377728Y-44113637D01*
X99409759Y-44050276D01*
X99470960Y-44014291D01*
X99501636Y-44010500D01*
X99510134Y-44010500D01*
X99572316Y-44003745D01*
X99708705Y-43952615D01*
X99825261Y-43865261D01*
X99912615Y-43748705D01*
X99963745Y-43612316D01*
X99970500Y-43550134D01*
X99970500Y-42410277D01*
X99990502Y-42342156D01*
X100044158Y-42295663D01*
X100116861Y-42285933D01*
X100140695Y-42289836D01*
X100181412Y-42296504D01*
X100181419Y-42296505D01*
X100184993Y-42297090D01*
X100345404Y-42304655D01*
X100527931Y-42313263D01*
X100527932Y-42313263D01*
X100531558Y-42313434D01*
X100540415Y-42312830D01*
X100874073Y-42290084D01*
X100874081Y-42290083D01*
X100877704Y-42289836D01*
X100881279Y-42289173D01*
X100881282Y-42289173D01*
X101215279Y-42227270D01*
X101215283Y-42227269D01*
X101218844Y-42226609D01*
X101550456Y-42124592D01*
X101868145Y-41985136D01*
X102112511Y-41842341D01*
X102164560Y-41811926D01*
X102164562Y-41811925D01*
X102167700Y-41810091D01*
X102170609Y-41807907D01*
X102442244Y-41603958D01*
X102442248Y-41603955D01*
X102445151Y-41601775D01*
X102696819Y-41362950D01*
X102919370Y-41096783D01*
X103109853Y-40806799D01*
X103258995Y-40510263D01*
X103264117Y-40500080D01*
X103264120Y-40500072D01*
X103265744Y-40496844D01*
X103384977Y-40171026D01*
X103385822Y-40167504D01*
X103385825Y-40167496D01*
X103465124Y-39837191D01*
X103465125Y-39837187D01*
X103465971Y-39833662D01*
X103466408Y-39830052D01*
X103507316Y-39492004D01*
X103507316Y-39491997D01*
X103507652Y-39489225D01*
X103513599Y-39300000D01*
X103513438Y-39297204D01*
X103493836Y-38957246D01*
X103493835Y-38957241D01*
X103493627Y-38953626D01*
X103476626Y-38856214D01*
X103434600Y-38615415D01*
X103434598Y-38615408D01*
X103433976Y-38611842D01*
X103335437Y-38279180D01*
X103265974Y-38116325D01*
X103200740Y-37963386D01*
X103200738Y-37963383D01*
X103199316Y-37960048D01*
X103149569Y-37872831D01*
X103029208Y-37661816D01*
X103027417Y-37658676D01*
X102822018Y-37379060D01*
X102585842Y-37124904D01*
X102322019Y-36899578D01*
X102082430Y-36738581D01*
X102037046Y-36683986D01*
X102028383Y-36613520D01*
X102059191Y-36549556D01*
X102119690Y-36512403D01*
X102152707Y-36508000D01*
X157751192Y-36508000D01*
X157819313Y-36528002D01*
G37*
G04 #@! TD.AperFunction*
G04 #@! TA.AperFunction,Conductor*
G36*
X116233411Y-90456407D02*
G01*
X116245139Y-90460297D01*
X116251975Y-90460997D01*
X116251978Y-90460998D01*
X116295031Y-90465409D01*
X116349600Y-90471000D01*
X119350400Y-90471000D01*
X119353646Y-90470663D01*
X119353650Y-90470663D01*
X119383583Y-90467557D01*
X119456166Y-90460026D01*
X119466805Y-90456476D01*
X119506680Y-90450000D01*
X119695499Y-90450000D01*
X119704487Y-90450321D01*
X119753871Y-90453853D01*
X119975650Y-90469715D01*
X119993433Y-90472272D01*
X120254658Y-90529098D01*
X120271900Y-90534160D01*
X120522393Y-90627589D01*
X120538740Y-90635055D01*
X120773375Y-90763176D01*
X120788498Y-90772895D01*
X121002510Y-90933103D01*
X121016096Y-90944876D01*
X121205124Y-91133904D01*
X121216897Y-91147490D01*
X121377105Y-91361502D01*
X121386824Y-91376625D01*
X121514945Y-91611260D01*
X121522411Y-91627607D01*
X121615839Y-91878097D01*
X121620902Y-91895342D01*
X121677728Y-92156567D01*
X121680286Y-92174355D01*
X121699679Y-92445513D01*
X121700000Y-92454501D01*
X121700000Y-96995499D01*
X121699679Y-97004487D01*
X121680286Y-97275645D01*
X121677728Y-97293433D01*
X121620903Y-97554654D01*
X121615840Y-97571900D01*
X121522411Y-97822393D01*
X121514945Y-97838740D01*
X121386824Y-98073375D01*
X121377105Y-98088498D01*
X121216897Y-98302510D01*
X121205124Y-98316096D01*
X121066125Y-98455095D01*
X121003813Y-98489121D01*
X120977030Y-98492000D01*
X110522970Y-98492000D01*
X110454849Y-98471998D01*
X110433875Y-98455095D01*
X110294876Y-98316096D01*
X110283103Y-98302510D01*
X110122895Y-98088498D01*
X110113176Y-98073375D01*
X109985055Y-97838740D01*
X109977589Y-97822393D01*
X109884160Y-97571900D01*
X109879097Y-97554654D01*
X109822272Y-97293433D01*
X109819714Y-97275645D01*
X109800321Y-97004487D01*
X109800000Y-96995499D01*
X109800000Y-95976589D01*
X112028080Y-95976589D01*
X112035972Y-95980067D01*
X112170166Y-96005544D01*
X112179423Y-96006598D01*
X112438607Y-96016783D01*
X112447921Y-96016457D01*
X112705754Y-95988219D01*
X112714932Y-95986518D01*
X112723038Y-95984384D01*
X112735112Y-95977096D01*
X112734940Y-95975600D01*
X112731953Y-95971166D01*
X112392808Y-95632022D01*
X112378870Y-95624411D01*
X112377034Y-95624543D01*
X112370422Y-95628792D01*
X112034642Y-95964571D01*
X112028080Y-95976589D01*
X109800000Y-95976589D01*
X109800000Y-94162211D01*
X110567775Y-94162211D01*
X110580220Y-94421288D01*
X110581356Y-94430543D01*
X110604184Y-94545304D01*
X110610597Y-94557563D01*
X110617699Y-94553088D01*
X110952978Y-94217808D01*
X110959355Y-94206130D01*
X113799411Y-94206130D01*
X113799543Y-94207966D01*
X113803792Y-94214578D01*
X114143643Y-94554430D01*
X114156022Y-94561189D01*
X114157483Y-94560095D01*
X114190187Y-94303019D01*
X114190668Y-94296733D01*
X114191936Y-94248299D01*
X115687910Y-94248299D01*
X115706588Y-94304284D01*
X115712761Y-94317462D01*
X115798063Y-94455307D01*
X115807099Y-94466708D01*
X115921829Y-94581239D01*
X115933240Y-94590251D01*
X116071243Y-94675316D01*
X116084424Y-94681463D01*
X116238710Y-94732638D01*
X116252086Y-94735505D01*
X116346438Y-94745172D01*
X116352854Y-94745500D01*
X117269385Y-94745500D01*
X117284624Y-94741025D01*
X117285829Y-94739635D01*
X117287500Y-94731952D01*
X117287500Y-94727384D01*
X118412500Y-94727384D01*
X118416975Y-94742623D01*
X118418365Y-94743828D01*
X118426048Y-94745499D01*
X119347095Y-94745499D01*
X119353614Y-94745162D01*
X119449206Y-94735243D01*
X119462600Y-94732351D01*
X119616784Y-94680912D01*
X119629962Y-94674739D01*
X119767807Y-94589437D01*
X119779208Y-94580401D01*
X119893739Y-94465671D01*
X119902751Y-94454260D01*
X119987816Y-94316257D01*
X119993963Y-94303076D01*
X120010011Y-94254694D01*
X120010500Y-94240601D01*
X120004289Y-94237500D01*
X118430615Y-94237500D01*
X118415376Y-94241975D01*
X118414171Y-94243365D01*
X118412500Y-94251048D01*
X118412500Y-94727384D01*
X117287500Y-94727384D01*
X117287500Y-94255615D01*
X117283025Y-94240376D01*
X117281635Y-94239171D01*
X117273952Y-94237500D01*
X115702422Y-94237500D01*
X115688891Y-94241473D01*
X115687910Y-94248299D01*
X114191936Y-94248299D01*
X114192987Y-94208160D01*
X114192836Y-94201846D01*
X114173502Y-93941674D01*
X114172122Y-93932448D01*
X114156679Y-93864199D01*
X114149819Y-93851881D01*
X114149481Y-93851908D01*
X114143289Y-93855924D01*
X113807022Y-94192192D01*
X113799411Y-94206130D01*
X110959355Y-94206130D01*
X110960589Y-94203870D01*
X110960457Y-94202034D01*
X110956208Y-94195422D01*
X110618724Y-93857937D01*
X110606345Y-93851178D01*
X110605375Y-93851904D01*
X110602848Y-93857194D01*
X110595628Y-93885625D01*
X110594006Y-93894822D01*
X110568020Y-94152885D01*
X110567775Y-94162211D01*
X109800000Y-94162211D01*
X109800000Y-93109399D01*
X115689500Y-93109399D01*
X115695711Y-93112500D01*
X117269385Y-93112500D01*
X117284624Y-93108025D01*
X117285829Y-93106635D01*
X117287500Y-93098952D01*
X117287500Y-93094385D01*
X118412500Y-93094385D01*
X118416975Y-93109624D01*
X118418365Y-93110829D01*
X118426048Y-93112500D01*
X119997578Y-93112500D01*
X120011109Y-93108527D01*
X120012090Y-93101701D01*
X119993412Y-93045716D01*
X119987239Y-93032538D01*
X119901937Y-92894693D01*
X119892901Y-92883292D01*
X119778171Y-92768761D01*
X119766760Y-92759749D01*
X119628757Y-92674684D01*
X119615576Y-92668537D01*
X119461290Y-92617362D01*
X119447914Y-92614495D01*
X119353562Y-92604828D01*
X119347145Y-92604500D01*
X118430615Y-92604500D01*
X118415376Y-92608975D01*
X118414171Y-92610365D01*
X118412500Y-92618048D01*
X118412500Y-93094385D01*
X117287500Y-93094385D01*
X117287500Y-92622616D01*
X117283025Y-92607377D01*
X117281635Y-92606172D01*
X117273952Y-92604501D01*
X116352905Y-92604501D01*
X116346386Y-92604838D01*
X116250794Y-92614757D01*
X116237400Y-92617649D01*
X116083216Y-92669088D01*
X116070038Y-92675261D01*
X115932193Y-92760563D01*
X115920792Y-92769599D01*
X115806261Y-92884329D01*
X115797249Y-92895740D01*
X115712184Y-93033743D01*
X115706037Y-93046924D01*
X115689989Y-93095306D01*
X115689500Y-93109399D01*
X109800000Y-93109399D01*
X109800000Y-92454501D01*
X109800321Y-92445513D01*
X109801273Y-92432196D01*
X112024947Y-92432196D01*
X112030001Y-92440788D01*
X112367192Y-92777978D01*
X112381130Y-92785589D01*
X112382966Y-92785457D01*
X112389578Y-92781208D01*
X112726382Y-92444404D01*
X112732727Y-92432785D01*
X112724162Y-92429144D01*
X112542631Y-92399580D01*
X112533342Y-92398768D01*
X112273992Y-92395373D01*
X112264680Y-92395943D01*
X112036590Y-92426984D01*
X112024947Y-92432196D01*
X109801273Y-92432196D01*
X109819714Y-92174355D01*
X109822272Y-92156567D01*
X109879098Y-91895342D01*
X109884161Y-91878097D01*
X109977589Y-91627607D01*
X109985055Y-91611260D01*
X110113176Y-91376625D01*
X110122895Y-91361502D01*
X110283103Y-91147490D01*
X110294876Y-91133904D01*
X110483904Y-90944876D01*
X110497490Y-90933103D01*
X110711502Y-90772895D01*
X110726625Y-90763176D01*
X110961260Y-90635055D01*
X110977607Y-90627589D01*
X111228100Y-90534160D01*
X111245342Y-90529098D01*
X111506567Y-90472272D01*
X111524350Y-90469715D01*
X111746129Y-90453853D01*
X111795513Y-90450321D01*
X111804501Y-90450000D01*
X116193744Y-90450000D01*
X116233411Y-90456407D01*
G37*
G04 #@! TD.AperFunction*
G04 #@! TA.AperFunction,Conductor*
G36*
X136093054Y-75780002D02*
G01*
X136139547Y-75833658D01*
X136149651Y-75903932D01*
X136120157Y-75968512D01*
X136069163Y-76003982D01*
X135961946Y-76044176D01*
X135946351Y-76052714D01*
X135844276Y-76129215D01*
X135831715Y-76141776D01*
X135755214Y-76243851D01*
X135746676Y-76259446D01*
X135701522Y-76379894D01*
X135697895Y-76395149D01*
X135692369Y-76446014D01*
X135692000Y-76452828D01*
X135692000Y-76879385D01*
X135696475Y-76894624D01*
X135697865Y-76895829D01*
X135705548Y-76897500D01*
X138105500Y-76897500D01*
X138173621Y-76917502D01*
X138220114Y-76971158D01*
X138231500Y-77023500D01*
X138231500Y-78345634D01*
X138238255Y-78407816D01*
X138289385Y-78544205D01*
X138376739Y-78660761D01*
X138419567Y-78692859D01*
X138462080Y-78749716D01*
X138467064Y-78777385D01*
X138474475Y-78802623D01*
X138475865Y-78803828D01*
X138483548Y-78805499D01*
X138514669Y-78805499D01*
X138521490Y-78805129D01*
X138572349Y-78799606D01*
X138574756Y-78799033D01*
X138577620Y-78799033D01*
X138580207Y-78798752D01*
X138580238Y-78799033D01*
X138629118Y-78799033D01*
X138629684Y-78799245D01*
X138637541Y-78800099D01*
X138637543Y-78800099D01*
X138687254Y-78805499D01*
X138691866Y-78806000D01*
X139788134Y-78806000D01*
X139796134Y-78805131D01*
X139842464Y-78800098D01*
X139849874Y-78799293D01*
X139850316Y-78799245D01*
X139850321Y-78799293D01*
X139899679Y-78799293D01*
X139899684Y-78799245D01*
X139907536Y-78800098D01*
X139953867Y-78805131D01*
X139961866Y-78806000D01*
X141058134Y-78806000D01*
X141066134Y-78805131D01*
X141112464Y-78800098D01*
X141119874Y-78799293D01*
X141120316Y-78799245D01*
X141120321Y-78799293D01*
X141169679Y-78799293D01*
X141169684Y-78799245D01*
X141177536Y-78800098D01*
X141223867Y-78805131D01*
X141231866Y-78806000D01*
X142328134Y-78806000D01*
X142336134Y-78805131D01*
X142382464Y-78800098D01*
X142389874Y-78799293D01*
X142390316Y-78799245D01*
X142390321Y-78799293D01*
X142439679Y-78799293D01*
X142439684Y-78799245D01*
X142447536Y-78800098D01*
X142493867Y-78805131D01*
X142501866Y-78806000D01*
X143598134Y-78806000D01*
X143602746Y-78805499D01*
X143652466Y-78800098D01*
X143652468Y-78800098D01*
X143660316Y-78799245D01*
X143660882Y-78799033D01*
X143709763Y-78799032D01*
X143709793Y-78798752D01*
X143712371Y-78799032D01*
X143715237Y-78799032D01*
X143717648Y-78799605D01*
X143768514Y-78805131D01*
X143775328Y-78805500D01*
X143801885Y-78805500D01*
X143817124Y-78801025D01*
X143818329Y-78799635D01*
X143820994Y-78787384D01*
X144820000Y-78787384D01*
X144824475Y-78802623D01*
X144825865Y-78803828D01*
X144833548Y-78805499D01*
X144864669Y-78805499D01*
X144871490Y-78805129D01*
X144922352Y-78799605D01*
X144925852Y-78798773D01*
X144930014Y-78798773D01*
X144930207Y-78798752D01*
X144930209Y-78798773D01*
X144979791Y-78798773D01*
X144979793Y-78798752D01*
X144979986Y-78798773D01*
X144984149Y-78798773D01*
X144987650Y-78799606D01*
X145038514Y-78805131D01*
X145045328Y-78805500D01*
X145071885Y-78805500D01*
X145087124Y-78801025D01*
X145088329Y-78799635D01*
X145090000Y-78791952D01*
X145090000Y-78787384D01*
X146090000Y-78787384D01*
X146094475Y-78802623D01*
X146095865Y-78803828D01*
X146103548Y-78805499D01*
X146134669Y-78805499D01*
X146141490Y-78805129D01*
X146192352Y-78799605D01*
X146207604Y-78795979D01*
X146328054Y-78750824D01*
X146343649Y-78742286D01*
X146445724Y-78665785D01*
X146458285Y-78653224D01*
X146534786Y-78551149D01*
X146543324Y-78535554D01*
X146588478Y-78415106D01*
X146592105Y-78399851D01*
X146597631Y-78348986D01*
X146598000Y-78342172D01*
X146598000Y-78342169D01*
X150152001Y-78342169D01*
X150152371Y-78348990D01*
X150157895Y-78399852D01*
X150161521Y-78415104D01*
X150206676Y-78535554D01*
X150215214Y-78551149D01*
X150291715Y-78653224D01*
X150304276Y-78665785D01*
X150406351Y-78742286D01*
X150421946Y-78750824D01*
X150542394Y-78795978D01*
X150557649Y-78799605D01*
X150608514Y-78805131D01*
X150615328Y-78805500D01*
X150641885Y-78805500D01*
X150657124Y-78801025D01*
X150658329Y-78799635D01*
X150660000Y-78791952D01*
X150660000Y-78787384D01*
X151660000Y-78787384D01*
X151664475Y-78802623D01*
X151665865Y-78803828D01*
X151673548Y-78805499D01*
X151704669Y-78805499D01*
X151711490Y-78805129D01*
X151762352Y-78799605D01*
X151765852Y-78798773D01*
X151770014Y-78798773D01*
X151770207Y-78798752D01*
X151770209Y-78798773D01*
X151819791Y-78798773D01*
X151819793Y-78798752D01*
X151819986Y-78798773D01*
X151824149Y-78798773D01*
X151827650Y-78799606D01*
X151878514Y-78805131D01*
X151885328Y-78805500D01*
X151911885Y-78805500D01*
X151927124Y-78801025D01*
X151928329Y-78799635D01*
X151930000Y-78791952D01*
X151930000Y-78787384D01*
X152930000Y-78787384D01*
X152934475Y-78802623D01*
X152935865Y-78803828D01*
X152943548Y-78805499D01*
X152974669Y-78805499D01*
X152981490Y-78805129D01*
X153032352Y-78799605D01*
X153035852Y-78798773D01*
X153040014Y-78798773D01*
X153040207Y-78798752D01*
X153040209Y-78798773D01*
X153089791Y-78798773D01*
X153089793Y-78798752D01*
X153089986Y-78798773D01*
X153094149Y-78798773D01*
X153097650Y-78799606D01*
X153148514Y-78805131D01*
X153155328Y-78805500D01*
X153181885Y-78805500D01*
X153197124Y-78801025D01*
X153198329Y-78799635D01*
X153200000Y-78791952D01*
X153200000Y-78787384D01*
X154200000Y-78787384D01*
X154204475Y-78802623D01*
X154205865Y-78803828D01*
X154213548Y-78805499D01*
X154244669Y-78805499D01*
X154251490Y-78805129D01*
X154302352Y-78799605D01*
X154317604Y-78795979D01*
X154438054Y-78750824D01*
X154453649Y-78742286D01*
X154555724Y-78665785D01*
X154568285Y-78653224D01*
X154644786Y-78551149D01*
X154653324Y-78535554D01*
X154698478Y-78415106D01*
X154702105Y-78399851D01*
X154707631Y-78348986D01*
X154708000Y-78342172D01*
X154708000Y-77915615D01*
X154703525Y-77900376D01*
X154702135Y-77899171D01*
X154694452Y-77897500D01*
X154218115Y-77897500D01*
X154202876Y-77901975D01*
X154201671Y-77903365D01*
X154200000Y-77911048D01*
X154200000Y-78787384D01*
X153200000Y-78787384D01*
X153200000Y-77915615D01*
X153195525Y-77900376D01*
X153194135Y-77899171D01*
X153186452Y-77897500D01*
X152948115Y-77897500D01*
X152932876Y-77901975D01*
X152931671Y-77903365D01*
X152930000Y-77911048D01*
X152930000Y-78787384D01*
X151930000Y-78787384D01*
X151930000Y-77915615D01*
X151925525Y-77900376D01*
X151924135Y-77899171D01*
X151916452Y-77897500D01*
X151678115Y-77897500D01*
X151662876Y-77901975D01*
X151661671Y-77903365D01*
X151660000Y-77911048D01*
X151660000Y-78787384D01*
X150660000Y-78787384D01*
X150660000Y-77915615D01*
X150655525Y-77900376D01*
X150654135Y-77899171D01*
X150646452Y-77897500D01*
X150170116Y-77897500D01*
X150154877Y-77901975D01*
X150153672Y-77903365D01*
X150152001Y-77911048D01*
X150152001Y-78342169D01*
X146598000Y-78342169D01*
X146598000Y-77915615D01*
X146593525Y-77900376D01*
X146592135Y-77899171D01*
X146584452Y-77897500D01*
X146108115Y-77897500D01*
X146092876Y-77901975D01*
X146091671Y-77903365D01*
X146090000Y-77911048D01*
X146090000Y-78787384D01*
X145090000Y-78787384D01*
X145090000Y-77915615D01*
X145085525Y-77900376D01*
X145084135Y-77899171D01*
X145076452Y-77897500D01*
X144838115Y-77897500D01*
X144822876Y-77901975D01*
X144821671Y-77903365D01*
X144820000Y-77911048D01*
X144820000Y-78787384D01*
X143820994Y-78787384D01*
X143822879Y-78778717D01*
X143824303Y-78779027D01*
X143840002Y-78725562D01*
X143870431Y-78692860D01*
X143913261Y-78660761D01*
X144000615Y-78544205D01*
X144051745Y-78407816D01*
X144058500Y-78345634D01*
X144058500Y-77023500D01*
X144078502Y-76955379D01*
X144132158Y-76908886D01*
X144184500Y-76897500D01*
X146579884Y-76897500D01*
X146595123Y-76893025D01*
X146596328Y-76891635D01*
X146597999Y-76883952D01*
X146597999Y-76452831D01*
X146597629Y-76446010D01*
X146592105Y-76395148D01*
X146588479Y-76379896D01*
X146543324Y-76259446D01*
X146534786Y-76243851D01*
X146458285Y-76141776D01*
X146445724Y-76129215D01*
X146343649Y-76052714D01*
X146328054Y-76044176D01*
X146220837Y-76003982D01*
X146164073Y-75961340D01*
X146139373Y-75894779D01*
X146154580Y-75825430D01*
X146204866Y-75775312D01*
X146265067Y-75760000D01*
X150484933Y-75760000D01*
X150553054Y-75780002D01*
X150599547Y-75833658D01*
X150609651Y-75903932D01*
X150580157Y-75968512D01*
X150529163Y-76003982D01*
X150421946Y-76044176D01*
X150406351Y-76052714D01*
X150304276Y-76129215D01*
X150291715Y-76141776D01*
X150215214Y-76243851D01*
X150206676Y-76259446D01*
X150161522Y-76379894D01*
X150157895Y-76395149D01*
X150152369Y-76446014D01*
X150152000Y-76452828D01*
X150152000Y-76879385D01*
X150156475Y-76894624D01*
X150157865Y-76895829D01*
X150165548Y-76897500D01*
X154689884Y-76897500D01*
X154705123Y-76893025D01*
X154706328Y-76891635D01*
X154707999Y-76883952D01*
X154707999Y-76852794D01*
X154728001Y-76784673D01*
X154781657Y-76738180D01*
X154851931Y-76728076D01*
X154916511Y-76757570D01*
X154944586Y-76792408D01*
X154991872Y-76879006D01*
X155001059Y-76895829D01*
X155014945Y-76921260D01*
X155022411Y-76937607D01*
X155115839Y-77188097D01*
X155120902Y-77205342D01*
X155177728Y-77466567D01*
X155180286Y-77484355D01*
X155199679Y-77755513D01*
X155200000Y-77764501D01*
X155200000Y-90595499D01*
X155199679Y-90604487D01*
X155180286Y-90875645D01*
X155177728Y-90893433D01*
X155120903Y-91154654D01*
X155115840Y-91171900D01*
X155022411Y-91422393D01*
X155014945Y-91438740D01*
X154944587Y-91567590D01*
X154894385Y-91617792D01*
X154825011Y-91632883D01*
X154758491Y-91608072D01*
X154715944Y-91551236D01*
X154711936Y-91529020D01*
X154703525Y-91500376D01*
X154702135Y-91499171D01*
X154694452Y-91497500D01*
X153564500Y-91497500D01*
X153496379Y-91477498D01*
X153449886Y-91423842D01*
X153438500Y-91371500D01*
X153438500Y-90479385D01*
X154200000Y-90479385D01*
X154204475Y-90494624D01*
X154205865Y-90495829D01*
X154213548Y-90497500D01*
X154689884Y-90497500D01*
X154705123Y-90493025D01*
X154706328Y-90491635D01*
X154707999Y-90483952D01*
X154707999Y-90052831D01*
X154707629Y-90046010D01*
X154702105Y-89995148D01*
X154698479Y-89979896D01*
X154653324Y-89859446D01*
X154644786Y-89843851D01*
X154568285Y-89741776D01*
X154555724Y-89729215D01*
X154453649Y-89652714D01*
X154438054Y-89644176D01*
X154317606Y-89599022D01*
X154302351Y-89595395D01*
X154251486Y-89589869D01*
X154244672Y-89589500D01*
X154218115Y-89589500D01*
X154202876Y-89593975D01*
X154201671Y-89595365D01*
X154200000Y-89603048D01*
X154200000Y-90479385D01*
X153438500Y-90479385D01*
X153438500Y-90049366D01*
X153431745Y-89987184D01*
X153380615Y-89850795D01*
X153293261Y-89734239D01*
X153250433Y-89702141D01*
X153207920Y-89645284D01*
X153202936Y-89617615D01*
X153195525Y-89592377D01*
X153194135Y-89591172D01*
X153186452Y-89589501D01*
X153155331Y-89589501D01*
X153148510Y-89589871D01*
X153097651Y-89595394D01*
X153095244Y-89595967D01*
X153092380Y-89595967D01*
X153089793Y-89596248D01*
X153089762Y-89595967D01*
X153040882Y-89595967D01*
X153040316Y-89595755D01*
X153032459Y-89594901D01*
X153032457Y-89594901D01*
X152981531Y-89589369D01*
X152978134Y-89589000D01*
X151881866Y-89589000D01*
X151878469Y-89589369D01*
X151827534Y-89594902D01*
X151827532Y-89594902D01*
X151819684Y-89595755D01*
X151819118Y-89595967D01*
X151770237Y-89595968D01*
X151770207Y-89596248D01*
X151767629Y-89595968D01*
X151764763Y-89595968D01*
X151762352Y-89595395D01*
X151711486Y-89589869D01*
X151704672Y-89589500D01*
X151678115Y-89589500D01*
X151662876Y-89593975D01*
X151661671Y-89595365D01*
X151657121Y-89616283D01*
X151655697Y-89615973D01*
X151639998Y-89669438D01*
X151609569Y-89702140D01*
X151566739Y-89734239D01*
X151479385Y-89850795D01*
X151428255Y-89987184D01*
X151421500Y-90049366D01*
X151421500Y-91371500D01*
X151401498Y-91439621D01*
X151347842Y-91486114D01*
X151295500Y-91497500D01*
X150170116Y-91497500D01*
X150154877Y-91501975D01*
X150153672Y-91503365D01*
X150152001Y-91511048D01*
X150152001Y-91942169D01*
X150152371Y-91948990D01*
X150157895Y-91999852D01*
X150161521Y-92015104D01*
X150206676Y-92135554D01*
X150215214Y-92151149D01*
X150291715Y-92253224D01*
X150304276Y-92265785D01*
X150406351Y-92342286D01*
X150421948Y-92350825D01*
X150435800Y-92356018D01*
X150492565Y-92398659D01*
X150517265Y-92465221D01*
X150502058Y-92534570D01*
X150451772Y-92584688D01*
X150391571Y-92600000D01*
X146365533Y-92600000D01*
X146297412Y-92579998D01*
X146250919Y-92526342D01*
X146240815Y-92456068D01*
X146243480Y-92442710D01*
X146243625Y-92442146D01*
X146244085Y-92440352D01*
X146280376Y-92379334D01*
X146321911Y-92353661D01*
X146328296Y-92351268D01*
X146328299Y-92351266D01*
X146336705Y-92348115D01*
X146453261Y-92260761D01*
X146540615Y-92144205D01*
X146591745Y-92007816D01*
X146598500Y-91945634D01*
X146598500Y-90479385D01*
X150152000Y-90479385D01*
X150156475Y-90494624D01*
X150157865Y-90495829D01*
X150165548Y-90497500D01*
X150641885Y-90497500D01*
X150657124Y-90493025D01*
X150658329Y-90491635D01*
X150660000Y-90483952D01*
X150660000Y-89607616D01*
X150655525Y-89592377D01*
X150654135Y-89591172D01*
X150646452Y-89589501D01*
X150615331Y-89589501D01*
X150608510Y-89589871D01*
X150557648Y-89595395D01*
X150542396Y-89599021D01*
X150421946Y-89644176D01*
X150406351Y-89652714D01*
X150304276Y-89729215D01*
X150291715Y-89741776D01*
X150215214Y-89843851D01*
X150206676Y-89859446D01*
X150161522Y-89979894D01*
X150157895Y-89995149D01*
X150152369Y-90046014D01*
X150152000Y-90052828D01*
X150152000Y-90479385D01*
X146598500Y-90479385D01*
X146598500Y-90049366D01*
X146591745Y-89987184D01*
X146540615Y-89850795D01*
X146453261Y-89734239D01*
X146336705Y-89646885D01*
X146200316Y-89595755D01*
X146138134Y-89589000D01*
X145139286Y-89589000D01*
X145071165Y-89568998D01*
X145024672Y-89515342D01*
X145020295Y-89504438D01*
X145016723Y-89494180D01*
X145008368Y-89470189D01*
X144918192Y-89325879D01*
X144798286Y-89205132D01*
X144790200Y-89200000D01*
X144687640Y-89134914D01*
X144654608Y-89113951D01*
X144494300Y-89056868D01*
X144325329Y-89036720D01*
X144318326Y-89037456D01*
X144318325Y-89037456D01*
X144163101Y-89053770D01*
X144163097Y-89053771D01*
X144156093Y-89054507D01*
X144149422Y-89056778D01*
X144001673Y-89107075D01*
X144001670Y-89107076D01*
X143995003Y-89109346D01*
X143989005Y-89113036D01*
X143989003Y-89113037D01*
X143856065Y-89194821D01*
X143856063Y-89194823D01*
X143850066Y-89198512D01*
X143728486Y-89317573D01*
X143636304Y-89460610D01*
X143624086Y-89494180D01*
X143619749Y-89506095D01*
X143577654Y-89563266D01*
X143511333Y-89588604D01*
X143501348Y-89589000D01*
X142599286Y-89589000D01*
X142531165Y-89568998D01*
X142484672Y-89515342D01*
X142480295Y-89504438D01*
X142476723Y-89494180D01*
X142468368Y-89470189D01*
X142378192Y-89325879D01*
X142258286Y-89205132D01*
X142250200Y-89200000D01*
X142147640Y-89134914D01*
X142114608Y-89113951D01*
X141954300Y-89056868D01*
X141785329Y-89036720D01*
X141778326Y-89037456D01*
X141778325Y-89037456D01*
X141623101Y-89053770D01*
X141623097Y-89053771D01*
X141616093Y-89054507D01*
X141609422Y-89056778D01*
X141461673Y-89107075D01*
X141461670Y-89107076D01*
X141455003Y-89109346D01*
X141449007Y-89113035D01*
X141448996Y-89113040D01*
X141443771Y-89116255D01*
X141375270Y-89134914D01*
X141307556Y-89113575D01*
X141262128Y-89059016D01*
X141255062Y-89037411D01*
X141254331Y-89030892D01*
X141198368Y-88870189D01*
X141192383Y-88860610D01*
X141170420Y-88825464D01*
X141108192Y-88725879D01*
X140988286Y-88605132D01*
X140972039Y-88594821D01*
X140933406Y-88570304D01*
X140844608Y-88513951D01*
X140684300Y-88456868D01*
X140515329Y-88436720D01*
X140508326Y-88437456D01*
X140508325Y-88437456D01*
X140353101Y-88453770D01*
X140353097Y-88453771D01*
X140346093Y-88454507D01*
X140339422Y-88456778D01*
X140191673Y-88507075D01*
X140191670Y-88507076D01*
X140185003Y-88509346D01*
X140179005Y-88513036D01*
X140179003Y-88513037D01*
X140046065Y-88594821D01*
X140046063Y-88594823D01*
X140040066Y-88598512D01*
X139918486Y-88717573D01*
X139826304Y-88860610D01*
X139768103Y-89020516D01*
X139746775Y-89189343D01*
X139763381Y-89358699D01*
X139765605Y-89365384D01*
X139765605Y-89365385D01*
X139784847Y-89423228D01*
X139787370Y-89494180D01*
X139751133Y-89555232D01*
X139687641Y-89587002D01*
X139665289Y-89589000D01*
X138691866Y-89589000D01*
X138688469Y-89589369D01*
X138646069Y-89593975D01*
X138629684Y-89595755D01*
X138629679Y-89595707D01*
X138580321Y-89595707D01*
X138580316Y-89595755D01*
X138579874Y-89595707D01*
X138563931Y-89593975D01*
X138521531Y-89589369D01*
X138518134Y-89589000D01*
X137421866Y-89589000D01*
X137418469Y-89589369D01*
X137367534Y-89594902D01*
X137367532Y-89594902D01*
X137359684Y-89595755D01*
X137359118Y-89595967D01*
X137310237Y-89595968D01*
X137310207Y-89596248D01*
X137307629Y-89595968D01*
X137304763Y-89595968D01*
X137302352Y-89595395D01*
X137251486Y-89589869D01*
X137244672Y-89589500D01*
X137218115Y-89589500D01*
X137202876Y-89593975D01*
X137201671Y-89595365D01*
X137197121Y-89616283D01*
X137195697Y-89615973D01*
X137179998Y-89669438D01*
X137149569Y-89702140D01*
X137106739Y-89734239D01*
X137019385Y-89850795D01*
X136968255Y-89987184D01*
X136961500Y-90049366D01*
X136961500Y-91371500D01*
X136941498Y-91439621D01*
X136887842Y-91486114D01*
X136835500Y-91497500D01*
X135710116Y-91497500D01*
X135694877Y-91501975D01*
X135693672Y-91503365D01*
X135692001Y-91511048D01*
X135692001Y-91942169D01*
X135692371Y-91948990D01*
X135697895Y-91999852D01*
X135701521Y-92015104D01*
X135746676Y-92135554D01*
X135755214Y-92151149D01*
X135831715Y-92253224D01*
X135844276Y-92265785D01*
X135946351Y-92342286D01*
X135961948Y-92350825D01*
X135975800Y-92356018D01*
X136032565Y-92398659D01*
X136057265Y-92465221D01*
X136042058Y-92534570D01*
X135991772Y-92584688D01*
X135931571Y-92600000D01*
X135304501Y-92600000D01*
X135295513Y-92599679D01*
X135246129Y-92596147D01*
X135024350Y-92580285D01*
X135006567Y-92577728D01*
X134745342Y-92520902D01*
X134728100Y-92515840D01*
X134477607Y-92422411D01*
X134461260Y-92414945D01*
X134226625Y-92286824D01*
X134211502Y-92277105D01*
X133997490Y-92116897D01*
X133983904Y-92105124D01*
X133794876Y-91916096D01*
X133783103Y-91902510D01*
X133622895Y-91688498D01*
X133613175Y-91673374D01*
X133523912Y-91509901D01*
X133508500Y-91449516D01*
X133508500Y-90479385D01*
X135692000Y-90479385D01*
X135696475Y-90494624D01*
X135697865Y-90495829D01*
X135705548Y-90497500D01*
X136181885Y-90497500D01*
X136197124Y-90493025D01*
X136198329Y-90491635D01*
X136200000Y-90483952D01*
X136200000Y-89607616D01*
X136195525Y-89592377D01*
X136194135Y-89591172D01*
X136186452Y-89589501D01*
X136155331Y-89589501D01*
X136148510Y-89589871D01*
X136097648Y-89595395D01*
X136082396Y-89599021D01*
X135961946Y-89644176D01*
X135946351Y-89652714D01*
X135844276Y-89729215D01*
X135831715Y-89741776D01*
X135755214Y-89843851D01*
X135746676Y-89859446D01*
X135701522Y-89979894D01*
X135697895Y-89995149D01*
X135692369Y-90046014D01*
X135692000Y-90052828D01*
X135692000Y-90479385D01*
X133508500Y-90479385D01*
X133508500Y-87126542D01*
X133528502Y-87058421D01*
X133582158Y-87011928D01*
X133652432Y-87001824D01*
X133710065Y-87025716D01*
X133753295Y-87058115D01*
X133889684Y-87109245D01*
X133951866Y-87116000D01*
X135848134Y-87116000D01*
X135910316Y-87109245D01*
X136046705Y-87058115D01*
X136163261Y-86970761D01*
X136250615Y-86854205D01*
X136301745Y-86717816D01*
X136308500Y-86655634D01*
X136308500Y-85559366D01*
X136301745Y-85497184D01*
X136300603Y-85494138D01*
X136300603Y-85440862D01*
X136301745Y-85437816D01*
X136308500Y-85375634D01*
X136308500Y-84279366D01*
X136301745Y-84217184D01*
X136301793Y-84217179D01*
X136301793Y-84167821D01*
X136301745Y-84167816D01*
X136301793Y-84167374D01*
X136308500Y-84105634D01*
X136308500Y-83009366D01*
X136301745Y-82947184D01*
X136302721Y-82947078D01*
X136302720Y-82907866D01*
X136301252Y-82907707D01*
X136307631Y-82848986D01*
X136308000Y-82842172D01*
X136308000Y-82815615D01*
X136303525Y-82800376D01*
X136302135Y-82799171D01*
X136281217Y-82794621D01*
X136281977Y-82791128D01*
X136235557Y-82777498D01*
X136202852Y-82747065D01*
X136168643Y-82701420D01*
X136168642Y-82701419D01*
X136163261Y-82694239D01*
X136046705Y-82606885D01*
X135910316Y-82555755D01*
X135848134Y-82549000D01*
X134526000Y-82549000D01*
X134457879Y-82528998D01*
X134411386Y-82475342D01*
X134400000Y-82423000D01*
X134400000Y-81779385D01*
X135400000Y-81779385D01*
X135404475Y-81794624D01*
X135405865Y-81795829D01*
X135413548Y-81797500D01*
X136289884Y-81797500D01*
X136305123Y-81793025D01*
X136306328Y-81791635D01*
X136307999Y-81783952D01*
X136307999Y-81752831D01*
X136307629Y-81746010D01*
X136302105Y-81695148D01*
X136298479Y-81679896D01*
X136253324Y-81559446D01*
X136244786Y-81543851D01*
X136168285Y-81441776D01*
X136155724Y-81429215D01*
X136053649Y-81352714D01*
X136038054Y-81344176D01*
X135917606Y-81299022D01*
X135902351Y-81295395D01*
X135851486Y-81289869D01*
X135844672Y-81289500D01*
X135418115Y-81289500D01*
X135402876Y-81293975D01*
X135401671Y-81295365D01*
X135400000Y-81303048D01*
X135400000Y-81779385D01*
X134400000Y-81779385D01*
X134400000Y-81307616D01*
X134395525Y-81292377D01*
X134394135Y-81291172D01*
X134386452Y-81289501D01*
X133955331Y-81289501D01*
X133948510Y-81289871D01*
X133897648Y-81295395D01*
X133882396Y-81299021D01*
X133761946Y-81344176D01*
X133746351Y-81352714D01*
X133644276Y-81429215D01*
X133631715Y-81441776D01*
X133555214Y-81543851D01*
X133546676Y-81559446D01*
X133543982Y-81566632D01*
X133501340Y-81623396D01*
X133434778Y-81648096D01*
X133365430Y-81632888D01*
X133315312Y-81582602D01*
X133300000Y-81522402D01*
X133300000Y-78342169D01*
X135692001Y-78342169D01*
X135692371Y-78348990D01*
X135697895Y-78399852D01*
X135701521Y-78415104D01*
X135746676Y-78535554D01*
X135755214Y-78551149D01*
X135831715Y-78653224D01*
X135844276Y-78665785D01*
X135946351Y-78742286D01*
X135961946Y-78750824D01*
X136082394Y-78795978D01*
X136097649Y-78799605D01*
X136148514Y-78805131D01*
X136155328Y-78805500D01*
X136181885Y-78805500D01*
X136197124Y-78801025D01*
X136198329Y-78799635D01*
X136200000Y-78791952D01*
X136200000Y-78787384D01*
X137200000Y-78787384D01*
X137204475Y-78802623D01*
X137205865Y-78803828D01*
X137213548Y-78805499D01*
X137244669Y-78805499D01*
X137251490Y-78805129D01*
X137302352Y-78799605D01*
X137305852Y-78798773D01*
X137310014Y-78798773D01*
X137310207Y-78798752D01*
X137310209Y-78798773D01*
X137359791Y-78798773D01*
X137359793Y-78798752D01*
X137359986Y-78798773D01*
X137364149Y-78798773D01*
X137367650Y-78799606D01*
X137418514Y-78805131D01*
X137425328Y-78805500D01*
X137451885Y-78805500D01*
X137467124Y-78801025D01*
X137468329Y-78799635D01*
X137470000Y-78791952D01*
X137470000Y-77915615D01*
X137465525Y-77900376D01*
X137464135Y-77899171D01*
X137456452Y-77897500D01*
X137218115Y-77897500D01*
X137202876Y-77901975D01*
X137201671Y-77903365D01*
X137200000Y-77911048D01*
X137200000Y-78787384D01*
X136200000Y-78787384D01*
X136200000Y-77915615D01*
X136195525Y-77900376D01*
X136194135Y-77899171D01*
X136186452Y-77897500D01*
X135710116Y-77897500D01*
X135694877Y-77901975D01*
X135693672Y-77903365D01*
X135692001Y-77911048D01*
X135692001Y-78342169D01*
X133300000Y-78342169D01*
X133300000Y-77764501D01*
X133300321Y-77755513D01*
X133319714Y-77484355D01*
X133322272Y-77466567D01*
X133379098Y-77205342D01*
X133384161Y-77188097D01*
X133477589Y-76937607D01*
X133485055Y-76921260D01*
X133498942Y-76895829D01*
X133574437Y-76757570D01*
X133613176Y-76686625D01*
X133622895Y-76671502D01*
X133783103Y-76457490D01*
X133794876Y-76443904D01*
X133983904Y-76254876D01*
X133997490Y-76243103D01*
X134211502Y-76082895D01*
X134226625Y-76073176D01*
X134418302Y-75968512D01*
X134461262Y-75945054D01*
X134477607Y-75937589D01*
X134728100Y-75844160D01*
X134745342Y-75839098D01*
X135006567Y-75782272D01*
X135024350Y-75779715D01*
X135246129Y-75763853D01*
X135295513Y-75760321D01*
X135304501Y-75760000D01*
X136024933Y-75760000D01*
X136093054Y-75780002D01*
G37*
G04 #@! TD.AperFunction*
M02*
