%FSLAX45Y45*%
G04 Gerber Fmt 4.5, Leading zero omitted, Abs format (unit mm)*
G04 Created by KiCad (PCBNEW (6.0.2)) date 2022-09-28 01:38:57*
%MOMM*%
%LPD*%
G01*
G04 APERTURE LIST*
%TA.AperFunction,Profile*%
%ADD10C,0.100000*%
%TD*%
%ADD11C,0.200000*%
%ADD12C,0.030000*%
%ADD13C,0.040000*%
%ADD14C,0.050000*%
%ADD15C,0.076200*%
%ADD16C,0.100000*%
%ADD17C,0.130000*%
%ADD18C,0.250000*%
G04 APERTURE END LIST*
D10*
X9700000Y-9600000D02*
G75*
G03*
X10000000Y-9900000I300000J0D01*
G01*
X10000000Y-3600000D02*
X15940000Y-3600000D01*
X9700000Y-9600000D02*
X9700000Y-3900000D01*
X15940000Y-9900000D02*
G75*
G03*
X16240000Y-9600000I0J300000D01*
G01*
X16240000Y-3900000D02*
G75*
G03*
X15940000Y-3600000I-300000J0D01*
G01*
X16240000Y-3900000D02*
X16240000Y-9600000D01*
X15940000Y-9900000D02*
X10000000Y-9900000D01*
X10000000Y-3600000D02*
G75*
G03*
X9700000Y-3900000I0J-300000D01*
G01*
D11*
D12*
X11125000Y-6420000D02*
X11155000Y-6450000D01*
X11155000Y-6420000D02*
X11125000Y-6450000D01*
X11125000Y-6670000D02*
X11155000Y-6700000D01*
X11155000Y-6670000D02*
X11125000Y-6700000D01*
X11125000Y-6925000D02*
X11155000Y-6955000D01*
X11155000Y-6925000D02*
X11125000Y-6955000D01*
X11125000Y-7180000D02*
X11155000Y-7210000D01*
X11155000Y-7180000D02*
X11125000Y-7210000D01*
X11125000Y-7430000D02*
X11155000Y-7460000D01*
X11155000Y-7430000D02*
X11125000Y-7460000D01*
X11125000Y-7685000D02*
X11155000Y-7715000D01*
X11155000Y-7685000D02*
X11125000Y-7715000D01*
X11189951Y-7775049D02*
X11219951Y-7805049D01*
X11219951Y-7775049D02*
X11189951Y-7805049D01*
X12560000Y-7055000D02*
X12590000Y-7085000D01*
X12590000Y-7055000D02*
X12560000Y-7085000D01*
X12560000Y-7310000D02*
X12590000Y-7340000D01*
X12590000Y-7310000D02*
X12560000Y-7340000D01*
X12560000Y-7565000D02*
X12590000Y-7595000D01*
X12590000Y-7565000D02*
X12560000Y-7595000D01*
X12560000Y-7815000D02*
X12590000Y-7845000D01*
X12590000Y-7815000D02*
X12560000Y-7845000D01*
X13270000Y-8275000D02*
X13300000Y-8305000D01*
X13300000Y-8275000D02*
X13270000Y-8305000D01*
X13909000Y-9205000D02*
X13939000Y-9235000D01*
X13939000Y-9205000D02*
X13909000Y-9235000D01*
X14036000Y-8905000D02*
X14066000Y-8935000D01*
X14066000Y-8905000D02*
X14036000Y-8935000D01*
X14163000Y-7605000D02*
X14193000Y-7635000D01*
X14193000Y-7605000D02*
X14163000Y-7635000D01*
X14163000Y-8965000D02*
X14193000Y-8995000D01*
X14193000Y-8965000D02*
X14163000Y-8995000D01*
X14290000Y-7605000D02*
X14320000Y-7635000D01*
X14320000Y-7605000D02*
X14290000Y-7635000D01*
X14290000Y-9205000D02*
X14320000Y-9235000D01*
X14320000Y-9205000D02*
X14290000Y-9235000D01*
X14376000Y-4585000D02*
X14406000Y-4615000D01*
X14406000Y-4585000D02*
X14376000Y-4615000D01*
X14376000Y-5612500D02*
X14406000Y-5642500D01*
X14406000Y-5612500D02*
X14376000Y-5642500D01*
X14376000Y-5865000D02*
X14406000Y-5895000D01*
X14406000Y-5865000D02*
X14376000Y-5895000D01*
X14376000Y-6120000D02*
X14406000Y-6150000D01*
X14406000Y-6120000D02*
X14376000Y-6150000D01*
X14376000Y-6375000D02*
X14406000Y-6405000D01*
X14406000Y-6375000D02*
X14376000Y-6405000D01*
X14417000Y-8965000D02*
X14447000Y-8995000D01*
X14447000Y-8965000D02*
X14417000Y-8995000D01*
D13*
X13420000Y-9080000D02*
G75*
G03*
X13420000Y-9080000I-20000J0D01*
G01*
X13525000Y-7965000D02*
G75*
G03*
X13525000Y-7965000I-20000J0D01*
G01*
X13530000Y-7655000D02*
G75*
G03*
X13530000Y-7655000I-20000J0D01*
G01*
X13535000Y-9195000D02*
G75*
G03*
X13535000Y-9195000I-20000J0D01*
G01*
X13800000Y-8600000D02*
G75*
G03*
X13800000Y-8600000I-20000J0D01*
G01*
X13820000Y-8010000D02*
G75*
G03*
X13820000Y-8010000I-20000J0D01*
G01*
X13965000Y-8300000D02*
G75*
G03*
X13965000Y-8300000I-20000J0D01*
G01*
X14160000Y-8650000D02*
G75*
G03*
X14160000Y-8650000I-20000J0D01*
G01*
X14275000Y-8040000D02*
G75*
G03*
X14275000Y-8040000I-20000J0D01*
G01*
X14290000Y-8445000D02*
G75*
G03*
X14290000Y-8445000I-20000J0D01*
G01*
X14560000Y-8820000D02*
G75*
G03*
X14560000Y-8820000I-20000J0D01*
G01*
X14615000Y-8300000D02*
G75*
G03*
X14615000Y-8300000I-20000J0D01*
G01*
X14620000Y-7975000D02*
G75*
G03*
X14620000Y-7975000I-20000J0D01*
G01*
X14830000Y-7745000D02*
G75*
G03*
X14830000Y-7745000I-20000J0D01*
G01*
X14870000Y-9070000D02*
G75*
G03*
X14870000Y-9070000I-20000J0D01*
G01*
X14880000Y-8560000D02*
G75*
G03*
X14880000Y-8560000I-20000J0D01*
G01*
X14900000Y-8100000D02*
G75*
G03*
X14900000Y-8100000I-20000J0D01*
G01*
X14980000Y-8845000D02*
G75*
G03*
X14980000Y-8845000I-20000J0D01*
G01*
X15100000Y-7985000D02*
G75*
G03*
X15100000Y-7985000I-20000J0D01*
G01*
X15190000Y-8635000D02*
G75*
G03*
X15190000Y-8635000I-20000J0D01*
G01*
X15330000Y-7980000D02*
G75*
G03*
X15330000Y-7980000I-20000J0D01*
G01*
X15340000Y-8350000D02*
G75*
G03*
X15340000Y-8350000I-20000J0D01*
G01*
X15950000Y-4330000D02*
G75*
G03*
X15950000Y-4330000I-20000J0D01*
G01*
D14*
X9862500Y-3905000D02*
X9862500Y-3955000D01*
X9837500Y-3930000D02*
X9887500Y-3930000D01*
X9862500Y-8345000D02*
X9862500Y-8395000D01*
X9837500Y-8370000D02*
X9887500Y-8370000D01*
X9917418Y-3772417D02*
X9917418Y-3822417D01*
X9892418Y-3797417D02*
X9942418Y-3797417D01*
X9917418Y-4037582D02*
X9917418Y-4087582D01*
X9892418Y-4062582D02*
X9942418Y-4062582D01*
X9917418Y-8212417D02*
X9917418Y-8262417D01*
X9892418Y-8237417D02*
X9942418Y-8237417D01*
X9917418Y-8477583D02*
X9917418Y-8527583D01*
X9892418Y-8502583D02*
X9942418Y-8502583D01*
X10050000Y-3717500D02*
X10050000Y-3767500D01*
X10025000Y-3742500D02*
X10075000Y-3742500D01*
X10050000Y-4092500D02*
X10050000Y-4142500D01*
X10025000Y-4117500D02*
X10075000Y-4117500D01*
X10050000Y-8157500D02*
X10050000Y-8207500D01*
X10025000Y-8182500D02*
X10075000Y-8182500D01*
X10050000Y-8532500D02*
X10050000Y-8582500D01*
X10025000Y-8557500D02*
X10075000Y-8557500D01*
X10182583Y-3772417D02*
X10182583Y-3822417D01*
X10157583Y-3797417D02*
X10207583Y-3797417D01*
X10182583Y-4037582D02*
X10182583Y-4087582D01*
X10157583Y-4062582D02*
X10207583Y-4062582D01*
X10182583Y-8212417D02*
X10182583Y-8262417D01*
X10157583Y-8237417D02*
X10207583Y-8237417D01*
X10182583Y-8477583D02*
X10182583Y-8527583D01*
X10157583Y-8502583D02*
X10207583Y-8502583D01*
X10237500Y-3905000D02*
X10237500Y-3955000D01*
X10212500Y-3930000D02*
X10262500Y-3930000D01*
X10237500Y-8345000D02*
X10237500Y-8395000D01*
X10212500Y-8370000D02*
X10262500Y-8370000D01*
X15752500Y-3905000D02*
X15752500Y-3955000D01*
X15727500Y-3930000D02*
X15777500Y-3930000D01*
X15752500Y-9575000D02*
X15752500Y-9625000D01*
X15727500Y-9600000D02*
X15777500Y-9600000D01*
X15807417Y-3772417D02*
X15807417Y-3822417D01*
X15782417Y-3797417D02*
X15832417Y-3797417D01*
X15807417Y-4037582D02*
X15807417Y-4087582D01*
X15782417Y-4062582D02*
X15832417Y-4062582D01*
X15807417Y-9442418D02*
X15807417Y-9492418D01*
X15782417Y-9467418D02*
X15832417Y-9467418D01*
X15807417Y-9707583D02*
X15807417Y-9757583D01*
X15782417Y-9732583D02*
X15832417Y-9732583D01*
X15940000Y-3717500D02*
X15940000Y-3767500D01*
X15915000Y-3742500D02*
X15965000Y-3742500D01*
X15940000Y-4092500D02*
X15940000Y-4142500D01*
X15915000Y-4117500D02*
X15965000Y-4117500D01*
X15940000Y-9387500D02*
X15940000Y-9437500D01*
X15915000Y-9412500D02*
X15965000Y-9412500D01*
X15940000Y-9762500D02*
X15940000Y-9812500D01*
X15915000Y-9787500D02*
X15965000Y-9787500D01*
X16072582Y-3772417D02*
X16072582Y-3822417D01*
X16047582Y-3797417D02*
X16097582Y-3797417D01*
X16072582Y-4037582D02*
X16072582Y-4087582D01*
X16047582Y-4062582D02*
X16097582Y-4062582D01*
X16072582Y-9442418D02*
X16072582Y-9492418D01*
X16047582Y-9467418D02*
X16097582Y-9467418D01*
X16072582Y-9707583D02*
X16072582Y-9757583D01*
X16047582Y-9732583D02*
X16097582Y-9732583D01*
X16127500Y-3905000D02*
X16127500Y-3955000D01*
X16102500Y-3930000D02*
X16152500Y-3930000D01*
X16127500Y-9575000D02*
X16127500Y-9625000D01*
X16102500Y-9600000D02*
X16152500Y-9600000D01*
D15*
X9896941Y-4300941D02*
X9896941Y-4247059D01*
X9843059Y-4247059D01*
X9843059Y-4300941D01*
X9896941Y-4300941D01*
X9896941Y-4554941D02*
X9896941Y-4501059D01*
X9843059Y-4501059D01*
X9843059Y-4554941D01*
X9896941Y-4554941D01*
X9896941Y-4808941D02*
X9896941Y-4755059D01*
X9843059Y-4755059D01*
X9843059Y-4808941D01*
X9896941Y-4808941D01*
X9896941Y-5062941D02*
X9896941Y-5009059D01*
X9843059Y-5009059D01*
X9843059Y-5062941D01*
X9896941Y-5062941D01*
X9896941Y-5316941D02*
X9896941Y-5263059D01*
X9843059Y-5263059D01*
X9843059Y-5316941D01*
X9896941Y-5316941D01*
X9896941Y-5570941D02*
X9896941Y-5517059D01*
X9843059Y-5517059D01*
X9843059Y-5570941D01*
X9896941Y-5570941D01*
X9896941Y-5824941D02*
X9896941Y-5771059D01*
X9843059Y-5771059D01*
X9843059Y-5824941D01*
X9896941Y-5824941D01*
X9896941Y-6078941D02*
X9896941Y-6025059D01*
X9843059Y-6025059D01*
X9843059Y-6078941D01*
X9896941Y-6078941D01*
X9896941Y-6332941D02*
X9896941Y-6279059D01*
X9843059Y-6279059D01*
X9843059Y-6332941D01*
X9896941Y-6332941D01*
X9896941Y-6586941D02*
X9896941Y-6533059D01*
X9843059Y-6533059D01*
X9843059Y-6586941D01*
X9896941Y-6586941D01*
X9896941Y-6840941D02*
X9896941Y-6787059D01*
X9843059Y-6787059D01*
X9843059Y-6840941D01*
X9896941Y-6840941D01*
X9896941Y-7094941D02*
X9896941Y-7041059D01*
X9843059Y-7041059D01*
X9843059Y-7094941D01*
X9896941Y-7094941D01*
X9896941Y-7348941D02*
X9896941Y-7295059D01*
X9843059Y-7295059D01*
X9843059Y-7348941D01*
X9896941Y-7348941D01*
X9896941Y-7602941D02*
X9896941Y-7549059D01*
X9843059Y-7549059D01*
X9843059Y-7602941D01*
X9896941Y-7602941D01*
X9896941Y-7856941D02*
X9896941Y-7803059D01*
X9843059Y-7803059D01*
X9843059Y-7856941D01*
X9896941Y-7856941D01*
X12436941Y-4300941D02*
X12436941Y-4247059D01*
X12383059Y-4247059D01*
X12383059Y-4300941D01*
X12436941Y-4300941D01*
X12436941Y-4554941D02*
X12436941Y-4501059D01*
X12383059Y-4501059D01*
X12383059Y-4554941D01*
X12436941Y-4554941D01*
X12436941Y-4808941D02*
X12436941Y-4755059D01*
X12383059Y-4755059D01*
X12383059Y-4808941D01*
X12436941Y-4808941D01*
X12436941Y-5062941D02*
X12436941Y-5009059D01*
X12383059Y-5009059D01*
X12383059Y-5062941D01*
X12436941Y-5062941D01*
X12436941Y-5316941D02*
X12436941Y-5263059D01*
X12383059Y-5263059D01*
X12383059Y-5316941D01*
X12436941Y-5316941D01*
X12436941Y-5570941D02*
X12436941Y-5517059D01*
X12383059Y-5517059D01*
X12383059Y-5570941D01*
X12436941Y-5570941D01*
X12436941Y-5824941D02*
X12436941Y-5771059D01*
X12383059Y-5771059D01*
X12383059Y-5824941D01*
X12436941Y-5824941D01*
X12436941Y-6078941D02*
X12436941Y-6025059D01*
X12383059Y-6025059D01*
X12383059Y-6078941D01*
X12436941Y-6078941D01*
X12436941Y-6332941D02*
X12436941Y-6279059D01*
X12383059Y-6279059D01*
X12383059Y-6332941D01*
X12436941Y-6332941D01*
X12436941Y-6586941D02*
X12436941Y-6533059D01*
X12383059Y-6533059D01*
X12383059Y-6586941D01*
X12436941Y-6586941D01*
X12436941Y-6840941D02*
X12436941Y-6787059D01*
X12383059Y-6787059D01*
X12383059Y-6840941D01*
X12436941Y-6840941D01*
X12436941Y-7094941D02*
X12436941Y-7041059D01*
X12383059Y-7041059D01*
X12383059Y-7094941D01*
X12436941Y-7094941D01*
X12436941Y-7348941D02*
X12436941Y-7295059D01*
X12383059Y-7295059D01*
X12383059Y-7348941D01*
X12436941Y-7348941D01*
X12436941Y-7602941D02*
X12436941Y-7549059D01*
X12383059Y-7549059D01*
X12383059Y-7602941D01*
X12436941Y-7602941D01*
X12436941Y-7856941D02*
X12436941Y-7803059D01*
X12383059Y-7803059D01*
X12383059Y-7856941D01*
X12436941Y-7856941D01*
D16*
X9915000Y-9080000D02*
X9965000Y-9030000D01*
X9915000Y-8980000D01*
X9865000Y-9030000D01*
X9915000Y-9080000D01*
X9915000Y-9334000D02*
X9965000Y-9284000D01*
X9915000Y-9234000D01*
X9865000Y-9284000D01*
X9915000Y-9334000D01*
X9915000Y-9588000D02*
X9965000Y-9538000D01*
X9915000Y-9488000D01*
X9865000Y-9538000D01*
X9915000Y-9588000D01*
X12994000Y-4787500D02*
X13044000Y-4737500D01*
X12994000Y-4687500D01*
X12944000Y-4737500D01*
X12994000Y-4787500D01*
X12994000Y-5041500D02*
X13044000Y-4991500D01*
X12994000Y-4941500D01*
X12944000Y-4991500D01*
X12994000Y-5041500D01*
X12994000Y-5295500D02*
X13044000Y-5245500D01*
X12994000Y-5195500D01*
X12944000Y-5245500D01*
X12994000Y-5295500D01*
X12994000Y-5549500D02*
X13044000Y-5499500D01*
X12994000Y-5449500D01*
X12944000Y-5499500D01*
X12994000Y-5549500D01*
X12994000Y-5803500D02*
X13044000Y-5753500D01*
X12994000Y-5703500D01*
X12944000Y-5753500D01*
X12994000Y-5803500D01*
X12994000Y-6057500D02*
X13044000Y-6007500D01*
X12994000Y-5957500D01*
X12944000Y-6007500D01*
X12994000Y-6057500D01*
X12994000Y-6311500D02*
X13044000Y-6261500D01*
X12994000Y-6211500D01*
X12944000Y-6261500D01*
X12994000Y-6311500D01*
X12994000Y-6565500D02*
X13044000Y-6515500D01*
X12994000Y-6465500D01*
X12944000Y-6515500D01*
X12994000Y-6565500D01*
X12994000Y-6819500D02*
X13044000Y-6769500D01*
X12994000Y-6719500D01*
X12944000Y-6769500D01*
X12994000Y-6819500D01*
X13248000Y-4787500D02*
X13298000Y-4737500D01*
X13248000Y-4687500D01*
X13198000Y-4737500D01*
X13248000Y-4787500D01*
X13248000Y-5041500D02*
X13298000Y-4991500D01*
X13248000Y-4941500D01*
X13198000Y-4991500D01*
X13248000Y-5041500D01*
X13248000Y-5295500D02*
X13298000Y-5245500D01*
X13248000Y-5195500D01*
X13198000Y-5245500D01*
X13248000Y-5295500D01*
X13248000Y-5549500D02*
X13298000Y-5499500D01*
X13248000Y-5449500D01*
X13198000Y-5499500D01*
X13248000Y-5549500D01*
X13248000Y-5803500D02*
X13298000Y-5753500D01*
X13248000Y-5703500D01*
X13198000Y-5753500D01*
X13248000Y-5803500D01*
X13248000Y-6057500D02*
X13298000Y-6007500D01*
X13248000Y-5957500D01*
X13198000Y-6007500D01*
X13248000Y-6057500D01*
X13248000Y-6311500D02*
X13298000Y-6261500D01*
X13248000Y-6211500D01*
X13198000Y-6261500D01*
X13248000Y-6311500D01*
X13248000Y-6565500D02*
X13298000Y-6515500D01*
X13248000Y-6465500D01*
X13198000Y-6515500D01*
X13248000Y-6565500D01*
X13248000Y-6819500D02*
X13298000Y-6769500D01*
X13248000Y-6719500D01*
X13198000Y-6769500D01*
X13248000Y-6819500D01*
X15534000Y-4787500D02*
X15584000Y-4737500D01*
X15534000Y-4687500D01*
X15484000Y-4737500D01*
X15534000Y-4787500D01*
X15534000Y-5041500D02*
X15584000Y-4991500D01*
X15534000Y-4941500D01*
X15484000Y-4991500D01*
X15534000Y-5041500D01*
X15534000Y-5295500D02*
X15584000Y-5245500D01*
X15534000Y-5195500D01*
X15484000Y-5245500D01*
X15534000Y-5295500D01*
X15534000Y-5549500D02*
X15584000Y-5499500D01*
X15534000Y-5449500D01*
X15484000Y-5499500D01*
X15534000Y-5549500D01*
X15534000Y-5803500D02*
X15584000Y-5753500D01*
X15534000Y-5703500D01*
X15484000Y-5753500D01*
X15534000Y-5803500D01*
X15534000Y-6057500D02*
X15584000Y-6007500D01*
X15534000Y-5957500D01*
X15484000Y-6007500D01*
X15534000Y-6057500D01*
X15534000Y-6311500D02*
X15584000Y-6261500D01*
X15534000Y-6211500D01*
X15484000Y-6261500D01*
X15534000Y-6311500D01*
X15534000Y-6565500D02*
X15584000Y-6515500D01*
X15534000Y-6465500D01*
X15484000Y-6515500D01*
X15534000Y-6565500D01*
X15534000Y-6819500D02*
X15584000Y-6769500D01*
X15534000Y-6719500D01*
X15484000Y-6769500D01*
X15534000Y-6819500D01*
X15788000Y-4787500D02*
X15838000Y-4737500D01*
X15788000Y-4687500D01*
X15738000Y-4737500D01*
X15788000Y-4787500D01*
X15788000Y-5041500D02*
X15838000Y-4991500D01*
X15788000Y-4941500D01*
X15738000Y-4991500D01*
X15788000Y-5041500D01*
X15788000Y-5295500D02*
X15838000Y-5245500D01*
X15788000Y-5195500D01*
X15738000Y-5245500D01*
X15788000Y-5295500D01*
X15788000Y-5549500D02*
X15838000Y-5499500D01*
X15788000Y-5449500D01*
X15738000Y-5499500D01*
X15788000Y-5549500D01*
X15788000Y-5803500D02*
X15838000Y-5753500D01*
X15788000Y-5703500D01*
X15738000Y-5753500D01*
X15788000Y-5803500D01*
X15788000Y-6057500D02*
X15838000Y-6007500D01*
X15788000Y-5957500D01*
X15738000Y-6007500D01*
X15788000Y-6057500D01*
X15788000Y-6311500D02*
X15838000Y-6261500D01*
X15788000Y-6211500D01*
X15738000Y-6261500D01*
X15788000Y-6311500D01*
X15788000Y-6565500D02*
X15838000Y-6515500D01*
X15788000Y-6465500D01*
X15738000Y-6515500D01*
X15788000Y-6565500D01*
X15788000Y-6819500D02*
X15838000Y-6769500D01*
X15788000Y-6719500D01*
X15738000Y-6769500D01*
X15788000Y-6819500D01*
D17*
X10665000Y-9355500D02*
X10795000Y-9485500D01*
X10795000Y-9355500D02*
X10665000Y-9485500D01*
X10795000Y-9420500D02*
G75*
G03*
X10795000Y-9420500I-65000J0D01*
G01*
X11173000Y-9355500D02*
X11303000Y-9485500D01*
X11303000Y-9355500D02*
X11173000Y-9485500D01*
X11303000Y-9420500D02*
G75*
G03*
X11303000Y-9420500I-65000J0D01*
G01*
D18*
X9925000Y-3805000D02*
X10175000Y-4055000D01*
X10175000Y-3805000D02*
X9925000Y-4055000D01*
X10050000Y-3805000D02*
X10050000Y-4055000D01*
X9925000Y-3930000D02*
X10175000Y-3930000D01*
X9925000Y-8245000D02*
X10175000Y-8495000D01*
X10175000Y-8245000D02*
X9925000Y-8495000D01*
X10050000Y-8245000D02*
X10050000Y-8495000D01*
X9925000Y-8370000D02*
X10175000Y-8370000D01*
X15815000Y-3805000D02*
X16065000Y-4055000D01*
X16065000Y-3805000D02*
X15815000Y-4055000D01*
X15940000Y-3805000D02*
X15940000Y-4055000D01*
X15815000Y-3930000D02*
X16065000Y-3930000D01*
X15815000Y-9475000D02*
X16065000Y-9725000D01*
X16065000Y-9475000D02*
X15815000Y-9725000D01*
X15940000Y-9475000D02*
X15940000Y-9725000D01*
X15815000Y-9600000D02*
X16065000Y-9600000D01*
D11*
X9952619Y-10215476D02*
X9952619Y-10015476D01*
X10000238Y-10015476D01*
X10028810Y-10025000D01*
X10047857Y-10044048D01*
X10057381Y-10063095D01*
X10066905Y-10101190D01*
X10066905Y-10129762D01*
X10057381Y-10167857D01*
X10047857Y-10186905D01*
X10028810Y-10205952D01*
X10000238Y-10215476D01*
X9952619Y-10215476D01*
X10152619Y-10215476D02*
X10152619Y-10082143D01*
X10152619Y-10120238D02*
X10162143Y-10101190D01*
X10171667Y-10091667D01*
X10190714Y-10082143D01*
X10209762Y-10082143D01*
X10276429Y-10215476D02*
X10276429Y-10082143D01*
X10276429Y-10015476D02*
X10266905Y-10025000D01*
X10276429Y-10034524D01*
X10285952Y-10025000D01*
X10276429Y-10015476D01*
X10276429Y-10034524D01*
X10400238Y-10215476D02*
X10381190Y-10205952D01*
X10371667Y-10186905D01*
X10371667Y-10015476D01*
X10505000Y-10215476D02*
X10485952Y-10205952D01*
X10476429Y-10186905D01*
X10476429Y-10015476D01*
X10733571Y-10215476D02*
X10733571Y-10015476D01*
X10800238Y-10158333D01*
X10866905Y-10015476D01*
X10866905Y-10215476D01*
X11047857Y-10215476D02*
X11047857Y-10110714D01*
X11038333Y-10091667D01*
X11019286Y-10082143D01*
X10981190Y-10082143D01*
X10962143Y-10091667D01*
X11047857Y-10205952D02*
X11028810Y-10215476D01*
X10981190Y-10215476D01*
X10962143Y-10205952D01*
X10952619Y-10186905D01*
X10952619Y-10167857D01*
X10962143Y-10148810D01*
X10981190Y-10139286D01*
X11028810Y-10139286D01*
X11047857Y-10129762D01*
X11143095Y-10082143D02*
X11143095Y-10282143D01*
X11143095Y-10091667D02*
X11162143Y-10082143D01*
X11200238Y-10082143D01*
X11219286Y-10091667D01*
X11228809Y-10101190D01*
X11238333Y-10120238D01*
X11238333Y-10177381D01*
X11228809Y-10196429D01*
X11219286Y-10205952D01*
X11200238Y-10215476D01*
X11162143Y-10215476D01*
X11143095Y-10205952D01*
X11324048Y-10196429D02*
X11333571Y-10205952D01*
X11324048Y-10215476D01*
X11314524Y-10205952D01*
X11324048Y-10196429D01*
X11324048Y-10215476D01*
X11324048Y-10091667D02*
X11333571Y-10101190D01*
X11324048Y-10110714D01*
X11314524Y-10101190D01*
X11324048Y-10091667D01*
X11324048Y-10110714D01*
D12*
X9665000Y-10530000D02*
X9695000Y-10560000D01*
X9695000Y-10530000D02*
X9665000Y-10560000D01*
D11*
X9990714Y-10435476D02*
X10009762Y-10435476D01*
X10028810Y-10445000D01*
X10038333Y-10454524D01*
X10047857Y-10473571D01*
X10057381Y-10511667D01*
X10057381Y-10559286D01*
X10047857Y-10597381D01*
X10038333Y-10616429D01*
X10028810Y-10625952D01*
X10009762Y-10635476D01*
X9990714Y-10635476D01*
X9971667Y-10625952D01*
X9962143Y-10616429D01*
X9952619Y-10597381D01*
X9943095Y-10559286D01*
X9943095Y-10511667D01*
X9952619Y-10473571D01*
X9962143Y-10454524D01*
X9971667Y-10445000D01*
X9990714Y-10435476D01*
X10143095Y-10616429D02*
X10152619Y-10625952D01*
X10143095Y-10635476D01*
X10133571Y-10625952D01*
X10143095Y-10616429D01*
X10143095Y-10635476D01*
X10219286Y-10435476D02*
X10343095Y-10435476D01*
X10276429Y-10511667D01*
X10305000Y-10511667D01*
X10324048Y-10521190D01*
X10333571Y-10530714D01*
X10343095Y-10549762D01*
X10343095Y-10597381D01*
X10333571Y-10616429D01*
X10324048Y-10625952D01*
X10305000Y-10635476D01*
X10247857Y-10635476D01*
X10228810Y-10625952D01*
X10219286Y-10616429D01*
X10466905Y-10435476D02*
X10485952Y-10435476D01*
X10505000Y-10445000D01*
X10514524Y-10454524D01*
X10524048Y-10473571D01*
X10533571Y-10511667D01*
X10533571Y-10559286D01*
X10524048Y-10597381D01*
X10514524Y-10616429D01*
X10505000Y-10625952D01*
X10485952Y-10635476D01*
X10466905Y-10635476D01*
X10447857Y-10625952D01*
X10438333Y-10616429D01*
X10428810Y-10597381D01*
X10419286Y-10559286D01*
X10419286Y-10511667D01*
X10428810Y-10473571D01*
X10438333Y-10454524D01*
X10447857Y-10445000D01*
X10466905Y-10435476D01*
X10657381Y-10435476D02*
X10676429Y-10435476D01*
X10695476Y-10445000D01*
X10705000Y-10454524D01*
X10714524Y-10473571D01*
X10724048Y-10511667D01*
X10724048Y-10559286D01*
X10714524Y-10597381D01*
X10705000Y-10616429D01*
X10695476Y-10625952D01*
X10676429Y-10635476D01*
X10657381Y-10635476D01*
X10638333Y-10625952D01*
X10628810Y-10616429D01*
X10619286Y-10597381D01*
X10609762Y-10559286D01*
X10609762Y-10511667D01*
X10619286Y-10473571D01*
X10628810Y-10454524D01*
X10638333Y-10445000D01*
X10657381Y-10435476D01*
X10809762Y-10635476D02*
X10809762Y-10502143D01*
X10809762Y-10521190D02*
X10819286Y-10511667D01*
X10838333Y-10502143D01*
X10866905Y-10502143D01*
X10885952Y-10511667D01*
X10895476Y-10530714D01*
X10895476Y-10635476D01*
X10895476Y-10530714D02*
X10905000Y-10511667D01*
X10924048Y-10502143D01*
X10952619Y-10502143D01*
X10971667Y-10511667D01*
X10981190Y-10530714D01*
X10981190Y-10635476D01*
X11076429Y-10635476D02*
X11076429Y-10502143D01*
X11076429Y-10521190D02*
X11085952Y-10511667D01*
X11105000Y-10502143D01*
X11133571Y-10502143D01*
X11152619Y-10511667D01*
X11162143Y-10530714D01*
X11162143Y-10635476D01*
X11162143Y-10530714D02*
X11171667Y-10511667D01*
X11190714Y-10502143D01*
X11219286Y-10502143D01*
X11238333Y-10511667D01*
X11247857Y-10530714D01*
X11247857Y-10635476D01*
X11638333Y-10425952D02*
X11466905Y-10683095D01*
X11895476Y-10435476D02*
X11914524Y-10435476D01*
X11933571Y-10445000D01*
X11943095Y-10454524D01*
X11952619Y-10473571D01*
X11962143Y-10511667D01*
X11962143Y-10559286D01*
X11952619Y-10597381D01*
X11943095Y-10616429D01*
X11933571Y-10625952D01*
X11914524Y-10635476D01*
X11895476Y-10635476D01*
X11876428Y-10625952D01*
X11866905Y-10616429D01*
X11857381Y-10597381D01*
X11847857Y-10559286D01*
X11847857Y-10511667D01*
X11857381Y-10473571D01*
X11866905Y-10454524D01*
X11876428Y-10445000D01*
X11895476Y-10435476D01*
X12047857Y-10616429D02*
X12057381Y-10625952D01*
X12047857Y-10635476D01*
X12038333Y-10625952D01*
X12047857Y-10616429D01*
X12047857Y-10635476D01*
X12181190Y-10435476D02*
X12200238Y-10435476D01*
X12219286Y-10445000D01*
X12228809Y-10454524D01*
X12238333Y-10473571D01*
X12247857Y-10511667D01*
X12247857Y-10559286D01*
X12238333Y-10597381D01*
X12228809Y-10616429D01*
X12219286Y-10625952D01*
X12200238Y-10635476D01*
X12181190Y-10635476D01*
X12162143Y-10625952D01*
X12152619Y-10616429D01*
X12143095Y-10597381D01*
X12133571Y-10559286D01*
X12133571Y-10511667D01*
X12143095Y-10473571D01*
X12152619Y-10454524D01*
X12162143Y-10445000D01*
X12181190Y-10435476D01*
X12438333Y-10635476D02*
X12324048Y-10635476D01*
X12381190Y-10635476D02*
X12381190Y-10435476D01*
X12362143Y-10464048D01*
X12343095Y-10483095D01*
X12324048Y-10492619D01*
X12628809Y-10635476D02*
X12514524Y-10635476D01*
X12571667Y-10635476D02*
X12571667Y-10435476D01*
X12552619Y-10464048D01*
X12533571Y-10483095D01*
X12514524Y-10492619D01*
X12743095Y-10521190D02*
X12724048Y-10511667D01*
X12714524Y-10502143D01*
X12705000Y-10483095D01*
X12705000Y-10473571D01*
X12714524Y-10454524D01*
X12724048Y-10445000D01*
X12743095Y-10435476D01*
X12781190Y-10435476D01*
X12800238Y-10445000D01*
X12809762Y-10454524D01*
X12819286Y-10473571D01*
X12819286Y-10483095D01*
X12809762Y-10502143D01*
X12800238Y-10511667D01*
X12781190Y-10521190D01*
X12743095Y-10521190D01*
X12724048Y-10530714D01*
X12714524Y-10540238D01*
X12705000Y-10559286D01*
X12705000Y-10597381D01*
X12714524Y-10616429D01*
X12724048Y-10625952D01*
X12743095Y-10635476D01*
X12781190Y-10635476D01*
X12800238Y-10625952D01*
X12809762Y-10616429D01*
X12819286Y-10597381D01*
X12819286Y-10559286D01*
X12809762Y-10540238D01*
X12800238Y-10530714D01*
X12781190Y-10521190D01*
X12895476Y-10435476D02*
X12895476Y-10473571D01*
X12971667Y-10435476D02*
X12971667Y-10473571D01*
X13266905Y-10711667D02*
X13257381Y-10702143D01*
X13238333Y-10673571D01*
X13228809Y-10654524D01*
X13219286Y-10625952D01*
X13209762Y-10578333D01*
X13209762Y-10540238D01*
X13219286Y-10492619D01*
X13228809Y-10464048D01*
X13238333Y-10445000D01*
X13257381Y-10416429D01*
X13266905Y-10406905D01*
X13333571Y-10454524D02*
X13343095Y-10445000D01*
X13362143Y-10435476D01*
X13409762Y-10435476D01*
X13428809Y-10445000D01*
X13438333Y-10454524D01*
X13447857Y-10473571D01*
X13447857Y-10492619D01*
X13438333Y-10521190D01*
X13324048Y-10635476D01*
X13447857Y-10635476D01*
X13619286Y-10502143D02*
X13619286Y-10635476D01*
X13571667Y-10425952D02*
X13524048Y-10568810D01*
X13647857Y-10568810D01*
X13876428Y-10635476D02*
X13876428Y-10435476D01*
X13962143Y-10635476D02*
X13962143Y-10530714D01*
X13952619Y-10511667D01*
X13933571Y-10502143D01*
X13905000Y-10502143D01*
X13885952Y-10511667D01*
X13876428Y-10521190D01*
X14085952Y-10635476D02*
X14066905Y-10625952D01*
X14057381Y-10616429D01*
X14047857Y-10597381D01*
X14047857Y-10540238D01*
X14057381Y-10521190D01*
X14066905Y-10511667D01*
X14085952Y-10502143D01*
X14114524Y-10502143D01*
X14133571Y-10511667D01*
X14143095Y-10521190D01*
X14152619Y-10540238D01*
X14152619Y-10597381D01*
X14143095Y-10616429D01*
X14133571Y-10625952D01*
X14114524Y-10635476D01*
X14085952Y-10635476D01*
X14266905Y-10635476D02*
X14247857Y-10625952D01*
X14238333Y-10606905D01*
X14238333Y-10435476D01*
X14419286Y-10625952D02*
X14400238Y-10635476D01*
X14362143Y-10635476D01*
X14343095Y-10625952D01*
X14333571Y-10606905D01*
X14333571Y-10530714D01*
X14343095Y-10511667D01*
X14362143Y-10502143D01*
X14400238Y-10502143D01*
X14419286Y-10511667D01*
X14428809Y-10530714D01*
X14428809Y-10549762D01*
X14333571Y-10568810D01*
X14505000Y-10625952D02*
X14524048Y-10635476D01*
X14562143Y-10635476D01*
X14581190Y-10625952D01*
X14590714Y-10606905D01*
X14590714Y-10597381D01*
X14581190Y-10578333D01*
X14562143Y-10568810D01*
X14533571Y-10568810D01*
X14514524Y-10559286D01*
X14505000Y-10540238D01*
X14505000Y-10530714D01*
X14514524Y-10511667D01*
X14533571Y-10502143D01*
X14562143Y-10502143D01*
X14581190Y-10511667D01*
X14657381Y-10711667D02*
X14666905Y-10702143D01*
X14685952Y-10673571D01*
X14695476Y-10654524D01*
X14705000Y-10625952D01*
X14714524Y-10578333D01*
X14714524Y-10540238D01*
X14705000Y-10492619D01*
X14695476Y-10464048D01*
X14685952Y-10445000D01*
X14666905Y-10416429D01*
X14657381Y-10406905D01*
D13*
X9695000Y-10809000D02*
G75*
G03*
X9695000Y-10809000I-20000J0D01*
G01*
D11*
X9990714Y-10699476D02*
X10009762Y-10699476D01*
X10028810Y-10709000D01*
X10038333Y-10718524D01*
X10047857Y-10737571D01*
X10057381Y-10775667D01*
X10057381Y-10823286D01*
X10047857Y-10861381D01*
X10038333Y-10880429D01*
X10028810Y-10889952D01*
X10009762Y-10899476D01*
X9990714Y-10899476D01*
X9971667Y-10889952D01*
X9962143Y-10880429D01*
X9952619Y-10861381D01*
X9943095Y-10823286D01*
X9943095Y-10775667D01*
X9952619Y-10737571D01*
X9962143Y-10718524D01*
X9971667Y-10709000D01*
X9990714Y-10699476D01*
X10143095Y-10880429D02*
X10152619Y-10889952D01*
X10143095Y-10899476D01*
X10133571Y-10889952D01*
X10143095Y-10880429D01*
X10143095Y-10899476D01*
X10324048Y-10766143D02*
X10324048Y-10899476D01*
X10276429Y-10689952D02*
X10228810Y-10832810D01*
X10352619Y-10832810D01*
X10466905Y-10699476D02*
X10485952Y-10699476D01*
X10505000Y-10709000D01*
X10514524Y-10718524D01*
X10524048Y-10737571D01*
X10533571Y-10775667D01*
X10533571Y-10823286D01*
X10524048Y-10861381D01*
X10514524Y-10880429D01*
X10505000Y-10889952D01*
X10485952Y-10899476D01*
X10466905Y-10899476D01*
X10447857Y-10889952D01*
X10438333Y-10880429D01*
X10428810Y-10861381D01*
X10419286Y-10823286D01*
X10419286Y-10775667D01*
X10428810Y-10737571D01*
X10438333Y-10718524D01*
X10447857Y-10709000D01*
X10466905Y-10699476D01*
X10657381Y-10699476D02*
X10676429Y-10699476D01*
X10695476Y-10709000D01*
X10705000Y-10718524D01*
X10714524Y-10737571D01*
X10724048Y-10775667D01*
X10724048Y-10823286D01*
X10714524Y-10861381D01*
X10705000Y-10880429D01*
X10695476Y-10889952D01*
X10676429Y-10899476D01*
X10657381Y-10899476D01*
X10638333Y-10889952D01*
X10628810Y-10880429D01*
X10619286Y-10861381D01*
X10609762Y-10823286D01*
X10609762Y-10775667D01*
X10619286Y-10737571D01*
X10628810Y-10718524D01*
X10638333Y-10709000D01*
X10657381Y-10699476D01*
X10809762Y-10899476D02*
X10809762Y-10766143D01*
X10809762Y-10785190D02*
X10819286Y-10775667D01*
X10838333Y-10766143D01*
X10866905Y-10766143D01*
X10885952Y-10775667D01*
X10895476Y-10794714D01*
X10895476Y-10899476D01*
X10895476Y-10794714D02*
X10905000Y-10775667D01*
X10924048Y-10766143D01*
X10952619Y-10766143D01*
X10971667Y-10775667D01*
X10981190Y-10794714D01*
X10981190Y-10899476D01*
X11076429Y-10899476D02*
X11076429Y-10766143D01*
X11076429Y-10785190D02*
X11085952Y-10775667D01*
X11105000Y-10766143D01*
X11133571Y-10766143D01*
X11152619Y-10775667D01*
X11162143Y-10794714D01*
X11162143Y-10899476D01*
X11162143Y-10794714D02*
X11171667Y-10775667D01*
X11190714Y-10766143D01*
X11219286Y-10766143D01*
X11238333Y-10775667D01*
X11247857Y-10794714D01*
X11247857Y-10899476D01*
X11638333Y-10689952D02*
X11466905Y-10947095D01*
X11895476Y-10699476D02*
X11914524Y-10699476D01*
X11933571Y-10709000D01*
X11943095Y-10718524D01*
X11952619Y-10737571D01*
X11962143Y-10775667D01*
X11962143Y-10823286D01*
X11952619Y-10861381D01*
X11943095Y-10880429D01*
X11933571Y-10889952D01*
X11914524Y-10899476D01*
X11895476Y-10899476D01*
X11876428Y-10889952D01*
X11866905Y-10880429D01*
X11857381Y-10861381D01*
X11847857Y-10823286D01*
X11847857Y-10775667D01*
X11857381Y-10737571D01*
X11866905Y-10718524D01*
X11876428Y-10709000D01*
X11895476Y-10699476D01*
X12047857Y-10880429D02*
X12057381Y-10889952D01*
X12047857Y-10899476D01*
X12038333Y-10889952D01*
X12047857Y-10880429D01*
X12047857Y-10899476D01*
X12181190Y-10699476D02*
X12200238Y-10699476D01*
X12219286Y-10709000D01*
X12228809Y-10718524D01*
X12238333Y-10737571D01*
X12247857Y-10775667D01*
X12247857Y-10823286D01*
X12238333Y-10861381D01*
X12228809Y-10880429D01*
X12219286Y-10889952D01*
X12200238Y-10899476D01*
X12181190Y-10899476D01*
X12162143Y-10889952D01*
X12152619Y-10880429D01*
X12143095Y-10861381D01*
X12133571Y-10823286D01*
X12133571Y-10775667D01*
X12143095Y-10737571D01*
X12152619Y-10718524D01*
X12162143Y-10709000D01*
X12181190Y-10699476D01*
X12438333Y-10899476D02*
X12324048Y-10899476D01*
X12381190Y-10899476D02*
X12381190Y-10699476D01*
X12362143Y-10728048D01*
X12343095Y-10747095D01*
X12324048Y-10756619D01*
X12619286Y-10699476D02*
X12524048Y-10699476D01*
X12514524Y-10794714D01*
X12524048Y-10785190D01*
X12543095Y-10775667D01*
X12590714Y-10775667D01*
X12609762Y-10785190D01*
X12619286Y-10794714D01*
X12628809Y-10813762D01*
X12628809Y-10861381D01*
X12619286Y-10880429D01*
X12609762Y-10889952D01*
X12590714Y-10899476D01*
X12543095Y-10899476D01*
X12524048Y-10889952D01*
X12514524Y-10880429D01*
X12695476Y-10699476D02*
X12828809Y-10699476D01*
X12743095Y-10899476D01*
X12895476Y-10699476D02*
X12895476Y-10737571D01*
X12971667Y-10699476D02*
X12971667Y-10737571D01*
X13266905Y-10975667D02*
X13257381Y-10966143D01*
X13238333Y-10937571D01*
X13228809Y-10918524D01*
X13219286Y-10889952D01*
X13209762Y-10842333D01*
X13209762Y-10804238D01*
X13219286Y-10756619D01*
X13228809Y-10728048D01*
X13238333Y-10709000D01*
X13257381Y-10680429D01*
X13266905Y-10670905D01*
X13333571Y-10718524D02*
X13343095Y-10709000D01*
X13362143Y-10699476D01*
X13409762Y-10699476D01*
X13428809Y-10709000D01*
X13438333Y-10718524D01*
X13447857Y-10737571D01*
X13447857Y-10756619D01*
X13438333Y-10785190D01*
X13324048Y-10899476D01*
X13447857Y-10899476D01*
X13514524Y-10699476D02*
X13638333Y-10699476D01*
X13571667Y-10775667D01*
X13600238Y-10775667D01*
X13619286Y-10785190D01*
X13628809Y-10794714D01*
X13638333Y-10813762D01*
X13638333Y-10861381D01*
X13628809Y-10880429D01*
X13619286Y-10889952D01*
X13600238Y-10899476D01*
X13543095Y-10899476D01*
X13524048Y-10889952D01*
X13514524Y-10880429D01*
X13876428Y-10899476D02*
X13876428Y-10699476D01*
X13962143Y-10899476D02*
X13962143Y-10794714D01*
X13952619Y-10775667D01*
X13933571Y-10766143D01*
X13905000Y-10766143D01*
X13885952Y-10775667D01*
X13876428Y-10785190D01*
X14085952Y-10899476D02*
X14066905Y-10889952D01*
X14057381Y-10880429D01*
X14047857Y-10861381D01*
X14047857Y-10804238D01*
X14057381Y-10785190D01*
X14066905Y-10775667D01*
X14085952Y-10766143D01*
X14114524Y-10766143D01*
X14133571Y-10775667D01*
X14143095Y-10785190D01*
X14152619Y-10804238D01*
X14152619Y-10861381D01*
X14143095Y-10880429D01*
X14133571Y-10889952D01*
X14114524Y-10899476D01*
X14085952Y-10899476D01*
X14266905Y-10899476D02*
X14247857Y-10889952D01*
X14238333Y-10870905D01*
X14238333Y-10699476D01*
X14419286Y-10889952D02*
X14400238Y-10899476D01*
X14362143Y-10899476D01*
X14343095Y-10889952D01*
X14333571Y-10870905D01*
X14333571Y-10794714D01*
X14343095Y-10775667D01*
X14362143Y-10766143D01*
X14400238Y-10766143D01*
X14419286Y-10775667D01*
X14428809Y-10794714D01*
X14428809Y-10813762D01*
X14333571Y-10832810D01*
X14505000Y-10889952D02*
X14524048Y-10899476D01*
X14562143Y-10899476D01*
X14581190Y-10889952D01*
X14590714Y-10870905D01*
X14590714Y-10861381D01*
X14581190Y-10842333D01*
X14562143Y-10832810D01*
X14533571Y-10832810D01*
X14514524Y-10823286D01*
X14505000Y-10804238D01*
X14505000Y-10794714D01*
X14514524Y-10775667D01*
X14533571Y-10766143D01*
X14562143Y-10766143D01*
X14581190Y-10775667D01*
X14657381Y-10975667D02*
X14666905Y-10966143D01*
X14685952Y-10937571D01*
X14695476Y-10918524D01*
X14705000Y-10889952D01*
X14714524Y-10842333D01*
X14714524Y-10804238D01*
X14705000Y-10756619D01*
X14695476Y-10728048D01*
X14685952Y-10709000D01*
X14666905Y-10680429D01*
X14657381Y-10670905D01*
D14*
X9670000Y-11048000D02*
X9670000Y-11098000D01*
X9645000Y-11073000D02*
X9695000Y-11073000D01*
D11*
X9990714Y-10963476D02*
X10009762Y-10963476D01*
X10028810Y-10973000D01*
X10038333Y-10982524D01*
X10047857Y-11001571D01*
X10057381Y-11039667D01*
X10057381Y-11087286D01*
X10047857Y-11125381D01*
X10038333Y-11144429D01*
X10028810Y-11153952D01*
X10009762Y-11163476D01*
X9990714Y-11163476D01*
X9971667Y-11153952D01*
X9962143Y-11144429D01*
X9952619Y-11125381D01*
X9943095Y-11087286D01*
X9943095Y-11039667D01*
X9952619Y-11001571D01*
X9962143Y-10982524D01*
X9971667Y-10973000D01*
X9990714Y-10963476D01*
X10143095Y-11144429D02*
X10152619Y-11153952D01*
X10143095Y-11163476D01*
X10133571Y-11153952D01*
X10143095Y-11144429D01*
X10143095Y-11163476D01*
X10333571Y-10963476D02*
X10238333Y-10963476D01*
X10228810Y-11058714D01*
X10238333Y-11049190D01*
X10257381Y-11039667D01*
X10305000Y-11039667D01*
X10324048Y-11049190D01*
X10333571Y-11058714D01*
X10343095Y-11077762D01*
X10343095Y-11125381D01*
X10333571Y-11144429D01*
X10324048Y-11153952D01*
X10305000Y-11163476D01*
X10257381Y-11163476D01*
X10238333Y-11153952D01*
X10228810Y-11144429D01*
X10466905Y-10963476D02*
X10485952Y-10963476D01*
X10505000Y-10973000D01*
X10514524Y-10982524D01*
X10524048Y-11001571D01*
X10533571Y-11039667D01*
X10533571Y-11087286D01*
X10524048Y-11125381D01*
X10514524Y-11144429D01*
X10505000Y-11153952D01*
X10485952Y-11163476D01*
X10466905Y-11163476D01*
X10447857Y-11153952D01*
X10438333Y-11144429D01*
X10428810Y-11125381D01*
X10419286Y-11087286D01*
X10419286Y-11039667D01*
X10428810Y-11001571D01*
X10438333Y-10982524D01*
X10447857Y-10973000D01*
X10466905Y-10963476D01*
X10657381Y-10963476D02*
X10676429Y-10963476D01*
X10695476Y-10973000D01*
X10705000Y-10982524D01*
X10714524Y-11001571D01*
X10724048Y-11039667D01*
X10724048Y-11087286D01*
X10714524Y-11125381D01*
X10705000Y-11144429D01*
X10695476Y-11153952D01*
X10676429Y-11163476D01*
X10657381Y-11163476D01*
X10638333Y-11153952D01*
X10628810Y-11144429D01*
X10619286Y-11125381D01*
X10609762Y-11087286D01*
X10609762Y-11039667D01*
X10619286Y-11001571D01*
X10628810Y-10982524D01*
X10638333Y-10973000D01*
X10657381Y-10963476D01*
X10809762Y-11163476D02*
X10809762Y-11030143D01*
X10809762Y-11049190D02*
X10819286Y-11039667D01*
X10838333Y-11030143D01*
X10866905Y-11030143D01*
X10885952Y-11039667D01*
X10895476Y-11058714D01*
X10895476Y-11163476D01*
X10895476Y-11058714D02*
X10905000Y-11039667D01*
X10924048Y-11030143D01*
X10952619Y-11030143D01*
X10971667Y-11039667D01*
X10981190Y-11058714D01*
X10981190Y-11163476D01*
X11076429Y-11163476D02*
X11076429Y-11030143D01*
X11076429Y-11049190D02*
X11085952Y-11039667D01*
X11105000Y-11030143D01*
X11133571Y-11030143D01*
X11152619Y-11039667D01*
X11162143Y-11058714D01*
X11162143Y-11163476D01*
X11162143Y-11058714D02*
X11171667Y-11039667D01*
X11190714Y-11030143D01*
X11219286Y-11030143D01*
X11238333Y-11039667D01*
X11247857Y-11058714D01*
X11247857Y-11163476D01*
X11638333Y-10953952D02*
X11466905Y-11211095D01*
X11895476Y-10963476D02*
X11914524Y-10963476D01*
X11933571Y-10973000D01*
X11943095Y-10982524D01*
X11952619Y-11001571D01*
X11962143Y-11039667D01*
X11962143Y-11087286D01*
X11952619Y-11125381D01*
X11943095Y-11144429D01*
X11933571Y-11153952D01*
X11914524Y-11163476D01*
X11895476Y-11163476D01*
X11876428Y-11153952D01*
X11866905Y-11144429D01*
X11857381Y-11125381D01*
X11847857Y-11087286D01*
X11847857Y-11039667D01*
X11857381Y-11001571D01*
X11866905Y-10982524D01*
X11876428Y-10973000D01*
X11895476Y-10963476D01*
X12047857Y-11144429D02*
X12057381Y-11153952D01*
X12047857Y-11163476D01*
X12038333Y-11153952D01*
X12047857Y-11144429D01*
X12047857Y-11163476D01*
X12181190Y-10963476D02*
X12200238Y-10963476D01*
X12219286Y-10973000D01*
X12228809Y-10982524D01*
X12238333Y-11001571D01*
X12247857Y-11039667D01*
X12247857Y-11087286D01*
X12238333Y-11125381D01*
X12228809Y-11144429D01*
X12219286Y-11153952D01*
X12200238Y-11163476D01*
X12181190Y-11163476D01*
X12162143Y-11153952D01*
X12152619Y-11144429D01*
X12143095Y-11125381D01*
X12133571Y-11087286D01*
X12133571Y-11039667D01*
X12143095Y-11001571D01*
X12152619Y-10982524D01*
X12162143Y-10973000D01*
X12181190Y-10963476D01*
X12438333Y-11163476D02*
X12324048Y-11163476D01*
X12381190Y-11163476D02*
X12381190Y-10963476D01*
X12362143Y-10992048D01*
X12343095Y-11011095D01*
X12324048Y-11020619D01*
X12533571Y-11163476D02*
X12571667Y-11163476D01*
X12590714Y-11153952D01*
X12600238Y-11144429D01*
X12619286Y-11115857D01*
X12628809Y-11077762D01*
X12628809Y-11001571D01*
X12619286Y-10982524D01*
X12609762Y-10973000D01*
X12590714Y-10963476D01*
X12552619Y-10963476D01*
X12533571Y-10973000D01*
X12524048Y-10982524D01*
X12514524Y-11001571D01*
X12514524Y-11049190D01*
X12524048Y-11068238D01*
X12533571Y-11077762D01*
X12552619Y-11087286D01*
X12590714Y-11087286D01*
X12609762Y-11077762D01*
X12619286Y-11068238D01*
X12628809Y-11049190D01*
X12695476Y-10963476D02*
X12828809Y-10963476D01*
X12743095Y-11163476D01*
X12895476Y-10963476D02*
X12895476Y-11001571D01*
X12971667Y-10963476D02*
X12971667Y-11001571D01*
X13266905Y-11239667D02*
X13257381Y-11230143D01*
X13238333Y-11201571D01*
X13228809Y-11182524D01*
X13219286Y-11153952D01*
X13209762Y-11106333D01*
X13209762Y-11068238D01*
X13219286Y-11020619D01*
X13228809Y-10992048D01*
X13238333Y-10973000D01*
X13257381Y-10944429D01*
X13266905Y-10934905D01*
X13324048Y-10963476D02*
X13447857Y-10963476D01*
X13381190Y-11039667D01*
X13409762Y-11039667D01*
X13428809Y-11049190D01*
X13438333Y-11058714D01*
X13447857Y-11077762D01*
X13447857Y-11125381D01*
X13438333Y-11144429D01*
X13428809Y-11153952D01*
X13409762Y-11163476D01*
X13352619Y-11163476D01*
X13333571Y-11153952D01*
X13324048Y-11144429D01*
X13524048Y-10982524D02*
X13533571Y-10973000D01*
X13552619Y-10963476D01*
X13600238Y-10963476D01*
X13619286Y-10973000D01*
X13628809Y-10982524D01*
X13638333Y-11001571D01*
X13638333Y-11020619D01*
X13628809Y-11049190D01*
X13514524Y-11163476D01*
X13638333Y-11163476D01*
X13876428Y-11163476D02*
X13876428Y-10963476D01*
X13962143Y-11163476D02*
X13962143Y-11058714D01*
X13952619Y-11039667D01*
X13933571Y-11030143D01*
X13905000Y-11030143D01*
X13885952Y-11039667D01*
X13876428Y-11049190D01*
X14085952Y-11163476D02*
X14066905Y-11153952D01*
X14057381Y-11144429D01*
X14047857Y-11125381D01*
X14047857Y-11068238D01*
X14057381Y-11049190D01*
X14066905Y-11039667D01*
X14085952Y-11030143D01*
X14114524Y-11030143D01*
X14133571Y-11039667D01*
X14143095Y-11049190D01*
X14152619Y-11068238D01*
X14152619Y-11125381D01*
X14143095Y-11144429D01*
X14133571Y-11153952D01*
X14114524Y-11163476D01*
X14085952Y-11163476D01*
X14266905Y-11163476D02*
X14247857Y-11153952D01*
X14238333Y-11134905D01*
X14238333Y-10963476D01*
X14419286Y-11153952D02*
X14400238Y-11163476D01*
X14362143Y-11163476D01*
X14343095Y-11153952D01*
X14333571Y-11134905D01*
X14333571Y-11058714D01*
X14343095Y-11039667D01*
X14362143Y-11030143D01*
X14400238Y-11030143D01*
X14419286Y-11039667D01*
X14428809Y-11058714D01*
X14428809Y-11077762D01*
X14333571Y-11096810D01*
X14505000Y-11153952D02*
X14524048Y-11163476D01*
X14562143Y-11163476D01*
X14581190Y-11153952D01*
X14590714Y-11134905D01*
X14590714Y-11125381D01*
X14581190Y-11106333D01*
X14562143Y-11096810D01*
X14533571Y-11096810D01*
X14514524Y-11087286D01*
X14505000Y-11068238D01*
X14505000Y-11058714D01*
X14514524Y-11039667D01*
X14533571Y-11030143D01*
X14562143Y-11030143D01*
X14581190Y-11039667D01*
X14657381Y-11239667D02*
X14666905Y-11230143D01*
X14685952Y-11201571D01*
X14695476Y-11182524D01*
X14705000Y-11153952D01*
X14714524Y-11106333D01*
X14714524Y-11068238D01*
X14705000Y-11020619D01*
X14695476Y-10992048D01*
X14685952Y-10973000D01*
X14666905Y-10944429D01*
X14657381Y-10934905D01*
D15*
X9683841Y-11363941D02*
X9683841Y-11310059D01*
X9629959Y-11310059D01*
X9629959Y-11363941D01*
X9683841Y-11363941D01*
D11*
X9990714Y-11227476D02*
X10009762Y-11227476D01*
X10028810Y-11237000D01*
X10038333Y-11246524D01*
X10047857Y-11265571D01*
X10057381Y-11303667D01*
X10057381Y-11351286D01*
X10047857Y-11389381D01*
X10038333Y-11408428D01*
X10028810Y-11417952D01*
X10009762Y-11427476D01*
X9990714Y-11427476D01*
X9971667Y-11417952D01*
X9962143Y-11408428D01*
X9952619Y-11389381D01*
X9943095Y-11351286D01*
X9943095Y-11303667D01*
X9952619Y-11265571D01*
X9962143Y-11246524D01*
X9971667Y-11237000D01*
X9990714Y-11227476D01*
X10143095Y-11408428D02*
X10152619Y-11417952D01*
X10143095Y-11427476D01*
X10133571Y-11417952D01*
X10143095Y-11408428D01*
X10143095Y-11427476D01*
X10219286Y-11227476D02*
X10352619Y-11227476D01*
X10266905Y-11427476D01*
X10514524Y-11227476D02*
X10476429Y-11227476D01*
X10457381Y-11237000D01*
X10447857Y-11246524D01*
X10428810Y-11275095D01*
X10419286Y-11313190D01*
X10419286Y-11389381D01*
X10428810Y-11408428D01*
X10438333Y-11417952D01*
X10457381Y-11427476D01*
X10495476Y-11427476D01*
X10514524Y-11417952D01*
X10524048Y-11408428D01*
X10533571Y-11389381D01*
X10533571Y-11341762D01*
X10524048Y-11322714D01*
X10514524Y-11313190D01*
X10495476Y-11303667D01*
X10457381Y-11303667D01*
X10438333Y-11313190D01*
X10428810Y-11322714D01*
X10419286Y-11341762D01*
X10609762Y-11246524D02*
X10619286Y-11237000D01*
X10638333Y-11227476D01*
X10685952Y-11227476D01*
X10705000Y-11237000D01*
X10714524Y-11246524D01*
X10724048Y-11265571D01*
X10724048Y-11284619D01*
X10714524Y-11313190D01*
X10600238Y-11427476D01*
X10724048Y-11427476D01*
X10809762Y-11427476D02*
X10809762Y-11294143D01*
X10809762Y-11313190D02*
X10819286Y-11303667D01*
X10838333Y-11294143D01*
X10866905Y-11294143D01*
X10885952Y-11303667D01*
X10895476Y-11322714D01*
X10895476Y-11427476D01*
X10895476Y-11322714D02*
X10905000Y-11303667D01*
X10924048Y-11294143D01*
X10952619Y-11294143D01*
X10971667Y-11303667D01*
X10981190Y-11322714D01*
X10981190Y-11427476D01*
X11076429Y-11427476D02*
X11076429Y-11294143D01*
X11076429Y-11313190D02*
X11085952Y-11303667D01*
X11105000Y-11294143D01*
X11133571Y-11294143D01*
X11152619Y-11303667D01*
X11162143Y-11322714D01*
X11162143Y-11427476D01*
X11162143Y-11322714D02*
X11171667Y-11303667D01*
X11190714Y-11294143D01*
X11219286Y-11294143D01*
X11238333Y-11303667D01*
X11247857Y-11322714D01*
X11247857Y-11427476D01*
X11638333Y-11217952D02*
X11466905Y-11475095D01*
X11895476Y-11227476D02*
X11914524Y-11227476D01*
X11933571Y-11237000D01*
X11943095Y-11246524D01*
X11952619Y-11265571D01*
X11962143Y-11303667D01*
X11962143Y-11351286D01*
X11952619Y-11389381D01*
X11943095Y-11408428D01*
X11933571Y-11417952D01*
X11914524Y-11427476D01*
X11895476Y-11427476D01*
X11876428Y-11417952D01*
X11866905Y-11408428D01*
X11857381Y-11389381D01*
X11847857Y-11351286D01*
X11847857Y-11303667D01*
X11857381Y-11265571D01*
X11866905Y-11246524D01*
X11876428Y-11237000D01*
X11895476Y-11227476D01*
X12047857Y-11408428D02*
X12057381Y-11417952D01*
X12047857Y-11427476D01*
X12038333Y-11417952D01*
X12047857Y-11408428D01*
X12047857Y-11427476D01*
X12181190Y-11227476D02*
X12200238Y-11227476D01*
X12219286Y-11237000D01*
X12228809Y-11246524D01*
X12238333Y-11265571D01*
X12247857Y-11303667D01*
X12247857Y-11351286D01*
X12238333Y-11389381D01*
X12228809Y-11408428D01*
X12219286Y-11417952D01*
X12200238Y-11427476D01*
X12181190Y-11427476D01*
X12162143Y-11417952D01*
X12152619Y-11408428D01*
X12143095Y-11389381D01*
X12133571Y-11351286D01*
X12133571Y-11303667D01*
X12143095Y-11265571D01*
X12152619Y-11246524D01*
X12162143Y-11237000D01*
X12181190Y-11227476D01*
X12314524Y-11227476D02*
X12438333Y-11227476D01*
X12371667Y-11303667D01*
X12400238Y-11303667D01*
X12419286Y-11313190D01*
X12428809Y-11322714D01*
X12438333Y-11341762D01*
X12438333Y-11389381D01*
X12428809Y-11408428D01*
X12419286Y-11417952D01*
X12400238Y-11427476D01*
X12343095Y-11427476D01*
X12324048Y-11417952D01*
X12314524Y-11408428D01*
X12562143Y-11227476D02*
X12581190Y-11227476D01*
X12600238Y-11237000D01*
X12609762Y-11246524D01*
X12619286Y-11265571D01*
X12628809Y-11303667D01*
X12628809Y-11351286D01*
X12619286Y-11389381D01*
X12609762Y-11408428D01*
X12600238Y-11417952D01*
X12581190Y-11427476D01*
X12562143Y-11427476D01*
X12543095Y-11417952D01*
X12533571Y-11408428D01*
X12524048Y-11389381D01*
X12514524Y-11351286D01*
X12514524Y-11303667D01*
X12524048Y-11265571D01*
X12533571Y-11246524D01*
X12543095Y-11237000D01*
X12562143Y-11227476D01*
X12752619Y-11227476D02*
X12771667Y-11227476D01*
X12790714Y-11237000D01*
X12800238Y-11246524D01*
X12809762Y-11265571D01*
X12819286Y-11303667D01*
X12819286Y-11351286D01*
X12809762Y-11389381D01*
X12800238Y-11408428D01*
X12790714Y-11417952D01*
X12771667Y-11427476D01*
X12752619Y-11427476D01*
X12733571Y-11417952D01*
X12724048Y-11408428D01*
X12714524Y-11389381D01*
X12705000Y-11351286D01*
X12705000Y-11303667D01*
X12714524Y-11265571D01*
X12724048Y-11246524D01*
X12733571Y-11237000D01*
X12752619Y-11227476D01*
X12895476Y-11227476D02*
X12895476Y-11265571D01*
X12971667Y-11227476D02*
X12971667Y-11265571D01*
X13266905Y-11503667D02*
X13257381Y-11494143D01*
X13238333Y-11465571D01*
X13228809Y-11446524D01*
X13219286Y-11417952D01*
X13209762Y-11370333D01*
X13209762Y-11332238D01*
X13219286Y-11284619D01*
X13228809Y-11256048D01*
X13238333Y-11237000D01*
X13257381Y-11208428D01*
X13266905Y-11198905D01*
X13324048Y-11227476D02*
X13447857Y-11227476D01*
X13381190Y-11303667D01*
X13409762Y-11303667D01*
X13428809Y-11313190D01*
X13438333Y-11322714D01*
X13447857Y-11341762D01*
X13447857Y-11389381D01*
X13438333Y-11408428D01*
X13428809Y-11417952D01*
X13409762Y-11427476D01*
X13352619Y-11427476D01*
X13333571Y-11417952D01*
X13324048Y-11408428D01*
X13571667Y-11227476D02*
X13590714Y-11227476D01*
X13609762Y-11237000D01*
X13619286Y-11246524D01*
X13628809Y-11265571D01*
X13638333Y-11303667D01*
X13638333Y-11351286D01*
X13628809Y-11389381D01*
X13619286Y-11408428D01*
X13609762Y-11417952D01*
X13590714Y-11427476D01*
X13571667Y-11427476D01*
X13552619Y-11417952D01*
X13543095Y-11408428D01*
X13533571Y-11389381D01*
X13524048Y-11351286D01*
X13524048Y-11303667D01*
X13533571Y-11265571D01*
X13543095Y-11246524D01*
X13552619Y-11237000D01*
X13571667Y-11227476D01*
X13876428Y-11427476D02*
X13876428Y-11227476D01*
X13962143Y-11427476D02*
X13962143Y-11322714D01*
X13952619Y-11303667D01*
X13933571Y-11294143D01*
X13905000Y-11294143D01*
X13885952Y-11303667D01*
X13876428Y-11313190D01*
X14085952Y-11427476D02*
X14066905Y-11417952D01*
X14057381Y-11408428D01*
X14047857Y-11389381D01*
X14047857Y-11332238D01*
X14057381Y-11313190D01*
X14066905Y-11303667D01*
X14085952Y-11294143D01*
X14114524Y-11294143D01*
X14133571Y-11303667D01*
X14143095Y-11313190D01*
X14152619Y-11332238D01*
X14152619Y-11389381D01*
X14143095Y-11408428D01*
X14133571Y-11417952D01*
X14114524Y-11427476D01*
X14085952Y-11427476D01*
X14266905Y-11427476D02*
X14247857Y-11417952D01*
X14238333Y-11398905D01*
X14238333Y-11227476D01*
X14419286Y-11417952D02*
X14400238Y-11427476D01*
X14362143Y-11427476D01*
X14343095Y-11417952D01*
X14333571Y-11398905D01*
X14333571Y-11322714D01*
X14343095Y-11303667D01*
X14362143Y-11294143D01*
X14400238Y-11294143D01*
X14419286Y-11303667D01*
X14428809Y-11322714D01*
X14428809Y-11341762D01*
X14333571Y-11360809D01*
X14505000Y-11417952D02*
X14524048Y-11427476D01*
X14562143Y-11427476D01*
X14581190Y-11417952D01*
X14590714Y-11398905D01*
X14590714Y-11389381D01*
X14581190Y-11370333D01*
X14562143Y-11360809D01*
X14533571Y-11360809D01*
X14514524Y-11351286D01*
X14505000Y-11332238D01*
X14505000Y-11322714D01*
X14514524Y-11303667D01*
X14533571Y-11294143D01*
X14562143Y-11294143D01*
X14581190Y-11303667D01*
X14657381Y-11503667D02*
X14666905Y-11494143D01*
X14685952Y-11465571D01*
X14695476Y-11446524D01*
X14705000Y-11417952D01*
X14714524Y-11370333D01*
X14714524Y-11332238D01*
X14705000Y-11284619D01*
X14695476Y-11256048D01*
X14685952Y-11237000D01*
X14666905Y-11208428D01*
X14657381Y-11198905D01*
D16*
X9645000Y-11651000D02*
X9695000Y-11601000D01*
X9645000Y-11551000D01*
X9595000Y-11601000D01*
X9645000Y-11651000D01*
D11*
X10057381Y-11691476D02*
X9943095Y-11691476D01*
X10000238Y-11691476D02*
X10000238Y-11491476D01*
X9981190Y-11520048D01*
X9962143Y-11539095D01*
X9943095Y-11548619D01*
X10143095Y-11672428D02*
X10152619Y-11681952D01*
X10143095Y-11691476D01*
X10133571Y-11681952D01*
X10143095Y-11672428D01*
X10143095Y-11691476D01*
X10276429Y-11491476D02*
X10295476Y-11491476D01*
X10314524Y-11501000D01*
X10324048Y-11510524D01*
X10333571Y-11529571D01*
X10343095Y-11567667D01*
X10343095Y-11615286D01*
X10333571Y-11653381D01*
X10324048Y-11672428D01*
X10314524Y-11681952D01*
X10295476Y-11691476D01*
X10276429Y-11691476D01*
X10257381Y-11681952D01*
X10247857Y-11672428D01*
X10238333Y-11653381D01*
X10228810Y-11615286D01*
X10228810Y-11567667D01*
X10238333Y-11529571D01*
X10247857Y-11510524D01*
X10257381Y-11501000D01*
X10276429Y-11491476D01*
X10466905Y-11491476D02*
X10485952Y-11491476D01*
X10505000Y-11501000D01*
X10514524Y-11510524D01*
X10524048Y-11529571D01*
X10533571Y-11567667D01*
X10533571Y-11615286D01*
X10524048Y-11653381D01*
X10514524Y-11672428D01*
X10505000Y-11681952D01*
X10485952Y-11691476D01*
X10466905Y-11691476D01*
X10447857Y-11681952D01*
X10438333Y-11672428D01*
X10428810Y-11653381D01*
X10419286Y-11615286D01*
X10419286Y-11567667D01*
X10428810Y-11529571D01*
X10438333Y-11510524D01*
X10447857Y-11501000D01*
X10466905Y-11491476D01*
X10657381Y-11491476D02*
X10676429Y-11491476D01*
X10695476Y-11501000D01*
X10705000Y-11510524D01*
X10714524Y-11529571D01*
X10724048Y-11567667D01*
X10724048Y-11615286D01*
X10714524Y-11653381D01*
X10705000Y-11672428D01*
X10695476Y-11681952D01*
X10676429Y-11691476D01*
X10657381Y-11691476D01*
X10638333Y-11681952D01*
X10628810Y-11672428D01*
X10619286Y-11653381D01*
X10609762Y-11615286D01*
X10609762Y-11567667D01*
X10619286Y-11529571D01*
X10628810Y-11510524D01*
X10638333Y-11501000D01*
X10657381Y-11491476D01*
X10809762Y-11691476D02*
X10809762Y-11558143D01*
X10809762Y-11577190D02*
X10819286Y-11567667D01*
X10838333Y-11558143D01*
X10866905Y-11558143D01*
X10885952Y-11567667D01*
X10895476Y-11586714D01*
X10895476Y-11691476D01*
X10895476Y-11586714D02*
X10905000Y-11567667D01*
X10924048Y-11558143D01*
X10952619Y-11558143D01*
X10971667Y-11567667D01*
X10981190Y-11586714D01*
X10981190Y-11691476D01*
X11076429Y-11691476D02*
X11076429Y-11558143D01*
X11076429Y-11577190D02*
X11085952Y-11567667D01*
X11105000Y-11558143D01*
X11133571Y-11558143D01*
X11152619Y-11567667D01*
X11162143Y-11586714D01*
X11162143Y-11691476D01*
X11162143Y-11586714D02*
X11171667Y-11567667D01*
X11190714Y-11558143D01*
X11219286Y-11558143D01*
X11238333Y-11567667D01*
X11247857Y-11586714D01*
X11247857Y-11691476D01*
X11638333Y-11481952D02*
X11466905Y-11739095D01*
X11895476Y-11491476D02*
X11914524Y-11491476D01*
X11933571Y-11501000D01*
X11943095Y-11510524D01*
X11952619Y-11529571D01*
X11962143Y-11567667D01*
X11962143Y-11615286D01*
X11952619Y-11653381D01*
X11943095Y-11672428D01*
X11933571Y-11681952D01*
X11914524Y-11691476D01*
X11895476Y-11691476D01*
X11876428Y-11681952D01*
X11866905Y-11672428D01*
X11857381Y-11653381D01*
X11847857Y-11615286D01*
X11847857Y-11567667D01*
X11857381Y-11529571D01*
X11866905Y-11510524D01*
X11876428Y-11501000D01*
X11895476Y-11491476D01*
X12047857Y-11672428D02*
X12057381Y-11681952D01*
X12047857Y-11691476D01*
X12038333Y-11681952D01*
X12047857Y-11672428D01*
X12047857Y-11691476D01*
X12181190Y-11491476D02*
X12200238Y-11491476D01*
X12219286Y-11501000D01*
X12228809Y-11510524D01*
X12238333Y-11529571D01*
X12247857Y-11567667D01*
X12247857Y-11615286D01*
X12238333Y-11653381D01*
X12228809Y-11672428D01*
X12219286Y-11681952D01*
X12200238Y-11691476D01*
X12181190Y-11691476D01*
X12162143Y-11681952D01*
X12152619Y-11672428D01*
X12143095Y-11653381D01*
X12133571Y-11615286D01*
X12133571Y-11567667D01*
X12143095Y-11529571D01*
X12152619Y-11510524D01*
X12162143Y-11501000D01*
X12181190Y-11491476D01*
X12314524Y-11491476D02*
X12438333Y-11491476D01*
X12371667Y-11567667D01*
X12400238Y-11567667D01*
X12419286Y-11577190D01*
X12428809Y-11586714D01*
X12438333Y-11605762D01*
X12438333Y-11653381D01*
X12428809Y-11672428D01*
X12419286Y-11681952D01*
X12400238Y-11691476D01*
X12343095Y-11691476D01*
X12324048Y-11681952D01*
X12314524Y-11672428D01*
X12533571Y-11691476D02*
X12571667Y-11691476D01*
X12590714Y-11681952D01*
X12600238Y-11672428D01*
X12619286Y-11643857D01*
X12628809Y-11605762D01*
X12628809Y-11529571D01*
X12619286Y-11510524D01*
X12609762Y-11501000D01*
X12590714Y-11491476D01*
X12552619Y-11491476D01*
X12533571Y-11501000D01*
X12524048Y-11510524D01*
X12514524Y-11529571D01*
X12514524Y-11577190D01*
X12524048Y-11596238D01*
X12533571Y-11605762D01*
X12552619Y-11615286D01*
X12590714Y-11615286D01*
X12609762Y-11605762D01*
X12619286Y-11596238D01*
X12628809Y-11577190D01*
X12800238Y-11558143D02*
X12800238Y-11691476D01*
X12752619Y-11481952D02*
X12705000Y-11624809D01*
X12828809Y-11624809D01*
X12895476Y-11491476D02*
X12895476Y-11529571D01*
X12971667Y-11491476D02*
X12971667Y-11529571D01*
X13266905Y-11767667D02*
X13257381Y-11758143D01*
X13238333Y-11729571D01*
X13228809Y-11710524D01*
X13219286Y-11681952D01*
X13209762Y-11634333D01*
X13209762Y-11596238D01*
X13219286Y-11548619D01*
X13228809Y-11520048D01*
X13238333Y-11501000D01*
X13257381Y-11472428D01*
X13266905Y-11462905D01*
X13324048Y-11491476D02*
X13447857Y-11491476D01*
X13381190Y-11567667D01*
X13409762Y-11567667D01*
X13428809Y-11577190D01*
X13438333Y-11586714D01*
X13447857Y-11605762D01*
X13447857Y-11653381D01*
X13438333Y-11672428D01*
X13428809Y-11681952D01*
X13409762Y-11691476D01*
X13352619Y-11691476D01*
X13333571Y-11681952D01*
X13324048Y-11672428D01*
X13543095Y-11691476D02*
X13581190Y-11691476D01*
X13600238Y-11681952D01*
X13609762Y-11672428D01*
X13628809Y-11643857D01*
X13638333Y-11605762D01*
X13638333Y-11529571D01*
X13628809Y-11510524D01*
X13619286Y-11501000D01*
X13600238Y-11491476D01*
X13562143Y-11491476D01*
X13543095Y-11501000D01*
X13533571Y-11510524D01*
X13524048Y-11529571D01*
X13524048Y-11577190D01*
X13533571Y-11596238D01*
X13543095Y-11605762D01*
X13562143Y-11615286D01*
X13600238Y-11615286D01*
X13619286Y-11605762D01*
X13628809Y-11596238D01*
X13638333Y-11577190D01*
X13876428Y-11691476D02*
X13876428Y-11491476D01*
X13962143Y-11691476D02*
X13962143Y-11586714D01*
X13952619Y-11567667D01*
X13933571Y-11558143D01*
X13905000Y-11558143D01*
X13885952Y-11567667D01*
X13876428Y-11577190D01*
X14085952Y-11691476D02*
X14066905Y-11681952D01*
X14057381Y-11672428D01*
X14047857Y-11653381D01*
X14047857Y-11596238D01*
X14057381Y-11577190D01*
X14066905Y-11567667D01*
X14085952Y-11558143D01*
X14114524Y-11558143D01*
X14133571Y-11567667D01*
X14143095Y-11577190D01*
X14152619Y-11596238D01*
X14152619Y-11653381D01*
X14143095Y-11672428D01*
X14133571Y-11681952D01*
X14114524Y-11691476D01*
X14085952Y-11691476D01*
X14266905Y-11691476D02*
X14247857Y-11681952D01*
X14238333Y-11662905D01*
X14238333Y-11491476D01*
X14419286Y-11681952D02*
X14400238Y-11691476D01*
X14362143Y-11691476D01*
X14343095Y-11681952D01*
X14333571Y-11662905D01*
X14333571Y-11586714D01*
X14343095Y-11567667D01*
X14362143Y-11558143D01*
X14400238Y-11558143D01*
X14419286Y-11567667D01*
X14428809Y-11586714D01*
X14428809Y-11605762D01*
X14333571Y-11624809D01*
X14505000Y-11681952D02*
X14524048Y-11691476D01*
X14562143Y-11691476D01*
X14581190Y-11681952D01*
X14590714Y-11662905D01*
X14590714Y-11653381D01*
X14581190Y-11634333D01*
X14562143Y-11624809D01*
X14533571Y-11624809D01*
X14514524Y-11615286D01*
X14505000Y-11596238D01*
X14505000Y-11586714D01*
X14514524Y-11567667D01*
X14533571Y-11558143D01*
X14562143Y-11558143D01*
X14581190Y-11567667D01*
X14657381Y-11767667D02*
X14666905Y-11758143D01*
X14685952Y-11729571D01*
X14695476Y-11710524D01*
X14705000Y-11681952D01*
X14714524Y-11634333D01*
X14714524Y-11596238D01*
X14705000Y-11548619D01*
X14695476Y-11520048D01*
X14685952Y-11501000D01*
X14666905Y-11472428D01*
X14657381Y-11462905D01*
D17*
X9565000Y-11800000D02*
X9695000Y-11930000D01*
X9695000Y-11800000D02*
X9565000Y-11930000D01*
X9695000Y-11865000D02*
G75*
G03*
X9695000Y-11865000I-65000J0D01*
G01*
D11*
X10057381Y-11955476D02*
X9943095Y-11955476D01*
X10000238Y-11955476D02*
X10000238Y-11755476D01*
X9981190Y-11784048D01*
X9962143Y-11803095D01*
X9943095Y-11812619D01*
X10143095Y-11936428D02*
X10152619Y-11945952D01*
X10143095Y-11955476D01*
X10133571Y-11945952D01*
X10143095Y-11936428D01*
X10143095Y-11955476D01*
X10219286Y-11755476D02*
X10343095Y-11755476D01*
X10276429Y-11831667D01*
X10305000Y-11831667D01*
X10324048Y-11841190D01*
X10333571Y-11850714D01*
X10343095Y-11869762D01*
X10343095Y-11917381D01*
X10333571Y-11936428D01*
X10324048Y-11945952D01*
X10305000Y-11955476D01*
X10247857Y-11955476D01*
X10228810Y-11945952D01*
X10219286Y-11936428D01*
X10466905Y-11755476D02*
X10485952Y-11755476D01*
X10505000Y-11765000D01*
X10514524Y-11774524D01*
X10524048Y-11793571D01*
X10533571Y-11831667D01*
X10533571Y-11879286D01*
X10524048Y-11917381D01*
X10514524Y-11936428D01*
X10505000Y-11945952D01*
X10485952Y-11955476D01*
X10466905Y-11955476D01*
X10447857Y-11945952D01*
X10438333Y-11936428D01*
X10428810Y-11917381D01*
X10419286Y-11879286D01*
X10419286Y-11831667D01*
X10428810Y-11793571D01*
X10438333Y-11774524D01*
X10447857Y-11765000D01*
X10466905Y-11755476D01*
X10657381Y-11755476D02*
X10676429Y-11755476D01*
X10695476Y-11765000D01*
X10705000Y-11774524D01*
X10714524Y-11793571D01*
X10724048Y-11831667D01*
X10724048Y-11879286D01*
X10714524Y-11917381D01*
X10705000Y-11936428D01*
X10695476Y-11945952D01*
X10676429Y-11955476D01*
X10657381Y-11955476D01*
X10638333Y-11945952D01*
X10628810Y-11936428D01*
X10619286Y-11917381D01*
X10609762Y-11879286D01*
X10609762Y-11831667D01*
X10619286Y-11793571D01*
X10628810Y-11774524D01*
X10638333Y-11765000D01*
X10657381Y-11755476D01*
X10809762Y-11955476D02*
X10809762Y-11822143D01*
X10809762Y-11841190D02*
X10819286Y-11831667D01*
X10838333Y-11822143D01*
X10866905Y-11822143D01*
X10885952Y-11831667D01*
X10895476Y-11850714D01*
X10895476Y-11955476D01*
X10895476Y-11850714D02*
X10905000Y-11831667D01*
X10924048Y-11822143D01*
X10952619Y-11822143D01*
X10971667Y-11831667D01*
X10981190Y-11850714D01*
X10981190Y-11955476D01*
X11076429Y-11955476D02*
X11076429Y-11822143D01*
X11076429Y-11841190D02*
X11085952Y-11831667D01*
X11105000Y-11822143D01*
X11133571Y-11822143D01*
X11152619Y-11831667D01*
X11162143Y-11850714D01*
X11162143Y-11955476D01*
X11162143Y-11850714D02*
X11171667Y-11831667D01*
X11190714Y-11822143D01*
X11219286Y-11822143D01*
X11238333Y-11831667D01*
X11247857Y-11850714D01*
X11247857Y-11955476D01*
X11638333Y-11745952D02*
X11466905Y-12003095D01*
X11895476Y-11755476D02*
X11914524Y-11755476D01*
X11933571Y-11765000D01*
X11943095Y-11774524D01*
X11952619Y-11793571D01*
X11962143Y-11831667D01*
X11962143Y-11879286D01*
X11952619Y-11917381D01*
X11943095Y-11936428D01*
X11933571Y-11945952D01*
X11914524Y-11955476D01*
X11895476Y-11955476D01*
X11876428Y-11945952D01*
X11866905Y-11936428D01*
X11857381Y-11917381D01*
X11847857Y-11879286D01*
X11847857Y-11831667D01*
X11857381Y-11793571D01*
X11866905Y-11774524D01*
X11876428Y-11765000D01*
X11895476Y-11755476D01*
X12047857Y-11936428D02*
X12057381Y-11945952D01*
X12047857Y-11955476D01*
X12038333Y-11945952D01*
X12047857Y-11936428D01*
X12047857Y-11955476D01*
X12181190Y-11755476D02*
X12200238Y-11755476D01*
X12219286Y-11765000D01*
X12228809Y-11774524D01*
X12238333Y-11793571D01*
X12247857Y-11831667D01*
X12247857Y-11879286D01*
X12238333Y-11917381D01*
X12228809Y-11936428D01*
X12219286Y-11945952D01*
X12200238Y-11955476D01*
X12181190Y-11955476D01*
X12162143Y-11945952D01*
X12152619Y-11936428D01*
X12143095Y-11917381D01*
X12133571Y-11879286D01*
X12133571Y-11831667D01*
X12143095Y-11793571D01*
X12152619Y-11774524D01*
X12162143Y-11765000D01*
X12181190Y-11755476D01*
X12428809Y-11755476D02*
X12333571Y-11755476D01*
X12324048Y-11850714D01*
X12333571Y-11841190D01*
X12352619Y-11831667D01*
X12400238Y-11831667D01*
X12419286Y-11841190D01*
X12428809Y-11850714D01*
X12438333Y-11869762D01*
X12438333Y-11917381D01*
X12428809Y-11936428D01*
X12419286Y-11945952D01*
X12400238Y-11955476D01*
X12352619Y-11955476D01*
X12333571Y-11945952D01*
X12324048Y-11936428D01*
X12628809Y-11955476D02*
X12514524Y-11955476D01*
X12571667Y-11955476D02*
X12571667Y-11755476D01*
X12552619Y-11784048D01*
X12533571Y-11803095D01*
X12514524Y-11812619D01*
X12705000Y-11774524D02*
X12714524Y-11765000D01*
X12733571Y-11755476D01*
X12781190Y-11755476D01*
X12800238Y-11765000D01*
X12809762Y-11774524D01*
X12819286Y-11793571D01*
X12819286Y-11812619D01*
X12809762Y-11841190D01*
X12695476Y-11955476D01*
X12819286Y-11955476D01*
X12895476Y-11755476D02*
X12895476Y-11793571D01*
X12971667Y-11755476D02*
X12971667Y-11793571D01*
X13266905Y-12031667D02*
X13257381Y-12022143D01*
X13238333Y-11993571D01*
X13228809Y-11974524D01*
X13219286Y-11945952D01*
X13209762Y-11898333D01*
X13209762Y-11860238D01*
X13219286Y-11812619D01*
X13228809Y-11784048D01*
X13238333Y-11765000D01*
X13257381Y-11736428D01*
X13266905Y-11726905D01*
X13333571Y-11774524D02*
X13343095Y-11765000D01*
X13362143Y-11755476D01*
X13409762Y-11755476D01*
X13428809Y-11765000D01*
X13438333Y-11774524D01*
X13447857Y-11793571D01*
X13447857Y-11812619D01*
X13438333Y-11841190D01*
X13324048Y-11955476D01*
X13447857Y-11955476D01*
X13685952Y-11955476D02*
X13685952Y-11755476D01*
X13771667Y-11955476D02*
X13771667Y-11850714D01*
X13762143Y-11831667D01*
X13743095Y-11822143D01*
X13714524Y-11822143D01*
X13695476Y-11831667D01*
X13685952Y-11841190D01*
X13895476Y-11955476D02*
X13876428Y-11945952D01*
X13866905Y-11936428D01*
X13857381Y-11917381D01*
X13857381Y-11860238D01*
X13866905Y-11841190D01*
X13876428Y-11831667D01*
X13895476Y-11822143D01*
X13924048Y-11822143D01*
X13943095Y-11831667D01*
X13952619Y-11841190D01*
X13962143Y-11860238D01*
X13962143Y-11917381D01*
X13952619Y-11936428D01*
X13943095Y-11945952D01*
X13924048Y-11955476D01*
X13895476Y-11955476D01*
X14076428Y-11955476D02*
X14057381Y-11945952D01*
X14047857Y-11926905D01*
X14047857Y-11755476D01*
X14228809Y-11945952D02*
X14209762Y-11955476D01*
X14171667Y-11955476D01*
X14152619Y-11945952D01*
X14143095Y-11926905D01*
X14143095Y-11850714D01*
X14152619Y-11831667D01*
X14171667Y-11822143D01*
X14209762Y-11822143D01*
X14228809Y-11831667D01*
X14238333Y-11850714D01*
X14238333Y-11869762D01*
X14143095Y-11888809D01*
X14314524Y-11945952D02*
X14333571Y-11955476D01*
X14371667Y-11955476D01*
X14390714Y-11945952D01*
X14400238Y-11926905D01*
X14400238Y-11917381D01*
X14390714Y-11898333D01*
X14371667Y-11888809D01*
X14343095Y-11888809D01*
X14324048Y-11879286D01*
X14314524Y-11860238D01*
X14314524Y-11850714D01*
X14324048Y-11831667D01*
X14343095Y-11822143D01*
X14371667Y-11822143D01*
X14390714Y-11831667D01*
X14466905Y-12031667D02*
X14476428Y-12022143D01*
X14495476Y-11993571D01*
X14505000Y-11974524D01*
X14514524Y-11945952D01*
X14524048Y-11898333D01*
X14524048Y-11860238D01*
X14514524Y-11812619D01*
X14505000Y-11784048D01*
X14495476Y-11765000D01*
X14476428Y-11736428D01*
X14466905Y-11726905D01*
X9495000Y-12029000D02*
X9695000Y-12229000D01*
X9695000Y-12029000D02*
X9495000Y-12229000D01*
X9595000Y-12029000D02*
X9595000Y-12229000D01*
X9495000Y-12129000D02*
X9695000Y-12129000D01*
X9943095Y-12038524D02*
X9952619Y-12029000D01*
X9971667Y-12019476D01*
X10019286Y-12019476D01*
X10038333Y-12029000D01*
X10047857Y-12038524D01*
X10057381Y-12057571D01*
X10057381Y-12076619D01*
X10047857Y-12105190D01*
X9933571Y-12219476D01*
X10057381Y-12219476D01*
X10143095Y-12200428D02*
X10152619Y-12209952D01*
X10143095Y-12219476D01*
X10133571Y-12209952D01*
X10143095Y-12200428D01*
X10143095Y-12219476D01*
X10333571Y-12019476D02*
X10238333Y-12019476D01*
X10228810Y-12114714D01*
X10238333Y-12105190D01*
X10257381Y-12095667D01*
X10305000Y-12095667D01*
X10324048Y-12105190D01*
X10333571Y-12114714D01*
X10343095Y-12133762D01*
X10343095Y-12181381D01*
X10333571Y-12200428D01*
X10324048Y-12209952D01*
X10305000Y-12219476D01*
X10257381Y-12219476D01*
X10238333Y-12209952D01*
X10228810Y-12200428D01*
X10466905Y-12019476D02*
X10485952Y-12019476D01*
X10505000Y-12029000D01*
X10514524Y-12038524D01*
X10524048Y-12057571D01*
X10533571Y-12095667D01*
X10533571Y-12143286D01*
X10524048Y-12181381D01*
X10514524Y-12200428D01*
X10505000Y-12209952D01*
X10485952Y-12219476D01*
X10466905Y-12219476D01*
X10447857Y-12209952D01*
X10438333Y-12200428D01*
X10428810Y-12181381D01*
X10419286Y-12143286D01*
X10419286Y-12095667D01*
X10428810Y-12057571D01*
X10438333Y-12038524D01*
X10447857Y-12029000D01*
X10466905Y-12019476D01*
X10657381Y-12019476D02*
X10676429Y-12019476D01*
X10695476Y-12029000D01*
X10705000Y-12038524D01*
X10714524Y-12057571D01*
X10724048Y-12095667D01*
X10724048Y-12143286D01*
X10714524Y-12181381D01*
X10705000Y-12200428D01*
X10695476Y-12209952D01*
X10676429Y-12219476D01*
X10657381Y-12219476D01*
X10638333Y-12209952D01*
X10628810Y-12200428D01*
X10619286Y-12181381D01*
X10609762Y-12143286D01*
X10609762Y-12095667D01*
X10619286Y-12057571D01*
X10628810Y-12038524D01*
X10638333Y-12029000D01*
X10657381Y-12019476D01*
X10809762Y-12219476D02*
X10809762Y-12086143D01*
X10809762Y-12105190D02*
X10819286Y-12095667D01*
X10838333Y-12086143D01*
X10866905Y-12086143D01*
X10885952Y-12095667D01*
X10895476Y-12114714D01*
X10895476Y-12219476D01*
X10895476Y-12114714D02*
X10905000Y-12095667D01*
X10924048Y-12086143D01*
X10952619Y-12086143D01*
X10971667Y-12095667D01*
X10981190Y-12114714D01*
X10981190Y-12219476D01*
X11076429Y-12219476D02*
X11076429Y-12086143D01*
X11076429Y-12105190D02*
X11085952Y-12095667D01*
X11105000Y-12086143D01*
X11133571Y-12086143D01*
X11152619Y-12095667D01*
X11162143Y-12114714D01*
X11162143Y-12219476D01*
X11162143Y-12114714D02*
X11171667Y-12095667D01*
X11190714Y-12086143D01*
X11219286Y-12086143D01*
X11238333Y-12095667D01*
X11247857Y-12114714D01*
X11247857Y-12219476D01*
X11638333Y-12009952D02*
X11466905Y-12267095D01*
X11895476Y-12019476D02*
X11914524Y-12019476D01*
X11933571Y-12029000D01*
X11943095Y-12038524D01*
X11952619Y-12057571D01*
X11962143Y-12095667D01*
X11962143Y-12143286D01*
X11952619Y-12181381D01*
X11943095Y-12200428D01*
X11933571Y-12209952D01*
X11914524Y-12219476D01*
X11895476Y-12219476D01*
X11876428Y-12209952D01*
X11866905Y-12200428D01*
X11857381Y-12181381D01*
X11847857Y-12143286D01*
X11847857Y-12095667D01*
X11857381Y-12057571D01*
X11866905Y-12038524D01*
X11876428Y-12029000D01*
X11895476Y-12019476D01*
X12047857Y-12200428D02*
X12057381Y-12209952D01*
X12047857Y-12219476D01*
X12038333Y-12209952D01*
X12047857Y-12200428D01*
X12047857Y-12219476D01*
X12181190Y-12019476D02*
X12200238Y-12019476D01*
X12219286Y-12029000D01*
X12228809Y-12038524D01*
X12238333Y-12057571D01*
X12247857Y-12095667D01*
X12247857Y-12143286D01*
X12238333Y-12181381D01*
X12228809Y-12200428D01*
X12219286Y-12209952D01*
X12200238Y-12219476D01*
X12181190Y-12219476D01*
X12162143Y-12209952D01*
X12152619Y-12200428D01*
X12143095Y-12181381D01*
X12133571Y-12143286D01*
X12133571Y-12095667D01*
X12143095Y-12057571D01*
X12152619Y-12038524D01*
X12162143Y-12029000D01*
X12181190Y-12019476D01*
X12343095Y-12219476D02*
X12381190Y-12219476D01*
X12400238Y-12209952D01*
X12409762Y-12200428D01*
X12428809Y-12171857D01*
X12438333Y-12133762D01*
X12438333Y-12057571D01*
X12428809Y-12038524D01*
X12419286Y-12029000D01*
X12400238Y-12019476D01*
X12362143Y-12019476D01*
X12343095Y-12029000D01*
X12333571Y-12038524D01*
X12324048Y-12057571D01*
X12324048Y-12105190D01*
X12333571Y-12124238D01*
X12343095Y-12133762D01*
X12362143Y-12143286D01*
X12400238Y-12143286D01*
X12419286Y-12133762D01*
X12428809Y-12124238D01*
X12438333Y-12105190D01*
X12552619Y-12105190D02*
X12533571Y-12095667D01*
X12524048Y-12086143D01*
X12514524Y-12067095D01*
X12514524Y-12057571D01*
X12524048Y-12038524D01*
X12533571Y-12029000D01*
X12552619Y-12019476D01*
X12590714Y-12019476D01*
X12609762Y-12029000D01*
X12619286Y-12038524D01*
X12628809Y-12057571D01*
X12628809Y-12067095D01*
X12619286Y-12086143D01*
X12609762Y-12095667D01*
X12590714Y-12105190D01*
X12552619Y-12105190D01*
X12533571Y-12114714D01*
X12524048Y-12124238D01*
X12514524Y-12143286D01*
X12514524Y-12181381D01*
X12524048Y-12200428D01*
X12533571Y-12209952D01*
X12552619Y-12219476D01*
X12590714Y-12219476D01*
X12609762Y-12209952D01*
X12619286Y-12200428D01*
X12628809Y-12181381D01*
X12628809Y-12143286D01*
X12619286Y-12124238D01*
X12609762Y-12114714D01*
X12590714Y-12105190D01*
X12800238Y-12086143D02*
X12800238Y-12219476D01*
X12752619Y-12009952D02*
X12705000Y-12152809D01*
X12828809Y-12152809D01*
X12895476Y-12019476D02*
X12895476Y-12057571D01*
X12971667Y-12019476D02*
X12971667Y-12057571D01*
X13266905Y-12295667D02*
X13257381Y-12286143D01*
X13238333Y-12257571D01*
X13228809Y-12238524D01*
X13219286Y-12209952D01*
X13209762Y-12162333D01*
X13209762Y-12124238D01*
X13219286Y-12076619D01*
X13228809Y-12048048D01*
X13238333Y-12029000D01*
X13257381Y-12000428D01*
X13266905Y-11990905D01*
X13428809Y-12086143D02*
X13428809Y-12219476D01*
X13381190Y-12009952D02*
X13333571Y-12152809D01*
X13457381Y-12152809D01*
X13685952Y-12219476D02*
X13685952Y-12019476D01*
X13771667Y-12219476D02*
X13771667Y-12114714D01*
X13762143Y-12095667D01*
X13743095Y-12086143D01*
X13714524Y-12086143D01*
X13695476Y-12095667D01*
X13685952Y-12105190D01*
X13895476Y-12219476D02*
X13876428Y-12209952D01*
X13866905Y-12200428D01*
X13857381Y-12181381D01*
X13857381Y-12124238D01*
X13866905Y-12105190D01*
X13876428Y-12095667D01*
X13895476Y-12086143D01*
X13924048Y-12086143D01*
X13943095Y-12095667D01*
X13952619Y-12105190D01*
X13962143Y-12124238D01*
X13962143Y-12181381D01*
X13952619Y-12200428D01*
X13943095Y-12209952D01*
X13924048Y-12219476D01*
X13895476Y-12219476D01*
X14076428Y-12219476D02*
X14057381Y-12209952D01*
X14047857Y-12190905D01*
X14047857Y-12019476D01*
X14228809Y-12209952D02*
X14209762Y-12219476D01*
X14171667Y-12219476D01*
X14152619Y-12209952D01*
X14143095Y-12190905D01*
X14143095Y-12114714D01*
X14152619Y-12095667D01*
X14171667Y-12086143D01*
X14209762Y-12086143D01*
X14228809Y-12095667D01*
X14238333Y-12114714D01*
X14238333Y-12133762D01*
X14143095Y-12152809D01*
X14314524Y-12209952D02*
X14333571Y-12219476D01*
X14371667Y-12219476D01*
X14390714Y-12209952D01*
X14400238Y-12190905D01*
X14400238Y-12181381D01*
X14390714Y-12162333D01*
X14371667Y-12152809D01*
X14343095Y-12152809D01*
X14324048Y-12143286D01*
X14314524Y-12124238D01*
X14314524Y-12114714D01*
X14324048Y-12095667D01*
X14343095Y-12086143D01*
X14371667Y-12086143D01*
X14390714Y-12095667D01*
X14466905Y-12295667D02*
X14476428Y-12286143D01*
X14495476Y-12257571D01*
X14505000Y-12238524D01*
X14514524Y-12209952D01*
X14524048Y-12162333D01*
X14524048Y-12124238D01*
X14514524Y-12076619D01*
X14505000Y-12048048D01*
X14495476Y-12029000D01*
X14476428Y-12000428D01*
X14466905Y-11990905D01*
M02*
