G04 #@! TF.GenerationSoftware,KiCad,Pcbnew,(6.0.2)*
G04 #@! TF.CreationDate,2022-09-28T01:38:39+02:00*
G04 #@! TF.ProjectId,LoRa-Gateway-E32,4c6f5261-2d47-4617-9465-7761792d4533,v1r1b*
G04 #@! TF.SameCoordinates,Original*
G04 #@! TF.FileFunction,Soldermask,Top*
G04 #@! TF.FilePolarity,Negative*
%FSLAX46Y46*%
G04 Gerber Fmt 4.6, Leading zero omitted, Abs format (unit mm)*
G04 Created by KiCad (PCBNEW (6.0.2)) date 2022-09-28 01:38:39*
%MOMM*%
%LPD*%
G01*
G04 APERTURE LIST*
G04 Aperture macros list*
%AMRoundRect*
0 Rectangle with rounded corners*
0 $1 Rounding radius*
0 $2 $3 $4 $5 $6 $7 $8 $9 X,Y pos of 4 corners*
0 Add a 4 corners polygon primitive as box body*
4,1,4,$2,$3,$4,$5,$6,$7,$8,$9,$2,$3,0*
0 Add four circle primitives for the rounded corners*
1,1,$1+$1,$2,$3*
1,1,$1+$1,$4,$5*
1,1,$1+$1,$6,$7*
1,1,$1+$1,$8,$9*
0 Add four rect primitives between the rounded corners*
20,1,$1+$1,$2,$3,$4,$5,0*
20,1,$1+$1,$4,$5,$6,$7,0*
20,1,$1+$1,$6,$7,$8,$9,0*
20,1,$1+$1,$8,$9,$2,$3,0*%
G04 Aperture macros list end*
%ADD10R,1.700000X1.700000*%
%ADD11O,1.700000X1.700000*%
%ADD12RoundRect,0.250000X-0.250000X-0.475000X0.250000X-0.475000X0.250000X0.475000X-0.250000X0.475000X0*%
%ADD13C,1.700000*%
%ADD14RoundRect,0.250000X0.475000X-0.250000X0.475000X0.250000X-0.475000X0.250000X-0.475000X-0.250000X0*%
%ADD15C,0.800000*%
%ADD16C,5.000000*%
%ADD17R,1.000000X1.800000*%
%ADD18R,1.800000X1.000000*%
%ADD19RoundRect,0.250000X-1.450000X0.312500X-1.450000X-0.312500X1.450000X-0.312500X1.450000X0.312500X0*%
%ADD20R,2.600000X2.600000*%
%ADD21C,2.600000*%
%ADD22R,1.524000X1.524000*%
%ADD23C,1.524000*%
G04 APERTURE END LIST*
D10*
X99150000Y-90300000D03*
D11*
X99150000Y-92840000D03*
X99150000Y-95380000D03*
D12*
X137350000Y-74750000D03*
X139250000Y-74750000D03*
D13*
X157880000Y-47375000D03*
X157880000Y-67695000D03*
X157880000Y-65155000D03*
X129940000Y-67695000D03*
X132480000Y-52455000D03*
X155340000Y-52455000D03*
X132480000Y-57535000D03*
X155340000Y-60075000D03*
X155340000Y-57535000D03*
X132480000Y-60075000D03*
X132480000Y-62615000D03*
X155340000Y-54995000D03*
X129940000Y-62615000D03*
X155340000Y-62615000D03*
X129940000Y-65155000D03*
X155340000Y-67695000D03*
X155340000Y-65155000D03*
X157880000Y-62615000D03*
X157880000Y-60075000D03*
X157880000Y-57535000D03*
X157880000Y-54995000D03*
X157880000Y-52455000D03*
X157880000Y-49915000D03*
X155340000Y-49915000D03*
X155340000Y-47375000D03*
X132480000Y-67695000D03*
X132480000Y-65155000D03*
X129940000Y-60075000D03*
X129940000Y-57535000D03*
X132480000Y-54995000D03*
X129940000Y-54995000D03*
X129940000Y-52455000D03*
X132480000Y-49915000D03*
X129940000Y-49915000D03*
X132480000Y-47375000D03*
X129940000Y-47375000D03*
D14*
X157850000Y-45200000D03*
X157850000Y-43300000D03*
D15*
X159400000Y-41175000D03*
X159400000Y-37425000D03*
X161275000Y-39300000D03*
D16*
X159400000Y-39300000D03*
D15*
X160725825Y-40625825D03*
X158074175Y-37974175D03*
X160725825Y-37974175D03*
X157525000Y-39300000D03*
X158074175Y-40625825D03*
X100500000Y-81825000D03*
X101825825Y-85025825D03*
X98625000Y-83700000D03*
X100500000Y-85575000D03*
X99174175Y-82374175D03*
D16*
X100500000Y-83700000D03*
D15*
X102375000Y-83700000D03*
X101825825Y-82374175D03*
X99174175Y-85025825D03*
X158074175Y-94674175D03*
X160725825Y-97325825D03*
X161275000Y-96000000D03*
D16*
X159400000Y-96000000D03*
D15*
X157525000Y-96000000D03*
X158074175Y-97325825D03*
X160725825Y-94674175D03*
X159400000Y-97875000D03*
X159400000Y-94125000D03*
D17*
X153700000Y-77397500D03*
X152430000Y-77397500D03*
X151160000Y-77397500D03*
X145590000Y-77397500D03*
X144320000Y-77397500D03*
X143050000Y-77397500D03*
X141780000Y-77397500D03*
X140510000Y-77397500D03*
X139240000Y-77397500D03*
X137970000Y-77397500D03*
X136700000Y-77397500D03*
D18*
X134900000Y-82297500D03*
X134900000Y-83557500D03*
X134900000Y-84827500D03*
X134900000Y-86107500D03*
D17*
X136700000Y-90997500D03*
X137970000Y-90997500D03*
X139240000Y-90997500D03*
X140510000Y-90997500D03*
X141780000Y-90997500D03*
X143050000Y-90997500D03*
X144320000Y-90997500D03*
X145590000Y-90997500D03*
X151160000Y-90997500D03*
X152430000Y-90997500D03*
X153700000Y-90997500D03*
D19*
X117850000Y-89400000D03*
X117850000Y-93675000D03*
D15*
X98625000Y-39300000D03*
X100500000Y-41175000D03*
X99174175Y-37974175D03*
D16*
X100500000Y-39300000D03*
D15*
X100500000Y-37425000D03*
X101825825Y-40625825D03*
X102375000Y-39300000D03*
X101825825Y-37974175D03*
X99174175Y-40625825D03*
D20*
X107300000Y-94205000D03*
D21*
X112380000Y-94205000D03*
D22*
X98700000Y-42740000D03*
D23*
X98700000Y-45280000D03*
X98700000Y-47820000D03*
X98700000Y-50360000D03*
X98700000Y-52900000D03*
X98700000Y-55440000D03*
X98700000Y-57980000D03*
X98700000Y-60520000D03*
X98700000Y-63060000D03*
X98700000Y-65600000D03*
X98700000Y-68140000D03*
X98700000Y-70680000D03*
X98700000Y-73220000D03*
X98700000Y-75760000D03*
X98700000Y-78300000D03*
X124100000Y-78300000D03*
X124100000Y-75760000D03*
X124100000Y-73220000D03*
X124100000Y-70680000D03*
X124100000Y-68140000D03*
X124100000Y-65600000D03*
X124100000Y-63060000D03*
X124100000Y-60520000D03*
X124100000Y-57980000D03*
X124100000Y-55440000D03*
X124100000Y-52900000D03*
X124100000Y-50360000D03*
X124100000Y-47820000D03*
X124100000Y-45280000D03*
X124100000Y-42740000D03*
M02*
