G04 #@! TF.GenerationSoftware,KiCad,Pcbnew,(6.0.2)*
G04 #@! TF.CreationDate,2022-09-28T01:38:39+02:00*
G04 #@! TF.ProjectId,LoRa-Gateway-E32,4c6f5261-2d47-4617-9465-7761792d4533,v1r1b*
G04 #@! TF.SameCoordinates,Original*
G04 #@! TF.FileFunction,Legend,Bot*
G04 #@! TF.FilePolarity,Positive*
%FSLAX46Y46*%
G04 Gerber Fmt 4.6, Leading zero omitted, Abs format (unit mm)*
G04 Created by KiCad (PCBNEW (6.0.2)) date 2022-09-28 01:38:39*
%MOMM*%
%LPD*%
G01*
G04 APERTURE LIST*
%ADD10C,0.150000*%
%ADD11R,1.700000X1.700000*%
%ADD12O,1.700000X1.700000*%
%ADD13C,1.700000*%
%ADD14C,0.800000*%
%ADD15C,5.000000*%
%ADD16R,2.600000X2.600000*%
%ADD17C,2.600000*%
%ADD18R,1.524000X1.524000*%
%ADD19C,1.524000*%
G04 APERTURE END LIST*
D10*
X155719047Y-96452380D02*
X155719047Y-97166666D01*
X155766666Y-97309523D01*
X155861904Y-97404761D01*
X156004761Y-97452380D01*
X156100000Y-97452380D01*
X154766666Y-97452380D02*
X155242857Y-97452380D01*
X155242857Y-96452380D01*
X153861904Y-97357142D02*
X153909523Y-97404761D01*
X154052380Y-97452380D01*
X154147619Y-97452380D01*
X154290476Y-97404761D01*
X154385714Y-97309523D01*
X154433333Y-97214285D01*
X154480952Y-97023809D01*
X154480952Y-96880952D01*
X154433333Y-96690476D01*
X154385714Y-96595238D01*
X154290476Y-96500000D01*
X154147619Y-96452380D01*
X154052380Y-96452380D01*
X153909523Y-96500000D01*
X153861904Y-96547619D01*
X153147619Y-96452380D02*
X153147619Y-97166666D01*
X153195238Y-97309523D01*
X153290476Y-97404761D01*
X153433333Y-97452380D01*
X153528571Y-97452380D01*
X152195238Y-97452380D02*
X152671428Y-97452380D01*
X152671428Y-96452380D01*
X151290476Y-97357142D02*
X151338095Y-97404761D01*
X151480952Y-97452380D01*
X151576190Y-97452380D01*
X151719047Y-97404761D01*
X151814285Y-97309523D01*
X151861904Y-97214285D01*
X151909523Y-97023809D01*
X151909523Y-96880952D01*
X151861904Y-96690476D01*
X151814285Y-96595238D01*
X151719047Y-96500000D01*
X151576190Y-96452380D01*
X151480952Y-96452380D01*
X151338095Y-96500000D01*
X151290476Y-96547619D01*
X150576190Y-96452380D02*
X150576190Y-97166666D01*
X150623809Y-97309523D01*
X150719047Y-97404761D01*
X150861904Y-97452380D01*
X150957142Y-97452380D01*
X149623809Y-97452380D02*
X150100000Y-97452380D01*
X150100000Y-96452380D01*
X148719047Y-97357142D02*
X148766666Y-97404761D01*
X148909523Y-97452380D01*
X149004761Y-97452380D01*
X149147619Y-97404761D01*
X149242857Y-97309523D01*
X149290476Y-97214285D01*
X149338095Y-97023809D01*
X149338095Y-96880952D01*
X149290476Y-96690476D01*
X149242857Y-96595238D01*
X149147619Y-96500000D01*
X149004761Y-96452380D01*
X148909523Y-96452380D01*
X148766666Y-96500000D01*
X148719047Y-96547619D01*
X148004761Y-96452380D02*
X148004761Y-97166666D01*
X148052380Y-97309523D01*
X148147619Y-97404761D01*
X148290476Y-97452380D01*
X148385714Y-97452380D01*
X147052380Y-97452380D02*
X147528571Y-97452380D01*
X147528571Y-96452380D01*
X146147619Y-97357142D02*
X146195238Y-97404761D01*
X146338095Y-97452380D01*
X146433333Y-97452380D01*
X146576190Y-97404761D01*
X146671428Y-97309523D01*
X146719047Y-97214285D01*
X146766666Y-97023809D01*
X146766666Y-96880952D01*
X146719047Y-96690476D01*
X146671428Y-96595238D01*
X146576190Y-96500000D01*
X146433333Y-96452380D01*
X146338095Y-96452380D01*
X146195238Y-96500000D01*
X146147619Y-96547619D01*
%LPC*%
D11*
X99150000Y-90300000D03*
D12*
X99150000Y-92840000D03*
X99150000Y-95380000D03*
D13*
X157880000Y-47375000D03*
X157880000Y-67695000D03*
X157880000Y-65155000D03*
X129940000Y-67695000D03*
X132480000Y-52455000D03*
X155340000Y-52455000D03*
X132480000Y-57535000D03*
X155340000Y-60075000D03*
X155340000Y-57535000D03*
X132480000Y-60075000D03*
X132480000Y-62615000D03*
X155340000Y-54995000D03*
X129940000Y-62615000D03*
X155340000Y-62615000D03*
X129940000Y-65155000D03*
X155340000Y-67695000D03*
X155340000Y-65155000D03*
X157880000Y-62615000D03*
X157880000Y-60075000D03*
X157880000Y-57535000D03*
X157880000Y-54995000D03*
X157880000Y-52455000D03*
X157880000Y-49915000D03*
X155340000Y-49915000D03*
X155340000Y-47375000D03*
X132480000Y-67695000D03*
X132480000Y-65155000D03*
X129940000Y-60075000D03*
X129940000Y-57535000D03*
X132480000Y-54995000D03*
X129940000Y-54995000D03*
X129940000Y-52455000D03*
X132480000Y-49915000D03*
X129940000Y-49915000D03*
X132480000Y-47375000D03*
X129940000Y-47375000D03*
D14*
X159400000Y-41175000D03*
X159400000Y-37425000D03*
X161275000Y-39300000D03*
D15*
X159400000Y-39300000D03*
D14*
X160725825Y-40625825D03*
X158074175Y-37974175D03*
X160725825Y-37974175D03*
X157525000Y-39300000D03*
X158074175Y-40625825D03*
X100500000Y-81825000D03*
X101825825Y-85025825D03*
X98625000Y-83700000D03*
X100500000Y-85575000D03*
X99174175Y-82374175D03*
D15*
X100500000Y-83700000D03*
D14*
X102375000Y-83700000D03*
X101825825Y-82374175D03*
X99174175Y-85025825D03*
X158074175Y-94674175D03*
X160725825Y-97325825D03*
X161275000Y-96000000D03*
D15*
X159400000Y-96000000D03*
D14*
X157525000Y-96000000D03*
X158074175Y-97325825D03*
X160725825Y-94674175D03*
X159400000Y-97875000D03*
X159400000Y-94125000D03*
X98625000Y-39300000D03*
X100500000Y-41175000D03*
X99174175Y-37974175D03*
D15*
X100500000Y-39300000D03*
D14*
X100500000Y-37425000D03*
X101825825Y-40625825D03*
X102375000Y-39300000D03*
X101825825Y-37974175D03*
X99174175Y-40625825D03*
D16*
X107300000Y-94205000D03*
D17*
X112380000Y-94205000D03*
D18*
X98700000Y-42740000D03*
D19*
X98700000Y-45280000D03*
X98700000Y-47820000D03*
X98700000Y-50360000D03*
X98700000Y-52900000D03*
X98700000Y-55440000D03*
X98700000Y-57980000D03*
X98700000Y-60520000D03*
X98700000Y-63060000D03*
X98700000Y-65600000D03*
X98700000Y-68140000D03*
X98700000Y-70680000D03*
X98700000Y-73220000D03*
X98700000Y-75760000D03*
X98700000Y-78300000D03*
X124100000Y-78300000D03*
X124100000Y-75760000D03*
X124100000Y-73220000D03*
X124100000Y-70680000D03*
X124100000Y-68140000D03*
X124100000Y-65600000D03*
X124100000Y-63060000D03*
X124100000Y-60520000D03*
X124100000Y-57980000D03*
X124100000Y-55440000D03*
X124100000Y-52900000D03*
X124100000Y-50360000D03*
X124100000Y-47820000D03*
X124100000Y-45280000D03*
X124100000Y-42740000D03*
M02*
