G04 #@! TF.GenerationSoftware,KiCad,Pcbnew,(6.0.2)*
G04 #@! TF.CreationDate,2022-09-28T01:41:01+02:00*
G04 #@! TF.ProjectId,LoRa-Gateway-E220,4c6f5261-2d47-4617-9465-7761792d4532,v1r1a*
G04 #@! TF.SameCoordinates,Original*
G04 #@! TF.FileFunction,Copper,L2,Bot*
G04 #@! TF.FilePolarity,Positive*
%FSLAX46Y46*%
G04 Gerber Fmt 4.6, Leading zero omitted, Abs format (unit mm)*
G04 Created by KiCad (PCBNEW (6.0.2)) date 2022-09-28 01:41:01*
%MOMM*%
%LPD*%
G01*
G04 APERTURE LIST*
G04 #@! TA.AperFunction,ComponentPad*
%ADD10R,1.700000X1.700000*%
G04 #@! TD*
G04 #@! TA.AperFunction,ComponentPad*
%ADD11O,1.700000X1.700000*%
G04 #@! TD*
G04 #@! TA.AperFunction,ComponentPad*
%ADD12C,0.800000*%
G04 #@! TD*
G04 #@! TA.AperFunction,ComponentPad*
%ADD13C,5.000000*%
G04 #@! TD*
G04 #@! TA.AperFunction,ComponentPad*
%ADD14C,1.700000*%
G04 #@! TD*
G04 #@! TA.AperFunction,ComponentPad*
%ADD15R,2.600000X2.600000*%
G04 #@! TD*
G04 #@! TA.AperFunction,ComponentPad*
%ADD16C,2.600000*%
G04 #@! TD*
G04 #@! TA.AperFunction,ComponentPad*
%ADD17R,1.524000X1.524000*%
G04 #@! TD*
G04 #@! TA.AperFunction,ComponentPad*
%ADD18C,1.524000*%
G04 #@! TD*
G04 #@! TA.AperFunction,ViaPad*
%ADD19C,0.600000*%
G04 #@! TD*
G04 #@! TA.AperFunction,ViaPad*
%ADD20C,0.500000*%
G04 #@! TD*
G04 #@! TA.AperFunction,Conductor*
%ADD21C,0.300000*%
G04 #@! TD*
G04 #@! TA.AperFunction,Conductor*
%ADD22C,0.250000*%
G04 #@! TD*
G04 #@! TA.AperFunction,Conductor*
%ADD23C,0.500000*%
G04 #@! TD*
G04 APERTURE END LIST*
D10*
X99150000Y-90300000D03*
D11*
X99150000Y-92840000D03*
X99150000Y-95380000D03*
D12*
X161275000Y-96000000D03*
X159400000Y-97875000D03*
X160725825Y-94674175D03*
D13*
X159400000Y-96000000D03*
D12*
X160725825Y-97325825D03*
X158074175Y-94674175D03*
X159400000Y-94125000D03*
X157525000Y-96000000D03*
X158074175Y-97325825D03*
D14*
X157880000Y-47375000D03*
X157880000Y-67695000D03*
X157880000Y-65155000D03*
X129940000Y-67695000D03*
X132480000Y-52455000D03*
X155340000Y-52455000D03*
X132480000Y-57535000D03*
X155340000Y-60075000D03*
X155340000Y-57535000D03*
X132480000Y-60075000D03*
X132480000Y-62615000D03*
X155340000Y-54995000D03*
X129940000Y-62615000D03*
X155340000Y-62615000D03*
X129940000Y-65155000D03*
X155340000Y-67695000D03*
X155340000Y-65155000D03*
X157880000Y-62615000D03*
X157880000Y-60075000D03*
X157880000Y-57535000D03*
X157880000Y-54995000D03*
X157880000Y-52455000D03*
X157880000Y-49915000D03*
X155340000Y-49915000D03*
X155340000Y-47375000D03*
X132480000Y-67695000D03*
X132480000Y-65155000D03*
X129940000Y-60075000D03*
X129940000Y-57535000D03*
X132480000Y-54995000D03*
X129940000Y-54995000D03*
X129940000Y-52455000D03*
X132480000Y-49915000D03*
X129940000Y-49915000D03*
X132480000Y-47375000D03*
X129940000Y-47375000D03*
D12*
X100500000Y-37425000D03*
X100500000Y-41175000D03*
D13*
X100500000Y-39300000D03*
D12*
X101825825Y-37974175D03*
X101825825Y-40625825D03*
X102375000Y-39300000D03*
X98625000Y-39300000D03*
X99174175Y-37974175D03*
X99174175Y-40625825D03*
D15*
X107300000Y-94205000D03*
D16*
X112380000Y-94205000D03*
D12*
X158074175Y-40625825D03*
X160725825Y-37974175D03*
X160725825Y-40625825D03*
X159400000Y-37425000D03*
X158074175Y-37974175D03*
X157525000Y-39300000D03*
X161275000Y-39300000D03*
X159400000Y-41175000D03*
D13*
X159400000Y-39300000D03*
D17*
X98700000Y-42740000D03*
D18*
X98700000Y-45280000D03*
X98700000Y-47820000D03*
X98700000Y-50360000D03*
X98700000Y-52900000D03*
X98700000Y-55440000D03*
X98700000Y-57980000D03*
X98700000Y-60520000D03*
X98700000Y-63060000D03*
X98700000Y-65600000D03*
X98700000Y-68140000D03*
X98700000Y-70680000D03*
X98700000Y-73220000D03*
X98700000Y-75760000D03*
X98700000Y-78300000D03*
X124100000Y-78300000D03*
X124100000Y-75760000D03*
X124100000Y-73220000D03*
X124100000Y-70680000D03*
X124100000Y-68140000D03*
X124100000Y-65600000D03*
X124100000Y-63060000D03*
X124100000Y-60520000D03*
X124100000Y-57980000D03*
X124100000Y-55440000D03*
X124100000Y-52900000D03*
X124100000Y-50360000D03*
X124100000Y-47820000D03*
X124100000Y-45280000D03*
X124100000Y-42740000D03*
D12*
X98625000Y-83700000D03*
D13*
X100500000Y-83700000D03*
D12*
X100500000Y-85575000D03*
X102375000Y-83700000D03*
X101825825Y-82374175D03*
X101825825Y-85025825D03*
X99174175Y-85025825D03*
X99174175Y-82374175D03*
X100500000Y-81825000D03*
D19*
X145400000Y-88200000D03*
X156200000Y-84550000D03*
X159300000Y-43200000D03*
X148100000Y-77450000D03*
X141550000Y-87400000D03*
X136500000Y-86250000D03*
X149600000Y-90000000D03*
X153200000Y-83500000D03*
X134800000Y-88650000D03*
X145800000Y-91000000D03*
X147950000Y-82100000D03*
X155600000Y-88950000D03*
X151400000Y-79150000D03*
X142700000Y-84450000D03*
X142200000Y-79550000D03*
X144250000Y-76100000D03*
X131790000Y-76740000D03*
X150550000Y-76400000D03*
X138050000Y-88500000D03*
X151700000Y-86350000D03*
X152600000Y-81350000D03*
X146000000Y-79750000D03*
X148600000Y-85600000D03*
X155750000Y-79850000D03*
X139450000Y-83000000D03*
D20*
X140908750Y-75100000D03*
X111400000Y-71950000D03*
X125750000Y-72550000D03*
X139638750Y-75100000D03*
X111400000Y-64350000D03*
X111400000Y-66850000D03*
X143910000Y-63900000D03*
X111400000Y-69400000D03*
X143910000Y-61350000D03*
X143910000Y-58800000D03*
X143910000Y-56275000D03*
X143910000Y-46000000D03*
X129112500Y-87700000D03*
X111400000Y-78300000D03*
X125800000Y-83000000D03*
X129112500Y-83000000D03*
D21*
X137950000Y-71950000D02*
X111400000Y-71950000D01*
X137950000Y-71950000D02*
X140900000Y-74900000D01*
X126150000Y-72950000D02*
X137688750Y-72950000D01*
X125750000Y-72550000D02*
X126150000Y-72950000D01*
X137688750Y-72950000D02*
X139638750Y-74900000D01*
D22*
X126741260Y-64350000D02*
X111400000Y-64350000D01*
X127640780Y-63450480D02*
X126741260Y-64350000D01*
X129104520Y-63450480D02*
X127640780Y-63450480D01*
X129940000Y-62615000D02*
X129104520Y-63450480D01*
D21*
X129374317Y-63900000D02*
X143910000Y-63900000D01*
X111400000Y-66850000D02*
X126424317Y-66850000D01*
X126424317Y-66850000D02*
X129374317Y-63900000D01*
D22*
X125695000Y-69400000D02*
X111400000Y-69400000D01*
X129940000Y-65155000D02*
X125695000Y-69400000D01*
D21*
X143910000Y-61350000D02*
X124930000Y-61350000D01*
X124930000Y-61350000D02*
X124100000Y-60520000D01*
X124920000Y-58800000D02*
X124100000Y-57980000D01*
X143910000Y-58800000D02*
X124920000Y-58800000D01*
X143910000Y-56275000D02*
X124935000Y-56275000D01*
X124935000Y-56275000D02*
X124100000Y-55440000D01*
X143910000Y-46000000D02*
X127360000Y-46000000D01*
X127360000Y-46000000D02*
X124100000Y-42740000D01*
X97500000Y-88650000D02*
X99150000Y-90300000D01*
X98700000Y-55440000D02*
X97500000Y-56640000D01*
X97500000Y-56640000D02*
X97500000Y-88650000D01*
D23*
X120800000Y-87700000D02*
X129112500Y-87700000D01*
X111400000Y-78300000D02*
X120800000Y-87700000D01*
X125800000Y-83000000D02*
X129112500Y-83000000D01*
G04 #@! TA.AperFunction,Conductor*
G36*
X157819313Y-36528002D02*
G01*
X157865806Y-36581658D01*
X157875910Y-36651932D01*
X157846416Y-36716512D01*
X157818148Y-36740737D01*
X157654279Y-36843532D01*
X157651443Y-36845804D01*
X157651436Y-36845809D01*
X157522478Y-36949124D01*
X157383509Y-37060459D01*
X157139466Y-37307071D01*
X157137225Y-37309929D01*
X157080732Y-37381978D01*
X156925386Y-37580098D01*
X156923493Y-37583187D01*
X156923491Y-37583190D01*
X156878918Y-37655927D01*
X156744105Y-37875921D01*
X156742580Y-37879206D01*
X156742578Y-37879210D01*
X156703505Y-37963386D01*
X156598027Y-38190620D01*
X156489087Y-38520023D01*
X156488351Y-38523578D01*
X156488350Y-38523581D01*
X156419465Y-38856214D01*
X156418730Y-38859764D01*
X156387888Y-39205341D01*
X156387983Y-39208971D01*
X156387983Y-39208972D01*
X156390367Y-39300000D01*
X156396970Y-39552171D01*
X156445856Y-39895660D01*
X156533897Y-40231253D01*
X156659927Y-40554503D01*
X156661624Y-40557708D01*
X156795113Y-40809825D01*
X156822275Y-40861126D01*
X156824325Y-40864109D01*
X156824327Y-40864112D01*
X157016733Y-41144064D01*
X157016739Y-41144071D01*
X157018790Y-41147056D01*
X157246866Y-41408505D01*
X157324371Y-41479029D01*
X157459268Y-41601775D01*
X157503481Y-41642006D01*
X157785233Y-41844466D01*
X158088388Y-42013200D01*
X158408928Y-42145972D01*
X158412422Y-42146967D01*
X158412424Y-42146968D01*
X158739103Y-42240025D01*
X158739108Y-42240026D01*
X158742604Y-42241022D01*
X158939304Y-42273233D01*
X159081412Y-42296504D01*
X159081419Y-42296505D01*
X159084993Y-42297090D01*
X159258275Y-42305262D01*
X159427931Y-42313263D01*
X159427932Y-42313263D01*
X159431558Y-42313434D01*
X159440415Y-42312830D01*
X159774073Y-42290084D01*
X159774081Y-42290083D01*
X159777704Y-42289836D01*
X159781279Y-42289173D01*
X159781282Y-42289173D01*
X160115279Y-42227270D01*
X160115283Y-42227269D01*
X160118844Y-42226609D01*
X160450456Y-42124592D01*
X160768145Y-41985136D01*
X161012511Y-41842341D01*
X161064560Y-41811926D01*
X161064562Y-41811925D01*
X161067700Y-41810091D01*
X161070609Y-41807907D01*
X161342244Y-41603958D01*
X161342248Y-41603955D01*
X161345151Y-41601775D01*
X161596819Y-41362950D01*
X161669337Y-41276220D01*
X161728378Y-41236791D01*
X161799364Y-41235541D01*
X161859757Y-41272867D01*
X161890382Y-41336918D01*
X161892000Y-41357043D01*
X161892000Y-93941293D01*
X161871998Y-94009414D01*
X161818342Y-94055907D01*
X161748068Y-94066011D01*
X161683488Y-94036517D01*
X161673713Y-94027077D01*
X161485842Y-93824904D01*
X161222019Y-93599578D01*
X160934047Y-93406069D01*
X160625741Y-93246940D01*
X160301189Y-93124302D01*
X160297668Y-93123418D01*
X160297663Y-93123416D01*
X160136378Y-93082904D01*
X159964692Y-93039780D01*
X159942476Y-93036855D01*
X159624315Y-92994968D01*
X159624307Y-92994967D01*
X159620711Y-92994494D01*
X159476045Y-92992221D01*
X159277446Y-92989101D01*
X159277442Y-92989101D01*
X159273804Y-92989044D01*
X159270190Y-92989405D01*
X159270184Y-92989405D01*
X159026843Y-93013694D01*
X158928569Y-93023503D01*
X158589583Y-93097414D01*
X158586156Y-93098587D01*
X158586150Y-93098589D01*
X158418914Y-93155847D01*
X158261339Y-93209797D01*
X157948188Y-93359163D01*
X157654279Y-93543532D01*
X157651443Y-93545804D01*
X157651436Y-93545809D01*
X157471456Y-93690000D01*
X157383509Y-93760459D01*
X157139466Y-94007071D01*
X157137225Y-94009929D01*
X156967407Y-94226507D01*
X156925386Y-94280098D01*
X156744105Y-94575921D01*
X156742580Y-94579206D01*
X156742578Y-94579210D01*
X156669873Y-94735840D01*
X156598027Y-94890620D01*
X156579459Y-94946765D01*
X156492116Y-95210865D01*
X156489087Y-95220023D01*
X156488351Y-95223578D01*
X156488350Y-95223581D01*
X156420820Y-95549672D01*
X156418730Y-95559764D01*
X156408622Y-95673023D01*
X156397966Y-95792425D01*
X156387888Y-95905341D01*
X156387983Y-95908971D01*
X156387983Y-95908972D01*
X156396875Y-96248546D01*
X156396970Y-96252171D01*
X156445856Y-96595660D01*
X156533897Y-96931253D01*
X156659927Y-97254503D01*
X156822275Y-97561126D01*
X156824325Y-97564109D01*
X156824327Y-97564112D01*
X157016733Y-97844064D01*
X157016739Y-97844071D01*
X157018790Y-97847056D01*
X157246866Y-98108505D01*
X157249551Y-98110948D01*
X157427431Y-98272806D01*
X157464354Y-98333447D01*
X157462631Y-98404422D01*
X157422809Y-98463199D01*
X157357531Y-98491116D01*
X157342632Y-98492000D01*
X100049328Y-98492000D01*
X100029943Y-98490500D01*
X100015142Y-98488195D01*
X100015139Y-98488195D01*
X100006270Y-98486814D01*
X99989101Y-98489059D01*
X99965161Y-98489892D01*
X99707230Y-98474290D01*
X99692126Y-98472456D01*
X99621352Y-98459486D01*
X99411121Y-98420960D01*
X99396359Y-98417322D01*
X99123592Y-98332325D01*
X99109370Y-98326930D01*
X98848860Y-98209684D01*
X98835391Y-98202615D01*
X98590905Y-98054818D01*
X98578383Y-98046175D01*
X98353493Y-97869984D01*
X98342105Y-97859894D01*
X98140106Y-97657895D01*
X98130016Y-97646507D01*
X97953825Y-97421617D01*
X97945182Y-97409095D01*
X97797385Y-97164609D01*
X97790314Y-97151136D01*
X97692876Y-96934636D01*
X97673069Y-96890627D01*
X97667674Y-96876404D01*
X97625656Y-96741564D01*
X97582678Y-96603641D01*
X97579038Y-96588873D01*
X97527544Y-96307874D01*
X97525710Y-96292770D01*
X97510545Y-96042071D01*
X97511802Y-96015361D01*
X97511805Y-96015141D01*
X97513186Y-96006270D01*
X97511698Y-95994884D01*
X97509064Y-95974749D01*
X97508000Y-95958411D01*
X97508000Y-95346695D01*
X97787251Y-95346695D01*
X97787548Y-95351848D01*
X97787548Y-95351851D01*
X97796180Y-95501550D01*
X97800110Y-95569715D01*
X97801247Y-95574761D01*
X97801248Y-95574767D01*
X97821119Y-95662939D01*
X97849222Y-95787639D01*
X97898490Y-95908972D01*
X97930361Y-95987461D01*
X97933266Y-95994616D01*
X98049987Y-96185088D01*
X98196250Y-96353938D01*
X98368126Y-96496632D01*
X98561000Y-96609338D01*
X98769692Y-96689030D01*
X98774760Y-96690061D01*
X98774763Y-96690062D01*
X98882017Y-96711883D01*
X98988597Y-96733567D01*
X98993772Y-96733757D01*
X98993774Y-96733757D01*
X99206673Y-96741564D01*
X99206677Y-96741564D01*
X99211837Y-96741753D01*
X99216957Y-96741097D01*
X99216959Y-96741097D01*
X99428288Y-96714025D01*
X99428289Y-96714025D01*
X99433416Y-96713368D01*
X99438366Y-96711883D01*
X99642429Y-96650661D01*
X99642434Y-96650659D01*
X99647384Y-96649174D01*
X99847994Y-96550896D01*
X100029860Y-96421173D01*
X100188096Y-96263489D01*
X100193649Y-96255762D01*
X100315435Y-96086277D01*
X100318453Y-96082077D01*
X100344931Y-96028504D01*
X100415136Y-95886453D01*
X100415137Y-95886451D01*
X100417430Y-95881811D01*
X100482370Y-95668069D01*
X100497958Y-95549669D01*
X105492001Y-95549669D01*
X105492371Y-95556490D01*
X105497895Y-95607352D01*
X105501521Y-95622604D01*
X105546676Y-95743054D01*
X105555214Y-95758649D01*
X105631715Y-95860724D01*
X105644276Y-95873285D01*
X105746351Y-95949786D01*
X105761946Y-95958324D01*
X105882394Y-96003478D01*
X105897649Y-96007105D01*
X105948514Y-96012631D01*
X105955328Y-96013000D01*
X106281885Y-96013000D01*
X106297124Y-96008525D01*
X106298329Y-96007135D01*
X106300000Y-95999452D01*
X106300000Y-95994884D01*
X108300000Y-95994884D01*
X108304475Y-96010123D01*
X108305865Y-96011328D01*
X108313548Y-96012999D01*
X108644669Y-96012999D01*
X108651490Y-96012629D01*
X108702352Y-96007105D01*
X108717604Y-96003479D01*
X108838054Y-95958324D01*
X108853649Y-95949786D01*
X108955724Y-95873285D01*
X108968285Y-95860724D01*
X109044786Y-95758649D01*
X109053324Y-95743054D01*
X109098478Y-95622606D01*
X109102105Y-95607351D01*
X109107631Y-95556486D01*
X109108000Y-95549672D01*
X109108000Y-95223115D01*
X109103525Y-95207876D01*
X109102135Y-95206671D01*
X109094452Y-95205000D01*
X108318115Y-95205000D01*
X108302876Y-95209475D01*
X108301671Y-95210865D01*
X108300000Y-95218548D01*
X108300000Y-95994884D01*
X106300000Y-95994884D01*
X106300000Y-95223115D01*
X106295525Y-95207876D01*
X106294135Y-95206671D01*
X106286452Y-95205000D01*
X105510116Y-95205000D01*
X105494877Y-95209475D01*
X105493672Y-95210865D01*
X105492001Y-95218548D01*
X105492001Y-95549669D01*
X100497958Y-95549669D01*
X100511529Y-95446590D01*
X100512794Y-95394810D01*
X100513074Y-95383365D01*
X100513074Y-95383361D01*
X100513156Y-95380000D01*
X100494852Y-95157361D01*
X100440431Y-94940702D01*
X100351354Y-94735840D01*
X100311906Y-94674862D01*
X100232822Y-94552617D01*
X100232820Y-94552614D01*
X100230014Y-94548277D01*
X100079670Y-94383051D01*
X100075619Y-94379852D01*
X100075615Y-94379848D01*
X99908414Y-94247800D01*
X99908410Y-94247798D01*
X99904359Y-94244598D01*
X99862569Y-94221529D01*
X99812598Y-94171097D01*
X99809711Y-94157526D01*
X110567050Y-94157526D01*
X110567274Y-94162192D01*
X110567274Y-94162197D01*
X110571232Y-94244598D01*
X110579947Y-94426019D01*
X110632388Y-94689656D01*
X110723220Y-94942646D01*
X110850450Y-95179431D01*
X110853241Y-95183168D01*
X110853245Y-95183175D01*
X110880761Y-95220023D01*
X111011281Y-95394810D01*
X111014590Y-95398090D01*
X111014595Y-95398096D01*
X111198863Y-95580762D01*
X111202180Y-95584050D01*
X111205942Y-95586808D01*
X111205945Y-95586811D01*
X111318299Y-95669192D01*
X111418954Y-95742995D01*
X111423089Y-95745171D01*
X111423093Y-95745173D01*
X111642718Y-95860724D01*
X111656840Y-95868154D01*
X111910613Y-95956775D01*
X111915206Y-95957647D01*
X112170109Y-96006042D01*
X112170112Y-96006042D01*
X112174698Y-96006913D01*
X112302370Y-96011929D01*
X112438625Y-96017283D01*
X112438630Y-96017283D01*
X112443293Y-96017466D01*
X112547607Y-96006042D01*
X112705844Y-95988713D01*
X112705850Y-95988712D01*
X112710497Y-95988203D01*
X112804238Y-95963523D01*
X112965918Y-95920956D01*
X112965920Y-95920955D01*
X112970441Y-95919765D01*
X112974738Y-95917919D01*
X113213120Y-95815502D01*
X113213122Y-95815501D01*
X113217414Y-95813657D01*
X113336071Y-95740230D01*
X113442017Y-95674669D01*
X113442021Y-95674666D01*
X113445990Y-95672210D01*
X113651149Y-95498530D01*
X113828382Y-95296434D01*
X113875543Y-95223115D01*
X113971269Y-95074291D01*
X113973797Y-95070361D01*
X114084199Y-94825278D01*
X114109423Y-94735840D01*
X114155893Y-94571072D01*
X114155894Y-94571069D01*
X114157163Y-94566568D01*
X114175043Y-94426019D01*
X114190688Y-94303045D01*
X114190688Y-94303041D01*
X114191086Y-94299915D01*
X114193571Y-94205000D01*
X114175277Y-93958831D01*
X114173996Y-93941592D01*
X114173996Y-93941591D01*
X114173650Y-93936937D01*
X114161625Y-93883792D01*
X114115361Y-93679331D01*
X114115360Y-93679326D01*
X114114327Y-93674763D01*
X114016902Y-93424238D01*
X113883518Y-93190864D01*
X113880382Y-93186885D01*
X113809239Y-93096641D01*
X113717105Y-92979769D01*
X113521317Y-92795591D01*
X113335877Y-92666946D01*
X113304299Y-92645039D01*
X113304296Y-92645037D01*
X113300457Y-92642374D01*
X113296264Y-92640306D01*
X113063564Y-92525551D01*
X113063561Y-92525550D01*
X113059376Y-92523486D01*
X113011745Y-92508239D01*
X112957621Y-92490914D01*
X112803370Y-92441538D01*
X112798763Y-92440788D01*
X112798760Y-92440787D01*
X112542674Y-92399081D01*
X112542675Y-92399081D01*
X112538063Y-92398330D01*
X112407719Y-92396624D01*
X112273961Y-92394873D01*
X112273958Y-92394873D01*
X112269284Y-92394812D01*
X112002937Y-92431060D01*
X111744874Y-92506278D01*
X111500763Y-92618815D01*
X111496854Y-92621378D01*
X111279881Y-92763631D01*
X111279876Y-92763635D01*
X111275968Y-92766197D01*
X111075426Y-92945188D01*
X110903544Y-93151854D01*
X110764096Y-93381656D01*
X110660148Y-93629545D01*
X110593981Y-93890077D01*
X110567050Y-94157526D01*
X99809711Y-94157526D01*
X99797826Y-94101654D01*
X99822942Y-94035248D01*
X99850294Y-94008641D01*
X100025328Y-93883792D01*
X100033200Y-93877139D01*
X100184051Y-93726813D01*
X100190728Y-93718967D01*
X100200972Y-93704712D01*
X100205359Y-93692208D01*
X100196342Y-93690000D01*
X98107668Y-93690000D01*
X98096639Y-93693238D01*
X98101411Y-93703689D01*
X98193216Y-93809672D01*
X98200579Y-93816881D01*
X98364434Y-93952916D01*
X98372881Y-93958831D01*
X98441969Y-93999203D01*
X98490693Y-94050842D01*
X98503764Y-94120625D01*
X98477033Y-94186396D01*
X98436584Y-94219752D01*
X98423607Y-94226507D01*
X98419474Y-94229610D01*
X98419471Y-94229612D01*
X98311789Y-94310462D01*
X98244965Y-94360635D01*
X98090629Y-94522138D01*
X98087715Y-94526410D01*
X98087714Y-94526411D01*
X98053941Y-94575921D01*
X97964743Y-94706680D01*
X97870688Y-94909305D01*
X97810989Y-95124570D01*
X97787251Y-95346695D01*
X97508000Y-95346695D01*
X97508000Y-93186885D01*
X105492000Y-93186885D01*
X105496475Y-93202124D01*
X105497865Y-93203329D01*
X105505548Y-93205000D01*
X106281885Y-93205000D01*
X106297124Y-93200525D01*
X106298329Y-93199135D01*
X106300000Y-93191452D01*
X106300000Y-93186885D01*
X108300000Y-93186885D01*
X108304475Y-93202124D01*
X108305865Y-93203329D01*
X108313548Y-93205000D01*
X109089884Y-93205000D01*
X109105123Y-93200525D01*
X109106328Y-93199135D01*
X109107999Y-93191452D01*
X109107999Y-92860331D01*
X109107629Y-92853510D01*
X109102105Y-92802648D01*
X109098479Y-92787396D01*
X109053324Y-92666946D01*
X109044786Y-92651351D01*
X108968285Y-92549276D01*
X108955724Y-92536715D01*
X108853649Y-92460214D01*
X108838054Y-92451676D01*
X108717606Y-92406522D01*
X108702351Y-92402895D01*
X108651486Y-92397369D01*
X108644672Y-92397000D01*
X108318115Y-92397000D01*
X108302876Y-92401475D01*
X108301671Y-92402865D01*
X108300000Y-92410548D01*
X108300000Y-93186885D01*
X106300000Y-93186885D01*
X106300000Y-92415116D01*
X106295525Y-92399877D01*
X106294135Y-92398672D01*
X106286452Y-92397001D01*
X105955331Y-92397001D01*
X105948510Y-92397371D01*
X105897648Y-92402895D01*
X105882396Y-92406521D01*
X105761946Y-92451676D01*
X105746351Y-92460214D01*
X105644276Y-92536715D01*
X105631715Y-92549276D01*
X105555214Y-92651351D01*
X105546676Y-92666946D01*
X105501522Y-92787394D01*
X105497895Y-92802649D01*
X105492369Y-92853514D01*
X105492000Y-92860328D01*
X105492000Y-93186885D01*
X97508000Y-93186885D01*
X97508000Y-89893450D01*
X97528002Y-89825329D01*
X97581658Y-89778836D01*
X97651932Y-89768732D01*
X97716512Y-89798226D01*
X97723095Y-89804355D01*
X97754595Y-89835855D01*
X97788621Y-89898167D01*
X97791500Y-89924950D01*
X97791500Y-91198134D01*
X97798255Y-91260316D01*
X97849385Y-91396705D01*
X97936739Y-91513261D01*
X98053295Y-91600615D01*
X98061704Y-91603767D01*
X98061705Y-91603768D01*
X98170960Y-91644726D01*
X98227725Y-91687367D01*
X98252425Y-91753929D01*
X98237218Y-91823278D01*
X98217825Y-91849759D01*
X98095042Y-91978244D01*
X98091869Y-91988046D01*
X98100294Y-91990000D01*
X100194593Y-91990000D01*
X100205122Y-91986908D01*
X100199990Y-91976024D01*
X100082293Y-91846677D01*
X100051241Y-91782831D01*
X100059635Y-91712333D01*
X100104812Y-91657564D01*
X100131256Y-91643895D01*
X100238297Y-91603767D01*
X100246705Y-91600615D01*
X100363261Y-91513261D01*
X100450615Y-91396705D01*
X100501745Y-91260316D01*
X100508500Y-91198134D01*
X100508500Y-89401866D01*
X100501745Y-89339684D01*
X100450615Y-89203295D01*
X100363261Y-89086739D01*
X100246705Y-88999385D01*
X100110316Y-88948255D01*
X100048134Y-88941500D01*
X98774950Y-88941500D01*
X98706829Y-88921498D01*
X98685855Y-88904595D01*
X98195405Y-88414145D01*
X98161379Y-88351833D01*
X98158500Y-88325050D01*
X98158500Y-85922111D01*
X98178502Y-85853990D01*
X98232158Y-85807497D01*
X98302432Y-85797393D01*
X98369297Y-85828916D01*
X98603481Y-86042006D01*
X98885233Y-86244466D01*
X99188388Y-86413200D01*
X99508928Y-86545972D01*
X99512422Y-86546967D01*
X99512424Y-86546968D01*
X99839103Y-86640025D01*
X99839108Y-86640026D01*
X99842604Y-86641022D01*
X100039304Y-86673233D01*
X100181412Y-86696504D01*
X100181419Y-86696505D01*
X100184993Y-86697090D01*
X100358276Y-86705262D01*
X100527931Y-86713263D01*
X100527932Y-86713263D01*
X100531558Y-86713434D01*
X100540415Y-86712830D01*
X100874073Y-86690084D01*
X100874081Y-86690083D01*
X100877704Y-86689836D01*
X100881279Y-86689173D01*
X100881282Y-86689173D01*
X101215279Y-86627270D01*
X101215283Y-86627269D01*
X101218844Y-86626609D01*
X101550456Y-86524592D01*
X101868145Y-86385136D01*
X102112511Y-86242341D01*
X102164560Y-86211926D01*
X102164562Y-86211925D01*
X102167700Y-86210091D01*
X102170609Y-86207907D01*
X102442244Y-86003958D01*
X102442248Y-86003955D01*
X102445151Y-86001775D01*
X102696819Y-85762950D01*
X102919370Y-85496783D01*
X103109853Y-85206799D01*
X103187798Y-85051822D01*
X103264117Y-84900080D01*
X103264120Y-84900072D01*
X103265744Y-84896844D01*
X103384977Y-84571026D01*
X103385822Y-84567504D01*
X103385825Y-84567496D01*
X103465124Y-84237191D01*
X103465125Y-84237187D01*
X103465971Y-84233662D01*
X103507652Y-83889225D01*
X103513599Y-83700000D01*
X103513438Y-83697204D01*
X103493836Y-83357246D01*
X103493835Y-83357241D01*
X103493627Y-83353626D01*
X103478765Y-83268473D01*
X103434600Y-83015415D01*
X103434598Y-83015408D01*
X103433976Y-83011842D01*
X103430469Y-83000000D01*
X103380376Y-82830892D01*
X103335437Y-82679180D01*
X103330968Y-82668703D01*
X103200740Y-82363386D01*
X103200738Y-82363383D01*
X103199316Y-82360048D01*
X103172931Y-82313789D01*
X103029208Y-82061816D01*
X103027417Y-82058676D01*
X102822018Y-81779060D01*
X102585842Y-81524904D01*
X102322019Y-81299578D01*
X102034047Y-81106069D01*
X101725741Y-80946940D01*
X101401189Y-80824302D01*
X101397668Y-80823418D01*
X101397663Y-80823416D01*
X101236378Y-80782904D01*
X101064692Y-80739780D01*
X101042476Y-80736855D01*
X100724315Y-80694968D01*
X100724307Y-80694967D01*
X100720711Y-80694494D01*
X100576045Y-80692221D01*
X100377446Y-80689101D01*
X100377442Y-80689101D01*
X100373804Y-80689044D01*
X100370190Y-80689405D01*
X100370184Y-80689405D01*
X100126843Y-80713694D01*
X100028569Y-80723503D01*
X99689583Y-80797414D01*
X99686156Y-80798587D01*
X99686150Y-80798589D01*
X99607296Y-80825587D01*
X99361339Y-80909797D01*
X99048188Y-81059163D01*
X98754279Y-81243532D01*
X98751443Y-81245804D01*
X98751436Y-81245809D01*
X98507384Y-81441332D01*
X98483509Y-81460459D01*
X98480958Y-81463037D01*
X98374061Y-81571059D01*
X98311927Y-81605410D01*
X98241086Y-81600716D01*
X98184028Y-81558467D01*
X98158870Y-81492078D01*
X98158500Y-81482431D01*
X98158500Y-79634431D01*
X98178502Y-79566310D01*
X98232158Y-79519817D01*
X98302432Y-79509713D01*
X98317111Y-79512724D01*
X98343583Y-79519817D01*
X98478537Y-79555978D01*
X98700000Y-79575353D01*
X98921463Y-79555978D01*
X99094125Y-79509713D01*
X99130886Y-79499863D01*
X99130888Y-79499862D01*
X99136196Y-79498440D01*
X99141178Y-79496117D01*
X99332690Y-79406814D01*
X99332695Y-79406811D01*
X99337677Y-79404488D01*
X99439505Y-79333187D01*
X99515270Y-79280136D01*
X99515273Y-79280134D01*
X99519781Y-79276977D01*
X99676977Y-79119781D01*
X99804488Y-78937676D01*
X99806811Y-78932694D01*
X99806814Y-78932689D01*
X99896117Y-78741178D01*
X99896118Y-78741177D01*
X99898440Y-78736196D01*
X99955978Y-78521463D01*
X99975353Y-78300000D01*
X99974421Y-78289343D01*
X110636775Y-78289343D01*
X110637462Y-78296350D01*
X110637462Y-78296353D01*
X110644461Y-78367726D01*
X110644645Y-78369788D01*
X110651140Y-78449637D01*
X110653079Y-78455624D01*
X110653381Y-78458699D01*
X110679818Y-78538172D01*
X110680053Y-78538889D01*
X110705649Y-78617899D01*
X110741865Y-78677580D01*
X110795246Y-78765723D01*
X110795530Y-78766017D01*
X110797405Y-78769107D01*
X110804803Y-78777484D01*
X110856468Y-78829149D01*
X110858010Y-78830717D01*
X110913455Y-78888132D01*
X110917792Y-78890970D01*
X110923317Y-78895998D01*
X120216230Y-88188911D01*
X120228616Y-88203323D01*
X120237149Y-88214918D01*
X120237154Y-88214923D01*
X120241492Y-88220818D01*
X120247070Y-88225557D01*
X120247073Y-88225560D01*
X120281768Y-88255035D01*
X120289284Y-88261965D01*
X120294979Y-88267660D01*
X120297861Y-88269940D01*
X120317251Y-88285281D01*
X120320655Y-88288072D01*
X120364181Y-88325050D01*
X120376285Y-88335333D01*
X120382801Y-88338661D01*
X120387838Y-88342020D01*
X120392977Y-88345194D01*
X120398716Y-88349734D01*
X120405349Y-88352834D01*
X120464837Y-88380636D01*
X120468791Y-88382569D01*
X120533808Y-88415769D01*
X120540924Y-88417510D01*
X120546554Y-88419604D01*
X120552321Y-88421523D01*
X120558950Y-88424621D01*
X120566110Y-88426110D01*
X120566112Y-88426111D01*
X120630396Y-88439482D01*
X120634680Y-88440452D01*
X120705610Y-88457808D01*
X120711212Y-88458156D01*
X120711215Y-88458156D01*
X120716764Y-88458500D01*
X120716762Y-88458536D01*
X120720752Y-88458775D01*
X120724950Y-88459150D01*
X120732115Y-88460640D01*
X120809520Y-88458546D01*
X120812928Y-88458500D01*
X129053433Y-88458500D01*
X129070095Y-88459607D01*
X129076355Y-88460442D01*
X129089535Y-88462201D01*
X129089538Y-88462201D01*
X129096515Y-88463132D01*
X129103526Y-88462494D01*
X129103530Y-88462494D01*
X129141708Y-88459019D01*
X129153128Y-88458500D01*
X129156793Y-88458500D01*
X129188641Y-88454787D01*
X129191667Y-88454472D01*
X129265983Y-88447709D01*
X129272692Y-88445529D01*
X129273472Y-88445369D01*
X129278994Y-88444483D01*
X129280912Y-88444029D01*
X129288181Y-88443182D01*
X129353641Y-88419421D01*
X129356731Y-88418299D01*
X129360787Y-88416905D01*
X129421122Y-88397301D01*
X129427822Y-88395124D01*
X129433872Y-88391517D01*
X129440290Y-88388606D01*
X129440471Y-88389004D01*
X129441066Y-88388722D01*
X129441010Y-88388609D01*
X129447558Y-88385330D01*
X129454437Y-88382833D01*
X129460557Y-88378820D01*
X129460562Y-88378818D01*
X129512264Y-88344921D01*
X129516830Y-88342064D01*
X129567942Y-88311595D01*
X129573990Y-88307990D01*
X129579090Y-88303133D01*
X129584704Y-88298872D01*
X129584721Y-88298895D01*
X129595463Y-88290373D01*
X129596231Y-88289869D01*
X129602352Y-88285856D01*
X129607380Y-88280548D01*
X129607384Y-88280545D01*
X129647297Y-88238412D01*
X129651876Y-88233821D01*
X129692125Y-88195492D01*
X129697221Y-88190639D01*
X129701112Y-88184782D01*
X129701115Y-88184779D01*
X129702176Y-88183181D01*
X129715650Y-88166257D01*
X129723990Y-88157453D01*
X129754898Y-88104241D01*
X129758904Y-88097799D01*
X129787490Y-88054773D01*
X129791391Y-88048902D01*
X129795955Y-88036887D01*
X129804782Y-88018359D01*
X129812826Y-88004510D01*
X129814947Y-87997508D01*
X129814951Y-87997498D01*
X129829553Y-87949285D01*
X129832355Y-87941064D01*
X129849318Y-87896409D01*
X129851819Y-87889825D01*
X129854149Y-87873246D01*
X129858332Y-87854261D01*
X129861972Y-87842244D01*
X129861973Y-87842239D01*
X129864095Y-87835233D01*
X129864548Y-87827928D01*
X129864549Y-87827924D01*
X129867431Y-87781470D01*
X129868415Y-87771739D01*
X129874951Y-87725226D01*
X129875501Y-87721313D01*
X129875799Y-87700000D01*
X129874888Y-87691878D01*
X129874344Y-87670029D01*
X129875047Y-87658702D01*
X129864497Y-87597301D01*
X129863463Y-87590017D01*
X129857616Y-87537894D01*
X129856831Y-87530892D01*
X129852862Y-87519494D01*
X129847674Y-87499399D01*
X129846333Y-87491596D01*
X129845094Y-87484386D01*
X129842231Y-87477657D01*
X129842229Y-87477651D01*
X129822199Y-87430577D01*
X129819149Y-87422684D01*
X129803183Y-87376838D01*
X129800868Y-87370189D01*
X129792410Y-87356654D01*
X129783327Y-87339223D01*
X129778711Y-87328375D01*
X129778709Y-87328372D01*
X129775843Y-87321636D01*
X129771502Y-87315737D01*
X129743452Y-87277621D01*
X129738079Y-87269708D01*
X129710692Y-87225879D01*
X129696708Y-87211797D01*
X129684632Y-87197695D01*
X129675349Y-87185081D01*
X129671008Y-87179182D01*
X129632301Y-87146298D01*
X129624479Y-87139061D01*
X129595748Y-87110129D01*
X129590786Y-87105132D01*
X129570745Y-87092414D01*
X129556678Y-87082052D01*
X129541795Y-87069408D01*
X129536215Y-87064667D01*
X129494415Y-87043322D01*
X129484206Y-87037493D01*
X129453063Y-87017729D01*
X129453055Y-87017725D01*
X129447108Y-87013951D01*
X129440473Y-87011589D01*
X129440466Y-87011585D01*
X129421089Y-87004686D01*
X129406060Y-86998206D01*
X129378692Y-86984231D01*
X129346530Y-86976361D01*
X129336837Y-86973989D01*
X129324522Y-86970300D01*
X129323620Y-86969979D01*
X129286800Y-86956868D01*
X129279809Y-86956034D01*
X129279799Y-86956032D01*
X129255513Y-86953136D01*
X129240487Y-86950413D01*
X129206890Y-86942192D01*
X129201288Y-86941844D01*
X129201285Y-86941844D01*
X129197675Y-86941620D01*
X129197665Y-86941620D01*
X129195736Y-86941500D01*
X129165405Y-86941500D01*
X129150487Y-86940614D01*
X129124823Y-86937554D01*
X129117829Y-86936720D01*
X129110826Y-86937456D01*
X129110825Y-86937456D01*
X129078914Y-86940810D01*
X129065744Y-86941500D01*
X121166371Y-86941500D01*
X121098250Y-86921498D01*
X121077276Y-86904595D01*
X117162024Y-82989343D01*
X125036775Y-82989343D01*
X125037820Y-83000000D01*
X125038181Y-83003681D01*
X125038540Y-83023774D01*
X125037453Y-83041298D01*
X125038693Y-83048514D01*
X125038693Y-83048516D01*
X125046965Y-83096654D01*
X125048184Y-83105697D01*
X125052693Y-83151688D01*
X125052694Y-83151693D01*
X125053381Y-83158699D01*
X125055604Y-83165381D01*
X125055605Y-83165387D01*
X125059155Y-83176058D01*
X125063776Y-83194489D01*
X125067406Y-83215614D01*
X125070271Y-83222348D01*
X125070272Y-83222350D01*
X125087892Y-83263758D01*
X125091511Y-83273322D01*
X125104871Y-83313486D01*
X125104873Y-83313490D01*
X125107094Y-83320167D01*
X125118589Y-83339148D01*
X125126744Y-83355067D01*
X125136657Y-83378364D01*
X125140996Y-83384260D01*
X125165390Y-83417408D01*
X125171684Y-83426818D01*
X125195246Y-83465723D01*
X125200143Y-83470794D01*
X125213349Y-83484469D01*
X125224195Y-83497314D01*
X125237154Y-83514924D01*
X125237156Y-83514927D01*
X125241492Y-83520818D01*
X125275510Y-83549718D01*
X125284561Y-83558212D01*
X125308559Y-83583063D01*
X125308563Y-83583067D01*
X125313455Y-83588132D01*
X125319346Y-83591987D01*
X125338520Y-83604535D01*
X125351099Y-83613937D01*
X125376285Y-83635333D01*
X125382805Y-83638662D01*
X125412590Y-83653871D01*
X125424284Y-83660656D01*
X125455846Y-83681310D01*
X125487563Y-83693106D01*
X125500928Y-83698980D01*
X125533808Y-83715769D01*
X125566979Y-83723886D01*
X125569656Y-83724541D01*
X125583626Y-83728832D01*
X125608736Y-83738170D01*
X125608739Y-83738171D01*
X125615341Y-83740626D01*
X125622324Y-83741558D01*
X125622325Y-83741558D01*
X125631943Y-83742841D01*
X125652734Y-83745616D01*
X125666005Y-83748117D01*
X125705610Y-83757808D01*
X125711215Y-83758156D01*
X125711217Y-83758156D01*
X125714825Y-83758380D01*
X125714835Y-83758380D01*
X125716764Y-83758500D01*
X125740933Y-83758500D01*
X125757595Y-83759607D01*
X125764765Y-83760563D01*
X125777035Y-83762201D01*
X125777038Y-83762201D01*
X125784015Y-83763132D01*
X125791026Y-83762494D01*
X125791030Y-83762494D01*
X125829208Y-83759019D01*
X125840628Y-83758500D01*
X129053433Y-83758500D01*
X129070095Y-83759607D01*
X129077265Y-83760563D01*
X129089535Y-83762201D01*
X129089538Y-83762201D01*
X129096515Y-83763132D01*
X129103526Y-83762494D01*
X129103530Y-83762494D01*
X129141708Y-83759019D01*
X129153128Y-83758500D01*
X129156793Y-83758500D01*
X129188641Y-83754787D01*
X129191667Y-83754472D01*
X129265983Y-83747709D01*
X129272692Y-83745529D01*
X129273472Y-83745369D01*
X129278994Y-83744483D01*
X129280912Y-83744029D01*
X129288181Y-83743182D01*
X129356730Y-83718299D01*
X129360787Y-83716905D01*
X129421122Y-83697301D01*
X129427822Y-83695124D01*
X129433872Y-83691517D01*
X129440290Y-83688606D01*
X129440471Y-83689004D01*
X129441066Y-83688722D01*
X129441010Y-83688609D01*
X129447558Y-83685330D01*
X129454437Y-83682833D01*
X129460557Y-83678820D01*
X129460562Y-83678818D01*
X129512264Y-83644921D01*
X129516830Y-83642064D01*
X129537269Y-83629880D01*
X129573990Y-83607990D01*
X129579090Y-83603133D01*
X129584704Y-83598872D01*
X129584721Y-83598895D01*
X129595463Y-83590373D01*
X129596231Y-83589869D01*
X129602352Y-83585856D01*
X129607380Y-83580548D01*
X129607384Y-83580545D01*
X129647297Y-83538412D01*
X129651876Y-83533821D01*
X129692125Y-83495492D01*
X129697221Y-83490639D01*
X129701112Y-83484782D01*
X129701115Y-83484779D01*
X129702176Y-83483181D01*
X129715650Y-83466257D01*
X129723990Y-83457453D01*
X129754898Y-83404241D01*
X129758904Y-83397799D01*
X129787490Y-83354773D01*
X129791391Y-83348902D01*
X129795955Y-83336887D01*
X129804782Y-83318359D01*
X129812826Y-83304510D01*
X129814947Y-83297508D01*
X129814951Y-83297498D01*
X129829553Y-83249285D01*
X129832355Y-83241064D01*
X129849318Y-83196409D01*
X129851819Y-83189825D01*
X129854149Y-83173246D01*
X129858332Y-83154261D01*
X129861972Y-83142244D01*
X129861973Y-83142239D01*
X129864095Y-83135233D01*
X129864548Y-83127928D01*
X129864549Y-83127924D01*
X129867431Y-83081470D01*
X129868415Y-83071739D01*
X129874951Y-83025226D01*
X129875501Y-83021313D01*
X129875799Y-83000000D01*
X129874888Y-82991878D01*
X129874344Y-82970029D01*
X129875047Y-82958702D01*
X129864497Y-82897301D01*
X129863463Y-82890017D01*
X129859845Y-82857762D01*
X129856831Y-82830892D01*
X129852862Y-82819494D01*
X129847674Y-82799399D01*
X129846333Y-82791596D01*
X129845094Y-82784386D01*
X129842231Y-82777657D01*
X129842229Y-82777651D01*
X129822199Y-82730577D01*
X129819149Y-82722684D01*
X129809679Y-82695490D01*
X129800868Y-82670189D01*
X129794883Y-82660610D01*
X129792411Y-82656655D01*
X129783327Y-82639223D01*
X129778711Y-82628375D01*
X129778709Y-82628372D01*
X129775843Y-82621636D01*
X129771502Y-82615737D01*
X129743452Y-82577621D01*
X129738079Y-82569708D01*
X129710692Y-82525879D01*
X129696708Y-82511797D01*
X129684632Y-82497695D01*
X129675349Y-82485081D01*
X129671008Y-82479182D01*
X129632301Y-82446298D01*
X129624479Y-82439061D01*
X129595748Y-82410129D01*
X129590786Y-82405132D01*
X129570745Y-82392414D01*
X129556678Y-82382052D01*
X129541795Y-82369408D01*
X129536215Y-82364667D01*
X129494415Y-82343322D01*
X129484206Y-82337493D01*
X129453063Y-82317729D01*
X129453055Y-82317725D01*
X129447108Y-82313951D01*
X129440473Y-82311589D01*
X129440466Y-82311585D01*
X129421089Y-82304686D01*
X129406060Y-82298206D01*
X129378692Y-82284231D01*
X129346530Y-82276361D01*
X129336837Y-82273989D01*
X129324522Y-82270300D01*
X129323620Y-82269979D01*
X129286800Y-82256868D01*
X129279809Y-82256034D01*
X129279799Y-82256032D01*
X129255513Y-82253136D01*
X129240487Y-82250413D01*
X129206890Y-82242192D01*
X129201288Y-82241844D01*
X129201285Y-82241844D01*
X129197675Y-82241620D01*
X129197665Y-82241620D01*
X129195736Y-82241500D01*
X129165405Y-82241500D01*
X129150487Y-82240614D01*
X129124823Y-82237554D01*
X129117829Y-82236720D01*
X129110826Y-82237456D01*
X129110825Y-82237456D01*
X129078914Y-82240810D01*
X129065744Y-82241500D01*
X125852905Y-82241500D01*
X125837987Y-82240614D01*
X125812323Y-82237554D01*
X125805329Y-82236720D01*
X125798326Y-82237456D01*
X125798325Y-82237456D01*
X125763368Y-82241130D01*
X125758834Y-82241500D01*
X125755707Y-82241500D01*
X125738331Y-82243526D01*
X125718541Y-82245833D01*
X125717120Y-82245991D01*
X125689032Y-82248943D01*
X125636093Y-82254507D01*
X125632257Y-82255813D01*
X125631592Y-82255970D01*
X125624319Y-82256818D01*
X125550220Y-82283716D01*
X125547967Y-82284508D01*
X125508158Y-82298059D01*
X125481676Y-82307074D01*
X125481673Y-82307075D01*
X125475003Y-82309346D01*
X125470032Y-82312404D01*
X125466700Y-82313789D01*
X125464939Y-82314671D01*
X125458063Y-82317167D01*
X125451946Y-82321178D01*
X125451943Y-82321179D01*
X125395251Y-82358348D01*
X125392189Y-82360293D01*
X125336068Y-82394819D01*
X125336065Y-82394822D01*
X125330066Y-82398512D01*
X125325032Y-82403442D01*
X125321641Y-82406091D01*
X125317859Y-82408801D01*
X125316267Y-82410132D01*
X125310148Y-82414144D01*
X125305114Y-82419458D01*
X125261027Y-82465997D01*
X125257715Y-82469364D01*
X125247689Y-82479182D01*
X125228785Y-82497695D01*
X125208486Y-82517573D01*
X125204674Y-82523489D01*
X125200217Y-82528953D01*
X125200009Y-82528783D01*
X125196925Y-82532714D01*
X125193545Y-82537232D01*
X125188510Y-82542547D01*
X125170371Y-82573776D01*
X125154529Y-82601049D01*
X125151505Y-82605989D01*
X125116304Y-82660610D01*
X125113895Y-82667229D01*
X125113163Y-82668703D01*
X125104592Y-82687023D01*
X125099674Y-82695490D01*
X125097553Y-82702492D01*
X125097549Y-82702502D01*
X125081170Y-82756582D01*
X125078981Y-82763153D01*
X125060513Y-82813892D01*
X125060511Y-82813900D01*
X125058103Y-82820516D01*
X125056792Y-82830892D01*
X125056785Y-82830950D01*
X125052371Y-82851671D01*
X125050526Y-82857762D01*
X125050525Y-82857766D01*
X125048405Y-82864767D01*
X125046612Y-82893671D01*
X125044689Y-82924659D01*
X125043940Y-82932630D01*
X125036775Y-82989343D01*
X117162024Y-82989343D01*
X112472681Y-78300000D01*
X122824647Y-78300000D01*
X122844022Y-78521463D01*
X122901560Y-78736196D01*
X122903882Y-78741177D01*
X122903883Y-78741178D01*
X122993186Y-78932689D01*
X122993189Y-78932694D01*
X122995512Y-78937676D01*
X123123023Y-79119781D01*
X123280219Y-79276977D01*
X123284727Y-79280134D01*
X123284730Y-79280136D01*
X123360495Y-79333187D01*
X123462323Y-79404488D01*
X123467305Y-79406811D01*
X123467310Y-79406814D01*
X123658822Y-79496117D01*
X123663804Y-79498440D01*
X123669112Y-79499862D01*
X123669114Y-79499863D01*
X123705875Y-79509713D01*
X123878537Y-79555978D01*
X124100000Y-79575353D01*
X124321463Y-79555978D01*
X124494125Y-79509713D01*
X124530886Y-79499863D01*
X124530888Y-79499862D01*
X124536196Y-79498440D01*
X124541178Y-79496117D01*
X124732690Y-79406814D01*
X124732695Y-79406811D01*
X124737677Y-79404488D01*
X124839505Y-79333187D01*
X124915270Y-79280136D01*
X124915273Y-79280134D01*
X124919781Y-79276977D01*
X125076977Y-79119781D01*
X125204488Y-78937676D01*
X125206811Y-78932694D01*
X125206814Y-78932689D01*
X125296117Y-78741178D01*
X125296118Y-78741177D01*
X125298440Y-78736196D01*
X125355978Y-78521463D01*
X125375353Y-78300000D01*
X125355978Y-78078537D01*
X125298440Y-77863804D01*
X125276882Y-77817573D01*
X125206814Y-77667311D01*
X125206811Y-77667306D01*
X125204488Y-77662324D01*
X125186708Y-77636931D01*
X125080136Y-77484730D01*
X125080134Y-77484727D01*
X125076977Y-77480219D01*
X124919781Y-77323023D01*
X124915273Y-77319866D01*
X124915270Y-77319864D01*
X124839505Y-77266813D01*
X124737677Y-77195512D01*
X124732695Y-77193189D01*
X124732690Y-77193186D01*
X124541178Y-77103883D01*
X124541177Y-77103882D01*
X124536196Y-77101560D01*
X124530888Y-77100138D01*
X124530886Y-77100137D01*
X124424599Y-77071658D01*
X124333487Y-77047244D01*
X124277003Y-77014633D01*
X124112808Y-76850439D01*
X124098870Y-76842828D01*
X124097034Y-76842960D01*
X124090421Y-76847209D01*
X123922997Y-77014633D01*
X123866513Y-77047244D01*
X123775401Y-77071658D01*
X123669114Y-77100137D01*
X123669112Y-77100138D01*
X123663804Y-77101560D01*
X123658823Y-77103882D01*
X123658822Y-77103883D01*
X123467311Y-77193186D01*
X123467306Y-77193189D01*
X123462324Y-77195512D01*
X123457817Y-77198668D01*
X123457815Y-77198669D01*
X123284730Y-77319864D01*
X123284727Y-77319866D01*
X123280219Y-77323023D01*
X123123023Y-77480219D01*
X123119866Y-77484727D01*
X123119864Y-77484730D01*
X123013292Y-77636931D01*
X122995512Y-77662324D01*
X122993189Y-77667306D01*
X122993186Y-77667311D01*
X122923118Y-77817573D01*
X122901560Y-77863804D01*
X122844022Y-78078537D01*
X122824647Y-78300000D01*
X112472681Y-78300000D01*
X111945724Y-77773043D01*
X111883248Y-77710129D01*
X111878286Y-77705132D01*
X111845134Y-77684093D01*
X111834470Y-77676522D01*
X111807025Y-77654808D01*
X111807024Y-77654808D01*
X111801284Y-77650266D01*
X111772740Y-77636926D01*
X111758594Y-77629173D01*
X111734608Y-77613951D01*
X111693936Y-77599469D01*
X111682893Y-77594934D01*
X111641050Y-77575378D01*
X111633888Y-77573888D01*
X111633884Y-77573887D01*
X111614002Y-77569752D01*
X111597400Y-77565094D01*
X111574300Y-77556868D01*
X111539833Y-77552758D01*
X111527583Y-77551297D01*
X111516846Y-77549543D01*
X111475052Y-77540850D01*
X111475046Y-77540849D01*
X111467885Y-77539360D01*
X111457326Y-77539646D01*
X111444135Y-77540002D01*
X111425814Y-77539162D01*
X111412325Y-77537554D01*
X111412324Y-77537554D01*
X111405329Y-77536720D01*
X111398326Y-77537456D01*
X111398322Y-77537456D01*
X111354687Y-77542042D01*
X111344926Y-77542686D01*
X111304045Y-77543792D01*
X111291079Y-77544143D01*
X111283998Y-77546021D01*
X111283995Y-77546021D01*
X111271859Y-77549239D01*
X111252736Y-77552758D01*
X111236093Y-77554507D01*
X111229425Y-77556777D01*
X111229420Y-77556778D01*
X111184194Y-77572174D01*
X111175885Y-77574687D01*
X111120116Y-77589474D01*
X111113665Y-77592926D01*
X111113662Y-77592927D01*
X111106009Y-77597022D01*
X111087172Y-77605204D01*
X111075003Y-77609346D01*
X111069004Y-77613036D01*
X111069003Y-77613037D01*
X111024985Y-77640117D01*
X111018417Y-77643890D01*
X110964166Y-77672918D01*
X110958681Y-77677762D01*
X110958680Y-77677763D01*
X110955081Y-77680942D01*
X110937690Y-77693822D01*
X110930066Y-77698512D01*
X110925037Y-77703437D01*
X110925033Y-77703440D01*
X110885334Y-77742317D01*
X110880584Y-77746735D01*
X110831596Y-77790000D01*
X110827374Y-77795974D01*
X110827371Y-77795977D01*
X110826832Y-77796740D01*
X110817948Y-77807171D01*
X110817969Y-77807188D01*
X110813520Y-77812643D01*
X110808486Y-77817573D01*
X110804671Y-77823492D01*
X110804669Y-77823495D01*
X110772442Y-77873502D01*
X110769428Y-77877966D01*
X110733741Y-77928461D01*
X110733739Y-77928464D01*
X110729516Y-77934440D01*
X110726780Y-77941230D01*
X110723276Y-77947657D01*
X110723167Y-77947598D01*
X110722864Y-77948184D01*
X110723254Y-77948377D01*
X110720122Y-77954687D01*
X110716304Y-77960610D01*
X110713894Y-77967230D01*
X110713893Y-77967233D01*
X110692189Y-78026865D01*
X110690658Y-78030857D01*
X110663402Y-78098489D01*
X110662302Y-78105720D01*
X110661781Y-78107624D01*
X110660703Y-78113109D01*
X110660513Y-78113894D01*
X110658103Y-78120516D01*
X110657220Y-78127509D01*
X110648766Y-78194426D01*
X110648328Y-78197576D01*
X110636801Y-78273349D01*
X110637394Y-78280642D01*
X110637322Y-78282706D01*
X110637383Y-78284526D01*
X110636775Y-78289343D01*
X99974421Y-78289343D01*
X99955978Y-78078537D01*
X99898440Y-77863804D01*
X99876882Y-77817573D01*
X99806814Y-77667311D01*
X99806811Y-77667306D01*
X99804488Y-77662324D01*
X99786708Y-77636931D01*
X99680136Y-77484730D01*
X99680134Y-77484727D01*
X99676977Y-77480219D01*
X99519781Y-77323023D01*
X99515273Y-77319866D01*
X99515270Y-77319864D01*
X99439505Y-77266813D01*
X99337677Y-77195512D01*
X99332695Y-77193189D01*
X99332690Y-77193186D01*
X99141178Y-77103883D01*
X99141177Y-77103882D01*
X99136196Y-77101560D01*
X99130888Y-77100138D01*
X99130886Y-77100137D01*
X99024599Y-77071658D01*
X98933487Y-77047244D01*
X98877003Y-77014633D01*
X98700000Y-76837631D01*
X98195405Y-76333036D01*
X98161380Y-76270724D01*
X98158500Y-76243940D01*
X98158500Y-75761132D01*
X99782828Y-75761132D01*
X99782959Y-75762965D01*
X99787210Y-75769580D01*
X99946172Y-75928542D01*
X99956547Y-75934208D01*
X99960519Y-75923813D01*
X99974371Y-75765486D01*
X122825629Y-75765486D01*
X122839437Y-75923306D01*
X122843743Y-75934314D01*
X122853466Y-75928904D01*
X123009561Y-75772808D01*
X123015938Y-75761130D01*
X125182828Y-75761130D01*
X125182960Y-75762966D01*
X125187209Y-75769579D01*
X125346176Y-75928545D01*
X125356547Y-75934209D01*
X125360519Y-75923813D01*
X125374371Y-75765486D01*
X125374371Y-75754514D01*
X125360563Y-75596694D01*
X125356257Y-75585686D01*
X125346534Y-75591096D01*
X125190439Y-75747192D01*
X125182828Y-75761130D01*
X123015938Y-75761130D01*
X123017172Y-75758870D01*
X123017040Y-75757034D01*
X123012791Y-75750421D01*
X122853824Y-75591455D01*
X122843453Y-75585791D01*
X122839481Y-75596187D01*
X122825629Y-75754514D01*
X122825629Y-75765486D01*
X99974371Y-75765486D01*
X99974371Y-75754514D01*
X99960563Y-75596694D01*
X99956257Y-75585686D01*
X99946534Y-75591096D01*
X99790442Y-75747188D01*
X99782828Y-75761132D01*
X98158500Y-75761132D01*
X98158500Y-75276059D01*
X98178502Y-75207938D01*
X98195405Y-75186964D01*
X98700000Y-74682369D01*
X98877001Y-74505369D01*
X98933484Y-74472757D01*
X99130889Y-74419862D01*
X99136196Y-74418440D01*
X99141178Y-74416117D01*
X99332690Y-74326814D01*
X99332695Y-74326811D01*
X99337677Y-74324488D01*
X99439505Y-74253187D01*
X99515270Y-74200136D01*
X99515273Y-74200134D01*
X99519781Y-74196977D01*
X99676977Y-74039781D01*
X99804488Y-73857676D01*
X99806811Y-73852694D01*
X99806814Y-73852689D01*
X99896117Y-73661178D01*
X99896118Y-73661177D01*
X99898440Y-73656196D01*
X99901332Y-73645405D01*
X99941016Y-73497301D01*
X99955978Y-73441463D01*
X99975353Y-73220000D01*
X99955978Y-72998537D01*
X99898440Y-72783804D01*
X99865485Y-72713132D01*
X99806814Y-72587311D01*
X99806811Y-72587306D01*
X99804488Y-72582324D01*
X99776246Y-72541990D01*
X99680136Y-72404730D01*
X99680134Y-72404727D01*
X99676977Y-72400219D01*
X99519781Y-72243023D01*
X99515273Y-72239866D01*
X99515270Y-72239864D01*
X99439505Y-72186813D01*
X99337677Y-72115512D01*
X99332695Y-72113189D01*
X99332690Y-72113186D01*
X99227627Y-72064195D01*
X99174342Y-72017278D01*
X99154881Y-71949001D01*
X99157800Y-71939343D01*
X110636775Y-71939343D01*
X110653381Y-72108699D01*
X110655605Y-72115384D01*
X110655605Y-72115385D01*
X110680040Y-72188839D01*
X110707094Y-72270167D01*
X110795246Y-72415723D01*
X110913455Y-72538132D01*
X110984651Y-72584721D01*
X111048146Y-72626271D01*
X111055846Y-72631310D01*
X111062450Y-72633766D01*
X111062452Y-72633767D01*
X111098844Y-72647301D01*
X111215341Y-72690626D01*
X111384015Y-72713132D01*
X111391026Y-72712494D01*
X111391030Y-72712494D01*
X111546462Y-72698348D01*
X111553483Y-72697709D01*
X111560185Y-72695531D01*
X111560187Y-72695531D01*
X111708623Y-72647301D01*
X111708626Y-72647300D01*
X111715322Y-72645124D01*
X111746948Y-72626271D01*
X111811466Y-72608500D01*
X122785929Y-72608500D01*
X122854050Y-72628502D01*
X122900543Y-72682158D01*
X122910647Y-72752432D01*
X122904330Y-72777596D01*
X122903886Y-72778816D01*
X122901560Y-72783804D01*
X122844022Y-72998537D01*
X122824647Y-73220000D01*
X122844022Y-73441463D01*
X122858984Y-73497301D01*
X122898669Y-73645405D01*
X122901560Y-73656196D01*
X122903882Y-73661177D01*
X122903883Y-73661178D01*
X122993186Y-73852689D01*
X122993189Y-73852694D01*
X122995512Y-73857676D01*
X123123023Y-74039781D01*
X123280219Y-74196977D01*
X123284727Y-74200134D01*
X123284730Y-74200136D01*
X123360495Y-74253187D01*
X123462323Y-74324488D01*
X123467305Y-74326811D01*
X123467310Y-74326814D01*
X123658822Y-74416117D01*
X123663804Y-74418440D01*
X123669112Y-74419862D01*
X123669114Y-74419863D01*
X123775401Y-74448342D01*
X123866513Y-74472756D01*
X123922997Y-74505367D01*
X124087192Y-74669561D01*
X124101130Y-74677172D01*
X124102966Y-74677040D01*
X124109579Y-74672791D01*
X124277003Y-74505367D01*
X124333487Y-74472756D01*
X124424599Y-74448342D01*
X124530886Y-74419863D01*
X124530888Y-74419862D01*
X124536196Y-74418440D01*
X124541178Y-74416117D01*
X124732690Y-74326814D01*
X124732695Y-74326811D01*
X124737677Y-74324488D01*
X124839505Y-74253187D01*
X124915270Y-74200136D01*
X124915273Y-74200134D01*
X124919781Y-74196977D01*
X125076977Y-74039781D01*
X125204488Y-73857676D01*
X125206811Y-73852694D01*
X125206814Y-73852689D01*
X125296117Y-73661178D01*
X125296118Y-73661177D01*
X125298440Y-73656196D01*
X125301332Y-73645405D01*
X125341016Y-73497301D01*
X125355978Y-73441463D01*
X125360925Y-73384916D01*
X125386788Y-73318798D01*
X125444292Y-73277158D01*
X125515179Y-73273217D01*
X125575541Y-73306801D01*
X125626346Y-73357605D01*
X125634336Y-73366385D01*
X125638584Y-73373080D01*
X125690273Y-73421619D01*
X125693115Y-73424374D01*
X125713667Y-73444926D01*
X125716801Y-73447357D01*
X125717163Y-73447638D01*
X125726191Y-73455348D01*
X125759867Y-73486972D01*
X125766818Y-73490793D01*
X125766819Y-73490794D01*
X125778655Y-73497301D01*
X125795184Y-73508158D01*
X125805869Y-73516447D01*
X125805871Y-73516448D01*
X125812131Y-73521304D01*
X125854544Y-73539657D01*
X125865181Y-73544868D01*
X125905663Y-73567124D01*
X125913342Y-73569096D01*
X125913343Y-73569096D01*
X125926434Y-73572457D01*
X125945136Y-73578859D01*
X125964823Y-73587379D01*
X125972652Y-73588619D01*
X126010448Y-73594605D01*
X126022074Y-73597013D01*
X126059135Y-73606529D01*
X126059136Y-73606529D01*
X126066812Y-73608500D01*
X126088258Y-73608500D01*
X126107968Y-73610051D01*
X126129151Y-73613406D01*
X126175135Y-73609059D01*
X126186994Y-73608500D01*
X137363800Y-73608500D01*
X137431921Y-73628502D01*
X137452895Y-73645405D01*
X138841307Y-75033816D01*
X138875332Y-75096128D01*
X138877610Y-75110612D01*
X138892131Y-75258699D01*
X138945844Y-75420167D01*
X138949491Y-75426189D01*
X138949492Y-75426191D01*
X139003491Y-75515353D01*
X139033996Y-75565723D01*
X139152205Y-75688132D01*
X139158101Y-75691990D01*
X139281604Y-75772808D01*
X139294596Y-75781310D01*
X139301200Y-75783766D01*
X139301202Y-75783767D01*
X139337594Y-75797301D01*
X139454091Y-75840626D01*
X139622765Y-75863132D01*
X139629776Y-75862494D01*
X139629780Y-75862494D01*
X139785212Y-75848348D01*
X139792233Y-75847709D01*
X139798935Y-75845531D01*
X139798937Y-75845531D01*
X139947373Y-75797301D01*
X139947376Y-75797300D01*
X139954072Y-75795124D01*
X140100240Y-75707990D01*
X140105334Y-75703139D01*
X140105338Y-75703136D01*
X140187343Y-75625043D01*
X140250468Y-75592551D01*
X140321139Y-75599344D01*
X140364872Y-75628762D01*
X140422205Y-75688132D01*
X140428101Y-75691990D01*
X140551604Y-75772808D01*
X140564596Y-75781310D01*
X140571200Y-75783766D01*
X140571202Y-75783767D01*
X140607594Y-75797301D01*
X140724091Y-75840626D01*
X140892765Y-75863132D01*
X140899776Y-75862494D01*
X140899780Y-75862494D01*
X141055212Y-75848348D01*
X141062233Y-75847709D01*
X141068935Y-75845531D01*
X141068937Y-75845531D01*
X141217373Y-75797301D01*
X141217376Y-75797300D01*
X141224072Y-75795124D01*
X141370240Y-75707990D01*
X141375334Y-75703139D01*
X141375338Y-75703136D01*
X141457343Y-75625043D01*
X141493471Y-75590639D01*
X141587641Y-75448902D01*
X141648069Y-75289825D01*
X141671751Y-75121313D01*
X141672049Y-75100000D01*
X141653081Y-74930892D01*
X141597118Y-74770189D01*
X141506942Y-74625879D01*
X141501983Y-74620885D01*
X141499389Y-74617612D01*
X141489683Y-74603489D01*
X141428491Y-74500019D01*
X141428486Y-74500013D01*
X141424453Y-74493193D01*
X138473655Y-71542395D01*
X138465665Y-71533615D01*
X138465663Y-71533613D01*
X138461416Y-71526920D01*
X138409742Y-71478395D01*
X138406901Y-71475641D01*
X138386333Y-71455073D01*
X138382826Y-71452353D01*
X138373804Y-71444647D01*
X138345913Y-71418456D01*
X138340133Y-71413028D01*
X138333181Y-71409206D01*
X138321342Y-71402697D01*
X138304818Y-71391843D01*
X138294132Y-71383555D01*
X138287868Y-71378696D01*
X138280596Y-71375549D01*
X138280594Y-71375548D01*
X138245465Y-71360346D01*
X138234805Y-71355124D01*
X138201284Y-71336695D01*
X138201282Y-71336694D01*
X138194337Y-71332876D01*
X138173559Y-71327541D01*
X138154869Y-71321142D01*
X138135176Y-71312620D01*
X138089552Y-71305394D01*
X138077929Y-71302987D01*
X138049928Y-71295798D01*
X138033188Y-71291500D01*
X138011741Y-71291500D01*
X137992031Y-71289949D01*
X137970848Y-71286594D01*
X137924859Y-71290941D01*
X137913004Y-71291500D01*
X125414071Y-71291500D01*
X125345950Y-71271498D01*
X125299457Y-71217842D01*
X125289353Y-71147568D01*
X125295670Y-71122404D01*
X125296114Y-71121184D01*
X125298440Y-71116196D01*
X125355978Y-70901463D01*
X125375353Y-70680000D01*
X125355978Y-70458537D01*
X125298440Y-70243804D01*
X125283960Y-70212751D01*
X125273298Y-70142559D01*
X125302277Y-70077746D01*
X125361697Y-70038890D01*
X125398154Y-70033500D01*
X125616233Y-70033500D01*
X125627416Y-70034027D01*
X125634909Y-70035702D01*
X125642835Y-70035453D01*
X125642836Y-70035453D01*
X125702986Y-70033562D01*
X125706945Y-70033500D01*
X125734856Y-70033500D01*
X125738791Y-70033003D01*
X125738856Y-70032995D01*
X125750693Y-70032062D01*
X125782951Y-70031048D01*
X125786970Y-70030922D01*
X125794889Y-70030673D01*
X125814343Y-70025021D01*
X125833700Y-70021013D01*
X125845930Y-70019468D01*
X125845931Y-70019468D01*
X125853797Y-70018474D01*
X125861168Y-70015555D01*
X125861170Y-70015555D01*
X125894912Y-70002196D01*
X125906142Y-69998351D01*
X125940983Y-69988229D01*
X125940984Y-69988229D01*
X125948593Y-69986018D01*
X125955412Y-69981985D01*
X125955417Y-69981983D01*
X125966028Y-69975707D01*
X125983776Y-69967012D01*
X126002617Y-69959552D01*
X126038387Y-69933564D01*
X126048307Y-69927048D01*
X126079535Y-69908580D01*
X126079538Y-69908578D01*
X126086362Y-69904542D01*
X126100683Y-69890221D01*
X126115717Y-69877380D01*
X126132107Y-69865472D01*
X126160298Y-69831395D01*
X126168288Y-69822616D01*
X126945850Y-69045054D01*
X129796307Y-69045054D01*
X129807871Y-69049139D01*
X129996650Y-69056062D01*
X130006936Y-69055595D01*
X130070147Y-69047498D01*
X130081694Y-69042438D01*
X130076574Y-69033655D01*
X129952808Y-68909890D01*
X129938870Y-68902279D01*
X129937034Y-68902411D01*
X129930421Y-68906660D01*
X129801456Y-69035626D01*
X129796307Y-69045054D01*
X126945850Y-69045054D01*
X128365493Y-67625411D01*
X128427805Y-67591385D01*
X128498620Y-67596450D01*
X128555456Y-67638997D01*
X128580379Y-67707253D01*
X128587256Y-67826534D01*
X128591025Y-67837081D01*
X128601422Y-67831497D01*
X128737918Y-67695000D01*
X129880363Y-66552555D01*
X129942675Y-66518530D01*
X129974076Y-66515735D01*
X129975837Y-66515800D01*
X129996673Y-66516564D01*
X129996677Y-66516564D01*
X130001837Y-66516753D01*
X130006957Y-66516097D01*
X130006959Y-66516097D01*
X130218288Y-66489025D01*
X130218289Y-66489025D01*
X130223416Y-66488368D01*
X130250948Y-66480108D01*
X130432429Y-66425661D01*
X130432434Y-66425659D01*
X130437384Y-66424174D01*
X130637994Y-66325896D01*
X130819860Y-66196173D01*
X130824550Y-66191500D01*
X130928859Y-66087554D01*
X130978096Y-66038489D01*
X131037594Y-65955689D01*
X131108453Y-65857077D01*
X131109776Y-65858028D01*
X131156645Y-65814857D01*
X131226580Y-65802625D01*
X131292026Y-65830144D01*
X131319875Y-65861994D01*
X131379987Y-65960088D01*
X131526250Y-66128938D01*
X131698126Y-66271632D01*
X131768595Y-66312811D01*
X131771445Y-66314476D01*
X131820169Y-66366114D01*
X131833240Y-66435897D01*
X131806509Y-66501669D01*
X131766055Y-66535027D01*
X131753607Y-66541507D01*
X131749474Y-66544610D01*
X131749471Y-66544612D01*
X131579100Y-66672530D01*
X131574965Y-66675635D01*
X131420629Y-66837138D01*
X131417715Y-66841410D01*
X131417714Y-66841411D01*
X131398212Y-66870000D01*
X131294743Y-67021680D01*
X131279003Y-67055590D01*
X131223022Y-67176191D01*
X131200688Y-67224305D01*
X131140989Y-67439570D01*
X131117251Y-67661695D01*
X131117548Y-67666848D01*
X131117548Y-67666851D01*
X131127328Y-67836464D01*
X131130110Y-67884715D01*
X131131247Y-67889761D01*
X131131248Y-67889767D01*
X131137732Y-67918537D01*
X131179222Y-68102639D01*
X131263266Y-68309616D01*
X131379987Y-68500088D01*
X131526250Y-68668938D01*
X131698126Y-68811632D01*
X131891000Y-68924338D01*
X132099692Y-69004030D01*
X132104760Y-69005061D01*
X132104763Y-69005062D01*
X132212017Y-69026883D01*
X132318597Y-69048567D01*
X132323772Y-69048757D01*
X132323774Y-69048757D01*
X132536673Y-69056564D01*
X132536677Y-69056564D01*
X132541837Y-69056753D01*
X132546957Y-69056097D01*
X132546959Y-69056097D01*
X132758288Y-69029025D01*
X132758289Y-69029025D01*
X132763416Y-69028368D01*
X132768366Y-69026883D01*
X132972429Y-68965661D01*
X132972434Y-68965659D01*
X132977384Y-68964174D01*
X133177994Y-68865896D01*
X133359860Y-68736173D01*
X133375154Y-68720933D01*
X133514435Y-68582137D01*
X133518096Y-68578489D01*
X133577594Y-68495689D01*
X133645435Y-68401277D01*
X133648453Y-68397077D01*
X133666055Y-68361463D01*
X133745136Y-68201453D01*
X133745137Y-68201451D01*
X133747430Y-68196811D01*
X133812370Y-67983069D01*
X133841529Y-67761590D01*
X133842418Y-67725225D01*
X133843074Y-67698365D01*
X133843074Y-67698361D01*
X133843156Y-67695000D01*
X133840418Y-67661695D01*
X153977251Y-67661695D01*
X153977548Y-67666848D01*
X153977548Y-67666851D01*
X153987328Y-67836464D01*
X153990110Y-67884715D01*
X153991247Y-67889761D01*
X153991248Y-67889767D01*
X153997732Y-67918537D01*
X154039222Y-68102639D01*
X154123266Y-68309616D01*
X154239987Y-68500088D01*
X154386250Y-68668938D01*
X154558126Y-68811632D01*
X154751000Y-68924338D01*
X154959692Y-69004030D01*
X154964760Y-69005061D01*
X154964763Y-69005062D01*
X155072017Y-69026883D01*
X155178597Y-69048567D01*
X155183772Y-69048757D01*
X155183774Y-69048757D01*
X155396673Y-69056564D01*
X155396677Y-69056564D01*
X155401837Y-69056753D01*
X155406957Y-69056097D01*
X155406959Y-69056097D01*
X155493163Y-69045054D01*
X157736307Y-69045054D01*
X157747871Y-69049139D01*
X157936650Y-69056062D01*
X157946936Y-69055595D01*
X158010147Y-69047498D01*
X158021694Y-69042438D01*
X158016574Y-69033655D01*
X157892808Y-68909890D01*
X157878870Y-68902279D01*
X157877034Y-68902411D01*
X157870421Y-68906660D01*
X157741456Y-69035626D01*
X157736307Y-69045054D01*
X155493163Y-69045054D01*
X155618288Y-69029025D01*
X155618289Y-69029025D01*
X155623416Y-69028368D01*
X155628366Y-69026883D01*
X155832429Y-68965661D01*
X155832434Y-68965659D01*
X155837384Y-68964174D01*
X156037994Y-68865896D01*
X156219860Y-68736173D01*
X156235154Y-68720933D01*
X156374435Y-68582137D01*
X156378096Y-68578489D01*
X156437594Y-68495689D01*
X156505435Y-68401277D01*
X156508453Y-68397077D01*
X156526055Y-68361463D01*
X156605136Y-68201453D01*
X156605137Y-68201451D01*
X156607430Y-68196811D01*
X156672370Y-67983069D01*
X156701529Y-67761590D01*
X156702418Y-67725225D01*
X156703074Y-67698365D01*
X156703074Y-67698361D01*
X156703128Y-67696130D01*
X159087279Y-67696130D01*
X159087411Y-67697966D01*
X159091660Y-67704579D01*
X159217472Y-67830390D01*
X159228594Y-67836464D01*
X159232396Y-67827128D01*
X159240590Y-67764887D01*
X159241109Y-67758212D01*
X159242572Y-67698364D01*
X159242378Y-67691646D01*
X159231940Y-67564680D01*
X159227731Y-67553750D01*
X159217888Y-67559193D01*
X159094890Y-67682192D01*
X159087279Y-67696130D01*
X156703128Y-67696130D01*
X156703156Y-67695000D01*
X156684852Y-67472361D01*
X156630431Y-67255702D01*
X156541354Y-67050840D01*
X156470658Y-66941560D01*
X156422822Y-66867617D01*
X156422820Y-66867614D01*
X156420014Y-66863277D01*
X156269670Y-66698051D01*
X156265619Y-66694852D01*
X156265615Y-66694848D01*
X156098414Y-66562800D01*
X156098410Y-66562798D01*
X156094359Y-66559598D01*
X156053053Y-66536796D01*
X156003084Y-66486364D01*
X155990271Y-66426130D01*
X157817279Y-66426130D01*
X157817410Y-66427966D01*
X157821660Y-66434579D01*
X157867189Y-66480108D01*
X157881131Y-66487720D01*
X157882966Y-66487589D01*
X157889580Y-66483338D01*
X157935111Y-66437808D01*
X157942721Y-66423870D01*
X157942590Y-66422034D01*
X157938340Y-66415421D01*
X157892811Y-66369892D01*
X157878869Y-66362280D01*
X157877034Y-66362411D01*
X157870420Y-66366662D01*
X157824889Y-66412192D01*
X157817279Y-66426130D01*
X155990271Y-66426130D01*
X155988312Y-66416921D01*
X156013428Y-66350516D01*
X156040780Y-66323909D01*
X156084603Y-66292650D01*
X156219860Y-66196173D01*
X156224550Y-66191500D01*
X156328859Y-66087554D01*
X156378096Y-66038489D01*
X156437594Y-65955689D01*
X156505435Y-65861277D01*
X156508453Y-65857077D01*
X156526055Y-65821463D01*
X156605136Y-65661453D01*
X156605137Y-65661451D01*
X156607430Y-65656811D01*
X156672370Y-65443069D01*
X156701529Y-65221590D01*
X156703128Y-65156130D01*
X159087279Y-65156130D01*
X159087411Y-65157966D01*
X159091660Y-65164579D01*
X159217472Y-65290390D01*
X159228594Y-65296464D01*
X159232396Y-65287128D01*
X159240590Y-65224887D01*
X159241109Y-65218212D01*
X159242572Y-65158364D01*
X159242378Y-65151646D01*
X159231940Y-65024680D01*
X159227731Y-65013750D01*
X159217888Y-65019193D01*
X159094890Y-65142192D01*
X159087279Y-65156130D01*
X156703128Y-65156130D01*
X156703156Y-65155000D01*
X156684852Y-64932361D01*
X156630431Y-64715702D01*
X156541354Y-64510840D01*
X156470658Y-64401560D01*
X156422822Y-64327617D01*
X156422820Y-64327614D01*
X156420014Y-64323277D01*
X156269670Y-64158051D01*
X156265619Y-64154852D01*
X156265615Y-64154848D01*
X156098414Y-64022800D01*
X156098410Y-64022798D01*
X156094359Y-64019598D01*
X156053053Y-63996796D01*
X156003084Y-63946364D01*
X155988312Y-63876921D01*
X156013428Y-63810516D01*
X156040780Y-63783909D01*
X156105295Y-63737891D01*
X156219860Y-63656173D01*
X156272447Y-63603770D01*
X156374435Y-63502137D01*
X156378096Y-63498489D01*
X156433864Y-63420880D01*
X156508453Y-63317077D01*
X156509776Y-63318028D01*
X156556645Y-63274857D01*
X156626580Y-63262625D01*
X156692026Y-63290144D01*
X156719875Y-63321994D01*
X156779987Y-63420088D01*
X156926250Y-63588938D01*
X157098126Y-63731632D01*
X157291000Y-63844338D01*
X157499692Y-63924030D01*
X157504760Y-63925061D01*
X157504763Y-63925062D01*
X157609466Y-63946364D01*
X157718597Y-63968567D01*
X157723772Y-63968757D01*
X157723774Y-63968757D01*
X157936673Y-63976564D01*
X157936677Y-63976564D01*
X157941837Y-63976753D01*
X157946957Y-63976097D01*
X157946959Y-63976097D01*
X158158288Y-63949025D01*
X158158289Y-63949025D01*
X158163416Y-63948368D01*
X158240562Y-63925223D01*
X158372429Y-63885661D01*
X158372434Y-63885659D01*
X158377384Y-63884174D01*
X158577994Y-63785896D01*
X158759860Y-63656173D01*
X158812447Y-63603770D01*
X158914435Y-63502137D01*
X158918096Y-63498489D01*
X158977594Y-63415689D01*
X159045435Y-63321277D01*
X159048453Y-63317077D01*
X159056223Y-63301357D01*
X159145136Y-63121453D01*
X159145137Y-63121451D01*
X159147430Y-63116811D01*
X159207103Y-62920404D01*
X159210865Y-62908023D01*
X159210865Y-62908021D01*
X159212370Y-62903069D01*
X159241529Y-62681590D01*
X159243156Y-62615000D01*
X159224852Y-62392361D01*
X159170431Y-62175702D01*
X159081354Y-61970840D01*
X159008975Y-61858959D01*
X158962822Y-61787617D01*
X158962820Y-61787614D01*
X158960014Y-61783277D01*
X158809670Y-61618051D01*
X158805619Y-61614852D01*
X158805615Y-61614848D01*
X158638414Y-61482800D01*
X158638410Y-61482798D01*
X158634359Y-61479598D01*
X158593053Y-61456796D01*
X158543084Y-61406364D01*
X158528312Y-61336921D01*
X158553428Y-61270516D01*
X158580780Y-61243909D01*
X158624603Y-61212650D01*
X158759860Y-61116173D01*
X158918096Y-60958489D01*
X158977594Y-60875689D01*
X159045435Y-60781277D01*
X159048453Y-60777077D01*
X159066055Y-60741463D01*
X159145136Y-60581453D01*
X159145137Y-60581451D01*
X159147430Y-60576811D01*
X159212370Y-60363069D01*
X159241529Y-60141590D01*
X159243156Y-60075000D01*
X159224852Y-59852361D01*
X159170431Y-59635702D01*
X159081354Y-59430840D01*
X159008975Y-59318959D01*
X158962822Y-59247617D01*
X158962820Y-59247614D01*
X158960014Y-59243277D01*
X158809670Y-59078051D01*
X158805619Y-59074852D01*
X158805615Y-59074848D01*
X158638414Y-58942800D01*
X158638410Y-58942798D01*
X158634359Y-58939598D01*
X158593053Y-58916796D01*
X158543084Y-58866364D01*
X158528312Y-58796921D01*
X158553428Y-58730516D01*
X158580780Y-58703909D01*
X158624603Y-58672650D01*
X158759860Y-58576173D01*
X158918096Y-58418489D01*
X158977594Y-58335689D01*
X159045435Y-58241277D01*
X159048453Y-58237077D01*
X159061772Y-58210129D01*
X159145136Y-58041453D01*
X159145137Y-58041451D01*
X159147430Y-58036811D01*
X159212370Y-57823069D01*
X159241529Y-57601590D01*
X159243156Y-57535000D01*
X159224852Y-57312361D01*
X159170431Y-57095702D01*
X159081354Y-56890840D01*
X159008975Y-56778959D01*
X158962822Y-56707617D01*
X158962820Y-56707614D01*
X158960014Y-56703277D01*
X158809670Y-56538051D01*
X158805619Y-56534852D01*
X158805615Y-56534848D01*
X158638414Y-56402800D01*
X158638410Y-56402798D01*
X158634359Y-56399598D01*
X158593053Y-56376796D01*
X158543084Y-56326364D01*
X158528312Y-56256921D01*
X158553428Y-56190516D01*
X158580780Y-56163909D01*
X158624603Y-56132650D01*
X158759860Y-56036173D01*
X158918096Y-55878489D01*
X158977594Y-55795689D01*
X159045435Y-55701277D01*
X159048453Y-55697077D01*
X159058694Y-55676357D01*
X159145136Y-55501453D01*
X159145137Y-55501451D01*
X159147430Y-55496811D01*
X159212370Y-55283069D01*
X159241529Y-55061590D01*
X159243156Y-54995000D01*
X159224852Y-54772361D01*
X159170431Y-54555702D01*
X159081354Y-54350840D01*
X159008975Y-54238959D01*
X158962822Y-54167617D01*
X158962820Y-54167614D01*
X158960014Y-54163277D01*
X158809670Y-53998051D01*
X158805619Y-53994852D01*
X158805615Y-53994848D01*
X158638414Y-53862800D01*
X158638410Y-53862798D01*
X158634359Y-53859598D01*
X158593053Y-53836796D01*
X158543084Y-53786364D01*
X158528312Y-53716921D01*
X158553428Y-53650516D01*
X158580780Y-53623909D01*
X158624603Y-53592650D01*
X158759860Y-53496173D01*
X158918096Y-53338489D01*
X158977594Y-53255689D01*
X159045435Y-53161277D01*
X159048453Y-53157077D01*
X159066055Y-53121463D01*
X159145136Y-52961453D01*
X159145137Y-52961451D01*
X159147430Y-52956811D01*
X159212370Y-52743069D01*
X159241529Y-52521590D01*
X159243156Y-52455000D01*
X159224852Y-52232361D01*
X159170431Y-52015702D01*
X159081354Y-51810840D01*
X159008975Y-51698959D01*
X158962822Y-51627617D01*
X158962820Y-51627614D01*
X158960014Y-51623277D01*
X158809670Y-51458051D01*
X158805619Y-51454852D01*
X158805615Y-51454848D01*
X158638414Y-51322800D01*
X158638410Y-51322798D01*
X158634359Y-51319598D01*
X158593053Y-51296796D01*
X158543084Y-51246364D01*
X158528312Y-51176921D01*
X158553428Y-51110516D01*
X158580780Y-51083909D01*
X158624603Y-51052650D01*
X158759860Y-50956173D01*
X158918096Y-50798489D01*
X158977594Y-50715689D01*
X159045435Y-50621277D01*
X159048453Y-50617077D01*
X159066055Y-50581463D01*
X159145136Y-50421453D01*
X159145137Y-50421451D01*
X159147430Y-50416811D01*
X159212370Y-50203069D01*
X159241529Y-49981590D01*
X159243156Y-49915000D01*
X159224852Y-49692361D01*
X159170431Y-49475702D01*
X159081354Y-49270840D01*
X159008975Y-49158959D01*
X158962822Y-49087617D01*
X158962820Y-49087614D01*
X158960014Y-49083277D01*
X158809670Y-48918051D01*
X158805619Y-48914852D01*
X158805615Y-48914848D01*
X158638414Y-48782800D01*
X158638410Y-48782798D01*
X158634359Y-48779598D01*
X158593053Y-48756796D01*
X158543084Y-48706364D01*
X158528312Y-48636921D01*
X158553428Y-48570516D01*
X158580780Y-48543909D01*
X158624603Y-48512650D01*
X158759860Y-48416173D01*
X158918096Y-48258489D01*
X158977594Y-48175689D01*
X159045435Y-48081277D01*
X159048453Y-48077077D01*
X159066055Y-48041463D01*
X159145136Y-47881453D01*
X159145137Y-47881451D01*
X159147430Y-47876811D01*
X159212370Y-47663069D01*
X159241529Y-47441590D01*
X159243156Y-47375000D01*
X159224852Y-47152361D01*
X159170431Y-46935702D01*
X159081354Y-46730840D01*
X159008975Y-46618959D01*
X158962822Y-46547617D01*
X158962820Y-46547614D01*
X158960014Y-46543277D01*
X158809670Y-46378051D01*
X158805619Y-46374852D01*
X158805615Y-46374848D01*
X158638414Y-46242800D01*
X158638410Y-46242798D01*
X158634359Y-46239598D01*
X158438789Y-46131638D01*
X158433920Y-46129914D01*
X158433916Y-46129912D01*
X158233087Y-46058795D01*
X158233083Y-46058794D01*
X158228212Y-46057069D01*
X158223119Y-46056162D01*
X158223116Y-46056161D01*
X158013373Y-46018800D01*
X158013367Y-46018799D01*
X158008284Y-46017894D01*
X157934452Y-46016992D01*
X157790081Y-46015228D01*
X157790079Y-46015228D01*
X157784911Y-46015165D01*
X157564091Y-46048955D01*
X157351756Y-46118357D01*
X157153607Y-46221507D01*
X157149474Y-46224610D01*
X157149471Y-46224612D01*
X156979100Y-46352530D01*
X156974965Y-46355635D01*
X156971393Y-46359373D01*
X156835777Y-46501287D01*
X156820629Y-46517138D01*
X156713201Y-46674621D01*
X156658293Y-46719621D01*
X156587768Y-46727792D01*
X156524021Y-46696538D01*
X156503324Y-46672054D01*
X156422822Y-46547617D01*
X156422820Y-46547614D01*
X156420014Y-46543277D01*
X156269670Y-46378051D01*
X156265619Y-46374852D01*
X156265615Y-46374848D01*
X156098414Y-46242800D01*
X156098410Y-46242798D01*
X156094359Y-46239598D01*
X155898789Y-46131638D01*
X155893920Y-46129914D01*
X155893916Y-46129912D01*
X155693087Y-46058795D01*
X155693083Y-46058794D01*
X155688212Y-46057069D01*
X155683119Y-46056162D01*
X155683116Y-46056161D01*
X155473373Y-46018800D01*
X155473367Y-46018799D01*
X155468284Y-46017894D01*
X155394452Y-46016992D01*
X155250081Y-46015228D01*
X155250079Y-46015228D01*
X155244911Y-46015165D01*
X155024091Y-46048955D01*
X154811756Y-46118357D01*
X154613607Y-46221507D01*
X154609474Y-46224610D01*
X154609471Y-46224612D01*
X154439100Y-46352530D01*
X154434965Y-46355635D01*
X154431393Y-46359373D01*
X154295777Y-46501287D01*
X154280629Y-46517138D01*
X154277720Y-46521403D01*
X154277714Y-46521411D01*
X154256793Y-46552080D01*
X154154743Y-46701680D01*
X154134388Y-46745531D01*
X154062870Y-46899605D01*
X154060688Y-46904305D01*
X154000989Y-47119570D01*
X153977251Y-47341695D01*
X153977548Y-47346848D01*
X153977548Y-47346851D01*
X153983011Y-47441590D01*
X153990110Y-47564715D01*
X153991247Y-47569761D01*
X153991248Y-47569767D01*
X153997732Y-47598537D01*
X154039222Y-47782639D01*
X154123266Y-47989616D01*
X154174019Y-48072438D01*
X154237291Y-48175688D01*
X154239987Y-48180088D01*
X154386250Y-48348938D01*
X154558126Y-48491632D01*
X154628595Y-48532811D01*
X154631445Y-48534476D01*
X154680169Y-48586114D01*
X154693240Y-48655897D01*
X154666509Y-48721669D01*
X154626055Y-48755027D01*
X154613607Y-48761507D01*
X154609474Y-48764610D01*
X154609471Y-48764612D01*
X154439100Y-48892530D01*
X154434965Y-48895635D01*
X154280629Y-49057138D01*
X154277720Y-49061403D01*
X154277714Y-49061411D01*
X154248647Y-49104022D01*
X154154743Y-49241680D01*
X154060688Y-49444305D01*
X154000989Y-49659570D01*
X153977251Y-49881695D01*
X153977548Y-49886848D01*
X153977548Y-49886851D01*
X153983011Y-49981590D01*
X153990110Y-50104715D01*
X153991247Y-50109761D01*
X153991248Y-50109767D01*
X153997732Y-50138537D01*
X154039222Y-50322639D01*
X154123266Y-50529616D01*
X154174019Y-50612438D01*
X154237291Y-50715688D01*
X154239987Y-50720088D01*
X154386250Y-50888938D01*
X154558126Y-51031632D01*
X154628595Y-51072811D01*
X154631445Y-51074476D01*
X154680169Y-51126114D01*
X154693240Y-51195897D01*
X154666509Y-51261669D01*
X154626055Y-51295027D01*
X154613607Y-51301507D01*
X154609474Y-51304610D01*
X154609471Y-51304612D01*
X154439100Y-51432530D01*
X154434965Y-51435635D01*
X154280629Y-51597138D01*
X154277720Y-51601403D01*
X154277714Y-51601411D01*
X154248647Y-51644022D01*
X154154743Y-51781680D01*
X154060688Y-51984305D01*
X154000989Y-52199570D01*
X153977251Y-52421695D01*
X153977548Y-52426848D01*
X153977548Y-52426851D01*
X153983011Y-52521590D01*
X153990110Y-52644715D01*
X153991247Y-52649761D01*
X153991248Y-52649767D01*
X153997732Y-52678537D01*
X154039222Y-52862639D01*
X154123266Y-53069616D01*
X154174019Y-53152438D01*
X154237291Y-53255688D01*
X154239987Y-53260088D01*
X154386250Y-53428938D01*
X154558126Y-53571632D01*
X154628595Y-53612811D01*
X154631445Y-53614476D01*
X154680169Y-53666114D01*
X154693240Y-53735897D01*
X154666509Y-53801669D01*
X154626055Y-53835027D01*
X154613607Y-53841507D01*
X154609474Y-53844610D01*
X154609471Y-53844612D01*
X154439100Y-53972530D01*
X154434965Y-53975635D01*
X154280629Y-54137138D01*
X154277720Y-54141403D01*
X154277714Y-54141411D01*
X154248647Y-54184022D01*
X154154743Y-54321680D01*
X154060688Y-54524305D01*
X154000989Y-54739570D01*
X153977251Y-54961695D01*
X153977548Y-54966848D01*
X153977548Y-54966851D01*
X153983011Y-55061590D01*
X153990110Y-55184715D01*
X153991247Y-55189761D01*
X153991248Y-55189767D01*
X153997732Y-55218537D01*
X154039222Y-55402639D01*
X154091660Y-55531778D01*
X154113915Y-55586586D01*
X154123266Y-55609616D01*
X154164165Y-55676357D01*
X154237291Y-55795688D01*
X154239987Y-55800088D01*
X154386250Y-55968938D01*
X154558126Y-56111632D01*
X154628595Y-56152811D01*
X154631445Y-56154476D01*
X154680169Y-56206114D01*
X154693240Y-56275897D01*
X154666509Y-56341669D01*
X154626055Y-56375027D01*
X154613607Y-56381507D01*
X154609474Y-56384610D01*
X154609471Y-56384612D01*
X154439100Y-56512530D01*
X154434965Y-56515635D01*
X154431393Y-56519373D01*
X154331503Y-56623902D01*
X154280629Y-56677138D01*
X154277720Y-56681403D01*
X154277714Y-56681411D01*
X154224263Y-56759768D01*
X154154743Y-56861680D01*
X154113202Y-56951172D01*
X154073270Y-57037200D01*
X154060688Y-57064305D01*
X154000989Y-57279570D01*
X153977251Y-57501695D01*
X153977548Y-57506848D01*
X153977548Y-57506851D01*
X153983011Y-57601590D01*
X153990110Y-57724715D01*
X153991247Y-57729761D01*
X153991248Y-57729767D01*
X153997732Y-57758537D01*
X154039222Y-57942639D01*
X154077424Y-58036720D01*
X154112385Y-58122818D01*
X154123266Y-58149616D01*
X154174019Y-58232438D01*
X154237291Y-58335688D01*
X154239987Y-58340088D01*
X154386250Y-58508938D01*
X154558126Y-58651632D01*
X154628595Y-58692811D01*
X154631445Y-58694476D01*
X154680169Y-58746114D01*
X154693240Y-58815897D01*
X154666509Y-58881669D01*
X154626055Y-58915027D01*
X154613607Y-58921507D01*
X154609474Y-58924610D01*
X154609471Y-58924612D01*
X154513840Y-58996414D01*
X154434965Y-59055635D01*
X154280629Y-59217138D01*
X154277720Y-59221403D01*
X154277714Y-59221411D01*
X154248647Y-59264022D01*
X154154743Y-59401680D01*
X154060688Y-59604305D01*
X154000989Y-59819570D01*
X153977251Y-60041695D01*
X153977548Y-60046848D01*
X153977548Y-60046851D01*
X153983011Y-60141590D01*
X153990110Y-60264715D01*
X153991247Y-60269761D01*
X153991248Y-60269767D01*
X153997732Y-60298537D01*
X154039222Y-60482639D01*
X154088408Y-60603770D01*
X154112845Y-60663951D01*
X154123266Y-60689616D01*
X154161101Y-60751357D01*
X154237291Y-60875688D01*
X154239987Y-60880088D01*
X154386250Y-61048938D01*
X154558126Y-61191632D01*
X154628595Y-61232811D01*
X154631445Y-61234476D01*
X154680169Y-61286114D01*
X154693240Y-61355897D01*
X154666509Y-61421669D01*
X154626055Y-61455027D01*
X154613607Y-61461507D01*
X154609474Y-61464610D01*
X154609471Y-61464612D01*
X154509297Y-61539825D01*
X154434965Y-61595635D01*
X154280629Y-61757138D01*
X154277720Y-61761403D01*
X154277714Y-61761411D01*
X154248647Y-61804022D01*
X154154743Y-61941680D01*
X154111998Y-62033767D01*
X154075591Y-62112200D01*
X154060688Y-62144305D01*
X154000989Y-62359570D01*
X153977251Y-62581695D01*
X153977548Y-62586848D01*
X153977548Y-62586851D01*
X153983011Y-62681590D01*
X153990110Y-62804715D01*
X153991247Y-62809761D01*
X153991248Y-62809767D01*
X153996918Y-62834924D01*
X154039222Y-63022639D01*
X154077461Y-63116811D01*
X154120506Y-63222818D01*
X154123266Y-63229616D01*
X154167229Y-63301357D01*
X154237291Y-63415688D01*
X154239987Y-63420088D01*
X154386250Y-63588938D01*
X154558126Y-63731632D01*
X154587013Y-63748512D01*
X154631445Y-63774476D01*
X154680169Y-63826114D01*
X154693240Y-63895897D01*
X154666509Y-63961669D01*
X154626055Y-63995027D01*
X154613607Y-64001507D01*
X154609474Y-64004610D01*
X154609471Y-64004612D01*
X154439100Y-64132530D01*
X154434965Y-64135635D01*
X154280629Y-64297138D01*
X154277715Y-64301410D01*
X154277714Y-64301411D01*
X154258212Y-64330000D01*
X154154743Y-64481680D01*
X154118088Y-64560647D01*
X154067251Y-64670167D01*
X154060688Y-64684305D01*
X154000989Y-64899570D01*
X153977251Y-65121695D01*
X153977548Y-65126848D01*
X153977548Y-65126851D01*
X153983011Y-65221590D01*
X153990110Y-65344715D01*
X153991247Y-65349761D01*
X153991248Y-65349767D01*
X153997732Y-65378537D01*
X154039222Y-65562639D01*
X154123266Y-65769616D01*
X154174019Y-65852438D01*
X154237291Y-65955688D01*
X154239987Y-65960088D01*
X154386250Y-66128938D01*
X154558126Y-66271632D01*
X154628595Y-66312811D01*
X154631445Y-66314476D01*
X154680169Y-66366114D01*
X154693240Y-66435897D01*
X154666509Y-66501669D01*
X154626055Y-66535027D01*
X154613607Y-66541507D01*
X154609474Y-66544610D01*
X154609471Y-66544612D01*
X154439100Y-66672530D01*
X154434965Y-66675635D01*
X154280629Y-66837138D01*
X154277715Y-66841410D01*
X154277714Y-66841411D01*
X154258212Y-66870000D01*
X154154743Y-67021680D01*
X154139003Y-67055590D01*
X154083022Y-67176191D01*
X154060688Y-67224305D01*
X154000989Y-67439570D01*
X153977251Y-67661695D01*
X133840418Y-67661695D01*
X133824852Y-67472361D01*
X133770431Y-67255702D01*
X133681354Y-67050840D01*
X133610658Y-66941560D01*
X133562822Y-66867617D01*
X133562820Y-66867614D01*
X133560014Y-66863277D01*
X133409670Y-66698051D01*
X133405619Y-66694852D01*
X133405615Y-66694848D01*
X133238414Y-66562800D01*
X133238410Y-66562798D01*
X133234359Y-66559598D01*
X133193053Y-66536796D01*
X133143084Y-66486364D01*
X133128312Y-66416921D01*
X133153428Y-66350516D01*
X133180780Y-66323909D01*
X133224603Y-66292650D01*
X133359860Y-66196173D01*
X133364550Y-66191500D01*
X133468859Y-66087554D01*
X133518096Y-66038489D01*
X133577594Y-65955689D01*
X133645435Y-65861277D01*
X133648453Y-65857077D01*
X133666055Y-65821463D01*
X133745136Y-65661453D01*
X133745137Y-65661451D01*
X133747430Y-65656811D01*
X133812370Y-65443069D01*
X133841529Y-65221590D01*
X133843156Y-65155000D01*
X133824852Y-64932361D01*
X133770431Y-64715702D01*
X133772749Y-64715120D01*
X133770181Y-64654118D01*
X133806019Y-64592830D01*
X133869302Y-64560647D01*
X133892463Y-64558500D01*
X143493427Y-64558500D01*
X143552705Y-64576172D01*
X143553663Y-64574276D01*
X143559950Y-64577452D01*
X143565846Y-64581310D01*
X143572450Y-64583766D01*
X143572452Y-64583767D01*
X143608844Y-64597301D01*
X143725341Y-64640626D01*
X143894015Y-64663132D01*
X143901026Y-64662494D01*
X143901030Y-64662494D01*
X144056462Y-64648348D01*
X144063483Y-64647709D01*
X144070185Y-64645531D01*
X144070187Y-64645531D01*
X144218623Y-64597301D01*
X144218626Y-64597300D01*
X144225322Y-64595124D01*
X144371490Y-64507990D01*
X144376584Y-64503139D01*
X144376588Y-64503136D01*
X144443833Y-64439099D01*
X144494721Y-64390639D01*
X144588891Y-64248902D01*
X144649319Y-64089825D01*
X144673001Y-63921313D01*
X144673299Y-63900000D01*
X144654331Y-63730892D01*
X144647443Y-63711111D01*
X144623669Y-63642842D01*
X144598368Y-63570189D01*
X144508192Y-63425879D01*
X144502442Y-63420088D01*
X144450264Y-63367545D01*
X144388286Y-63305132D01*
X144244608Y-63213951D01*
X144084300Y-63156868D01*
X143915329Y-63136720D01*
X143908326Y-63137456D01*
X143908325Y-63137456D01*
X143753101Y-63153770D01*
X143753097Y-63153771D01*
X143746093Y-63154507D01*
X143739422Y-63156778D01*
X143591673Y-63207075D01*
X143591670Y-63207076D01*
X143585003Y-63209346D01*
X143563105Y-63222818D01*
X143497083Y-63241500D01*
X133879515Y-63241500D01*
X133811394Y-63221498D01*
X133764901Y-63167842D01*
X133754797Y-63097568D01*
X133758957Y-63078871D01*
X133764691Y-63060000D01*
X133807103Y-62920404D01*
X133810865Y-62908023D01*
X133810865Y-62908021D01*
X133812370Y-62903069D01*
X133841529Y-62681590D01*
X133843156Y-62615000D01*
X133824852Y-62392361D01*
X133782461Y-62223595D01*
X133771690Y-62180713D01*
X133771689Y-62180709D01*
X133770431Y-62175702D01*
X133769739Y-62174112D01*
X133766761Y-62104178D01*
X133802569Y-62042873D01*
X133865836Y-62010658D01*
X133889058Y-62008500D01*
X143493427Y-62008500D01*
X143552705Y-62026172D01*
X143553663Y-62024276D01*
X143559950Y-62027452D01*
X143565846Y-62031310D01*
X143572450Y-62033766D01*
X143572452Y-62033767D01*
X143608844Y-62047301D01*
X143725341Y-62090626D01*
X143894015Y-62113132D01*
X143901026Y-62112494D01*
X143901030Y-62112494D01*
X144056462Y-62098348D01*
X144063483Y-62097709D01*
X144070185Y-62095531D01*
X144070187Y-62095531D01*
X144218623Y-62047301D01*
X144218626Y-62047300D01*
X144225322Y-62045124D01*
X144371490Y-61957990D01*
X144376584Y-61953139D01*
X144376588Y-61953136D01*
X144443833Y-61889099D01*
X144494721Y-61840639D01*
X144588891Y-61698902D01*
X144649319Y-61539825D01*
X144673001Y-61371313D01*
X144673299Y-61350000D01*
X144654331Y-61180892D01*
X144647817Y-61162185D01*
X144609529Y-61052240D01*
X144598368Y-61020189D01*
X144508192Y-60875879D01*
X144388286Y-60755132D01*
X144380427Y-60750144D01*
X144285049Y-60689616D01*
X144244608Y-60663951D01*
X144084300Y-60606868D01*
X143915329Y-60586720D01*
X143908326Y-60587456D01*
X143908325Y-60587456D01*
X143753101Y-60603770D01*
X143753097Y-60603771D01*
X143746093Y-60604507D01*
X143739422Y-60606778D01*
X143591673Y-60657075D01*
X143591670Y-60657076D01*
X143585003Y-60659346D01*
X143563105Y-60672818D01*
X143497083Y-60691500D01*
X133882553Y-60691500D01*
X133814432Y-60671498D01*
X133767939Y-60617842D01*
X133757835Y-60547568D01*
X133761995Y-60528871D01*
X133764691Y-60520000D01*
X133812370Y-60363069D01*
X133841529Y-60141590D01*
X133843156Y-60075000D01*
X133824852Y-59852361D01*
X133770431Y-59635702D01*
X133768366Y-59630952D01*
X133766703Y-59626068D01*
X133768837Y-59625342D01*
X133761193Y-59564297D01*
X133791859Y-59500265D01*
X133852275Y-59462977D01*
X133885563Y-59458500D01*
X143493427Y-59458500D01*
X143552705Y-59476172D01*
X143553663Y-59474276D01*
X143559950Y-59477452D01*
X143565846Y-59481310D01*
X143572450Y-59483766D01*
X143572452Y-59483767D01*
X143608844Y-59497301D01*
X143725341Y-59540626D01*
X143894015Y-59563132D01*
X143901026Y-59562494D01*
X143901030Y-59562494D01*
X144056462Y-59548348D01*
X144063483Y-59547709D01*
X144070185Y-59545531D01*
X144070187Y-59545531D01*
X144218623Y-59497301D01*
X144218626Y-59497300D01*
X144225322Y-59495124D01*
X144371490Y-59407990D01*
X144376584Y-59403139D01*
X144376588Y-59403136D01*
X144443833Y-59339099D01*
X144494721Y-59290639D01*
X144512406Y-59264022D01*
X144584990Y-59154773D01*
X144588891Y-59148902D01*
X144649319Y-58989825D01*
X144673001Y-58821313D01*
X144673299Y-58800000D01*
X144654331Y-58630892D01*
X144598368Y-58470189D01*
X144508192Y-58325879D01*
X144388286Y-58205132D01*
X144372096Y-58194857D01*
X144333406Y-58170304D01*
X144244608Y-58113951D01*
X144084300Y-58056868D01*
X143915329Y-58036720D01*
X143908326Y-58037456D01*
X143908325Y-58037456D01*
X143753101Y-58053770D01*
X143753097Y-58053771D01*
X143746093Y-58054507D01*
X143739422Y-58056778D01*
X143591673Y-58107075D01*
X143591670Y-58107076D01*
X143585003Y-58109346D01*
X143563105Y-58122818D01*
X143497083Y-58141500D01*
X133885592Y-58141500D01*
X133817471Y-58121498D01*
X133770978Y-58067842D01*
X133760874Y-57997568D01*
X133765033Y-57978872D01*
X133768307Y-57968096D01*
X133812370Y-57823069D01*
X133841529Y-57601590D01*
X133843156Y-57535000D01*
X133824852Y-57312361D01*
X133771692Y-57100720D01*
X133771691Y-57100718D01*
X133770431Y-57095702D01*
X133771289Y-57095487D01*
X133768461Y-57029185D01*
X133804265Y-56967878D01*
X133867531Y-56935660D01*
X133890760Y-56933500D01*
X143493427Y-56933500D01*
X143552705Y-56951172D01*
X143553663Y-56949276D01*
X143559950Y-56952452D01*
X143565846Y-56956310D01*
X143572450Y-56958766D01*
X143572452Y-56958767D01*
X143608844Y-56972301D01*
X143725341Y-57015626D01*
X143894015Y-57038132D01*
X143901026Y-57037494D01*
X143901030Y-57037494D01*
X144056462Y-57023348D01*
X144063483Y-57022709D01*
X144070185Y-57020531D01*
X144070187Y-57020531D01*
X144218623Y-56972301D01*
X144218626Y-56972300D01*
X144225322Y-56970124D01*
X144371490Y-56882990D01*
X144376584Y-56878139D01*
X144376588Y-56878136D01*
X144478002Y-56781560D01*
X144494721Y-56765639D01*
X144588891Y-56623902D01*
X144649319Y-56464825D01*
X144673001Y-56296313D01*
X144673299Y-56275000D01*
X144654331Y-56105892D01*
X144642769Y-56072689D01*
X144600686Y-55951846D01*
X144598368Y-55945189D01*
X144508192Y-55800879D01*
X144388286Y-55680132D01*
X144372548Y-55670144D01*
X144333406Y-55645304D01*
X144244608Y-55588951D01*
X144084300Y-55531868D01*
X143915329Y-55511720D01*
X143908326Y-55512456D01*
X143908325Y-55512456D01*
X143753101Y-55528770D01*
X143753097Y-55528771D01*
X143746093Y-55529507D01*
X143739422Y-55531778D01*
X143591673Y-55582075D01*
X143591670Y-55582076D01*
X143585003Y-55584346D01*
X143563105Y-55597818D01*
X143497083Y-55616500D01*
X133881034Y-55616500D01*
X133812913Y-55596498D01*
X133766420Y-55542842D01*
X133756316Y-55472568D01*
X133760476Y-55453871D01*
X133763027Y-55445477D01*
X133812370Y-55283069D01*
X133841529Y-55061590D01*
X133843156Y-54995000D01*
X133824852Y-54772361D01*
X133770431Y-54555702D01*
X133681354Y-54350840D01*
X133608975Y-54238959D01*
X133562822Y-54167617D01*
X133562820Y-54167614D01*
X133560014Y-54163277D01*
X133409670Y-53998051D01*
X133405619Y-53994852D01*
X133405615Y-53994848D01*
X133238414Y-53862800D01*
X133238410Y-53862798D01*
X133234359Y-53859598D01*
X133038789Y-53751638D01*
X133033920Y-53749914D01*
X133033916Y-53749912D01*
X132833087Y-53678795D01*
X132833083Y-53678794D01*
X132828212Y-53677069D01*
X132823119Y-53676162D01*
X132823116Y-53676161D01*
X132613373Y-53638800D01*
X132613367Y-53638799D01*
X132608284Y-53637894D01*
X132534452Y-53636992D01*
X132390081Y-53635228D01*
X132390079Y-53635228D01*
X132384911Y-53635165D01*
X132164091Y-53668955D01*
X131951756Y-53738357D01*
X131753607Y-53841507D01*
X131749474Y-53844610D01*
X131749471Y-53844612D01*
X131579100Y-53972530D01*
X131574965Y-53975635D01*
X131420629Y-54137138D01*
X131313201Y-54294621D01*
X131258293Y-54339621D01*
X131187768Y-54347792D01*
X131124021Y-54316538D01*
X131103324Y-54292054D01*
X131022822Y-54167617D01*
X131022820Y-54167614D01*
X131020014Y-54163277D01*
X130869670Y-53998051D01*
X130865619Y-53994852D01*
X130865615Y-53994848D01*
X130698414Y-53862800D01*
X130698410Y-53862798D01*
X130694359Y-53859598D01*
X130653053Y-53836796D01*
X130603084Y-53786364D01*
X130588312Y-53716921D01*
X130613428Y-53650516D01*
X130640780Y-53623909D01*
X130684603Y-53592650D01*
X130819860Y-53496173D01*
X130978096Y-53338489D01*
X131037594Y-53255689D01*
X131105435Y-53161277D01*
X131108453Y-53157077D01*
X131126055Y-53121463D01*
X131205136Y-52961453D01*
X131205137Y-52961451D01*
X131207430Y-52956811D01*
X131272370Y-52743069D01*
X131301529Y-52521590D01*
X131303128Y-52456130D01*
X133687279Y-52456130D01*
X133687411Y-52457966D01*
X133691660Y-52464579D01*
X133817472Y-52590390D01*
X133828594Y-52596464D01*
X133832396Y-52587128D01*
X133840590Y-52524887D01*
X133841109Y-52518212D01*
X133842572Y-52458364D01*
X133842378Y-52451646D01*
X133831940Y-52324680D01*
X133827731Y-52313750D01*
X133817888Y-52319193D01*
X133694890Y-52442192D01*
X133687279Y-52456130D01*
X131303128Y-52456130D01*
X131303156Y-52455000D01*
X131284852Y-52232361D01*
X131230431Y-52015702D01*
X131141354Y-51810840D01*
X131068975Y-51698959D01*
X131022822Y-51627617D01*
X131022820Y-51627614D01*
X131020014Y-51623277D01*
X130869670Y-51458051D01*
X130865619Y-51454852D01*
X130865615Y-51454848D01*
X130698414Y-51322800D01*
X130698410Y-51322798D01*
X130694359Y-51319598D01*
X130653053Y-51296796D01*
X130603084Y-51246364D01*
X130588312Y-51176921D01*
X130613428Y-51110516D01*
X130640780Y-51083909D01*
X130684603Y-51052650D01*
X130819860Y-50956173D01*
X130978096Y-50798489D01*
X131037594Y-50715689D01*
X131108453Y-50617077D01*
X131109776Y-50618028D01*
X131156645Y-50574857D01*
X131226580Y-50562625D01*
X131292026Y-50590144D01*
X131319875Y-50621994D01*
X131379987Y-50720088D01*
X131526250Y-50888938D01*
X131698126Y-51031632D01*
X131891000Y-51144338D01*
X132099692Y-51224030D01*
X132104760Y-51225061D01*
X132104763Y-51225062D01*
X132209466Y-51246364D01*
X132318597Y-51268567D01*
X132323772Y-51268757D01*
X132323774Y-51268757D01*
X132536673Y-51276564D01*
X132536677Y-51276564D01*
X132541837Y-51276753D01*
X132546957Y-51276097D01*
X132546959Y-51276097D01*
X132758288Y-51249025D01*
X132758289Y-51249025D01*
X132763416Y-51248368D01*
X132770096Y-51246364D01*
X132972429Y-51185661D01*
X132972434Y-51185659D01*
X132977384Y-51184174D01*
X133177994Y-51085896D01*
X133359860Y-50956173D01*
X133518096Y-50798489D01*
X133577594Y-50715689D01*
X133645435Y-50621277D01*
X133648453Y-50617077D01*
X133666055Y-50581463D01*
X133745136Y-50421453D01*
X133745137Y-50421451D01*
X133747430Y-50416811D01*
X133812370Y-50203069D01*
X133841529Y-49981590D01*
X133843156Y-49915000D01*
X133824852Y-49692361D01*
X133770431Y-49475702D01*
X133681354Y-49270840D01*
X133608975Y-49158959D01*
X133562822Y-49087617D01*
X133562820Y-49087614D01*
X133560014Y-49083277D01*
X133409670Y-48918051D01*
X133405619Y-48914852D01*
X133405615Y-48914848D01*
X133238414Y-48782800D01*
X133238410Y-48782798D01*
X133234359Y-48779598D01*
X133193053Y-48756796D01*
X133143084Y-48706364D01*
X133128312Y-48636921D01*
X133153428Y-48570516D01*
X133180780Y-48543909D01*
X133224603Y-48512650D01*
X133359860Y-48416173D01*
X133518096Y-48258489D01*
X133577594Y-48175689D01*
X133645435Y-48081277D01*
X133648453Y-48077077D01*
X133666055Y-48041463D01*
X133745136Y-47881453D01*
X133745137Y-47881451D01*
X133747430Y-47876811D01*
X133812370Y-47663069D01*
X133841529Y-47441590D01*
X133843156Y-47375000D01*
X133824852Y-47152361D01*
X133770431Y-46935702D01*
X133726532Y-46834742D01*
X133717712Y-46764296D01*
X133748379Y-46700264D01*
X133808796Y-46662976D01*
X133842082Y-46658500D01*
X143493427Y-46658500D01*
X143552705Y-46676172D01*
X143553663Y-46674276D01*
X143559950Y-46677452D01*
X143565846Y-46681310D01*
X143572450Y-46683766D01*
X143572452Y-46683767D01*
X143608844Y-46697301D01*
X143725341Y-46740626D01*
X143894015Y-46763132D01*
X143901026Y-46762494D01*
X143901030Y-46762494D01*
X144056462Y-46748348D01*
X144063483Y-46747709D01*
X144070185Y-46745531D01*
X144070187Y-46745531D01*
X144218623Y-46697301D01*
X144218626Y-46697300D01*
X144225322Y-46695124D01*
X144371490Y-46607990D01*
X144376584Y-46603139D01*
X144376588Y-46603136D01*
X144462407Y-46521411D01*
X144494721Y-46490639D01*
X144505538Y-46474359D01*
X144581934Y-46359373D01*
X144588891Y-46348902D01*
X144649319Y-46189825D01*
X144673001Y-46021313D01*
X144673299Y-46000000D01*
X144654331Y-45830892D01*
X144598368Y-45670189D01*
X144508192Y-45525879D01*
X144388286Y-45405132D01*
X144244608Y-45313951D01*
X144084300Y-45256868D01*
X143915329Y-45236720D01*
X143908326Y-45237456D01*
X143908325Y-45237456D01*
X143753101Y-45253770D01*
X143753097Y-45253771D01*
X143746093Y-45254507D01*
X143739422Y-45256778D01*
X143591673Y-45307075D01*
X143591670Y-45307076D01*
X143585003Y-45309346D01*
X143563105Y-45322818D01*
X143497083Y-45341500D01*
X127684949Y-45341500D01*
X127616828Y-45321498D01*
X127595854Y-45304595D01*
X125385597Y-43094338D01*
X125351571Y-43032026D01*
X125352984Y-42972636D01*
X125354554Y-42966777D01*
X125354554Y-42966776D01*
X125355978Y-42961463D01*
X125375353Y-42740000D01*
X125355978Y-42518537D01*
X125317503Y-42374949D01*
X125299863Y-42309114D01*
X125299862Y-42309112D01*
X125298440Y-42303804D01*
X125291927Y-42289836D01*
X125206814Y-42107311D01*
X125206811Y-42107306D01*
X125204488Y-42102324D01*
X125123453Y-41986594D01*
X125080136Y-41924730D01*
X125080134Y-41924727D01*
X125076977Y-41920219D01*
X124919781Y-41763023D01*
X124915273Y-41759866D01*
X124915270Y-41759864D01*
X124743462Y-41639563D01*
X124737677Y-41635512D01*
X124732695Y-41633189D01*
X124732690Y-41633186D01*
X124541178Y-41543883D01*
X124541177Y-41543882D01*
X124536196Y-41541560D01*
X124530888Y-41540138D01*
X124530886Y-41540137D01*
X124446437Y-41517509D01*
X124321463Y-41484022D01*
X124100000Y-41464647D01*
X123878537Y-41484022D01*
X123753563Y-41517509D01*
X123669114Y-41540137D01*
X123669112Y-41540138D01*
X123663804Y-41541560D01*
X123658823Y-41543882D01*
X123658822Y-41543883D01*
X123467311Y-41633186D01*
X123467306Y-41633189D01*
X123462324Y-41635512D01*
X123457817Y-41638668D01*
X123457815Y-41638669D01*
X123284730Y-41759864D01*
X123284727Y-41759866D01*
X123280219Y-41763023D01*
X123123023Y-41920219D01*
X123119866Y-41924727D01*
X123119864Y-41924730D01*
X123076547Y-41986594D01*
X122995512Y-42102324D01*
X122993189Y-42107306D01*
X122993186Y-42107311D01*
X122908073Y-42289836D01*
X122901560Y-42303804D01*
X122900138Y-42309112D01*
X122900137Y-42309114D01*
X122882497Y-42374949D01*
X122844022Y-42518537D01*
X122824647Y-42740000D01*
X122844022Y-42961463D01*
X122901560Y-43176196D01*
X122903882Y-43181177D01*
X122903883Y-43181178D01*
X122993186Y-43372689D01*
X122993189Y-43372694D01*
X122995512Y-43377676D01*
X122998668Y-43382183D01*
X122998669Y-43382185D01*
X123118647Y-43553531D01*
X123123023Y-43559781D01*
X123280219Y-43716977D01*
X123284727Y-43720134D01*
X123284730Y-43720136D01*
X123313523Y-43740297D01*
X123462323Y-43844488D01*
X123467305Y-43846811D01*
X123467310Y-43846814D01*
X123572373Y-43895805D01*
X123625658Y-43942722D01*
X123645119Y-44010999D01*
X123624577Y-44078959D01*
X123572373Y-44124195D01*
X123467311Y-44173186D01*
X123467306Y-44173189D01*
X123462324Y-44175512D01*
X123457817Y-44178668D01*
X123457815Y-44178669D01*
X123284730Y-44299864D01*
X123284727Y-44299866D01*
X123280219Y-44303023D01*
X123123023Y-44460219D01*
X123119866Y-44464727D01*
X123119864Y-44464730D01*
X123099248Y-44494173D01*
X122995512Y-44642324D01*
X122993189Y-44647306D01*
X122993186Y-44647311D01*
X122908000Y-44829993D01*
X122901560Y-44843804D01*
X122844022Y-45058537D01*
X122824647Y-45280000D01*
X122844022Y-45501463D01*
X122901560Y-45716196D01*
X122903882Y-45721177D01*
X122903883Y-45721178D01*
X122993186Y-45912689D01*
X122993189Y-45912694D01*
X122995512Y-45917676D01*
X122998668Y-45922183D01*
X122998669Y-45922185D01*
X123118782Y-46093724D01*
X123123023Y-46099781D01*
X123280219Y-46256977D01*
X123284727Y-46260134D01*
X123284730Y-46260136D01*
X123360495Y-46313187D01*
X123462323Y-46384488D01*
X123467305Y-46386811D01*
X123467310Y-46386814D01*
X123572373Y-46435805D01*
X123625658Y-46482722D01*
X123645119Y-46550999D01*
X123624577Y-46618959D01*
X123572373Y-46664195D01*
X123467311Y-46713186D01*
X123467306Y-46713189D01*
X123462324Y-46715512D01*
X123457817Y-46718668D01*
X123457815Y-46718669D01*
X123284730Y-46839864D01*
X123284727Y-46839866D01*
X123280219Y-46843023D01*
X123123023Y-47000219D01*
X123119866Y-47004727D01*
X123119864Y-47004730D01*
X122998669Y-47177815D01*
X122995512Y-47182324D01*
X122993189Y-47187306D01*
X122993186Y-47187311D01*
X122908000Y-47369993D01*
X122901560Y-47383804D01*
X122844022Y-47598537D01*
X122824647Y-47820000D01*
X122844022Y-48041463D01*
X122901560Y-48256196D01*
X122903882Y-48261177D01*
X122903883Y-48261178D01*
X122993186Y-48452689D01*
X122993189Y-48452694D01*
X122995512Y-48457676D01*
X122998668Y-48462183D01*
X122998669Y-48462185D01*
X123118782Y-48633724D01*
X123123023Y-48639781D01*
X123280219Y-48796977D01*
X123284727Y-48800134D01*
X123284730Y-48800136D01*
X123360495Y-48853187D01*
X123462323Y-48924488D01*
X123467305Y-48926811D01*
X123467310Y-48926814D01*
X123572373Y-48975805D01*
X123625658Y-49022722D01*
X123645119Y-49090999D01*
X123624577Y-49158959D01*
X123572373Y-49204195D01*
X123467311Y-49253186D01*
X123467306Y-49253189D01*
X123462324Y-49255512D01*
X123457817Y-49258668D01*
X123457815Y-49258669D01*
X123284730Y-49379864D01*
X123284727Y-49379866D01*
X123280219Y-49383023D01*
X123123023Y-49540219D01*
X123119866Y-49544727D01*
X123119864Y-49544730D01*
X122998669Y-49717815D01*
X122995512Y-49722324D01*
X122993189Y-49727306D01*
X122993186Y-49727311D01*
X122908000Y-49909993D01*
X122901560Y-49923804D01*
X122844022Y-50138537D01*
X122824647Y-50360000D01*
X122844022Y-50581463D01*
X122901560Y-50796196D01*
X122903882Y-50801177D01*
X122903883Y-50801178D01*
X122993186Y-50992689D01*
X122993189Y-50992694D01*
X122995512Y-50997676D01*
X122998668Y-51002183D01*
X122998669Y-51002185D01*
X123118782Y-51173724D01*
X123123023Y-51179781D01*
X123280219Y-51336977D01*
X123284727Y-51340134D01*
X123284730Y-51340136D01*
X123360495Y-51393187D01*
X123462323Y-51464488D01*
X123467305Y-51466811D01*
X123467310Y-51466814D01*
X123572373Y-51515805D01*
X123625658Y-51562722D01*
X123645119Y-51630999D01*
X123624577Y-51698959D01*
X123572373Y-51744195D01*
X123467311Y-51793186D01*
X123467306Y-51793189D01*
X123462324Y-51795512D01*
X123457817Y-51798668D01*
X123457815Y-51798669D01*
X123284730Y-51919864D01*
X123284727Y-51919866D01*
X123280219Y-51923023D01*
X123123023Y-52080219D01*
X123119866Y-52084727D01*
X123119864Y-52084730D01*
X122998669Y-52257815D01*
X122995512Y-52262324D01*
X122993189Y-52267306D01*
X122993186Y-52267311D01*
X122911638Y-52442192D01*
X122901560Y-52463804D01*
X122844022Y-52678537D01*
X122824647Y-52900000D01*
X122844022Y-53121463D01*
X122901560Y-53336196D01*
X122903882Y-53341177D01*
X122903883Y-53341178D01*
X122993186Y-53532689D01*
X122993189Y-53532694D01*
X122995512Y-53537676D01*
X122998668Y-53542183D01*
X122998669Y-53542185D01*
X123118782Y-53713724D01*
X123123023Y-53719781D01*
X123280219Y-53876977D01*
X123284727Y-53880134D01*
X123284730Y-53880136D01*
X123360495Y-53933187D01*
X123462323Y-54004488D01*
X123467305Y-54006811D01*
X123467310Y-54006814D01*
X123572373Y-54055805D01*
X123625658Y-54102722D01*
X123645119Y-54170999D01*
X123624577Y-54238959D01*
X123572373Y-54284195D01*
X123467311Y-54333186D01*
X123467306Y-54333189D01*
X123462324Y-54335512D01*
X123457817Y-54338668D01*
X123457815Y-54338669D01*
X123284730Y-54459864D01*
X123284727Y-54459866D01*
X123280219Y-54463023D01*
X123123023Y-54620219D01*
X123119866Y-54624727D01*
X123119864Y-54624730D01*
X122998669Y-54797815D01*
X122995512Y-54802324D01*
X122993189Y-54807306D01*
X122993186Y-54807311D01*
X122908000Y-54989993D01*
X122901560Y-55003804D01*
X122844022Y-55218537D01*
X122824647Y-55440000D01*
X122844022Y-55661463D01*
X122901560Y-55876196D01*
X122903882Y-55881177D01*
X122903883Y-55881178D01*
X122993186Y-56072689D01*
X122993189Y-56072694D01*
X122995512Y-56077676D01*
X122998668Y-56082183D01*
X122998669Y-56082185D01*
X123098206Y-56224338D01*
X123123023Y-56259781D01*
X123280219Y-56416977D01*
X123284727Y-56420134D01*
X123284730Y-56420136D01*
X123338584Y-56457845D01*
X123462323Y-56544488D01*
X123467305Y-56546811D01*
X123467310Y-56546814D01*
X123572373Y-56595805D01*
X123625658Y-56642722D01*
X123645119Y-56710999D01*
X123624577Y-56778959D01*
X123572373Y-56824195D01*
X123467311Y-56873186D01*
X123467306Y-56873189D01*
X123462324Y-56875512D01*
X123457817Y-56878668D01*
X123457815Y-56878669D01*
X123284730Y-56999864D01*
X123284727Y-56999866D01*
X123280219Y-57003023D01*
X123123023Y-57160219D01*
X123119866Y-57164727D01*
X123119864Y-57164730D01*
X122998669Y-57337815D01*
X122995512Y-57342324D01*
X122993189Y-57347306D01*
X122993186Y-57347311D01*
X122907229Y-57531646D01*
X122901560Y-57543804D01*
X122844022Y-57758537D01*
X122824647Y-57980000D01*
X122844022Y-58201463D01*
X122901560Y-58416196D01*
X122903882Y-58421177D01*
X122903883Y-58421178D01*
X122993186Y-58612689D01*
X122993189Y-58612694D01*
X122995512Y-58617676D01*
X122998668Y-58622183D01*
X122998669Y-58622185D01*
X123098206Y-58764338D01*
X123123023Y-58799781D01*
X123280219Y-58956977D01*
X123284727Y-58960134D01*
X123284730Y-58960136D01*
X123336541Y-58996414D01*
X123462323Y-59084488D01*
X123467305Y-59086811D01*
X123467310Y-59086814D01*
X123572373Y-59135805D01*
X123625658Y-59182722D01*
X123645119Y-59250999D01*
X123624577Y-59318959D01*
X123572373Y-59364195D01*
X123467311Y-59413186D01*
X123467306Y-59413189D01*
X123462324Y-59415512D01*
X123457817Y-59418668D01*
X123457815Y-59418669D01*
X123284730Y-59539864D01*
X123284727Y-59539866D01*
X123280219Y-59543023D01*
X123123023Y-59700219D01*
X123119866Y-59704727D01*
X123119864Y-59704730D01*
X122998669Y-59877815D01*
X122995512Y-59882324D01*
X122993189Y-59887306D01*
X122993186Y-59887311D01*
X122907229Y-60071646D01*
X122901560Y-60083804D01*
X122844022Y-60298537D01*
X122824647Y-60520000D01*
X122844022Y-60741463D01*
X122901560Y-60956196D01*
X122903882Y-60961177D01*
X122903883Y-60961178D01*
X122993186Y-61152689D01*
X122993189Y-61152694D01*
X122995512Y-61157676D01*
X122998668Y-61162183D01*
X122998669Y-61162185D01*
X123098206Y-61304338D01*
X123123023Y-61339781D01*
X123280219Y-61496977D01*
X123284727Y-61500134D01*
X123284730Y-61500136D01*
X123341412Y-61539825D01*
X123462323Y-61624488D01*
X123467305Y-61626811D01*
X123467310Y-61626814D01*
X123572373Y-61675805D01*
X123625658Y-61722722D01*
X123645119Y-61790999D01*
X123624577Y-61858959D01*
X123572373Y-61904195D01*
X123467311Y-61953186D01*
X123467306Y-61953189D01*
X123462324Y-61955512D01*
X123457817Y-61958668D01*
X123457815Y-61958669D01*
X123284730Y-62079864D01*
X123284727Y-62079866D01*
X123280219Y-62083023D01*
X123123023Y-62240219D01*
X123119866Y-62244727D01*
X123119864Y-62244730D01*
X122998669Y-62417815D01*
X122995512Y-62422324D01*
X122993189Y-62427306D01*
X122993186Y-62427311D01*
X122907229Y-62611646D01*
X122901560Y-62623804D01*
X122844022Y-62838537D01*
X122824647Y-63060000D01*
X122844022Y-63281463D01*
X122901560Y-63496196D01*
X122903882Y-63501177D01*
X122903883Y-63501178D01*
X122920704Y-63537250D01*
X122931365Y-63607441D01*
X122902385Y-63672254D01*
X122842966Y-63711111D01*
X122806509Y-63716500D01*
X111854018Y-63716500D01*
X111786506Y-63696887D01*
X111734608Y-63663951D01*
X111574300Y-63606868D01*
X111405329Y-63586720D01*
X111398326Y-63587456D01*
X111398325Y-63587456D01*
X111243101Y-63603770D01*
X111243097Y-63603771D01*
X111236093Y-63604507D01*
X111229422Y-63606778D01*
X111081673Y-63657075D01*
X111081670Y-63657076D01*
X111075003Y-63659346D01*
X111069005Y-63663036D01*
X111069003Y-63663037D01*
X110936065Y-63744821D01*
X110936063Y-63744823D01*
X110930066Y-63748512D01*
X110925033Y-63753441D01*
X110830331Y-63846181D01*
X110808486Y-63867573D01*
X110804675Y-63873487D01*
X110804673Y-63873489D01*
X110720169Y-64004612D01*
X110716304Y-64010610D01*
X110658103Y-64170516D01*
X110636775Y-64339343D01*
X110653381Y-64508699D01*
X110655605Y-64515384D01*
X110655605Y-64515385D01*
X110670662Y-64560647D01*
X110707094Y-64670167D01*
X110710741Y-64676189D01*
X110710742Y-64676191D01*
X110771690Y-64776827D01*
X110795246Y-64815723D01*
X110913455Y-64938132D01*
X110965602Y-64972256D01*
X111009942Y-65001271D01*
X111055846Y-65031310D01*
X111062450Y-65033766D01*
X111062452Y-65033767D01*
X111098844Y-65047301D01*
X111215341Y-65090626D01*
X111384015Y-65113132D01*
X111391026Y-65112494D01*
X111391030Y-65112494D01*
X111546462Y-65098348D01*
X111553483Y-65097709D01*
X111560185Y-65095531D01*
X111560187Y-65095531D01*
X111708623Y-65047301D01*
X111708626Y-65047300D01*
X111715322Y-65045124D01*
X111721373Y-65041517D01*
X111721375Y-65041516D01*
X111788887Y-65001271D01*
X111853404Y-64983500D01*
X122787856Y-64983500D01*
X122855977Y-65003502D01*
X122902470Y-65057158D01*
X122912574Y-65127432D01*
X122904865Y-65153321D01*
X122905766Y-65153649D01*
X122903883Y-65158822D01*
X122901560Y-65163804D01*
X122844022Y-65378537D01*
X122824647Y-65600000D01*
X122844022Y-65821463D01*
X122900138Y-66030886D01*
X122900674Y-66032888D01*
X122898984Y-66103865D01*
X122859190Y-66162661D01*
X122793926Y-66190609D01*
X122778967Y-66191500D01*
X111814624Y-66191500D01*
X111747110Y-66171885D01*
X111746330Y-66171390D01*
X111734608Y-66163951D01*
X111574300Y-66106868D01*
X111405329Y-66086720D01*
X111398326Y-66087456D01*
X111398325Y-66087456D01*
X111243101Y-66103770D01*
X111243097Y-66103771D01*
X111236093Y-66104507D01*
X111229422Y-66106778D01*
X111081673Y-66157075D01*
X111081670Y-66157076D01*
X111075003Y-66159346D01*
X111069005Y-66163036D01*
X111069003Y-66163037D01*
X110936065Y-66244821D01*
X110936063Y-66244823D01*
X110930066Y-66248512D01*
X110808486Y-66367573D01*
X110804675Y-66373487D01*
X110804673Y-66373489D01*
X110731595Y-66486883D01*
X110716304Y-66510610D01*
X110658103Y-66670516D01*
X110636775Y-66839343D01*
X110653381Y-67008699D01*
X110707094Y-67170167D01*
X110795246Y-67315723D01*
X110913455Y-67438132D01*
X110967790Y-67473688D01*
X111048146Y-67526271D01*
X111055846Y-67531310D01*
X111062450Y-67533766D01*
X111062452Y-67533767D01*
X111116185Y-67553750D01*
X111215341Y-67590626D01*
X111384015Y-67613132D01*
X111391026Y-67612494D01*
X111391030Y-67612494D01*
X111546462Y-67598348D01*
X111553483Y-67597709D01*
X111560185Y-67595531D01*
X111560187Y-67595531D01*
X111708623Y-67547301D01*
X111708626Y-67547300D01*
X111715322Y-67545124D01*
X111746948Y-67526271D01*
X111811466Y-67508500D01*
X122794851Y-67508500D01*
X122862972Y-67528502D01*
X122909465Y-67582158D01*
X122919569Y-67652432D01*
X122909046Y-67687749D01*
X122904096Y-67698365D01*
X122901560Y-67703804D01*
X122900138Y-67709112D01*
X122900137Y-67709114D01*
X122895820Y-67725225D01*
X122844022Y-67918537D01*
X122824647Y-68140000D01*
X122844022Y-68361463D01*
X122845445Y-68366773D01*
X122845446Y-68366776D01*
X122898614Y-68565200D01*
X122901560Y-68576196D01*
X122903882Y-68581176D01*
X122903883Y-68581178D01*
X122906713Y-68587246D01*
X122917376Y-68657438D01*
X122888399Y-68722251D01*
X122828980Y-68761110D01*
X122792520Y-68766500D01*
X111854018Y-68766500D01*
X111786506Y-68746887D01*
X111734608Y-68713951D01*
X111574300Y-68656868D01*
X111405329Y-68636720D01*
X111398326Y-68637456D01*
X111398325Y-68637456D01*
X111243101Y-68653770D01*
X111243097Y-68653771D01*
X111236093Y-68654507D01*
X111229422Y-68656778D01*
X111081673Y-68707075D01*
X111081670Y-68707076D01*
X111075003Y-68709346D01*
X111069005Y-68713036D01*
X111069003Y-68713037D01*
X110936065Y-68794821D01*
X110936063Y-68794823D01*
X110930066Y-68798512D01*
X110914003Y-68814242D01*
X110816332Y-68909890D01*
X110808486Y-68917573D01*
X110804675Y-68923487D01*
X110804673Y-68923489D01*
X110720121Y-69054687D01*
X110716304Y-69060610D01*
X110658103Y-69220516D01*
X110636775Y-69389343D01*
X110653381Y-69558699D01*
X110707094Y-69720167D01*
X110710741Y-69726189D01*
X110710742Y-69726191D01*
X110789553Y-69856322D01*
X110795246Y-69865723D01*
X110913455Y-69988132D01*
X110965602Y-70022256D01*
X111009942Y-70051271D01*
X111055846Y-70081310D01*
X111062450Y-70083766D01*
X111062452Y-70083767D01*
X111098844Y-70097301D01*
X111215341Y-70140626D01*
X111384015Y-70163132D01*
X111391026Y-70162494D01*
X111391030Y-70162494D01*
X111546462Y-70148348D01*
X111553483Y-70147709D01*
X111560185Y-70145531D01*
X111560187Y-70145531D01*
X111708623Y-70097301D01*
X111708626Y-70097300D01*
X111715322Y-70095124D01*
X111721373Y-70091517D01*
X111721375Y-70091516D01*
X111788887Y-70051271D01*
X111853404Y-70033500D01*
X122801846Y-70033500D01*
X122869967Y-70053502D01*
X122916460Y-70107158D01*
X122926564Y-70177432D01*
X122916040Y-70212751D01*
X122901560Y-70243804D01*
X122844022Y-70458537D01*
X122824647Y-70680000D01*
X122844022Y-70901463D01*
X122901560Y-71116196D01*
X122903886Y-71121184D01*
X122904330Y-71122404D01*
X122908834Y-71193258D01*
X122874316Y-71255298D01*
X122811736Y-71288829D01*
X122785929Y-71291500D01*
X111814624Y-71291500D01*
X111747110Y-71271885D01*
X111746330Y-71271390D01*
X111734608Y-71263951D01*
X111574300Y-71206868D01*
X111405329Y-71186720D01*
X111398326Y-71187456D01*
X111398325Y-71187456D01*
X111243101Y-71203770D01*
X111243097Y-71203771D01*
X111236093Y-71204507D01*
X111229422Y-71206778D01*
X111081673Y-71257075D01*
X111081670Y-71257076D01*
X111075003Y-71259346D01*
X111069005Y-71263036D01*
X111069003Y-71263037D01*
X110936065Y-71344821D01*
X110936063Y-71344823D01*
X110930066Y-71348512D01*
X110808486Y-71467573D01*
X110804675Y-71473487D01*
X110804673Y-71473489D01*
X110760266Y-71542395D01*
X110716304Y-71610610D01*
X110658103Y-71770516D01*
X110636775Y-71939343D01*
X99157800Y-71939343D01*
X99175423Y-71881041D01*
X99227627Y-71835805D01*
X99332690Y-71786814D01*
X99332695Y-71786811D01*
X99337677Y-71784488D01*
X99439505Y-71713187D01*
X99515270Y-71660136D01*
X99515273Y-71660134D01*
X99519781Y-71656977D01*
X99676977Y-71499781D01*
X99699530Y-71467573D01*
X99801331Y-71322185D01*
X99801332Y-71322183D01*
X99804488Y-71317676D01*
X99806811Y-71312694D01*
X99806814Y-71312689D01*
X99896117Y-71121178D01*
X99896118Y-71121177D01*
X99898440Y-71116196D01*
X99955978Y-70901463D01*
X99975353Y-70680000D01*
X99955978Y-70458537D01*
X99898440Y-70243804D01*
X99860822Y-70163132D01*
X99806814Y-70047311D01*
X99806811Y-70047306D01*
X99804488Y-70042324D01*
X99798353Y-70033562D01*
X99680136Y-69864730D01*
X99680134Y-69864727D01*
X99676977Y-69860219D01*
X99519781Y-69703023D01*
X99515273Y-69699866D01*
X99515270Y-69699864D01*
X99439505Y-69646813D01*
X99337677Y-69575512D01*
X99332695Y-69573189D01*
X99332690Y-69573186D01*
X99227627Y-69524195D01*
X99174342Y-69477278D01*
X99154881Y-69409001D01*
X99175423Y-69341041D01*
X99227627Y-69295805D01*
X99332690Y-69246814D01*
X99332695Y-69246811D01*
X99337677Y-69244488D01*
X99439505Y-69173187D01*
X99515270Y-69120136D01*
X99515273Y-69120134D01*
X99519781Y-69116977D01*
X99676977Y-68959781D01*
X99701795Y-68924338D01*
X99801331Y-68782185D01*
X99801332Y-68782183D01*
X99804488Y-68777676D01*
X99806811Y-68772694D01*
X99806814Y-68772689D01*
X99896117Y-68581178D01*
X99896118Y-68581177D01*
X99898440Y-68576196D01*
X99901387Y-68565200D01*
X99954554Y-68366776D01*
X99954555Y-68366773D01*
X99955978Y-68361463D01*
X99975353Y-68140000D01*
X99955978Y-67918537D01*
X99904180Y-67725225D01*
X99899863Y-67709114D01*
X99899862Y-67709112D01*
X99898440Y-67703804D01*
X99892771Y-67691646D01*
X99806814Y-67507311D01*
X99806811Y-67507306D01*
X99804488Y-67502324D01*
X99797877Y-67492882D01*
X99680136Y-67324730D01*
X99680134Y-67324727D01*
X99676977Y-67320219D01*
X99519781Y-67163023D01*
X99515273Y-67159866D01*
X99515270Y-67159864D01*
X99366351Y-67055590D01*
X99337677Y-67035512D01*
X99332695Y-67033189D01*
X99332690Y-67033186D01*
X99227627Y-66984195D01*
X99174342Y-66937278D01*
X99154881Y-66869001D01*
X99175423Y-66801041D01*
X99227627Y-66755805D01*
X99332690Y-66706814D01*
X99332695Y-66706811D01*
X99337677Y-66704488D01*
X99439505Y-66633187D01*
X99515270Y-66580136D01*
X99515273Y-66580134D01*
X99519781Y-66576977D01*
X99676977Y-66419781D01*
X99701795Y-66384338D01*
X99801331Y-66242185D01*
X99801332Y-66242183D01*
X99804488Y-66237676D01*
X99806811Y-66232694D01*
X99806814Y-66232689D01*
X99896117Y-66041178D01*
X99896118Y-66041177D01*
X99898440Y-66036196D01*
X99955978Y-65821463D01*
X99975353Y-65600000D01*
X99955978Y-65378537D01*
X99898440Y-65163804D01*
X99888362Y-65142192D01*
X99806814Y-64967311D01*
X99806811Y-64967306D01*
X99804488Y-64962324D01*
X99801331Y-64957815D01*
X99680136Y-64784730D01*
X99680134Y-64784727D01*
X99676977Y-64780219D01*
X99519781Y-64623023D01*
X99515273Y-64619866D01*
X99515270Y-64619864D01*
X99360644Y-64511594D01*
X99337677Y-64495512D01*
X99332695Y-64493189D01*
X99332690Y-64493186D01*
X99227627Y-64444195D01*
X99174342Y-64397278D01*
X99154881Y-64329001D01*
X99175423Y-64261041D01*
X99227627Y-64215805D01*
X99332690Y-64166814D01*
X99332695Y-64166811D01*
X99337677Y-64164488D01*
X99439505Y-64093187D01*
X99515270Y-64040136D01*
X99515273Y-64040134D01*
X99519781Y-64036977D01*
X99676977Y-63879781D01*
X99701795Y-63844338D01*
X99801331Y-63702185D01*
X99801332Y-63702183D01*
X99804488Y-63697676D01*
X99806811Y-63692694D01*
X99806814Y-63692689D01*
X99896117Y-63501178D01*
X99896118Y-63501177D01*
X99898440Y-63496196D01*
X99955978Y-63281463D01*
X99975353Y-63060000D01*
X99955978Y-62838537D01*
X99898440Y-62623804D01*
X99892771Y-62611646D01*
X99806814Y-62427311D01*
X99806811Y-62427306D01*
X99804488Y-62422324D01*
X99801331Y-62417815D01*
X99680136Y-62244730D01*
X99680134Y-62244727D01*
X99676977Y-62240219D01*
X99519781Y-62083023D01*
X99515273Y-62079866D01*
X99515270Y-62079864D01*
X99366351Y-61975590D01*
X99337677Y-61955512D01*
X99332695Y-61953189D01*
X99332690Y-61953186D01*
X99227627Y-61904195D01*
X99174342Y-61857278D01*
X99154881Y-61789001D01*
X99175423Y-61721041D01*
X99227627Y-61675805D01*
X99332690Y-61626814D01*
X99332695Y-61626811D01*
X99337677Y-61624488D01*
X99458588Y-61539825D01*
X99515270Y-61500136D01*
X99515273Y-61500134D01*
X99519781Y-61496977D01*
X99676977Y-61339781D01*
X99701795Y-61304338D01*
X99801331Y-61162185D01*
X99801332Y-61162183D01*
X99804488Y-61157676D01*
X99806811Y-61152694D01*
X99806814Y-61152689D01*
X99896117Y-60961178D01*
X99896118Y-60961177D01*
X99898440Y-60956196D01*
X99955978Y-60741463D01*
X99975353Y-60520000D01*
X99955978Y-60298537D01*
X99898440Y-60083804D01*
X99892771Y-60071646D01*
X99806814Y-59887311D01*
X99806811Y-59887306D01*
X99804488Y-59882324D01*
X99801331Y-59877815D01*
X99680136Y-59704730D01*
X99680134Y-59704727D01*
X99676977Y-59700219D01*
X99519781Y-59543023D01*
X99515273Y-59539866D01*
X99515270Y-59539864D01*
X99421600Y-59474276D01*
X99337677Y-59415512D01*
X99332695Y-59413189D01*
X99332690Y-59413186D01*
X99227627Y-59364195D01*
X99174342Y-59317278D01*
X99154881Y-59249001D01*
X99175423Y-59181041D01*
X99227627Y-59135805D01*
X99332690Y-59086814D01*
X99332695Y-59086811D01*
X99337677Y-59084488D01*
X99463459Y-58996414D01*
X99515270Y-58960136D01*
X99515273Y-58960134D01*
X99519781Y-58956977D01*
X99676977Y-58799781D01*
X99701795Y-58764338D01*
X99801331Y-58622185D01*
X99801332Y-58622183D01*
X99804488Y-58617676D01*
X99806811Y-58612694D01*
X99806814Y-58612689D01*
X99896117Y-58421178D01*
X99896118Y-58421177D01*
X99898440Y-58416196D01*
X99955978Y-58201463D01*
X99975353Y-57980000D01*
X99955978Y-57758537D01*
X99898440Y-57543804D01*
X99892771Y-57531646D01*
X99806814Y-57347311D01*
X99806811Y-57347306D01*
X99804488Y-57342324D01*
X99801331Y-57337815D01*
X99680136Y-57164730D01*
X99680134Y-57164727D01*
X99676977Y-57160219D01*
X99519781Y-57003023D01*
X99515273Y-56999866D01*
X99515270Y-56999864D01*
X99423577Y-56935660D01*
X99337677Y-56875512D01*
X99332695Y-56873189D01*
X99332690Y-56873186D01*
X99227627Y-56824195D01*
X99174342Y-56777278D01*
X99154881Y-56709001D01*
X99175423Y-56641041D01*
X99227627Y-56595805D01*
X99332690Y-56546814D01*
X99332695Y-56546811D01*
X99337677Y-56544488D01*
X99461416Y-56457845D01*
X99515270Y-56420136D01*
X99515273Y-56420134D01*
X99519781Y-56416977D01*
X99676977Y-56259781D01*
X99701795Y-56224338D01*
X99801331Y-56082185D01*
X99801332Y-56082183D01*
X99804488Y-56077676D01*
X99806811Y-56072694D01*
X99806814Y-56072689D01*
X99896117Y-55881178D01*
X99896118Y-55881177D01*
X99898440Y-55876196D01*
X99955978Y-55661463D01*
X99975353Y-55440000D01*
X99955978Y-55218537D01*
X99898440Y-55003804D01*
X99892000Y-54989993D01*
X99806814Y-54807311D01*
X99806811Y-54807306D01*
X99804488Y-54802324D01*
X99801331Y-54797815D01*
X99680136Y-54624730D01*
X99680134Y-54624727D01*
X99676977Y-54620219D01*
X99519781Y-54463023D01*
X99515273Y-54459866D01*
X99515270Y-54459864D01*
X99366351Y-54355590D01*
X99337677Y-54335512D01*
X99332695Y-54333189D01*
X99332690Y-54333186D01*
X99227627Y-54284195D01*
X99174342Y-54237278D01*
X99154881Y-54169001D01*
X99175423Y-54101041D01*
X99227627Y-54055805D01*
X99332690Y-54006814D01*
X99332695Y-54006811D01*
X99337677Y-54004488D01*
X99439505Y-53933187D01*
X99515270Y-53880136D01*
X99515273Y-53880134D01*
X99519781Y-53876977D01*
X99676977Y-53719781D01*
X99681219Y-53713724D01*
X99801331Y-53542185D01*
X99801332Y-53542183D01*
X99804488Y-53537676D01*
X99806811Y-53532694D01*
X99806814Y-53532689D01*
X99896117Y-53341178D01*
X99896118Y-53341177D01*
X99898440Y-53336196D01*
X99955978Y-53121463D01*
X99975353Y-52900000D01*
X99955978Y-52678537D01*
X99898440Y-52463804D01*
X99888362Y-52442192D01*
X99806814Y-52267311D01*
X99806811Y-52267306D01*
X99804488Y-52262324D01*
X99801331Y-52257815D01*
X99680136Y-52084730D01*
X99680134Y-52084727D01*
X99676977Y-52080219D01*
X99519781Y-51923023D01*
X99515273Y-51919866D01*
X99515270Y-51919864D01*
X99366351Y-51815590D01*
X99337677Y-51795512D01*
X99332695Y-51793189D01*
X99332690Y-51793186D01*
X99227627Y-51744195D01*
X99174342Y-51697278D01*
X99154881Y-51629001D01*
X99175423Y-51561041D01*
X99227627Y-51515805D01*
X99332690Y-51466814D01*
X99332695Y-51466811D01*
X99337677Y-51464488D01*
X99439505Y-51393187D01*
X99515270Y-51340136D01*
X99515273Y-51340134D01*
X99519781Y-51336977D01*
X99676977Y-51179781D01*
X99681219Y-51173724D01*
X99801331Y-51002185D01*
X99801332Y-51002183D01*
X99804488Y-50997676D01*
X99806811Y-50992694D01*
X99806814Y-50992689D01*
X99896117Y-50801178D01*
X99896118Y-50801177D01*
X99898440Y-50796196D01*
X99955978Y-50581463D01*
X99975353Y-50360000D01*
X99955978Y-50138537D01*
X99898440Y-49923804D01*
X99892000Y-49909993D01*
X99806814Y-49727311D01*
X99806811Y-49727306D01*
X99804488Y-49722324D01*
X99801331Y-49717815D01*
X99680136Y-49544730D01*
X99680134Y-49544727D01*
X99676977Y-49540219D01*
X99519781Y-49383023D01*
X99515273Y-49379866D01*
X99515270Y-49379864D01*
X99366351Y-49275590D01*
X99337677Y-49255512D01*
X99332695Y-49253189D01*
X99332690Y-49253186D01*
X99227627Y-49204195D01*
X99174342Y-49157278D01*
X99154881Y-49089001D01*
X99175423Y-49021041D01*
X99227627Y-48975805D01*
X99332690Y-48926814D01*
X99332695Y-48926811D01*
X99337677Y-48924488D01*
X99439505Y-48853187D01*
X99515270Y-48800136D01*
X99515273Y-48800134D01*
X99519781Y-48796977D01*
X99676977Y-48639781D01*
X99681219Y-48633724D01*
X99801331Y-48462185D01*
X99801332Y-48462183D01*
X99804488Y-48457676D01*
X99806811Y-48452694D01*
X99806814Y-48452689D01*
X99896117Y-48261178D01*
X99896118Y-48261177D01*
X99898440Y-48256196D01*
X99955978Y-48041463D01*
X99975353Y-47820000D01*
X99955978Y-47598537D01*
X99898440Y-47383804D01*
X99892000Y-47369993D01*
X99806814Y-47187311D01*
X99806811Y-47187306D01*
X99804488Y-47182324D01*
X99801331Y-47177815D01*
X99680136Y-47004730D01*
X99680134Y-47004727D01*
X99676977Y-47000219D01*
X99519781Y-46843023D01*
X99515273Y-46839866D01*
X99515270Y-46839864D01*
X99439505Y-46786813D01*
X99337677Y-46715512D01*
X99332695Y-46713189D01*
X99332690Y-46713186D01*
X99227627Y-46664195D01*
X99174342Y-46617278D01*
X99154881Y-46549001D01*
X99175423Y-46481041D01*
X99227627Y-46435805D01*
X99332690Y-46386814D01*
X99332695Y-46386811D01*
X99337677Y-46384488D01*
X99439505Y-46313187D01*
X99515270Y-46260136D01*
X99515273Y-46260134D01*
X99519781Y-46256977D01*
X99676977Y-46099781D01*
X99681219Y-46093724D01*
X99801331Y-45922185D01*
X99801332Y-45922183D01*
X99804488Y-45917676D01*
X99806811Y-45912694D01*
X99806814Y-45912689D01*
X99896117Y-45721178D01*
X99896118Y-45721177D01*
X99898440Y-45716196D01*
X99955978Y-45501463D01*
X99975353Y-45280000D01*
X99955978Y-45058537D01*
X99898440Y-44843804D01*
X99892000Y-44829993D01*
X99806814Y-44647311D01*
X99806811Y-44647306D01*
X99804488Y-44642324D01*
X99700752Y-44494173D01*
X99680136Y-44464730D01*
X99680134Y-44464727D01*
X99676977Y-44460219D01*
X99519781Y-44303023D01*
X99515273Y-44299866D01*
X99515270Y-44299864D01*
X99429365Y-44239713D01*
X99385037Y-44184256D01*
X99377728Y-44113637D01*
X99409759Y-44050276D01*
X99470960Y-44014291D01*
X99501636Y-44010500D01*
X99510134Y-44010500D01*
X99572316Y-44003745D01*
X99708705Y-43952615D01*
X99825261Y-43865261D01*
X99912615Y-43748705D01*
X99963745Y-43612316D01*
X99970500Y-43550134D01*
X99970500Y-42410277D01*
X99990502Y-42342156D01*
X100044158Y-42295663D01*
X100116861Y-42285933D01*
X100140695Y-42289836D01*
X100181412Y-42296504D01*
X100181419Y-42296505D01*
X100184993Y-42297090D01*
X100358275Y-42305262D01*
X100527931Y-42313263D01*
X100527932Y-42313263D01*
X100531558Y-42313434D01*
X100540415Y-42312830D01*
X100874073Y-42290084D01*
X100874081Y-42290083D01*
X100877704Y-42289836D01*
X100881279Y-42289173D01*
X100881282Y-42289173D01*
X101215279Y-42227270D01*
X101215283Y-42227269D01*
X101218844Y-42226609D01*
X101550456Y-42124592D01*
X101868145Y-41985136D01*
X102112511Y-41842341D01*
X102164560Y-41811926D01*
X102164562Y-41811925D01*
X102167700Y-41810091D01*
X102170609Y-41807907D01*
X102442244Y-41603958D01*
X102442248Y-41603955D01*
X102445151Y-41601775D01*
X102696819Y-41362950D01*
X102919370Y-41096783D01*
X103109853Y-40806799D01*
X103258995Y-40510263D01*
X103264117Y-40500080D01*
X103264120Y-40500072D01*
X103265744Y-40496844D01*
X103384977Y-40171026D01*
X103385822Y-40167504D01*
X103385825Y-40167496D01*
X103465124Y-39837191D01*
X103465125Y-39837187D01*
X103465971Y-39833662D01*
X103466408Y-39830052D01*
X103507316Y-39492004D01*
X103507316Y-39491997D01*
X103507652Y-39489225D01*
X103513599Y-39300000D01*
X103513438Y-39297204D01*
X103493836Y-38957246D01*
X103493835Y-38957241D01*
X103493627Y-38953626D01*
X103476626Y-38856214D01*
X103434600Y-38615415D01*
X103434598Y-38615408D01*
X103433976Y-38611842D01*
X103335437Y-38279180D01*
X103265974Y-38116325D01*
X103200740Y-37963386D01*
X103200738Y-37963383D01*
X103199316Y-37960048D01*
X103149569Y-37872831D01*
X103029208Y-37661816D01*
X103027417Y-37658676D01*
X102822018Y-37379060D01*
X102585842Y-37124904D01*
X102322019Y-36899578D01*
X102082430Y-36738581D01*
X102037046Y-36683986D01*
X102028383Y-36613520D01*
X102059191Y-36549556D01*
X102119690Y-36512403D01*
X102152707Y-36508000D01*
X157751192Y-36508000D01*
X157819313Y-36528002D01*
G37*
G04 #@! TD.AperFunction*
M02*
