M48
; DRILL file {KiCad (6.0.2)} date Wed Sep 28 01:41:12 2022
; FORMAT={-:-/ absolute / metric / decimal}
; #@! TF.CreationDate,2022-09-28T01:41:12+02:00
; #@! TF.GenerationSoftware,Kicad,Pcbnew,(6.0.2)
; #@! TF.FileFunction,Plated,1,2,PTH
FMAT,2
METRIC
; #@! TA.AperFunction,Plated,PTH,ViaDrill
T1C0.300
; #@! TA.AperFunction,Plated,PTH,ViaDrill
T2C0.400
; #@! TA.AperFunction,Plated,PTH,ComponentDrill
T3C0.500
; #@! TA.AperFunction,Plated,PTH,ComponentDrill
T4C0.762
; #@! TA.AperFunction,Plated,PTH,ComponentDrill
T5C1.000
; #@! TA.AperFunction,Plated,PTH,ComponentDrill
T6C1.300
; #@! TA.AperFunction,Plated,PTH,ComponentDrill
T7C2.500
%
G90
G05
T1
X111.4Y-64.35
X111.4Y-66.85
X111.4Y-69.4
X111.4Y-71.95
X111.4Y-78.3
X125.75Y-72.55
X125.8Y-83.0
X129.112Y-83.0
X129.112Y-87.7
X139.639Y-75.1
X140.909Y-75.1
X143.91Y-46.0
X143.91Y-56.275
X143.91Y-58.8
X143.91Y-61.35
X143.91Y-63.9
T2
X131.79Y-76.74
X134.8Y-88.65
X136.5Y-86.25
X138.05Y-88.5
X139.45Y-83.0
X141.55Y-87.4
X142.2Y-79.55
X142.7Y-84.45
X144.25Y-76.1
X145.4Y-88.2
X145.8Y-91.0
X146.0Y-79.75
X147.95Y-82.1
X148.1Y-77.45
X148.6Y-85.6
X149.6Y-90.0
X150.55Y-76.4
X151.4Y-79.15
X151.7Y-86.35
X152.6Y-81.35
X153.2Y-83.5
X155.6Y-88.95
X155.75Y-79.85
X156.2Y-84.55
X159.3Y-43.2
T3
X98.625Y-39.3
X98.625Y-83.7
X99.174Y-37.974
X99.174Y-40.626
X99.174Y-82.374
X99.174Y-85.026
X100.5Y-37.425
X100.5Y-41.175
X100.5Y-81.825
X100.5Y-85.575
X101.826Y-37.974
X101.826Y-40.626
X101.826Y-82.374
X101.826Y-85.026
X102.375Y-39.3
X102.375Y-83.7
X157.525Y-39.3
X157.525Y-96.0
X158.074Y-37.974
X158.074Y-40.626
X158.074Y-94.674
X158.074Y-97.326
X159.4Y-37.425
X159.4Y-41.175
X159.4Y-94.125
X159.4Y-97.875
X160.726Y-37.974
X160.726Y-40.626
X160.726Y-94.674
X160.726Y-97.326
X161.275Y-39.3
X161.275Y-96.0
T4
X98.7Y-42.74
X98.7Y-45.28
X98.7Y-47.82
X98.7Y-50.36
X98.7Y-52.9
X98.7Y-55.44
X98.7Y-57.98
X98.7Y-60.52
X98.7Y-63.06
X98.7Y-65.6
X98.7Y-68.14
X98.7Y-70.68
X98.7Y-73.22
X98.7Y-75.76
X98.7Y-78.3
X124.1Y-42.74
X124.1Y-45.28
X124.1Y-47.82
X124.1Y-50.36
X124.1Y-52.9
X124.1Y-55.44
X124.1Y-57.98
X124.1Y-60.52
X124.1Y-63.06
X124.1Y-65.6
X124.1Y-68.14
X124.1Y-70.68
X124.1Y-73.22
X124.1Y-75.76
X124.1Y-78.3
T5
X99.15Y-90.3
X99.15Y-92.84
X99.15Y-95.38
X129.94Y-47.375
X129.94Y-49.915
X129.94Y-52.455
X129.94Y-54.995
X129.94Y-57.535
X129.94Y-60.075
X129.94Y-62.615
X129.94Y-65.155
X129.94Y-67.695
X132.48Y-47.375
X132.48Y-49.915
X132.48Y-52.455
X132.48Y-54.995
X132.48Y-57.535
X132.48Y-60.075
X132.48Y-62.615
X132.48Y-65.155
X132.48Y-67.695
X155.34Y-47.375
X155.34Y-49.915
X155.34Y-52.455
X155.34Y-54.995
X155.34Y-57.535
X155.34Y-60.075
X155.34Y-62.615
X155.34Y-65.155
X155.34Y-67.695
X157.88Y-47.375
X157.88Y-49.915
X157.88Y-52.455
X157.88Y-54.995
X157.88Y-57.535
X157.88Y-60.075
X157.88Y-62.615
X157.88Y-65.155
X157.88Y-67.695
T6
X107.3Y-94.205
X112.38Y-94.205
T7
X100.5Y-39.3
X100.5Y-83.7
X159.4Y-39.3
X159.4Y-96.0
T0
M30
