M48
METRIC,TZ
T1C0.300
T2C0.400
T3C0.500
T4C0.762
T5C1.000
T6C1.300
T7C2.500
%
G90
G05
T1
X111400Y-64350
X111400Y-66850
X111400Y-69400
X111400Y-71950
X111400Y-78300
X125750Y-72550
X125800Y-83000
X129112Y-83000
X129112Y-87700
X139639Y-75100
X140909Y-75100
X143910Y-46000
X143910Y-56275
X143910Y-58800
X143910Y-61350
X143910Y-63900
T2
X131790Y-76740
X134800Y-88650
X136500Y-86250
X138050Y-88500
X139450Y-83000
X141550Y-87400
X142200Y-79550
X142700Y-84450
X144250Y-76100
X145400Y-88200
X145800Y-91000
X146000Y-79750
X147950Y-82100
X148100Y-77450
X148600Y-85600
X149600Y-90000
X150550Y-76400
X151400Y-79150
X151700Y-86350
X152600Y-81350
X153200Y-83500
X155600Y-88950
X155750Y-79850
X156200Y-84550
X159300Y-43200
T3
X98625Y-39300
X98625Y-83700
X99174Y-37974
X99174Y-40626
X99174Y-82374
X99174Y-85026
X100500Y-37425
X100500Y-41175
X100500Y-81825
X100500Y-85575
X101826Y-37974
X101826Y-40626
X101826Y-82374
X101826Y-85026
X102375Y-39300
X102375Y-83700
X157525Y-39300
X157525Y-96000
X158074Y-37974
X158074Y-40626
X158074Y-94674
X158074Y-97326
X159400Y-37425
X159400Y-41175
X159400Y-94125
X159400Y-97875
X160726Y-37974
X160726Y-40626
X160726Y-94674
X160726Y-97326
X161275Y-39300
X161275Y-96000
T4
X98700Y-42740
X98700Y-45280
X98700Y-47820
X98700Y-50360
X98700Y-52900
X98700Y-55440
X98700Y-57980
X98700Y-60520
X98700Y-63060
X98700Y-65600
X98700Y-68140
X98700Y-70680
X98700Y-73220
X98700Y-75760
X98700Y-78300
X124100Y-42740
X124100Y-45280
X124100Y-47820
X124100Y-50360
X124100Y-52900
X124100Y-55440
X124100Y-57980
X124100Y-60520
X124100Y-63060
X124100Y-65600
X124100Y-68140
X124100Y-70680
X124100Y-73220
X124100Y-75760
X124100Y-78300
T5
X99150Y-90300
X99150Y-92840
X99150Y-95380
X129940Y-47375
X129940Y-49915
X129940Y-52455
X129940Y-54995
X129940Y-57535
X129940Y-60075
X129940Y-62615
X129940Y-65155
X129940Y-67695
X132480Y-47375
X132480Y-49915
X132480Y-52455
X132480Y-54995
X132480Y-57535
X132480Y-60075
X132480Y-62615
X132480Y-65155
X132480Y-67695
X155340Y-47375
X155340Y-49915
X155340Y-52455
X155340Y-54995
X155340Y-57535
X155340Y-60075
X155340Y-62615
X155340Y-65155
X155340Y-67695
X157880Y-47375
X157880Y-49915
X157880Y-52455
X157880Y-54995
X157880Y-57535
X157880Y-60075
X157880Y-62615
X157880Y-65155
X157880Y-67695
T6
X107300Y-94205
X112380Y-94205
T7
X100500Y-39300
X100500Y-83700
X159400Y-39300
X159400Y-96000
T0
M30
