G04 #@! TF.GenerationSoftware,KiCad,Pcbnew,(6.0.2)*
G04 #@! TF.CreationDate,2022-09-28T01:41:44+02:00*
G04 #@! TF.ProjectId,LoRa-Gateway-E220,4c6f5261-2d47-4617-9465-7761792d4532,v1r1a*
G04 #@! TF.SameCoordinates,Original*
G04 #@! TF.FileFunction,Copper,L1,Top*
G04 #@! TF.FilePolarity,Positive*
%FSLAX46Y46*%
G04 Gerber Fmt 4.6, Leading zero omitted, Abs format (unit mm)*
G04 Created by KiCad (PCBNEW (6.0.2)) date 2022-09-28 01:41:44*
%MOMM*%
%LPD*%
G01*
G04 APERTURE LIST*
G04 Aperture macros list*
%AMRoundRect*
0 Rectangle with rounded corners*
0 $1 Rounding radius*
0 $2 $3 $4 $5 $6 $7 $8 $9 X,Y pos of 4 corners*
0 Add a 4 corners polygon primitive as box body*
4,1,4,$2,$3,$4,$5,$6,$7,$8,$9,$2,$3,0*
0 Add four circle primitives for the rounded corners*
1,1,$1+$1,$2,$3*
1,1,$1+$1,$4,$5*
1,1,$1+$1,$6,$7*
1,1,$1+$1,$8,$9*
0 Add four rect primitives between the rounded corners*
20,1,$1+$1,$2,$3,$4,$5,0*
20,1,$1+$1,$4,$5,$6,$7,0*
20,1,$1+$1,$6,$7,$8,$9,0*
20,1,$1+$1,$8,$9,$2,$3,0*%
G04 Aperture macros list end*
G04 #@! TA.AperFunction,ComponentPad*
%ADD10R,1.700000X1.700000*%
G04 #@! TD*
G04 #@! TA.AperFunction,ComponentPad*
%ADD11O,1.700000X1.700000*%
G04 #@! TD*
G04 #@! TA.AperFunction,SMDPad,CuDef*
%ADD12RoundRect,0.250000X0.475000X-0.250000X0.475000X0.250000X-0.475000X0.250000X-0.475000X-0.250000X0*%
G04 #@! TD*
G04 #@! TA.AperFunction,ComponentPad*
%ADD13C,0.800000*%
G04 #@! TD*
G04 #@! TA.AperFunction,ComponentPad*
%ADD14C,5.000000*%
G04 #@! TD*
G04 #@! TA.AperFunction,SMDPad,CuDef*
%ADD15RoundRect,0.250000X-0.262500X-0.450000X0.262500X-0.450000X0.262500X0.450000X-0.262500X0.450000X0*%
G04 #@! TD*
G04 #@! TA.AperFunction,ComponentPad*
%ADD16C,1.700000*%
G04 #@! TD*
G04 #@! TA.AperFunction,SMDPad,CuDef*
%ADD17R,1.000000X1.800000*%
G04 #@! TD*
G04 #@! TA.AperFunction,SMDPad,CuDef*
%ADD18RoundRect,0.250000X-1.450000X0.312500X-1.450000X-0.312500X1.450000X-0.312500X1.450000X0.312500X0*%
G04 #@! TD*
G04 #@! TA.AperFunction,SMDPad,CuDef*
%ADD19RoundRect,0.250000X-0.250000X-0.475000X0.250000X-0.475000X0.250000X0.475000X-0.250000X0.475000X0*%
G04 #@! TD*
G04 #@! TA.AperFunction,ComponentPad*
%ADD20R,2.600000X2.600000*%
G04 #@! TD*
G04 #@! TA.AperFunction,ComponentPad*
%ADD21C,2.600000*%
G04 #@! TD*
G04 #@! TA.AperFunction,ComponentPad*
%ADD22R,1.524000X1.524000*%
G04 #@! TD*
G04 #@! TA.AperFunction,ComponentPad*
%ADD23C,1.524000*%
G04 #@! TD*
G04 #@! TA.AperFunction,ViaPad*
%ADD24C,0.600000*%
G04 #@! TD*
G04 #@! TA.AperFunction,ViaPad*
%ADD25C,0.500000*%
G04 #@! TD*
G04 #@! TA.AperFunction,Conductor*
%ADD26C,0.600000*%
G04 #@! TD*
G04 #@! TA.AperFunction,Conductor*
%ADD27C,0.300000*%
G04 #@! TD*
G04 #@! TA.AperFunction,Conductor*
%ADD28C,0.250000*%
G04 #@! TD*
G04 #@! TA.AperFunction,Conductor*
%ADD29C,1.000000*%
G04 #@! TD*
G04 #@! TA.AperFunction,Conductor*
%ADD30C,0.500000*%
G04 #@! TD*
G04 APERTURE END LIST*
D10*
X99150000Y-90300000D03*
D11*
X99150000Y-92840000D03*
X99150000Y-95380000D03*
D12*
X157850000Y-45100000D03*
X157850000Y-43200000D03*
D13*
X161275000Y-96000000D03*
X159400000Y-97875000D03*
X160725825Y-94674175D03*
D14*
X159400000Y-96000000D03*
D13*
X160725825Y-97325825D03*
X158074175Y-94674175D03*
X159400000Y-94125000D03*
X157525000Y-96000000D03*
X158074175Y-97325825D03*
D15*
X127287500Y-84400000D03*
X129112500Y-84400000D03*
D16*
X157880000Y-47375000D03*
X157880000Y-67695000D03*
X157880000Y-65155000D03*
X129940000Y-67695000D03*
X132480000Y-52455000D03*
X155340000Y-52455000D03*
X132480000Y-57535000D03*
X155340000Y-60075000D03*
X155340000Y-57535000D03*
X132480000Y-60075000D03*
X132480000Y-62615000D03*
X155340000Y-54995000D03*
X129940000Y-62615000D03*
X155340000Y-62615000D03*
X129940000Y-65155000D03*
X155340000Y-67695000D03*
X155340000Y-65155000D03*
X157880000Y-62615000D03*
X157880000Y-60075000D03*
X157880000Y-57535000D03*
X157880000Y-54995000D03*
X157880000Y-52455000D03*
X157880000Y-49915000D03*
X155340000Y-49915000D03*
X155340000Y-47375000D03*
X132480000Y-67695000D03*
X132480000Y-65155000D03*
X129940000Y-60075000D03*
X129940000Y-57535000D03*
X132480000Y-54995000D03*
X129940000Y-54995000D03*
X129940000Y-52455000D03*
X132480000Y-49915000D03*
X129940000Y-49915000D03*
X132480000Y-47375000D03*
X129940000Y-47375000D03*
D13*
X100500000Y-37425000D03*
X100500000Y-41175000D03*
D14*
X100500000Y-39300000D03*
D13*
X101825825Y-37974175D03*
X101825825Y-40625825D03*
X102375000Y-39300000D03*
X98625000Y-39300000D03*
X99174175Y-37974175D03*
X99174175Y-40625825D03*
D17*
X133290000Y-92067500D03*
X134560000Y-92067500D03*
X135830000Y-92067500D03*
X137100000Y-92067500D03*
X138370000Y-92067500D03*
X139640000Y-92067500D03*
X140910000Y-92067500D03*
X142180000Y-92067500D03*
X153380000Y-92067500D03*
X154650000Y-92067500D03*
X155920000Y-92067500D03*
X155920000Y-76467500D03*
X154650000Y-76467500D03*
X153380000Y-76467500D03*
X142180000Y-76467500D03*
X140910000Y-76467500D03*
X139640000Y-76467500D03*
X138370000Y-76467500D03*
X137100000Y-76467500D03*
X135830000Y-76467500D03*
X134560000Y-76467500D03*
X133290000Y-76467500D03*
D15*
X127287500Y-79700000D03*
X129112500Y-79700000D03*
D18*
X117850000Y-89400000D03*
X117850000Y-93675000D03*
D15*
X127287500Y-89100000D03*
X129112500Y-89100000D03*
D19*
X132650000Y-73800000D03*
X134550000Y-73800000D03*
D20*
X107300000Y-94205000D03*
D21*
X112380000Y-94205000D03*
D13*
X158074175Y-40625825D03*
X160725825Y-37974175D03*
X160725825Y-40625825D03*
X159400000Y-37425000D03*
X158074175Y-37974175D03*
X157525000Y-39300000D03*
X161275000Y-39300000D03*
X159400000Y-41175000D03*
D14*
X159400000Y-39300000D03*
D22*
X98700000Y-42740000D03*
D23*
X98700000Y-45280000D03*
X98700000Y-47820000D03*
X98700000Y-50360000D03*
X98700000Y-52900000D03*
X98700000Y-55440000D03*
X98700000Y-57980000D03*
X98700000Y-60520000D03*
X98700000Y-63060000D03*
X98700000Y-65600000D03*
X98700000Y-68140000D03*
X98700000Y-70680000D03*
X98700000Y-73220000D03*
X98700000Y-75760000D03*
X98700000Y-78300000D03*
X124100000Y-78300000D03*
X124100000Y-75760000D03*
X124100000Y-73220000D03*
X124100000Y-70680000D03*
X124100000Y-68140000D03*
X124100000Y-65600000D03*
X124100000Y-63060000D03*
X124100000Y-60520000D03*
X124100000Y-57980000D03*
X124100000Y-55440000D03*
X124100000Y-52900000D03*
X124100000Y-50360000D03*
X124100000Y-47820000D03*
X124100000Y-45280000D03*
X124100000Y-42740000D03*
D13*
X98625000Y-83700000D03*
D14*
X100500000Y-83700000D03*
D13*
X100500000Y-85575000D03*
X102375000Y-83700000D03*
X101825825Y-82374175D03*
X101825825Y-85025825D03*
X99174175Y-85025825D03*
X99174175Y-82374175D03*
X100500000Y-81825000D03*
D24*
X145400000Y-88200000D03*
X156200000Y-84550000D03*
X159300000Y-43200000D03*
X148100000Y-77450000D03*
X141550000Y-87400000D03*
X136500000Y-86250000D03*
X149600000Y-90000000D03*
X153200000Y-83500000D03*
X134800000Y-88650000D03*
X145800000Y-91000000D03*
X147950000Y-82100000D03*
X155600000Y-88950000D03*
X151400000Y-79150000D03*
X142700000Y-84450000D03*
X142200000Y-79550000D03*
X144250000Y-76100000D03*
X131790000Y-76740000D03*
X150550000Y-76400000D03*
X138050000Y-88500000D03*
X151700000Y-86350000D03*
X152600000Y-81350000D03*
X146000000Y-79750000D03*
X148600000Y-85600000D03*
X155750000Y-79850000D03*
X139450000Y-83000000D03*
D25*
X140908750Y-75100000D03*
X111400000Y-71950000D03*
X125750000Y-72550000D03*
X139638750Y-75100000D03*
X111400000Y-64350000D03*
X111400000Y-66850000D03*
X143910000Y-63900000D03*
X111400000Y-69400000D03*
X143910000Y-61350000D03*
X143910000Y-58800000D03*
X143910000Y-56275000D03*
X143910000Y-46000000D03*
X129112500Y-87700000D03*
X111400000Y-78300000D03*
X125800000Y-83000000D03*
X129112500Y-83000000D03*
D26*
X159300000Y-43200000D02*
X157850000Y-43200000D01*
X131750000Y-76700000D02*
X131790000Y-76740000D01*
X132650000Y-73800000D02*
X131750000Y-74700000D01*
X131750000Y-74700000D02*
X131750000Y-76700000D01*
D27*
X102510000Y-71950000D02*
X111400000Y-71950000D01*
X140908750Y-75100000D02*
X140908750Y-76466250D01*
X98700000Y-68140000D02*
X102510000Y-71950000D01*
X140908750Y-76466250D02*
X140910000Y-76467500D01*
X125750000Y-69790000D02*
X125750000Y-72550000D01*
X124100000Y-68140000D02*
X125750000Y-69790000D01*
X139638750Y-75100000D02*
X139638750Y-76460000D01*
D28*
X111400000Y-64350000D02*
X102530000Y-64350000D01*
X102530000Y-64350000D02*
X98700000Y-60520000D01*
D27*
X143910000Y-63900000D02*
X154055000Y-63900000D01*
X102490000Y-66850000D02*
X111400000Y-66850000D01*
X154055000Y-63900000D02*
X155340000Y-62615000D01*
X98700000Y-63060000D02*
X102490000Y-66850000D01*
D28*
X102500000Y-69400000D02*
X98700000Y-65600000D01*
X111400000Y-69400000D02*
X102500000Y-69400000D01*
D27*
X128360000Y-58800000D02*
X124100000Y-63060000D01*
X132480000Y-57535000D02*
X131215000Y-58800000D01*
X131215000Y-58800000D02*
X128360000Y-58800000D01*
X156539511Y-60571855D02*
X155761366Y-61350000D01*
X155761366Y-61350000D02*
X143910000Y-61350000D01*
X155340000Y-52455000D02*
X156539511Y-53654511D01*
X156539511Y-53654511D02*
X156539511Y-60571855D01*
X155340000Y-60075000D02*
X154065000Y-58800000D01*
X154065000Y-58800000D02*
X143910000Y-58800000D01*
D29*
X127287500Y-84400000D02*
X127287500Y-89100000D01*
X127287500Y-79700000D02*
X127287500Y-84400000D01*
X124100000Y-78300000D02*
X125500000Y-79700000D01*
X125500000Y-79700000D02*
X127287500Y-79700000D01*
D27*
X154080000Y-56275000D02*
X155340000Y-57535000D01*
X143925000Y-56275000D02*
X154080000Y-56275000D01*
X127475000Y-56275000D02*
X124100000Y-52900000D01*
X133750000Y-58805000D02*
X133750000Y-57000000D01*
X133750000Y-57000000D02*
X133025000Y-56275000D01*
X133025000Y-56275000D02*
X127475000Y-56275000D01*
X132480000Y-60075000D02*
X133750000Y-58805000D01*
X125300000Y-46480000D02*
X124100000Y-45280000D01*
X133047344Y-53725000D02*
X129400000Y-53725000D01*
X125300000Y-49625000D02*
X125300000Y-46480000D01*
X132480000Y-62615000D02*
X134325000Y-60770000D01*
X134325000Y-55002656D02*
X133047344Y-53725000D01*
X129400000Y-53725000D02*
X125300000Y-49625000D01*
X134325000Y-60770000D02*
X134325000Y-55002656D01*
X143910000Y-46000000D02*
X143910000Y-46010000D01*
X143910000Y-46010000D02*
X152895000Y-54995000D01*
X152895000Y-54995000D02*
X155340000Y-54995000D01*
X97500000Y-93730000D02*
X99150000Y-95380000D01*
X97500000Y-59180000D02*
X97500000Y-93730000D01*
X98700000Y-57980000D02*
X97500000Y-59180000D01*
D30*
X106320000Y-73220000D02*
X98700000Y-73220000D01*
X129112500Y-87700000D02*
X129112500Y-89100000D01*
X129131250Y-89068750D02*
X138370000Y-79830000D01*
X111400000Y-78300000D02*
X106320000Y-73220000D01*
X138370000Y-79830000D02*
X138370000Y-76467500D01*
X129112500Y-83000000D02*
X132200000Y-83000000D01*
X122750000Y-66950000D02*
X122750000Y-79950000D01*
X129112500Y-83000000D02*
X129112500Y-84400000D01*
X124100000Y-65600000D02*
X122750000Y-66950000D01*
X122750000Y-79950000D02*
X125800000Y-83000000D01*
X132200000Y-83000000D02*
X137100000Y-78100000D01*
X137100000Y-78100000D02*
X137100000Y-76467500D01*
X135830000Y-77596522D02*
X135830000Y-76467500D01*
X129131250Y-78901250D02*
X129131250Y-79668750D01*
X124100000Y-73870000D02*
X129131250Y-78901250D01*
X124100000Y-73220000D02*
X124100000Y-73870000D01*
X129112500Y-79700000D02*
X133726522Y-79700000D01*
X133726522Y-79700000D02*
X135830000Y-77596522D01*
G04 #@! TA.AperFunction,Conductor*
G36*
X157819313Y-36528002D02*
G01*
X157865806Y-36581658D01*
X157875910Y-36651932D01*
X157846416Y-36716512D01*
X157818148Y-36740737D01*
X157654279Y-36843532D01*
X157651443Y-36845804D01*
X157651436Y-36845809D01*
X157522478Y-36949124D01*
X157383509Y-37060459D01*
X157139466Y-37307071D01*
X157137225Y-37309929D01*
X157080732Y-37381978D01*
X156925386Y-37580098D01*
X156923493Y-37583187D01*
X156923491Y-37583190D01*
X156878918Y-37655927D01*
X156744105Y-37875921D01*
X156742580Y-37879206D01*
X156742578Y-37879210D01*
X156703505Y-37963386D01*
X156598027Y-38190620D01*
X156489087Y-38520023D01*
X156488351Y-38523578D01*
X156488350Y-38523581D01*
X156419465Y-38856214D01*
X156418730Y-38859764D01*
X156387888Y-39205341D01*
X156387983Y-39208971D01*
X156387983Y-39208972D01*
X156390367Y-39300000D01*
X156396970Y-39552171D01*
X156445856Y-39895660D01*
X156533897Y-40231253D01*
X156659927Y-40554503D01*
X156661624Y-40557708D01*
X156795113Y-40809825D01*
X156822275Y-40861126D01*
X156824325Y-40864109D01*
X156824327Y-40864112D01*
X157016733Y-41144064D01*
X157016739Y-41144071D01*
X157018790Y-41147056D01*
X157246866Y-41408505D01*
X157324371Y-41479029D01*
X157459268Y-41601775D01*
X157503481Y-41642006D01*
X157785233Y-41844466D01*
X157929439Y-41924730D01*
X157984551Y-41955405D01*
X158034346Y-42006011D01*
X158048875Y-42075505D01*
X158023527Y-42141823D01*
X157966349Y-42183908D01*
X157923273Y-42191500D01*
X157324600Y-42191500D01*
X157321354Y-42191837D01*
X157321350Y-42191837D01*
X157225692Y-42201762D01*
X157225688Y-42201763D01*
X157218834Y-42202474D01*
X157212298Y-42204655D01*
X157212296Y-42204655D01*
X157103292Y-42241022D01*
X157051054Y-42258450D01*
X156900652Y-42351522D01*
X156775695Y-42476697D01*
X156682885Y-42627262D01*
X156680581Y-42634209D01*
X156634383Y-42773493D01*
X156627203Y-42795139D01*
X156616500Y-42899600D01*
X156616500Y-43500400D01*
X156616837Y-43503646D01*
X156616837Y-43503650D01*
X156623919Y-43571902D01*
X156627474Y-43606166D01*
X156629655Y-43612702D01*
X156629655Y-43612704D01*
X156666447Y-43722982D01*
X156683450Y-43773946D01*
X156776522Y-43924348D01*
X156901697Y-44049305D01*
X156906235Y-44052102D01*
X156946824Y-44109353D01*
X156950054Y-44180276D01*
X156914428Y-44241687D01*
X156905932Y-44249062D01*
X156895793Y-44257098D01*
X156781261Y-44371829D01*
X156772249Y-44383240D01*
X156687184Y-44521243D01*
X156681037Y-44534424D01*
X156664989Y-44582806D01*
X156664500Y-44596899D01*
X156670711Y-44600000D01*
X159022578Y-44600000D01*
X159036109Y-44596027D01*
X159037090Y-44589201D01*
X159018412Y-44533216D01*
X159012239Y-44520038D01*
X158926937Y-44382193D01*
X158917901Y-44370792D01*
X158803172Y-44256262D01*
X158794238Y-44249206D01*
X158753177Y-44191288D01*
X158749947Y-44120365D01*
X158785574Y-44058954D01*
X158793406Y-44052155D01*
X158799348Y-44048478D01*
X158804525Y-44043292D01*
X158810254Y-44038751D01*
X158811580Y-44040424D01*
X158864625Y-44011402D01*
X158891511Y-44008500D01*
X159237584Y-44008500D01*
X159254248Y-44009607D01*
X159275979Y-44012507D01*
X159275984Y-44012507D01*
X159282961Y-44013438D01*
X159289972Y-44012800D01*
X159289976Y-44012800D01*
X159331516Y-44009019D01*
X159338579Y-44008698D01*
X159338579Y-44008696D01*
X159342088Y-44008500D01*
X159345610Y-44008500D01*
X159349103Y-44008108D01*
X159349106Y-44008108D01*
X159362079Y-44006653D01*
X159380450Y-44004592D01*
X159383050Y-44004329D01*
X159463600Y-43996998D01*
X159469961Y-43994931D01*
X159470501Y-43994809D01*
X159473075Y-43994252D01*
X159473603Y-43994143D01*
X159480255Y-43993397D01*
X159556667Y-43966787D01*
X159559167Y-43965946D01*
X159636108Y-43940947D01*
X159641857Y-43937520D01*
X159642327Y-43937295D01*
X159644715Y-43936181D01*
X159645237Y-43935944D01*
X159651552Y-43933745D01*
X159712270Y-43895805D01*
X159720173Y-43890867D01*
X159722424Y-43889494D01*
X159785856Y-43851680D01*
X159785861Y-43851676D01*
X159791912Y-43848069D01*
X159796751Y-43843460D01*
X159797218Y-43843090D01*
X159799308Y-43841468D01*
X159799687Y-43841180D01*
X159805376Y-43837626D01*
X159862823Y-43780579D01*
X159864684Y-43778769D01*
X159923266Y-43722982D01*
X159926966Y-43717414D01*
X159927328Y-43716963D01*
X159929007Y-43714918D01*
X159929325Y-43714539D01*
X159934082Y-43709815D01*
X159977434Y-43641504D01*
X159978870Y-43639293D01*
X160019742Y-43577775D01*
X160019745Y-43577769D01*
X160023643Y-43571902D01*
X160026021Y-43565642D01*
X160026260Y-43565151D01*
X160027438Y-43562799D01*
X160027684Y-43562321D01*
X160031273Y-43556666D01*
X160058407Y-43480464D01*
X160059317Y-43477993D01*
X160085553Y-43408925D01*
X160085553Y-43408924D01*
X160088055Y-43402338D01*
X160088987Y-43395704D01*
X160089104Y-43395206D01*
X160089728Y-43392663D01*
X160089873Y-43392097D01*
X160092119Y-43385790D01*
X160093682Y-43372689D01*
X160101696Y-43305471D01*
X160102030Y-43302902D01*
X160113299Y-43222717D01*
X160113529Y-43206243D01*
X160113596Y-43205680D01*
X160113544Y-43205182D01*
X160113616Y-43200000D01*
X160110350Y-43170886D01*
X160103866Y-43113076D01*
X160103771Y-43112202D01*
X160095313Y-43031733D01*
X160094636Y-43025288D01*
X160093715Y-43022584D01*
X160093397Y-43019745D01*
X160064609Y-42937077D01*
X160064395Y-42936455D01*
X160052944Y-42902817D01*
X160036182Y-42853579D01*
X160034684Y-42851144D01*
X160033745Y-42848448D01*
X160030320Y-42842966D01*
X159987375Y-42774237D01*
X159986913Y-42773493D01*
X159969676Y-42745475D01*
X159941138Y-42699088D01*
X159939141Y-42697049D01*
X159937626Y-42694624D01*
X159875941Y-42632507D01*
X159875324Y-42631881D01*
X159818749Y-42574109D01*
X159814229Y-42569493D01*
X159811830Y-42567947D01*
X159809815Y-42565918D01*
X159736622Y-42519469D01*
X159689823Y-42466080D01*
X159679317Y-42395865D01*
X159708440Y-42331116D01*
X159767946Y-42292392D01*
X159781173Y-42289193D01*
X159798763Y-42285933D01*
X159947047Y-42258450D01*
X160115279Y-42227270D01*
X160115283Y-42227269D01*
X160118844Y-42226609D01*
X160450456Y-42124592D01*
X160768145Y-41985136D01*
X161012511Y-41842341D01*
X161064560Y-41811926D01*
X161064562Y-41811925D01*
X161067700Y-41810091D01*
X161070609Y-41807907D01*
X161342244Y-41603958D01*
X161342248Y-41603955D01*
X161345151Y-41601775D01*
X161596819Y-41362950D01*
X161669337Y-41276220D01*
X161728378Y-41236791D01*
X161799364Y-41235541D01*
X161859757Y-41272867D01*
X161890382Y-41336918D01*
X161892000Y-41357043D01*
X161892000Y-93941293D01*
X161871998Y-94009414D01*
X161818342Y-94055907D01*
X161748068Y-94066011D01*
X161683488Y-94036517D01*
X161673713Y-94027077D01*
X161485842Y-93824904D01*
X161222019Y-93599578D01*
X160934047Y-93406069D01*
X160625741Y-93246940D01*
X160301189Y-93124302D01*
X160297668Y-93123418D01*
X160297663Y-93123416D01*
X160136378Y-93082904D01*
X159964692Y-93039780D01*
X159942476Y-93036855D01*
X159624315Y-92994968D01*
X159624307Y-92994967D01*
X159620711Y-92994494D01*
X159476045Y-92992221D01*
X159277446Y-92989101D01*
X159277442Y-92989101D01*
X159273804Y-92989044D01*
X159270190Y-92989405D01*
X159270184Y-92989405D01*
X159041660Y-93012215D01*
X158928569Y-93023503D01*
X158589583Y-93097414D01*
X158586156Y-93098587D01*
X158586150Y-93098589D01*
X158365876Y-93174006D01*
X158261339Y-93209797D01*
X157948188Y-93359163D01*
X157946828Y-93360016D01*
X157877902Y-93375220D01*
X157811310Y-93350602D01*
X157768599Y-93293890D01*
X157763328Y-93223090D01*
X157785658Y-93174006D01*
X157823529Y-93123416D01*
X157883779Y-93042932D01*
X157885355Y-93040663D01*
X157903822Y-93014064D01*
X157904461Y-93013144D01*
X157914180Y-92998021D01*
X157932684Y-92966834D01*
X157992732Y-92856866D01*
X158060250Y-92733216D01*
X158060257Y-92733202D01*
X158060805Y-92732199D01*
X158077032Y-92699784D01*
X158084498Y-92683437D01*
X158098381Y-92649921D01*
X158171062Y-92455057D01*
X158191414Y-92400490D01*
X158191416Y-92400485D01*
X158191810Y-92399428D01*
X158203269Y-92364997D01*
X158208332Y-92347751D01*
X158217294Y-92312637D01*
X158274119Y-92051416D01*
X158274433Y-92049679D01*
X158280353Y-92016859D01*
X158280555Y-92015742D01*
X158283113Y-91997954D01*
X158286992Y-91961884D01*
X158306385Y-91690726D01*
X158307355Y-91672618D01*
X158307676Y-91663630D01*
X158308000Y-91645499D01*
X158308000Y-77164501D01*
X158307676Y-77146370D01*
X158307355Y-77137382D01*
X158306385Y-77119274D01*
X158293358Y-76937126D01*
X158293357Y-76937122D01*
X158286990Y-76848107D01*
X158283114Y-76812049D01*
X158280557Y-76794266D01*
X158274119Y-76758584D01*
X158234242Y-76575270D01*
X158217529Y-76498444D01*
X158217293Y-76497359D01*
X158208329Y-76462237D01*
X158203266Y-76444992D01*
X158191809Y-76410569D01*
X158187001Y-76397676D01*
X158098768Y-76161117D01*
X158098381Y-76160079D01*
X158097957Y-76159055D01*
X158084928Y-76127600D01*
X158084919Y-76127579D01*
X158084498Y-76126563D01*
X158077032Y-76110216D01*
X158060805Y-76077801D01*
X158060250Y-76076784D01*
X157933225Y-75844156D01*
X157933215Y-75844138D01*
X157932684Y-75843166D01*
X157914180Y-75811979D01*
X157904461Y-75796856D01*
X157883779Y-75767068D01*
X157801960Y-75657771D01*
X157724243Y-75553953D01*
X157724229Y-75553935D01*
X157723571Y-75553056D01*
X157716286Y-75544016D01*
X157701524Y-75525698D01*
X157701514Y-75525686D01*
X157700808Y-75524810D01*
X157700065Y-75523952D01*
X157700062Y-75523949D01*
X157689787Y-75512092D01*
X157689035Y-75511224D01*
X157664334Y-75484694D01*
X157502304Y-75322664D01*
X157489255Y-75310072D01*
X157482672Y-75303943D01*
X157469187Y-75291830D01*
X157347550Y-75213655D01*
X157282970Y-75184161D01*
X157278658Y-75182895D01*
X157278653Y-75182893D01*
X157152870Y-75145960D01*
X157152869Y-75145960D01*
X157144226Y-75143422D01*
X156999634Y-75143422D01*
X156964810Y-75148429D01*
X156933816Y-75152885D01*
X156933812Y-75152886D01*
X156929360Y-75153526D01*
X156925048Y-75154792D01*
X156925044Y-75154793D01*
X156904679Y-75160773D01*
X156836328Y-75180843D01*
X156765332Y-75180843D01*
X156725265Y-75160773D01*
X156673892Y-75122271D01*
X156673890Y-75122270D01*
X156666705Y-75116885D01*
X156530316Y-75065755D01*
X156468134Y-75059000D01*
X155371866Y-75059000D01*
X155368469Y-75059369D01*
X155317536Y-75064902D01*
X155309684Y-75065755D01*
X155309679Y-75065707D01*
X155260321Y-75065707D01*
X155260316Y-75065755D01*
X155259874Y-75065707D01*
X155252464Y-75064902D01*
X155201531Y-75059369D01*
X155198134Y-75059000D01*
X154101866Y-75059000D01*
X154098469Y-75059369D01*
X154047536Y-75064902D01*
X154039684Y-75065755D01*
X154039679Y-75065707D01*
X153990321Y-75065707D01*
X153990316Y-75065755D01*
X153989874Y-75065707D01*
X153982464Y-75064902D01*
X153931531Y-75059369D01*
X153928134Y-75059000D01*
X152977283Y-75059000D01*
X152909162Y-75038998D01*
X152871285Y-75001121D01*
X152864132Y-74989991D01*
X152806935Y-74900990D01*
X152760442Y-74847334D01*
X152651166Y-74752645D01*
X152641659Y-74748303D01*
X152535771Y-74699946D01*
X152519640Y-74692579D01*
X152493549Y-74684918D01*
X152455842Y-74673846D01*
X152455838Y-74673845D01*
X152451519Y-74672577D01*
X152447071Y-74671937D01*
X152447064Y-74671936D01*
X152312848Y-74652639D01*
X152312841Y-74652638D01*
X152308400Y-74652000D01*
X143251600Y-74652000D01*
X143249942Y-74652090D01*
X143249925Y-74652090D01*
X143214947Y-74653979D01*
X143196883Y-74654955D01*
X143195194Y-74655138D01*
X143171582Y-74657696D01*
X143171578Y-74657697D01*
X143169894Y-74657879D01*
X143115792Y-74666716D01*
X143109986Y-74668893D01*
X143109981Y-74668894D01*
X143018540Y-74703176D01*
X142980402Y-74717474D01*
X142918147Y-74751604D01*
X142914555Y-74754302D01*
X142914554Y-74754303D01*
X142809750Y-74833032D01*
X142809748Y-74833034D01*
X142802549Y-74838442D01*
X142797162Y-74845663D01*
X142797161Y-74845664D01*
X142738543Y-74924240D01*
X142716091Y-74954337D01*
X142713939Y-74958294D01*
X142713935Y-74958300D01*
X142694952Y-74993202D01*
X142644833Y-75043488D01*
X142584265Y-75059000D01*
X141780108Y-75059000D01*
X141711987Y-75038998D01*
X141665494Y-74985342D01*
X141654893Y-74947047D01*
X141653866Y-74937888D01*
X141653865Y-74937885D01*
X141653081Y-74930892D01*
X141597118Y-74770189D01*
X141591133Y-74760610D01*
X141536915Y-74673846D01*
X141506942Y-74625879D01*
X141482786Y-74601553D01*
X141431513Y-74549921D01*
X141387036Y-74505132D01*
X141370789Y-74494821D01*
X141279061Y-74436609D01*
X141243358Y-74413951D01*
X141083050Y-74356868D01*
X140914079Y-74336720D01*
X140907076Y-74337456D01*
X140907075Y-74337456D01*
X140751851Y-74353770D01*
X140751847Y-74353771D01*
X140744843Y-74354507D01*
X140738172Y-74356778D01*
X140590423Y-74407075D01*
X140590420Y-74407076D01*
X140583753Y-74409346D01*
X140577755Y-74413036D01*
X140577753Y-74413037D01*
X140444815Y-74494821D01*
X140444813Y-74494823D01*
X140438816Y-74498512D01*
X140361743Y-74573988D01*
X140299081Y-74607358D01*
X140228322Y-74601553D01*
X140184181Y-74572748D01*
X140161513Y-74549921D01*
X140117036Y-74505132D01*
X140100789Y-74494821D01*
X140009061Y-74436609D01*
X139973358Y-74413951D01*
X139813050Y-74356868D01*
X139644079Y-74336720D01*
X139637076Y-74337456D01*
X139637075Y-74337456D01*
X139481851Y-74353770D01*
X139481847Y-74353771D01*
X139474843Y-74354507D01*
X139468172Y-74356778D01*
X139320423Y-74407075D01*
X139320420Y-74407076D01*
X139313753Y-74409346D01*
X139307755Y-74413036D01*
X139307753Y-74413037D01*
X139174815Y-74494821D01*
X139174813Y-74494823D01*
X139168816Y-74498512D01*
X139162056Y-74505132D01*
X139058559Y-74606485D01*
X139047236Y-74617573D01*
X139043425Y-74623487D01*
X139043423Y-74623489D01*
X138958871Y-74754687D01*
X138955054Y-74760610D01*
X138896853Y-74920516D01*
X138893280Y-74948796D01*
X138864900Y-75013868D01*
X138805840Y-75053270D01*
X138768275Y-75059000D01*
X137821866Y-75059000D01*
X137818469Y-75059369D01*
X137767536Y-75064902D01*
X137759684Y-75065755D01*
X137759679Y-75065707D01*
X137710321Y-75065707D01*
X137710316Y-75065755D01*
X137709874Y-75065707D01*
X137702464Y-75064902D01*
X137651531Y-75059369D01*
X137648134Y-75059000D01*
X136551866Y-75059000D01*
X136548469Y-75059369D01*
X136497536Y-75064902D01*
X136489684Y-75065755D01*
X136489679Y-75065707D01*
X136440321Y-75065707D01*
X136440316Y-75065755D01*
X136439874Y-75065707D01*
X136432464Y-75064902D01*
X136381531Y-75059369D01*
X136378134Y-75059000D01*
X135392259Y-75059000D01*
X135324138Y-75038998D01*
X135277645Y-74985342D01*
X135267541Y-74915068D01*
X135297035Y-74850488D01*
X135303086Y-74843982D01*
X135393739Y-74753171D01*
X135402751Y-74741760D01*
X135487816Y-74603757D01*
X135493963Y-74590576D01*
X135545138Y-74436290D01*
X135548005Y-74422914D01*
X135557672Y-74328562D01*
X135558000Y-74322146D01*
X135558000Y-74318115D01*
X135553525Y-74302876D01*
X135552135Y-74301671D01*
X135544452Y-74300000D01*
X135068115Y-74300000D01*
X135052876Y-74304475D01*
X135051671Y-74305865D01*
X135050000Y-74313548D01*
X135050000Y-74972579D01*
X135059238Y-75004042D01*
X135061463Y-75066321D01*
X135057121Y-75086282D01*
X135055697Y-75085972D01*
X135039998Y-75139438D01*
X135009569Y-75172140D01*
X134966739Y-75204239D01*
X134879385Y-75320795D01*
X134828255Y-75457184D01*
X134821500Y-75519366D01*
X134821500Y-76841500D01*
X134801498Y-76909621D01*
X134747842Y-76956114D01*
X134695500Y-76967500D01*
X134424500Y-76967500D01*
X134356379Y-76947498D01*
X134309886Y-76893842D01*
X134298500Y-76841500D01*
X134298500Y-75519366D01*
X134291745Y-75457184D01*
X134240615Y-75320795D01*
X134153261Y-75204239D01*
X134109801Y-75171667D01*
X134067286Y-75114810D01*
X134064469Y-75106339D01*
X134049566Y-75055582D01*
X134049567Y-75001885D01*
X134048517Y-75001792D01*
X134049567Y-74989991D01*
X134049567Y-74984585D01*
X134050000Y-74983483D01*
X134050000Y-73281885D01*
X135050000Y-73281885D01*
X135054475Y-73297124D01*
X135055865Y-73298329D01*
X135063548Y-73300000D01*
X135539884Y-73300000D01*
X135555123Y-73295525D01*
X135556328Y-73294135D01*
X135557999Y-73286452D01*
X135557999Y-73277905D01*
X135557662Y-73271386D01*
X135547743Y-73175794D01*
X135544851Y-73162400D01*
X135493412Y-73008216D01*
X135487239Y-72995038D01*
X135401937Y-72857193D01*
X135392901Y-72845792D01*
X135278171Y-72731261D01*
X135266760Y-72722249D01*
X135128757Y-72637184D01*
X135115576Y-72631037D01*
X135067194Y-72614989D01*
X135053101Y-72614500D01*
X135050000Y-72620711D01*
X135050000Y-73281885D01*
X134050000Y-73281885D01*
X134050000Y-72627422D01*
X134046027Y-72613891D01*
X134039201Y-72612910D01*
X133983216Y-72631588D01*
X133970038Y-72637761D01*
X133832193Y-72723063D01*
X133820792Y-72732099D01*
X133706262Y-72846828D01*
X133699206Y-72855762D01*
X133641288Y-72896823D01*
X133570365Y-72900053D01*
X133508954Y-72864426D01*
X133502154Y-72856593D01*
X133498478Y-72850652D01*
X133373303Y-72725695D01*
X133316411Y-72690626D01*
X133228968Y-72636725D01*
X133228966Y-72636724D01*
X133222738Y-72632885D01*
X133062254Y-72579655D01*
X133061389Y-72579368D01*
X133061387Y-72579368D01*
X133054861Y-72577203D01*
X133048025Y-72576503D01*
X133048022Y-72576502D01*
X133004969Y-72572091D01*
X132950400Y-72566500D01*
X132349600Y-72566500D01*
X132346354Y-72566837D01*
X132346350Y-72566837D01*
X132250692Y-72576762D01*
X132250688Y-72576763D01*
X132243834Y-72577474D01*
X132237298Y-72579655D01*
X132237296Y-72579655D01*
X132150838Y-72608500D01*
X132076054Y-72633450D01*
X131925652Y-72726522D01*
X131800695Y-72851697D01*
X131707885Y-73002262D01*
X131705581Y-73009209D01*
X131656233Y-73157990D01*
X131652203Y-73170139D01*
X131641500Y-73274600D01*
X131641500Y-73612918D01*
X131621498Y-73681039D01*
X131604595Y-73702014D01*
X131184796Y-74121812D01*
X131183859Y-74122739D01*
X131119493Y-74185771D01*
X131096002Y-74222221D01*
X131088583Y-74232546D01*
X131061524Y-74266443D01*
X131058459Y-74272784D01*
X131058458Y-74272785D01*
X131046928Y-74296637D01*
X131039399Y-74310054D01*
X131021235Y-74338238D01*
X131018827Y-74344855D01*
X131018824Y-74344860D01*
X131006408Y-74378973D01*
X131001447Y-74390716D01*
X130985646Y-74423403D01*
X130985644Y-74423408D01*
X130982579Y-74429749D01*
X130980996Y-74436607D01*
X130980995Y-74436609D01*
X130975035Y-74462426D01*
X130970668Y-74477169D01*
X130959197Y-74508685D01*
X130958314Y-74515675D01*
X130958312Y-74515683D01*
X130953762Y-74551701D01*
X130951526Y-74564253D01*
X130941776Y-74606485D01*
X130941751Y-74613531D01*
X130941751Y-74613534D01*
X130941634Y-74647056D01*
X130941605Y-74647938D01*
X130941500Y-74648769D01*
X130941500Y-74685419D01*
X130941499Y-74685859D01*
X130941205Y-74770189D01*
X130941143Y-74787870D01*
X130941411Y-74789070D01*
X130941500Y-74790707D01*
X130941500Y-75428989D01*
X130921498Y-75497110D01*
X130910723Y-75511503D01*
X130899935Y-75523952D01*
X130899921Y-75523968D01*
X130899192Y-75524810D01*
X130898487Y-75525685D01*
X130898476Y-75525698D01*
X130883714Y-75544016D01*
X130876429Y-75553056D01*
X130875771Y-75553935D01*
X130875757Y-75553953D01*
X130798040Y-75657771D01*
X130716221Y-75767068D01*
X130695539Y-75796856D01*
X130685820Y-75811979D01*
X130667316Y-75843166D01*
X130666785Y-75844138D01*
X130666775Y-75844156D01*
X130539750Y-76076784D01*
X130539195Y-76077801D01*
X130522968Y-76110216D01*
X130515502Y-76126563D01*
X130515081Y-76127579D01*
X130515072Y-76127600D01*
X130502043Y-76159055D01*
X130501619Y-76160079D01*
X130501232Y-76161117D01*
X130413000Y-76397676D01*
X130408191Y-76410569D01*
X130396734Y-76444992D01*
X130391671Y-76462237D01*
X130382707Y-76497359D01*
X130382471Y-76498444D01*
X130365759Y-76575270D01*
X130325881Y-76758584D01*
X130319443Y-76794266D01*
X130316886Y-76812049D01*
X130313010Y-76848107D01*
X130306643Y-76937122D01*
X130306642Y-76937126D01*
X130293615Y-77119274D01*
X130292645Y-77137382D01*
X130292324Y-77146370D01*
X130292000Y-77164501D01*
X130292000Y-78815500D01*
X130271998Y-78883621D01*
X130218342Y-78930114D01*
X130166000Y-78941500D01*
X130146311Y-78941500D01*
X130078190Y-78921498D01*
X130039167Y-78881804D01*
X130033741Y-78873036D01*
X129973478Y-78775652D01*
X129868484Y-78670841D01*
X129837635Y-78620499D01*
X129827858Y-78590317D01*
X129827857Y-78590314D01*
X129825601Y-78583351D01*
X129821802Y-78577090D01*
X129819292Y-78571609D01*
X129816581Y-78566195D01*
X129814083Y-78559313D01*
X129810070Y-78553192D01*
X129774064Y-78498274D01*
X129771717Y-78494555D01*
X129733845Y-78432143D01*
X129726447Y-78423766D01*
X129726474Y-78423742D01*
X129723821Y-78420750D01*
X129721118Y-78417517D01*
X129717106Y-78411398D01*
X129660867Y-78358122D01*
X129658425Y-78355744D01*
X125252839Y-73950158D01*
X125218813Y-73887846D01*
X125223878Y-73817031D01*
X125227734Y-73807825D01*
X125281868Y-73691734D01*
X125296117Y-73661178D01*
X125296118Y-73661177D01*
X125298440Y-73656196D01*
X125355978Y-73441463D01*
X125360940Y-73384741D01*
X125386803Y-73318623D01*
X125444306Y-73276983D01*
X125515193Y-73273042D01*
X125530379Y-73277624D01*
X125565341Y-73290626D01*
X125734015Y-73313132D01*
X125741026Y-73312494D01*
X125741030Y-73312494D01*
X125896462Y-73298348D01*
X125903483Y-73297709D01*
X125910185Y-73295531D01*
X125910187Y-73295531D01*
X126058623Y-73247301D01*
X126058626Y-73247300D01*
X126065322Y-73245124D01*
X126211490Y-73157990D01*
X126216584Y-73153139D01*
X126216588Y-73153136D01*
X126283833Y-73089099D01*
X126334721Y-73040639D01*
X126428891Y-72898902D01*
X126489319Y-72739825D01*
X126491495Y-72724345D01*
X126496255Y-72690468D01*
X126513001Y-72571313D01*
X126513299Y-72550000D01*
X126494331Y-72380892D01*
X126438368Y-72220189D01*
X126434636Y-72214217D01*
X126434631Y-72214206D01*
X126427646Y-72203028D01*
X126408500Y-72136259D01*
X126408500Y-69872056D01*
X126409059Y-69860200D01*
X126409059Y-69860197D01*
X126410788Y-69852463D01*
X126408562Y-69781631D01*
X126408500Y-69777673D01*
X126408500Y-69748568D01*
X126407944Y-69744168D01*
X126407012Y-69732330D01*
X126405811Y-69694094D01*
X126405562Y-69686169D01*
X126399580Y-69665579D01*
X126395570Y-69646216D01*
X126393875Y-69632796D01*
X126393875Y-69632795D01*
X126392882Y-69624936D01*
X126389966Y-69617571D01*
X126389965Y-69617567D01*
X126375874Y-69581979D01*
X126372035Y-69570769D01*
X126359145Y-69526400D01*
X126348229Y-69507943D01*
X126339534Y-69490193D01*
X126331635Y-69470244D01*
X126304477Y-69432864D01*
X126297960Y-69422943D01*
X126294662Y-69417366D01*
X126274452Y-69383193D01*
X126259291Y-69368032D01*
X126246449Y-69352997D01*
X126233841Y-69335643D01*
X126227737Y-69330593D01*
X126227735Y-69330591D01*
X126198243Y-69306193D01*
X126189465Y-69298205D01*
X125385597Y-68494338D01*
X125351572Y-68432025D01*
X125352985Y-68372633D01*
X125354553Y-68366781D01*
X125354554Y-68366778D01*
X125355978Y-68361463D01*
X125375353Y-68140000D01*
X125355978Y-67918537D01*
X125298440Y-67703804D01*
X125290174Y-67686078D01*
X125206814Y-67507311D01*
X125206811Y-67507306D01*
X125204488Y-67502324D01*
X125194892Y-67488619D01*
X125080136Y-67324730D01*
X125080134Y-67324727D01*
X125076977Y-67320219D01*
X124919781Y-67163023D01*
X124915273Y-67159866D01*
X124915270Y-67159864D01*
X124766351Y-67055590D01*
X124737677Y-67035512D01*
X124732695Y-67033189D01*
X124732690Y-67033186D01*
X124627627Y-66984195D01*
X124574342Y-66937278D01*
X124554881Y-66869001D01*
X124575423Y-66801041D01*
X124627627Y-66755805D01*
X124732690Y-66706814D01*
X124732695Y-66706811D01*
X124737677Y-66704488D01*
X124839505Y-66633187D01*
X124915270Y-66580136D01*
X124915273Y-66580134D01*
X124919781Y-66576977D01*
X125076977Y-66419781D01*
X125092878Y-66397073D01*
X125201331Y-66242185D01*
X125201332Y-66242183D01*
X125204488Y-66237676D01*
X125206811Y-66232694D01*
X125206814Y-66232689D01*
X125296117Y-66041178D01*
X125296118Y-66041177D01*
X125298440Y-66036196D01*
X125355978Y-65821463D01*
X125375353Y-65600000D01*
X125355978Y-65378537D01*
X125298440Y-65163804D01*
X125292771Y-65151646D01*
X125206814Y-64967311D01*
X125206811Y-64967306D01*
X125204488Y-64962324D01*
X125188772Y-64939879D01*
X125080136Y-64784730D01*
X125080134Y-64784727D01*
X125076977Y-64780219D01*
X124919781Y-64623023D01*
X124915273Y-64619866D01*
X124915270Y-64619864D01*
X124766351Y-64515590D01*
X124737677Y-64495512D01*
X124732695Y-64493189D01*
X124732690Y-64493186D01*
X124627627Y-64444195D01*
X124574342Y-64397278D01*
X124554881Y-64329001D01*
X124575423Y-64261041D01*
X124627627Y-64215805D01*
X124632605Y-64213484D01*
X124642217Y-64209002D01*
X124732690Y-64166814D01*
X124732695Y-64166811D01*
X124737677Y-64164488D01*
X124839505Y-64093187D01*
X124915270Y-64040136D01*
X124915273Y-64040134D01*
X124919781Y-64036977D01*
X125076977Y-63879781D01*
X125101795Y-63844338D01*
X125201331Y-63702185D01*
X125201332Y-63702183D01*
X125204488Y-63697676D01*
X125206811Y-63692694D01*
X125206814Y-63692689D01*
X125296117Y-63501178D01*
X125296118Y-63501177D01*
X125298440Y-63496196D01*
X125355978Y-63281463D01*
X125375353Y-63060000D01*
X125355978Y-62838537D01*
X125352987Y-62827374D01*
X125354673Y-62756398D01*
X125385597Y-62705663D01*
X128389539Y-59701721D01*
X128451851Y-59667695D01*
X128522666Y-59672760D01*
X128579502Y-59715307D01*
X128604313Y-59781827D01*
X128602401Y-59814434D01*
X128602374Y-59814577D01*
X128600989Y-59819570D01*
X128577251Y-60041695D01*
X128577548Y-60046848D01*
X128577548Y-60046851D01*
X128583011Y-60141590D01*
X128590110Y-60264715D01*
X128591247Y-60269761D01*
X128591248Y-60269767D01*
X128597732Y-60298537D01*
X128639222Y-60482639D01*
X128688408Y-60603770D01*
X128715108Y-60669524D01*
X128723266Y-60689616D01*
X128762378Y-60753441D01*
X128837291Y-60875688D01*
X128839987Y-60880088D01*
X128986250Y-61048938D01*
X129158126Y-61191632D01*
X129177924Y-61203201D01*
X129231445Y-61234476D01*
X129280169Y-61286114D01*
X129293240Y-61355897D01*
X129266509Y-61421669D01*
X129226055Y-61455027D01*
X129213607Y-61461507D01*
X129209474Y-61464610D01*
X129209471Y-61464612D01*
X129160088Y-61501690D01*
X129034965Y-61595635D01*
X128880629Y-61757138D01*
X128877720Y-61761403D01*
X128877714Y-61761411D01*
X128848647Y-61804022D01*
X128754743Y-61941680D01*
X128739003Y-61975590D01*
X128675591Y-62112200D01*
X128660688Y-62144305D01*
X128600989Y-62359570D01*
X128577251Y-62581695D01*
X128577548Y-62586848D01*
X128577548Y-62586851D01*
X128583011Y-62681590D01*
X128590110Y-62804715D01*
X128591247Y-62809761D01*
X128591248Y-62809767D01*
X128597732Y-62838537D01*
X128639222Y-63022639D01*
X128677461Y-63116811D01*
X128718440Y-63217730D01*
X128723266Y-63229616D01*
X128761885Y-63292636D01*
X128837291Y-63415688D01*
X128839987Y-63420088D01*
X128986250Y-63588938D01*
X129158126Y-63731632D01*
X129198342Y-63755132D01*
X129231445Y-63774476D01*
X129280169Y-63826114D01*
X129293240Y-63895897D01*
X129266509Y-63961669D01*
X129226055Y-63995027D01*
X129213607Y-64001507D01*
X129209474Y-64004610D01*
X129209471Y-64004612D01*
X129146769Y-64051690D01*
X129034965Y-64135635D01*
X128880629Y-64297138D01*
X128877720Y-64301403D01*
X128877714Y-64301411D01*
X128848647Y-64344022D01*
X128754743Y-64481680D01*
X128710836Y-64576271D01*
X128670949Y-64662200D01*
X128660688Y-64684305D01*
X128600989Y-64899570D01*
X128577251Y-65121695D01*
X128577548Y-65126848D01*
X128577548Y-65126851D01*
X128583011Y-65221590D01*
X128590110Y-65344715D01*
X128591247Y-65349761D01*
X128591248Y-65349767D01*
X128597732Y-65378537D01*
X128639222Y-65562639D01*
X128723266Y-65769616D01*
X128774019Y-65852438D01*
X128837291Y-65955688D01*
X128839987Y-65960088D01*
X128986250Y-66128938D01*
X129062846Y-66192529D01*
X129144271Y-66260129D01*
X129158126Y-66271632D01*
X129228595Y-66312811D01*
X129231445Y-66314476D01*
X129280169Y-66366114D01*
X129293240Y-66435897D01*
X129266509Y-66501669D01*
X129226055Y-66535027D01*
X129219939Y-66538211D01*
X129213607Y-66541507D01*
X129209474Y-66544610D01*
X129209471Y-66544612D01*
X129039100Y-66672530D01*
X129034965Y-66675635D01*
X128880629Y-66837138D01*
X128877720Y-66841403D01*
X128877714Y-66841411D01*
X128848647Y-66884022D01*
X128754743Y-67021680D01*
X128739003Y-67055590D01*
X128672480Y-67198902D01*
X128660688Y-67224305D01*
X128600989Y-67439570D01*
X128577251Y-67661695D01*
X128577548Y-67666848D01*
X128577548Y-67666851D01*
X128583011Y-67761590D01*
X128590110Y-67884715D01*
X128591247Y-67889761D01*
X128591248Y-67889767D01*
X128597732Y-67918537D01*
X128639222Y-68102639D01*
X128723266Y-68309616D01*
X128761878Y-68372625D01*
X128837291Y-68495688D01*
X128839987Y-68500088D01*
X128986250Y-68668938D01*
X129158126Y-68811632D01*
X129351000Y-68924338D01*
X129559692Y-69004030D01*
X129564760Y-69005061D01*
X129564763Y-69005062D01*
X129672017Y-69026883D01*
X129778597Y-69048567D01*
X129783772Y-69048757D01*
X129783774Y-69048757D01*
X129996673Y-69056564D01*
X129996677Y-69056564D01*
X130001837Y-69056753D01*
X130006957Y-69056097D01*
X130006959Y-69056097D01*
X130218288Y-69029025D01*
X130218289Y-69029025D01*
X130223416Y-69028368D01*
X130228366Y-69026883D01*
X130432429Y-68965661D01*
X130432434Y-68965659D01*
X130437384Y-68964174D01*
X130637994Y-68865896D01*
X130819860Y-68736173D01*
X130978096Y-68578489D01*
X131037594Y-68495689D01*
X131108453Y-68397077D01*
X131109776Y-68398028D01*
X131156645Y-68354857D01*
X131226580Y-68342625D01*
X131292026Y-68370144D01*
X131319875Y-68401994D01*
X131379987Y-68500088D01*
X131526250Y-68668938D01*
X131698126Y-68811632D01*
X131891000Y-68924338D01*
X132099692Y-69004030D01*
X132104760Y-69005061D01*
X132104763Y-69005062D01*
X132212017Y-69026883D01*
X132318597Y-69048567D01*
X132323772Y-69048757D01*
X132323774Y-69048757D01*
X132536673Y-69056564D01*
X132536677Y-69056564D01*
X132541837Y-69056753D01*
X132546957Y-69056097D01*
X132546959Y-69056097D01*
X132758288Y-69029025D01*
X132758289Y-69029025D01*
X132763416Y-69028368D01*
X132768366Y-69026883D01*
X132972429Y-68965661D01*
X132972434Y-68965659D01*
X132977384Y-68964174D01*
X133177994Y-68865896D01*
X133359860Y-68736173D01*
X133518096Y-68578489D01*
X133577594Y-68495689D01*
X133645435Y-68401277D01*
X133648453Y-68397077D01*
X133666055Y-68361463D01*
X133745136Y-68201453D01*
X133745137Y-68201451D01*
X133747430Y-68196811D01*
X133812370Y-67983069D01*
X133841529Y-67761590D01*
X133843156Y-67695000D01*
X133824852Y-67472361D01*
X133770431Y-67255702D01*
X133681354Y-67050840D01*
X133610658Y-66941560D01*
X133562822Y-66867617D01*
X133562820Y-66867614D01*
X133560014Y-66863277D01*
X133409670Y-66698051D01*
X133405619Y-66694852D01*
X133405615Y-66694848D01*
X133238414Y-66562800D01*
X133238410Y-66562798D01*
X133234359Y-66559598D01*
X133193053Y-66536796D01*
X133143084Y-66486364D01*
X133128312Y-66416921D01*
X133153428Y-66350516D01*
X133180780Y-66323909D01*
X133224603Y-66292650D01*
X133359860Y-66196173D01*
X133364550Y-66191500D01*
X133468859Y-66087554D01*
X133518096Y-66038489D01*
X133558529Y-65982221D01*
X133645435Y-65861277D01*
X133648453Y-65857077D01*
X133666055Y-65821463D01*
X133745136Y-65661453D01*
X133745137Y-65661451D01*
X133747430Y-65656811D01*
X133801321Y-65479436D01*
X133810865Y-65448023D01*
X133810865Y-65448021D01*
X133812370Y-65443069D01*
X133841529Y-65221590D01*
X133843156Y-65155000D01*
X133824852Y-64932361D01*
X133770431Y-64715702D01*
X133681354Y-64510840D01*
X133608975Y-64398959D01*
X133562822Y-64327617D01*
X133562820Y-64327614D01*
X133560014Y-64323277D01*
X133409670Y-64158051D01*
X133405619Y-64154852D01*
X133405615Y-64154848D01*
X133238414Y-64022800D01*
X133238410Y-64022798D01*
X133234359Y-64019598D01*
X133193053Y-63996796D01*
X133143084Y-63946364D01*
X133130954Y-63889343D01*
X143146775Y-63889343D01*
X143163381Y-64058699D01*
X143217094Y-64220167D01*
X143220741Y-64226189D01*
X143220742Y-64226191D01*
X143298123Y-64353961D01*
X143305246Y-64365723D01*
X143423455Y-64488132D01*
X143465415Y-64515590D01*
X143558146Y-64576271D01*
X143565846Y-64581310D01*
X143572450Y-64583766D01*
X143572452Y-64583767D01*
X143608844Y-64597301D01*
X143725341Y-64640626D01*
X143894015Y-64663132D01*
X143901026Y-64662494D01*
X143901030Y-64662494D01*
X144056462Y-64648348D01*
X144063483Y-64647709D01*
X144070185Y-64645531D01*
X144070187Y-64645531D01*
X144218623Y-64597301D01*
X144218626Y-64597300D01*
X144225322Y-64595124D01*
X144256948Y-64576271D01*
X144321466Y-64558500D01*
X153929879Y-64558500D01*
X153998000Y-64578502D01*
X154044493Y-64632158D01*
X154054597Y-64702432D01*
X154051298Y-64718165D01*
X154000989Y-64899570D01*
X153977251Y-65121695D01*
X153977548Y-65126848D01*
X153977548Y-65126851D01*
X153983011Y-65221590D01*
X153990110Y-65344715D01*
X153991247Y-65349761D01*
X153991248Y-65349767D01*
X153997732Y-65378537D01*
X154039222Y-65562639D01*
X154123266Y-65769616D01*
X154174019Y-65852438D01*
X154237291Y-65955688D01*
X154239987Y-65960088D01*
X154386250Y-66128938D01*
X154462846Y-66192529D01*
X154544271Y-66260129D01*
X154558126Y-66271632D01*
X154628595Y-66312811D01*
X154631445Y-66314476D01*
X154680169Y-66366114D01*
X154693240Y-66435897D01*
X154666509Y-66501669D01*
X154626055Y-66535027D01*
X154619939Y-66538211D01*
X154613607Y-66541507D01*
X154609474Y-66544610D01*
X154609471Y-66544612D01*
X154439100Y-66672530D01*
X154434965Y-66675635D01*
X154280629Y-66837138D01*
X154277720Y-66841403D01*
X154277714Y-66841411D01*
X154248647Y-66884022D01*
X154154743Y-67021680D01*
X154139003Y-67055590D01*
X154072480Y-67198902D01*
X154060688Y-67224305D01*
X154000989Y-67439570D01*
X153977251Y-67661695D01*
X153977548Y-67666848D01*
X153977548Y-67666851D01*
X153983011Y-67761590D01*
X153990110Y-67884715D01*
X153991247Y-67889761D01*
X153991248Y-67889767D01*
X153997732Y-67918537D01*
X154039222Y-68102639D01*
X154123266Y-68309616D01*
X154161878Y-68372625D01*
X154237291Y-68495688D01*
X154239987Y-68500088D01*
X154386250Y-68668938D01*
X154558126Y-68811632D01*
X154751000Y-68924338D01*
X154959692Y-69004030D01*
X154964760Y-69005061D01*
X154964763Y-69005062D01*
X155072017Y-69026883D01*
X155178597Y-69048567D01*
X155183772Y-69048757D01*
X155183774Y-69048757D01*
X155396673Y-69056564D01*
X155396677Y-69056564D01*
X155401837Y-69056753D01*
X155406957Y-69056097D01*
X155406959Y-69056097D01*
X155618288Y-69029025D01*
X155618289Y-69029025D01*
X155623416Y-69028368D01*
X155628366Y-69026883D01*
X155832429Y-68965661D01*
X155832434Y-68965659D01*
X155837384Y-68964174D01*
X156037994Y-68865896D01*
X156219860Y-68736173D01*
X156378096Y-68578489D01*
X156437594Y-68495689D01*
X156508453Y-68397077D01*
X156509776Y-68398028D01*
X156556645Y-68354857D01*
X156626580Y-68342625D01*
X156692026Y-68370144D01*
X156719875Y-68401994D01*
X156779987Y-68500088D01*
X156926250Y-68668938D01*
X157098126Y-68811632D01*
X157291000Y-68924338D01*
X157499692Y-69004030D01*
X157504760Y-69005061D01*
X157504763Y-69005062D01*
X157612017Y-69026883D01*
X157718597Y-69048567D01*
X157723772Y-69048757D01*
X157723774Y-69048757D01*
X157936673Y-69056564D01*
X157936677Y-69056564D01*
X157941837Y-69056753D01*
X157946957Y-69056097D01*
X157946959Y-69056097D01*
X158158288Y-69029025D01*
X158158289Y-69029025D01*
X158163416Y-69028368D01*
X158168366Y-69026883D01*
X158372429Y-68965661D01*
X158372434Y-68965659D01*
X158377384Y-68964174D01*
X158577994Y-68865896D01*
X158759860Y-68736173D01*
X158918096Y-68578489D01*
X158977594Y-68495689D01*
X159045435Y-68401277D01*
X159048453Y-68397077D01*
X159066055Y-68361463D01*
X159145136Y-68201453D01*
X159145137Y-68201451D01*
X159147430Y-68196811D01*
X159212370Y-67983069D01*
X159241529Y-67761590D01*
X159243156Y-67695000D01*
X159224852Y-67472361D01*
X159170431Y-67255702D01*
X159081354Y-67050840D01*
X159010658Y-66941560D01*
X158962822Y-66867617D01*
X158962820Y-66867614D01*
X158960014Y-66863277D01*
X158809670Y-66698051D01*
X158805619Y-66694852D01*
X158805615Y-66694848D01*
X158638414Y-66562800D01*
X158638410Y-66562798D01*
X158634359Y-66559598D01*
X158593053Y-66536796D01*
X158543084Y-66486364D01*
X158528312Y-66416921D01*
X158553428Y-66350516D01*
X158580780Y-66323909D01*
X158624603Y-66292650D01*
X158759860Y-66196173D01*
X158764550Y-66191500D01*
X158868859Y-66087554D01*
X158918096Y-66038489D01*
X158958529Y-65982221D01*
X159045435Y-65861277D01*
X159048453Y-65857077D01*
X159066055Y-65821463D01*
X159145136Y-65661453D01*
X159145137Y-65661451D01*
X159147430Y-65656811D01*
X159201321Y-65479436D01*
X159210865Y-65448023D01*
X159210865Y-65448021D01*
X159212370Y-65443069D01*
X159241529Y-65221590D01*
X159243156Y-65155000D01*
X159224852Y-64932361D01*
X159170431Y-64715702D01*
X159081354Y-64510840D01*
X159008975Y-64398959D01*
X158962822Y-64327617D01*
X158962820Y-64327614D01*
X158960014Y-64323277D01*
X158809670Y-64158051D01*
X158805619Y-64154852D01*
X158805615Y-64154848D01*
X158638414Y-64022800D01*
X158638410Y-64022798D01*
X158634359Y-64019598D01*
X158593053Y-63996796D01*
X158543084Y-63946364D01*
X158528312Y-63876921D01*
X158553428Y-63810516D01*
X158580780Y-63783909D01*
X158626416Y-63751357D01*
X158759860Y-63656173D01*
X158812447Y-63603770D01*
X158849112Y-63567232D01*
X158918096Y-63498489D01*
X158977594Y-63415689D01*
X159045435Y-63321277D01*
X159048453Y-63317077D01*
X159055193Y-63303441D01*
X159145136Y-63121453D01*
X159145137Y-63121451D01*
X159147430Y-63116811D01*
X159212370Y-62903069D01*
X159241529Y-62681590D01*
X159243156Y-62615000D01*
X159224852Y-62392361D01*
X159170431Y-62175702D01*
X159081354Y-61970840D01*
X159038239Y-61904195D01*
X158962822Y-61787617D01*
X158962820Y-61787614D01*
X158960014Y-61783277D01*
X158809670Y-61618051D01*
X158805619Y-61614852D01*
X158805615Y-61614848D01*
X158638414Y-61482800D01*
X158638410Y-61482798D01*
X158634359Y-61479598D01*
X158593053Y-61456796D01*
X158543084Y-61406364D01*
X158528312Y-61336921D01*
X158553428Y-61270516D01*
X158580780Y-61243909D01*
X158633460Y-61206333D01*
X158759860Y-61116173D01*
X158795225Y-61080932D01*
X158862052Y-61014337D01*
X158918096Y-60958489D01*
X158958529Y-60902221D01*
X159045435Y-60781277D01*
X159048453Y-60777077D01*
X159066055Y-60741463D01*
X159145136Y-60581453D01*
X159145137Y-60581451D01*
X159147430Y-60576811D01*
X159212370Y-60363069D01*
X159241529Y-60141590D01*
X159243156Y-60075000D01*
X159224852Y-59852361D01*
X159170431Y-59635702D01*
X159081354Y-59430840D01*
X159008975Y-59318959D01*
X158962822Y-59247617D01*
X158962820Y-59247614D01*
X158960014Y-59243277D01*
X158809670Y-59078051D01*
X158805619Y-59074852D01*
X158805615Y-59074848D01*
X158638414Y-58942800D01*
X158638410Y-58942798D01*
X158634359Y-58939598D01*
X158593053Y-58916796D01*
X158543084Y-58866364D01*
X158528312Y-58796921D01*
X158553428Y-58730516D01*
X158580780Y-58703909D01*
X158697693Y-58620516D01*
X158759860Y-58576173D01*
X158918096Y-58418489D01*
X159048453Y-58237077D01*
X159063408Y-58206819D01*
X159145136Y-58041453D01*
X159145137Y-58041451D01*
X159147430Y-58036811D01*
X159212370Y-57823069D01*
X159241529Y-57601590D01*
X159243156Y-57535000D01*
X159224852Y-57312361D01*
X159170431Y-57095702D01*
X159081354Y-56890840D01*
X159030332Y-56811972D01*
X158962822Y-56707617D01*
X158962820Y-56707614D01*
X158960014Y-56703277D01*
X158809670Y-56538051D01*
X158805619Y-56534852D01*
X158805615Y-56534848D01*
X158638414Y-56402800D01*
X158638410Y-56402798D01*
X158634359Y-56399598D01*
X158593053Y-56376796D01*
X158543084Y-56326364D01*
X158528312Y-56256921D01*
X158553428Y-56190516D01*
X158580780Y-56163909D01*
X158666864Y-56102506D01*
X158759860Y-56036173D01*
X158918096Y-55878489D01*
X159048453Y-55697077D01*
X159057664Y-55678441D01*
X159145136Y-55501453D01*
X159145137Y-55501451D01*
X159147430Y-55496811D01*
X159212370Y-55283069D01*
X159241529Y-55061590D01*
X159243156Y-54995000D01*
X159224852Y-54772361D01*
X159170431Y-54555702D01*
X159081354Y-54350840D01*
X159008975Y-54238959D01*
X158962822Y-54167617D01*
X158962820Y-54167614D01*
X158960014Y-54163277D01*
X158809670Y-53998051D01*
X158805619Y-53994852D01*
X158805615Y-53994848D01*
X158638414Y-53862800D01*
X158638410Y-53862798D01*
X158634359Y-53859598D01*
X158593053Y-53836796D01*
X158543084Y-53786364D01*
X158528312Y-53716921D01*
X158553428Y-53650516D01*
X158580780Y-53623909D01*
X158624603Y-53592650D01*
X158759860Y-53496173D01*
X158918096Y-53338489D01*
X158977594Y-53255689D01*
X159045435Y-53161277D01*
X159045436Y-53161275D01*
X159048453Y-53157077D01*
X159066055Y-53121463D01*
X159145136Y-52961453D01*
X159145137Y-52961451D01*
X159147430Y-52956811D01*
X159212370Y-52743069D01*
X159241529Y-52521590D01*
X159243156Y-52455000D01*
X159224852Y-52232361D01*
X159170431Y-52015702D01*
X159081354Y-51810840D01*
X159008975Y-51698959D01*
X158962822Y-51627617D01*
X158962820Y-51627614D01*
X158960014Y-51623277D01*
X158809670Y-51458051D01*
X158805619Y-51454852D01*
X158805615Y-51454848D01*
X158638414Y-51322800D01*
X158638410Y-51322798D01*
X158634359Y-51319598D01*
X158593053Y-51296796D01*
X158543084Y-51246364D01*
X158528312Y-51176921D01*
X158553428Y-51110516D01*
X158580780Y-51083909D01*
X158624603Y-51052650D01*
X158759860Y-50956173D01*
X158918096Y-50798489D01*
X158977594Y-50715689D01*
X159045435Y-50621277D01*
X159048453Y-50617077D01*
X159066055Y-50581463D01*
X159145136Y-50421453D01*
X159145137Y-50421451D01*
X159147430Y-50416811D01*
X159212370Y-50203069D01*
X159241529Y-49981590D01*
X159243156Y-49915000D01*
X159224852Y-49692361D01*
X159170431Y-49475702D01*
X159081354Y-49270840D01*
X159008975Y-49158959D01*
X158962822Y-49087617D01*
X158962820Y-49087614D01*
X158960014Y-49083277D01*
X158809670Y-48918051D01*
X158805619Y-48914852D01*
X158805615Y-48914848D01*
X158638414Y-48782800D01*
X158638410Y-48782798D01*
X158634359Y-48779598D01*
X158438789Y-48671638D01*
X158433920Y-48669914D01*
X158433916Y-48669912D01*
X158233087Y-48598795D01*
X158233083Y-48598794D01*
X158228212Y-48597069D01*
X158223119Y-48596162D01*
X158223116Y-48596161D01*
X158013373Y-48558800D01*
X158013367Y-48558799D01*
X158008284Y-48557894D01*
X157934452Y-48556992D01*
X157790081Y-48555228D01*
X157790079Y-48555228D01*
X157784911Y-48555165D01*
X157564091Y-48588955D01*
X157351756Y-48658357D01*
X157153607Y-48761507D01*
X157149474Y-48764610D01*
X157149471Y-48764612D01*
X156979100Y-48892530D01*
X156974965Y-48895635D01*
X156820629Y-49057138D01*
X156713201Y-49214621D01*
X156658293Y-49259621D01*
X156587768Y-49267792D01*
X156524021Y-49236538D01*
X156503324Y-49212054D01*
X156422822Y-49087617D01*
X156422820Y-49087614D01*
X156420014Y-49083277D01*
X156269670Y-48918051D01*
X156265619Y-48914852D01*
X156265615Y-48914848D01*
X156098414Y-48782800D01*
X156098410Y-48782798D01*
X156094359Y-48779598D01*
X156053053Y-48756796D01*
X156003084Y-48706364D01*
X155988312Y-48636921D01*
X156013428Y-48570516D01*
X156040780Y-48543909D01*
X156084603Y-48512650D01*
X156219860Y-48416173D01*
X156378096Y-48258489D01*
X156437594Y-48175689D01*
X156505435Y-48081277D01*
X156508453Y-48077077D01*
X156526055Y-48041463D01*
X156605136Y-47881453D01*
X156605137Y-47881451D01*
X156607430Y-47876811D01*
X156672370Y-47663069D01*
X156701529Y-47441590D01*
X156703128Y-47376130D01*
X159087279Y-47376130D01*
X159087411Y-47377966D01*
X159091660Y-47384579D01*
X159217472Y-47510390D01*
X159228594Y-47516464D01*
X159232396Y-47507128D01*
X159240590Y-47444887D01*
X159241109Y-47438212D01*
X159242572Y-47378364D01*
X159242378Y-47371646D01*
X159231940Y-47244680D01*
X159227731Y-47233750D01*
X159217888Y-47239193D01*
X159094890Y-47362192D01*
X159087279Y-47376130D01*
X156703128Y-47376130D01*
X156703156Y-47375000D01*
X156684852Y-47152361D01*
X156630431Y-46935702D01*
X156541354Y-46730840D01*
X156468975Y-46618959D01*
X156422822Y-46547617D01*
X156422820Y-46547614D01*
X156420014Y-46543277D01*
X156269670Y-46378051D01*
X156265619Y-46374852D01*
X156265615Y-46374848D01*
X156098414Y-46242800D01*
X156098410Y-46242798D01*
X156094359Y-46239598D01*
X155934293Y-46151237D01*
X157862171Y-46151237D01*
X157865409Y-46158327D01*
X157867189Y-46160108D01*
X157881131Y-46167720D01*
X157882967Y-46167589D01*
X157889578Y-46163340D01*
X157892109Y-46160809D01*
X157897617Y-46150724D01*
X157890315Y-46148000D01*
X157873196Y-46148000D01*
X157862171Y-46151237D01*
X155934293Y-46151237D01*
X155898789Y-46131638D01*
X155893920Y-46129914D01*
X155893916Y-46129912D01*
X155693087Y-46058795D01*
X155693083Y-46058794D01*
X155688212Y-46057069D01*
X155683119Y-46056162D01*
X155683116Y-46056161D01*
X155473373Y-46018800D01*
X155473367Y-46018799D01*
X155468284Y-46017894D01*
X155394452Y-46016992D01*
X155250081Y-46015228D01*
X155250079Y-46015228D01*
X155244911Y-46015165D01*
X155024091Y-46048955D01*
X154811756Y-46118357D01*
X154781443Y-46134137D01*
X154675269Y-46189408D01*
X154613607Y-46221507D01*
X154609474Y-46224610D01*
X154609471Y-46224612D01*
X154447724Y-46346055D01*
X154434965Y-46355635D01*
X154431393Y-46359373D01*
X154324117Y-46471631D01*
X154280629Y-46517138D01*
X154277720Y-46521403D01*
X154277714Y-46521411D01*
X154256371Y-46552699D01*
X154154743Y-46701680D01*
X154060688Y-46904305D01*
X154000989Y-47119570D01*
X153977251Y-47341695D01*
X153977548Y-47346848D01*
X153977548Y-47346851D01*
X153983011Y-47441590D01*
X153990110Y-47564715D01*
X153991247Y-47569761D01*
X153991248Y-47569767D01*
X153997732Y-47598537D01*
X154039222Y-47782639D01*
X154123266Y-47989616D01*
X154174019Y-48072438D01*
X154237291Y-48175688D01*
X154239987Y-48180088D01*
X154386250Y-48348938D01*
X154558126Y-48491632D01*
X154628595Y-48532811D01*
X154631445Y-48534476D01*
X154680169Y-48586114D01*
X154693240Y-48655897D01*
X154666509Y-48721669D01*
X154626055Y-48755027D01*
X154613607Y-48761507D01*
X154609474Y-48764610D01*
X154609471Y-48764612D01*
X154439100Y-48892530D01*
X154434965Y-48895635D01*
X154280629Y-49057138D01*
X154277720Y-49061403D01*
X154277714Y-49061411D01*
X154248647Y-49104022D01*
X154154743Y-49241680D01*
X154060688Y-49444305D01*
X154000989Y-49659570D01*
X153977251Y-49881695D01*
X153977548Y-49886848D01*
X153977548Y-49886851D01*
X153983011Y-49981590D01*
X153990110Y-50104715D01*
X153991247Y-50109761D01*
X153991248Y-50109767D01*
X153997732Y-50138537D01*
X154039222Y-50322639D01*
X154123266Y-50529616D01*
X154169911Y-50605734D01*
X154237291Y-50715688D01*
X154239987Y-50720088D01*
X154386250Y-50888938D01*
X154558126Y-51031632D01*
X154628595Y-51072811D01*
X154631445Y-51074476D01*
X154680169Y-51126114D01*
X154693240Y-51195897D01*
X154666509Y-51261669D01*
X154626055Y-51295027D01*
X154613607Y-51301507D01*
X154609474Y-51304610D01*
X154609471Y-51304612D01*
X154439100Y-51432530D01*
X154434965Y-51435635D01*
X154280629Y-51597138D01*
X154277720Y-51601403D01*
X154277714Y-51601411D01*
X154248647Y-51644022D01*
X154154743Y-51781680D01*
X154060688Y-51984305D01*
X154000989Y-52199570D01*
X153977251Y-52421695D01*
X153977548Y-52426848D01*
X153977548Y-52426851D01*
X153983011Y-52521590D01*
X153990110Y-52644715D01*
X153991247Y-52649761D01*
X153991248Y-52649767D01*
X153997732Y-52678537D01*
X154039222Y-52862639D01*
X154123266Y-53069616D01*
X154125965Y-53074020D01*
X154179435Y-53161275D01*
X154239987Y-53260088D01*
X154386250Y-53428938D01*
X154558126Y-53571632D01*
X154628595Y-53612811D01*
X154631445Y-53614476D01*
X154680169Y-53666114D01*
X154693240Y-53735897D01*
X154666509Y-53801669D01*
X154626055Y-53835027D01*
X154613607Y-53841507D01*
X154609474Y-53844610D01*
X154609471Y-53844612D01*
X154439100Y-53972530D01*
X154434965Y-53975635D01*
X154280629Y-54137138D01*
X154277715Y-54141410D01*
X154277714Y-54141411D01*
X154182149Y-54281504D01*
X154127238Y-54326507D01*
X154078061Y-54336500D01*
X153219950Y-54336500D01*
X153151829Y-54316498D01*
X153130855Y-54299595D01*
X144670558Y-45839298D01*
X144640662Y-45791640D01*
X144601771Y-45679962D01*
X144598368Y-45670189D01*
X144592383Y-45660610D01*
X144562974Y-45613548D01*
X144561256Y-45610799D01*
X156662910Y-45610799D01*
X156681588Y-45666784D01*
X156687761Y-45679962D01*
X156773063Y-45817807D01*
X156782099Y-45829208D01*
X156896829Y-45943739D01*
X156908240Y-45952751D01*
X157046243Y-46037816D01*
X157059424Y-46043963D01*
X157173299Y-46081734D01*
X157190424Y-46082328D01*
X157202469Y-46075461D01*
X157337192Y-45940737D01*
X157350000Y-45917281D01*
X157350000Y-45849814D01*
X158350000Y-45849814D01*
X158357530Y-45875459D01*
X158541765Y-46059694D01*
X158556757Y-46067881D01*
X158570695Y-46067129D01*
X158641784Y-46043412D01*
X158654962Y-46037239D01*
X158792807Y-45951937D01*
X158804208Y-45942901D01*
X158918739Y-45828171D01*
X158927751Y-45816760D01*
X159012816Y-45678757D01*
X159018963Y-45665576D01*
X159035011Y-45617194D01*
X159035500Y-45603101D01*
X159029289Y-45600000D01*
X158368115Y-45600000D01*
X158352876Y-45604475D01*
X158351671Y-45605865D01*
X158350000Y-45613548D01*
X158350000Y-45849814D01*
X157350000Y-45849814D01*
X157350000Y-45618115D01*
X157345525Y-45602876D01*
X157344135Y-45601671D01*
X157336452Y-45600000D01*
X156677422Y-45600000D01*
X156663891Y-45603973D01*
X156662910Y-45610799D01*
X144561256Y-45610799D01*
X144508192Y-45525879D01*
X144388286Y-45405132D01*
X144372039Y-45394821D01*
X144333406Y-45370304D01*
X144244608Y-45313951D01*
X144084300Y-45256868D01*
X143915329Y-45236720D01*
X143908326Y-45237456D01*
X143908325Y-45237456D01*
X143753101Y-45253770D01*
X143753097Y-45253771D01*
X143746093Y-45254507D01*
X143739422Y-45256778D01*
X143591673Y-45307075D01*
X143591670Y-45307076D01*
X143585003Y-45309346D01*
X143579005Y-45313036D01*
X143579003Y-45313037D01*
X143446065Y-45394821D01*
X143446063Y-45394823D01*
X143440066Y-45398512D01*
X143318486Y-45517573D01*
X143314675Y-45523487D01*
X143314673Y-45523489D01*
X143254284Y-45617194D01*
X143226304Y-45660610D01*
X143168103Y-45820516D01*
X143146775Y-45989343D01*
X143163381Y-46158699D01*
X143217094Y-46320167D01*
X143220741Y-46326189D01*
X143220742Y-46326191D01*
X143255810Y-46384094D01*
X143305246Y-46465723D01*
X143423455Y-46588132D01*
X143467995Y-46617278D01*
X143555620Y-46674618D01*
X143565846Y-46681310D01*
X143572450Y-46683766D01*
X143572452Y-46683767D01*
X143674158Y-46721591D01*
X143719333Y-46750593D01*
X152370145Y-55401405D01*
X152404171Y-55463717D01*
X152399106Y-55534532D01*
X152356559Y-55591368D01*
X152290039Y-55616179D01*
X152281050Y-55616500D01*
X144324624Y-55616500D01*
X144257110Y-55596885D01*
X144256330Y-55596390D01*
X144244608Y-55588951D01*
X144084300Y-55531868D01*
X143915329Y-55511720D01*
X143908326Y-55512456D01*
X143908325Y-55512456D01*
X143753101Y-55528770D01*
X143753097Y-55528771D01*
X143746093Y-55529507D01*
X143739422Y-55531778D01*
X143591673Y-55582075D01*
X143591670Y-55582076D01*
X143585003Y-55584346D01*
X143579005Y-55588036D01*
X143579003Y-55588037D01*
X143446065Y-55669821D01*
X143446063Y-55669823D01*
X143440066Y-55673512D01*
X143318486Y-55792573D01*
X143314675Y-55798487D01*
X143314673Y-55798489D01*
X143268016Y-55870886D01*
X143226304Y-55935610D01*
X143168103Y-56095516D01*
X143146775Y-56264343D01*
X143163381Y-56433699D01*
X143217094Y-56595167D01*
X143220741Y-56601189D01*
X143220742Y-56601191D01*
X143275366Y-56691385D01*
X143305246Y-56740723D01*
X143423455Y-56863132D01*
X143493902Y-56909231D01*
X143558146Y-56951271D01*
X143565846Y-56956310D01*
X143572450Y-56958766D01*
X143572452Y-56958767D01*
X143603746Y-56970405D01*
X143725341Y-57015626D01*
X143894015Y-57038132D01*
X143901026Y-57037494D01*
X143901030Y-57037494D01*
X144056462Y-57023348D01*
X144063483Y-57022709D01*
X144070185Y-57020531D01*
X144070187Y-57020531D01*
X144218623Y-56972301D01*
X144218626Y-56972300D01*
X144225322Y-56970124D01*
X144256948Y-56951271D01*
X144321466Y-56933500D01*
X153755050Y-56933500D01*
X153823171Y-56953502D01*
X153844145Y-56970405D01*
X153982101Y-57108361D01*
X154016127Y-57170673D01*
X154014424Y-57231125D01*
X154000989Y-57279570D01*
X153977251Y-57501695D01*
X153977548Y-57506848D01*
X153977548Y-57506851D01*
X153983011Y-57601590D01*
X153990110Y-57724715D01*
X153991247Y-57729761D01*
X153991248Y-57729767D01*
X153997732Y-57758537D01*
X154039222Y-57942639D01*
X154041164Y-57947421D01*
X154041165Y-57947425D01*
X154049559Y-57968096D01*
X154056655Y-58038737D01*
X154024433Y-58102000D01*
X153963123Y-58137801D01*
X153932816Y-58141500D01*
X144324624Y-58141500D01*
X144257110Y-58121885D01*
X144256330Y-58121390D01*
X144244608Y-58113951D01*
X144084300Y-58056868D01*
X143915329Y-58036720D01*
X143908326Y-58037456D01*
X143908325Y-58037456D01*
X143753101Y-58053770D01*
X143753097Y-58053771D01*
X143746093Y-58054507D01*
X143739422Y-58056778D01*
X143591673Y-58107075D01*
X143591670Y-58107076D01*
X143585003Y-58109346D01*
X143579005Y-58113036D01*
X143579003Y-58113037D01*
X143446065Y-58194821D01*
X143446063Y-58194823D01*
X143440066Y-58198512D01*
X143405422Y-58232438D01*
X143324689Y-58311499D01*
X143318486Y-58317573D01*
X143314675Y-58323487D01*
X143314673Y-58323489D01*
X143258349Y-58410886D01*
X143226304Y-58460610D01*
X143223894Y-58467232D01*
X143184243Y-58576173D01*
X143168103Y-58620516D01*
X143146775Y-58789343D01*
X143163381Y-58958699D01*
X143217094Y-59120167D01*
X143220741Y-59126189D01*
X143220742Y-59126191D01*
X143296329Y-59250999D01*
X143305246Y-59265723D01*
X143423455Y-59388132D01*
X143482075Y-59426492D01*
X143558146Y-59476271D01*
X143565846Y-59481310D01*
X143572450Y-59483766D01*
X143572452Y-59483767D01*
X143603746Y-59495405D01*
X143725341Y-59540626D01*
X143894015Y-59563132D01*
X143901026Y-59562494D01*
X143901030Y-59562494D01*
X144056462Y-59548348D01*
X144063483Y-59547709D01*
X144070185Y-59545531D01*
X144070187Y-59545531D01*
X144218623Y-59497301D01*
X144218626Y-59497300D01*
X144225322Y-59495124D01*
X144256948Y-59476271D01*
X144321466Y-59458500D01*
X153740050Y-59458500D01*
X153808171Y-59478502D01*
X153829145Y-59495405D01*
X153982101Y-59648361D01*
X154016127Y-59710673D01*
X154014424Y-59771125D01*
X154000989Y-59819570D01*
X153977251Y-60041695D01*
X153977548Y-60046848D01*
X153977548Y-60046851D01*
X153983011Y-60141590D01*
X153990110Y-60264715D01*
X153991247Y-60269761D01*
X153991248Y-60269767D01*
X153997732Y-60298537D01*
X154039222Y-60482639D01*
X154041165Y-60487425D01*
X154041167Y-60487430D01*
X154053619Y-60518097D01*
X154060714Y-60588739D01*
X154028492Y-60652002D01*
X153967182Y-60687801D01*
X153936876Y-60691500D01*
X144324624Y-60691500D01*
X144257110Y-60671885D01*
X144256330Y-60671390D01*
X144244608Y-60663951D01*
X144084300Y-60606868D01*
X143915329Y-60586720D01*
X143908326Y-60587456D01*
X143908325Y-60587456D01*
X143753101Y-60603770D01*
X143753097Y-60603771D01*
X143746093Y-60604507D01*
X143739422Y-60606778D01*
X143591673Y-60657075D01*
X143591670Y-60657076D01*
X143585003Y-60659346D01*
X143579005Y-60663036D01*
X143579003Y-60663037D01*
X143446065Y-60744821D01*
X143446063Y-60744823D01*
X143440066Y-60748512D01*
X143318486Y-60867573D01*
X143314675Y-60873487D01*
X143314673Y-60873489D01*
X143267076Y-60947345D01*
X143226304Y-61010610D01*
X143168103Y-61170516D01*
X143146775Y-61339343D01*
X143163381Y-61508699D01*
X143217094Y-61670167D01*
X143220741Y-61676189D01*
X143220742Y-61676191D01*
X143298160Y-61804022D01*
X143305246Y-61815723D01*
X143423455Y-61938132D01*
X143454839Y-61958669D01*
X143558146Y-62026271D01*
X143565846Y-62031310D01*
X143572450Y-62033766D01*
X143572452Y-62033767D01*
X143608844Y-62047301D01*
X143725341Y-62090626D01*
X143894015Y-62113132D01*
X143901026Y-62112494D01*
X143901030Y-62112494D01*
X144056462Y-62098348D01*
X144063483Y-62097709D01*
X144070185Y-62095531D01*
X144070187Y-62095531D01*
X144218623Y-62047301D01*
X144218626Y-62047300D01*
X144225322Y-62045124D01*
X144256948Y-62026271D01*
X144321466Y-62008500D01*
X153932652Y-62008500D01*
X154000773Y-62028502D01*
X154047266Y-62082158D01*
X154057370Y-62152432D01*
X154054069Y-62168172D01*
X154000989Y-62359570D01*
X153977251Y-62581695D01*
X153977548Y-62586848D01*
X153977548Y-62586851D01*
X153983011Y-62681590D01*
X153990110Y-62804715D01*
X153991247Y-62809762D01*
X153991248Y-62809766D01*
X153995217Y-62827375D01*
X154012276Y-62903069D01*
X154016951Y-62923815D01*
X154012415Y-62994666D01*
X153983129Y-63040611D01*
X153819145Y-63204595D01*
X153756833Y-63238621D01*
X153730050Y-63241500D01*
X144324624Y-63241500D01*
X144257110Y-63221885D01*
X144256330Y-63221390D01*
X144244608Y-63213951D01*
X144084300Y-63156868D01*
X143915329Y-63136720D01*
X143908326Y-63137456D01*
X143908325Y-63137456D01*
X143753101Y-63153770D01*
X143753097Y-63153771D01*
X143746093Y-63154507D01*
X143739422Y-63156778D01*
X143591673Y-63207075D01*
X143591670Y-63207076D01*
X143585003Y-63209346D01*
X143579005Y-63213036D01*
X143579003Y-63213037D01*
X143446065Y-63294821D01*
X143446063Y-63294823D01*
X143440066Y-63298512D01*
X143318486Y-63417573D01*
X143314675Y-63423487D01*
X143314673Y-63423489D01*
X143230121Y-63554687D01*
X143226304Y-63560610D01*
X143168103Y-63720516D01*
X143146775Y-63889343D01*
X133130954Y-63889343D01*
X133128312Y-63876921D01*
X133153428Y-63810516D01*
X133180780Y-63783909D01*
X133226416Y-63751357D01*
X133359860Y-63656173D01*
X133412447Y-63603770D01*
X133449112Y-63567232D01*
X133518096Y-63498489D01*
X133577594Y-63415689D01*
X133645435Y-63321277D01*
X133648453Y-63317077D01*
X133655193Y-63303441D01*
X133745136Y-63121453D01*
X133745137Y-63121451D01*
X133747430Y-63116811D01*
X133812370Y-62903069D01*
X133841529Y-62681590D01*
X133843156Y-62615000D01*
X133824852Y-62392361D01*
X133803919Y-62309022D01*
X133806723Y-62238081D01*
X133837028Y-62189232D01*
X134732605Y-61293655D01*
X134741385Y-61285665D01*
X134741387Y-61285663D01*
X134748080Y-61281416D01*
X134796605Y-61229742D01*
X134799359Y-61226901D01*
X134819927Y-61206333D01*
X134822647Y-61202826D01*
X134830353Y-61193804D01*
X134856544Y-61165913D01*
X134861972Y-61160133D01*
X134866064Y-61152689D01*
X134872303Y-61141342D01*
X134883157Y-61124818D01*
X134891445Y-61114132D01*
X134896304Y-61107868D01*
X134906948Y-61083271D01*
X134914654Y-61065465D01*
X134919876Y-61054805D01*
X134938305Y-61021284D01*
X134938306Y-61021282D01*
X134942124Y-61014337D01*
X134947459Y-60993559D01*
X134953858Y-60974869D01*
X134962380Y-60955176D01*
X134969606Y-60909552D01*
X134972013Y-60897929D01*
X134981528Y-60860868D01*
X134983500Y-60853188D01*
X134983500Y-60831741D01*
X134985051Y-60812031D01*
X134987166Y-60798677D01*
X134988406Y-60790848D01*
X134984059Y-60744859D01*
X134983500Y-60733004D01*
X134983500Y-55084712D01*
X134984059Y-55072856D01*
X134984059Y-55072853D01*
X134985788Y-55065119D01*
X134983562Y-54994287D01*
X134983500Y-54990329D01*
X134983500Y-54961224D01*
X134982944Y-54956824D01*
X134982012Y-54944986D01*
X134980811Y-54906750D01*
X134980562Y-54898825D01*
X134974580Y-54878235D01*
X134970570Y-54858872D01*
X134968875Y-54845452D01*
X134968875Y-54845451D01*
X134967882Y-54837592D01*
X134964966Y-54830227D01*
X134964965Y-54830223D01*
X134950876Y-54794638D01*
X134947031Y-54783409D01*
X134936356Y-54746666D01*
X134934145Y-54739055D01*
X134923230Y-54720599D01*
X134914531Y-54702843D01*
X134914182Y-54701963D01*
X134906635Y-54682900D01*
X134879480Y-54645524D01*
X134872965Y-54635605D01*
X134853492Y-54602679D01*
X134853489Y-54602675D01*
X134849452Y-54595849D01*
X134834291Y-54580688D01*
X134821449Y-54565653D01*
X134817865Y-54560720D01*
X134808841Y-54548299D01*
X134773242Y-54518849D01*
X134764463Y-54510860D01*
X133624728Y-53371125D01*
X133590702Y-53308813D01*
X133595767Y-53237998D01*
X133611499Y-53208505D01*
X133645436Y-53161275D01*
X133648453Y-53157077D01*
X133666055Y-53121463D01*
X133745136Y-52961453D01*
X133745137Y-52961451D01*
X133747430Y-52956811D01*
X133812370Y-52743069D01*
X133841529Y-52521590D01*
X133843156Y-52455000D01*
X133824852Y-52232361D01*
X133770431Y-52015702D01*
X133681354Y-51810840D01*
X133608975Y-51698959D01*
X133562822Y-51627617D01*
X133562820Y-51627614D01*
X133560014Y-51623277D01*
X133409670Y-51458051D01*
X133405619Y-51454852D01*
X133405615Y-51454848D01*
X133238414Y-51322800D01*
X133238410Y-51322798D01*
X133234359Y-51319598D01*
X133193053Y-51296796D01*
X133143084Y-51246364D01*
X133128312Y-51176921D01*
X133153428Y-51110516D01*
X133180780Y-51083909D01*
X133224603Y-51052650D01*
X133359860Y-50956173D01*
X133518096Y-50798489D01*
X133577594Y-50715689D01*
X133645435Y-50621277D01*
X133648453Y-50617077D01*
X133666055Y-50581463D01*
X133745136Y-50421453D01*
X133745137Y-50421451D01*
X133747430Y-50416811D01*
X133812370Y-50203069D01*
X133841529Y-49981590D01*
X133843156Y-49915000D01*
X133824852Y-49692361D01*
X133770431Y-49475702D01*
X133681354Y-49270840D01*
X133608975Y-49158959D01*
X133562822Y-49087617D01*
X133562820Y-49087614D01*
X133560014Y-49083277D01*
X133409670Y-48918051D01*
X133405619Y-48914852D01*
X133405615Y-48914848D01*
X133238414Y-48782800D01*
X133238410Y-48782798D01*
X133234359Y-48779598D01*
X133193053Y-48756796D01*
X133143084Y-48706364D01*
X133128312Y-48636921D01*
X133153428Y-48570516D01*
X133180780Y-48543909D01*
X133224603Y-48512650D01*
X133359860Y-48416173D01*
X133518096Y-48258489D01*
X133577594Y-48175689D01*
X133645435Y-48081277D01*
X133648453Y-48077077D01*
X133666055Y-48041463D01*
X133745136Y-47881453D01*
X133745137Y-47881451D01*
X133747430Y-47876811D01*
X133812370Y-47663069D01*
X133841529Y-47441590D01*
X133843156Y-47375000D01*
X133824852Y-47152361D01*
X133770431Y-46935702D01*
X133681354Y-46730840D01*
X133608975Y-46618959D01*
X133562822Y-46547617D01*
X133562820Y-46547614D01*
X133560014Y-46543277D01*
X133409670Y-46378051D01*
X133405619Y-46374852D01*
X133405615Y-46374848D01*
X133238414Y-46242800D01*
X133238410Y-46242798D01*
X133234359Y-46239598D01*
X133038789Y-46131638D01*
X133033920Y-46129914D01*
X133033916Y-46129912D01*
X132833087Y-46058795D01*
X132833083Y-46058794D01*
X132828212Y-46057069D01*
X132823119Y-46056162D01*
X132823116Y-46056161D01*
X132613373Y-46018800D01*
X132613367Y-46018799D01*
X132608284Y-46017894D01*
X132534452Y-46016992D01*
X132390081Y-46015228D01*
X132390079Y-46015228D01*
X132384911Y-46015165D01*
X132164091Y-46048955D01*
X131951756Y-46118357D01*
X131921443Y-46134137D01*
X131815269Y-46189408D01*
X131753607Y-46221507D01*
X131749474Y-46224610D01*
X131749471Y-46224612D01*
X131587724Y-46346055D01*
X131574965Y-46355635D01*
X131571393Y-46359373D01*
X131464117Y-46471631D01*
X131420629Y-46517138D01*
X131313201Y-46674621D01*
X131258293Y-46719621D01*
X131187768Y-46727792D01*
X131124021Y-46696538D01*
X131103324Y-46672054D01*
X131022822Y-46547617D01*
X131022820Y-46547614D01*
X131020014Y-46543277D01*
X130869670Y-46378051D01*
X130865619Y-46374852D01*
X130865615Y-46374848D01*
X130698414Y-46242800D01*
X130698410Y-46242798D01*
X130694359Y-46239598D01*
X130498789Y-46131638D01*
X130493920Y-46129914D01*
X130493916Y-46129912D01*
X130293087Y-46058795D01*
X130293083Y-46058794D01*
X130288212Y-46057069D01*
X130283119Y-46056162D01*
X130283116Y-46056161D01*
X130073373Y-46018800D01*
X130073367Y-46018799D01*
X130068284Y-46017894D01*
X129994452Y-46016992D01*
X129850081Y-46015228D01*
X129850079Y-46015228D01*
X129844911Y-46015165D01*
X129624091Y-46048955D01*
X129411756Y-46118357D01*
X129381443Y-46134137D01*
X129275269Y-46189408D01*
X129213607Y-46221507D01*
X129209474Y-46224610D01*
X129209471Y-46224612D01*
X129047724Y-46346055D01*
X129034965Y-46355635D01*
X129031393Y-46359373D01*
X128924117Y-46471631D01*
X128880629Y-46517138D01*
X128877720Y-46521403D01*
X128877714Y-46521411D01*
X128856371Y-46552699D01*
X128754743Y-46701680D01*
X128660688Y-46904305D01*
X128600989Y-47119570D01*
X128577251Y-47341695D01*
X128577548Y-47346848D01*
X128577548Y-47346851D01*
X128583011Y-47441590D01*
X128590110Y-47564715D01*
X128591247Y-47569761D01*
X128591248Y-47569767D01*
X128597732Y-47598537D01*
X128639222Y-47782639D01*
X128723266Y-47989616D01*
X128774019Y-48072438D01*
X128837291Y-48175688D01*
X128839987Y-48180088D01*
X128986250Y-48348938D01*
X129158126Y-48491632D01*
X129228595Y-48532811D01*
X129231445Y-48534476D01*
X129280169Y-48586114D01*
X129293240Y-48655897D01*
X129266509Y-48721669D01*
X129226055Y-48755027D01*
X129213607Y-48761507D01*
X129209474Y-48764610D01*
X129209471Y-48764612D01*
X129039100Y-48892530D01*
X129034965Y-48895635D01*
X128880629Y-49057138D01*
X128877720Y-49061403D01*
X128877714Y-49061411D01*
X128848647Y-49104022D01*
X128754743Y-49241680D01*
X128660688Y-49444305D01*
X128600989Y-49659570D01*
X128577251Y-49881695D01*
X128577548Y-49886848D01*
X128577548Y-49886851D01*
X128583011Y-49981590D01*
X128590110Y-50104715D01*
X128591247Y-50109761D01*
X128591248Y-50109767D01*
X128597732Y-50138537D01*
X128639222Y-50322639D01*
X128723266Y-50529616D01*
X128769911Y-50605734D01*
X128837291Y-50715688D01*
X128839987Y-50720088D01*
X128986250Y-50888938D01*
X129158126Y-51031632D01*
X129228595Y-51072811D01*
X129231445Y-51074476D01*
X129280169Y-51126114D01*
X129293240Y-51195897D01*
X129266509Y-51261669D01*
X129226055Y-51295027D01*
X129213607Y-51301507D01*
X129209474Y-51304610D01*
X129209471Y-51304612D01*
X129039100Y-51432530D01*
X129034965Y-51435635D01*
X128880629Y-51597138D01*
X128877720Y-51601403D01*
X128877714Y-51601411D01*
X128848647Y-51644022D01*
X128754743Y-51781680D01*
X128739003Y-51815590D01*
X128714362Y-51868674D01*
X128667538Y-51922041D01*
X128599295Y-51941622D01*
X128531299Y-51921199D01*
X128510979Y-51904719D01*
X125995405Y-49389145D01*
X125961379Y-49326833D01*
X125958500Y-49300050D01*
X125958500Y-46562056D01*
X125959059Y-46550200D01*
X125959059Y-46550197D01*
X125960788Y-46542463D01*
X125958562Y-46471631D01*
X125958500Y-46467673D01*
X125958500Y-46438568D01*
X125957944Y-46434168D01*
X125957012Y-46422330D01*
X125955811Y-46384094D01*
X125955562Y-46376169D01*
X125949580Y-46355579D01*
X125945570Y-46336216D01*
X125943875Y-46322796D01*
X125943875Y-46322795D01*
X125942882Y-46314936D01*
X125939966Y-46307571D01*
X125939965Y-46307567D01*
X125925874Y-46271979D01*
X125922035Y-46260769D01*
X125909145Y-46216400D01*
X125898229Y-46197943D01*
X125889534Y-46180193D01*
X125881635Y-46160244D01*
X125875091Y-46151237D01*
X125854477Y-46122864D01*
X125847960Y-46112943D01*
X125842481Y-46103678D01*
X125824452Y-46073193D01*
X125809291Y-46058032D01*
X125796449Y-46042997D01*
X125792685Y-46037816D01*
X125783841Y-46025643D01*
X125748242Y-45996193D01*
X125739463Y-45988204D01*
X125385597Y-45634338D01*
X125351571Y-45572026D01*
X125352984Y-45512636D01*
X125354554Y-45506777D01*
X125354554Y-45506776D01*
X125355978Y-45501463D01*
X125375353Y-45280000D01*
X125355978Y-45058537D01*
X125298440Y-44843804D01*
X125292000Y-44829993D01*
X125206814Y-44647311D01*
X125206811Y-44647306D01*
X125204488Y-44642324D01*
X125201331Y-44637815D01*
X125080136Y-44464730D01*
X125080134Y-44464727D01*
X125076977Y-44460219D01*
X124919781Y-44303023D01*
X124915273Y-44299866D01*
X124915270Y-44299864D01*
X124799801Y-44219012D01*
X124737677Y-44175512D01*
X124732695Y-44173189D01*
X124732690Y-44173186D01*
X124627627Y-44124195D01*
X124574342Y-44077278D01*
X124554881Y-44009001D01*
X124575423Y-43941041D01*
X124627627Y-43895805D01*
X124732690Y-43846814D01*
X124732695Y-43846811D01*
X124737677Y-43844488D01*
X124886477Y-43740297D01*
X124915270Y-43720136D01*
X124915273Y-43720134D01*
X124919781Y-43716977D01*
X125076977Y-43559781D01*
X125081354Y-43553531D01*
X125201331Y-43382185D01*
X125201332Y-43382183D01*
X125204488Y-43377676D01*
X125206811Y-43372694D01*
X125206814Y-43372689D01*
X125296117Y-43181178D01*
X125296118Y-43181177D01*
X125298440Y-43176196D01*
X125355978Y-42961463D01*
X125375353Y-42740000D01*
X125355978Y-42518537D01*
X125310193Y-42347668D01*
X125299863Y-42309114D01*
X125299862Y-42309112D01*
X125298440Y-42303804D01*
X125294644Y-42295663D01*
X125206814Y-42107311D01*
X125206811Y-42107306D01*
X125204488Y-42102324D01*
X125123453Y-41986594D01*
X125080136Y-41924730D01*
X125080134Y-41924727D01*
X125076977Y-41920219D01*
X124919781Y-41763023D01*
X124915273Y-41759866D01*
X124915270Y-41759864D01*
X124743462Y-41639563D01*
X124737677Y-41635512D01*
X124732695Y-41633189D01*
X124732690Y-41633186D01*
X124541178Y-41543883D01*
X124541177Y-41543882D01*
X124536196Y-41541560D01*
X124530888Y-41540138D01*
X124530886Y-41540137D01*
X124446437Y-41517509D01*
X124321463Y-41484022D01*
X124100000Y-41464647D01*
X123878537Y-41484022D01*
X123753563Y-41517509D01*
X123669114Y-41540137D01*
X123669112Y-41540138D01*
X123663804Y-41541560D01*
X123658823Y-41543882D01*
X123658822Y-41543883D01*
X123467311Y-41633186D01*
X123467306Y-41633189D01*
X123462324Y-41635512D01*
X123457817Y-41638668D01*
X123457815Y-41638669D01*
X123284730Y-41759864D01*
X123284727Y-41759866D01*
X123280219Y-41763023D01*
X123123023Y-41920219D01*
X123119866Y-41924727D01*
X123119864Y-41924730D01*
X123076547Y-41986594D01*
X122995512Y-42102324D01*
X122993189Y-42107306D01*
X122993186Y-42107311D01*
X122905356Y-42295663D01*
X122901560Y-42303804D01*
X122900138Y-42309112D01*
X122900137Y-42309114D01*
X122889807Y-42347668D01*
X122844022Y-42518537D01*
X122824647Y-42740000D01*
X122844022Y-42961463D01*
X122901560Y-43176196D01*
X122903882Y-43181177D01*
X122903883Y-43181178D01*
X122993186Y-43372689D01*
X122993189Y-43372694D01*
X122995512Y-43377676D01*
X122998668Y-43382183D01*
X122998669Y-43382185D01*
X123118647Y-43553531D01*
X123123023Y-43559781D01*
X123280219Y-43716977D01*
X123284727Y-43720134D01*
X123284730Y-43720136D01*
X123313523Y-43740297D01*
X123462323Y-43844488D01*
X123467305Y-43846811D01*
X123467310Y-43846814D01*
X123572373Y-43895805D01*
X123625658Y-43942722D01*
X123645119Y-44010999D01*
X123624577Y-44078959D01*
X123572373Y-44124195D01*
X123467311Y-44173186D01*
X123467306Y-44173189D01*
X123462324Y-44175512D01*
X123457817Y-44178668D01*
X123457815Y-44178669D01*
X123284730Y-44299864D01*
X123284727Y-44299866D01*
X123280219Y-44303023D01*
X123123023Y-44460219D01*
X123119866Y-44464727D01*
X123119864Y-44464730D01*
X122998669Y-44637815D01*
X122995512Y-44642324D01*
X122993189Y-44647306D01*
X122993186Y-44647311D01*
X122908000Y-44829993D01*
X122901560Y-44843804D01*
X122844022Y-45058537D01*
X122824647Y-45280000D01*
X122844022Y-45501463D01*
X122901560Y-45716196D01*
X122903882Y-45721177D01*
X122903883Y-45721178D01*
X122993186Y-45912689D01*
X122993189Y-45912694D01*
X122995512Y-45917676D01*
X122998668Y-45922183D01*
X122998669Y-45922185D01*
X123118782Y-46093724D01*
X123123023Y-46099781D01*
X123280219Y-46256977D01*
X123284727Y-46260134D01*
X123284730Y-46260136D01*
X123285600Y-46260745D01*
X123462323Y-46384488D01*
X123467305Y-46386811D01*
X123467310Y-46386814D01*
X123556220Y-46428273D01*
X123569905Y-46434654D01*
X123572373Y-46435805D01*
X123625658Y-46482722D01*
X123645119Y-46550999D01*
X123624577Y-46618959D01*
X123572373Y-46664195D01*
X123467311Y-46713186D01*
X123467306Y-46713189D01*
X123462324Y-46715512D01*
X123457817Y-46718668D01*
X123457815Y-46718669D01*
X123284730Y-46839864D01*
X123284727Y-46839866D01*
X123280219Y-46843023D01*
X123123023Y-47000219D01*
X123119866Y-47004727D01*
X123119864Y-47004730D01*
X122998669Y-47177815D01*
X122995512Y-47182324D01*
X122993189Y-47187306D01*
X122993186Y-47187311D01*
X122911638Y-47362192D01*
X122901560Y-47383804D01*
X122844022Y-47598537D01*
X122824647Y-47820000D01*
X122844022Y-48041463D01*
X122901560Y-48256196D01*
X122903882Y-48261177D01*
X122903883Y-48261178D01*
X122993186Y-48452689D01*
X122993189Y-48452694D01*
X122995512Y-48457676D01*
X122998668Y-48462183D01*
X122998669Y-48462185D01*
X123118782Y-48633724D01*
X123123023Y-48639781D01*
X123280219Y-48796977D01*
X123284727Y-48800134D01*
X123284730Y-48800136D01*
X123360495Y-48853187D01*
X123462323Y-48924488D01*
X123467305Y-48926811D01*
X123467310Y-48926814D01*
X123572373Y-48975805D01*
X123625658Y-49022722D01*
X123645119Y-49090999D01*
X123624577Y-49158959D01*
X123572373Y-49204195D01*
X123467311Y-49253186D01*
X123467306Y-49253189D01*
X123462324Y-49255512D01*
X123457817Y-49258668D01*
X123457815Y-49258669D01*
X123284730Y-49379864D01*
X123284727Y-49379866D01*
X123280219Y-49383023D01*
X123123023Y-49540219D01*
X123119866Y-49544727D01*
X123119864Y-49544730D01*
X122998669Y-49717815D01*
X122995512Y-49722324D01*
X122993189Y-49727306D01*
X122993186Y-49727311D01*
X122908000Y-49909993D01*
X122901560Y-49923804D01*
X122844022Y-50138537D01*
X122824647Y-50360000D01*
X122844022Y-50581463D01*
X122901560Y-50796196D01*
X122903882Y-50801177D01*
X122903883Y-50801178D01*
X122993186Y-50992689D01*
X122993189Y-50992694D01*
X122995512Y-50997676D01*
X122998668Y-51002183D01*
X122998669Y-51002185D01*
X123118782Y-51173724D01*
X123123023Y-51179781D01*
X123280219Y-51336977D01*
X123284727Y-51340134D01*
X123284730Y-51340136D01*
X123360495Y-51393187D01*
X123462323Y-51464488D01*
X123467305Y-51466811D01*
X123467310Y-51466814D01*
X123572373Y-51515805D01*
X123625658Y-51562722D01*
X123645119Y-51630999D01*
X123624577Y-51698959D01*
X123572373Y-51744195D01*
X123467311Y-51793186D01*
X123467306Y-51793189D01*
X123462324Y-51795512D01*
X123457817Y-51798668D01*
X123457815Y-51798669D01*
X123284730Y-51919864D01*
X123284727Y-51919866D01*
X123280219Y-51923023D01*
X123123023Y-52080219D01*
X123119866Y-52084727D01*
X123119864Y-52084730D01*
X122998669Y-52257815D01*
X122995512Y-52262324D01*
X122993189Y-52267306D01*
X122993186Y-52267311D01*
X122908000Y-52449993D01*
X122901560Y-52463804D01*
X122844022Y-52678537D01*
X122824647Y-52900000D01*
X122844022Y-53121463D01*
X122901560Y-53336196D01*
X122903882Y-53341177D01*
X122903883Y-53341178D01*
X122993186Y-53532689D01*
X122993189Y-53532694D01*
X122995512Y-53537676D01*
X122998668Y-53542183D01*
X122998669Y-53542185D01*
X123118782Y-53713724D01*
X123123023Y-53719781D01*
X123280219Y-53876977D01*
X123284727Y-53880134D01*
X123284730Y-53880136D01*
X123360495Y-53933187D01*
X123462323Y-54004488D01*
X123467305Y-54006811D01*
X123467310Y-54006814D01*
X123572373Y-54055805D01*
X123625658Y-54102722D01*
X123645119Y-54170999D01*
X123624577Y-54238959D01*
X123572373Y-54284195D01*
X123467311Y-54333186D01*
X123467306Y-54333189D01*
X123462324Y-54335512D01*
X123457817Y-54338668D01*
X123457815Y-54338669D01*
X123284730Y-54459864D01*
X123284727Y-54459866D01*
X123280219Y-54463023D01*
X123123023Y-54620219D01*
X123119866Y-54624727D01*
X123119864Y-54624730D01*
X123008756Y-54783409D01*
X122995512Y-54802324D01*
X122993189Y-54807306D01*
X122993186Y-54807311D01*
X122907229Y-54991646D01*
X122901560Y-55003804D01*
X122844022Y-55218537D01*
X122824647Y-55440000D01*
X122844022Y-55661463D01*
X122901560Y-55876196D01*
X122903882Y-55881177D01*
X122903883Y-55881178D01*
X122993186Y-56072689D01*
X122993189Y-56072694D01*
X122995512Y-56077676D01*
X122998668Y-56082183D01*
X122998669Y-56082185D01*
X123118782Y-56253724D01*
X123123023Y-56259781D01*
X123280219Y-56416977D01*
X123284727Y-56420134D01*
X123284730Y-56420136D01*
X123304100Y-56433699D01*
X123462323Y-56544488D01*
X123467305Y-56546811D01*
X123467310Y-56546814D01*
X123572373Y-56595805D01*
X123625658Y-56642722D01*
X123645119Y-56710999D01*
X123624577Y-56778959D01*
X123572373Y-56824195D01*
X123467311Y-56873186D01*
X123467306Y-56873189D01*
X123462324Y-56875512D01*
X123457817Y-56878668D01*
X123457815Y-56878669D01*
X123284730Y-56999864D01*
X123284727Y-56999866D01*
X123280219Y-57003023D01*
X123123023Y-57160219D01*
X123119866Y-57164727D01*
X123119864Y-57164730D01*
X122998669Y-57337815D01*
X122995512Y-57342324D01*
X122993189Y-57347306D01*
X122993186Y-57347311D01*
X122908000Y-57529993D01*
X122901560Y-57543804D01*
X122844022Y-57758537D01*
X122824647Y-57980000D01*
X122844022Y-58201463D01*
X122901560Y-58416196D01*
X122903882Y-58421177D01*
X122903883Y-58421178D01*
X122993186Y-58612689D01*
X122993189Y-58612694D01*
X122995512Y-58617676D01*
X122998668Y-58622183D01*
X122998669Y-58622185D01*
X123111134Y-58782801D01*
X123123023Y-58799781D01*
X123280219Y-58956977D01*
X123284727Y-58960134D01*
X123284730Y-58960136D01*
X123360495Y-59013187D01*
X123462323Y-59084488D01*
X123467305Y-59086811D01*
X123467310Y-59086814D01*
X123572373Y-59135805D01*
X123625658Y-59182722D01*
X123645119Y-59250999D01*
X123624577Y-59318959D01*
X123572373Y-59364195D01*
X123467311Y-59413186D01*
X123467306Y-59413189D01*
X123462324Y-59415512D01*
X123457817Y-59418668D01*
X123457815Y-59418669D01*
X123284730Y-59539864D01*
X123284727Y-59539866D01*
X123280219Y-59543023D01*
X123123023Y-59700219D01*
X123119866Y-59704727D01*
X123119864Y-59704730D01*
X122998669Y-59877815D01*
X122995512Y-59882324D01*
X122993189Y-59887306D01*
X122993186Y-59887311D01*
X122907229Y-60071646D01*
X122901560Y-60083804D01*
X122844022Y-60298537D01*
X122824647Y-60520000D01*
X122844022Y-60741463D01*
X122901560Y-60956196D01*
X122903882Y-60961177D01*
X122903883Y-60961178D01*
X122993186Y-61152689D01*
X122993189Y-61152694D01*
X122995512Y-61157676D01*
X122998668Y-61162183D01*
X122998669Y-61162185D01*
X123098206Y-61304338D01*
X123123023Y-61339781D01*
X123280219Y-61496977D01*
X123284727Y-61500134D01*
X123284730Y-61500136D01*
X123306508Y-61515385D01*
X123462323Y-61624488D01*
X123467305Y-61626811D01*
X123467310Y-61626814D01*
X123572373Y-61675805D01*
X123625658Y-61722722D01*
X123645119Y-61790999D01*
X123624577Y-61858959D01*
X123572373Y-61904195D01*
X123467311Y-61953186D01*
X123467306Y-61953189D01*
X123462324Y-61955512D01*
X123457817Y-61958668D01*
X123457815Y-61958669D01*
X123284730Y-62079864D01*
X123284727Y-62079866D01*
X123280219Y-62083023D01*
X123123023Y-62240219D01*
X123119866Y-62244727D01*
X123119864Y-62244730D01*
X122998669Y-62417815D01*
X122995512Y-62422324D01*
X122993189Y-62427306D01*
X122993186Y-62427311D01*
X122909825Y-62606079D01*
X122901560Y-62623804D01*
X122844022Y-62838537D01*
X122824647Y-63060000D01*
X122844022Y-63281463D01*
X122901560Y-63496196D01*
X122903882Y-63501177D01*
X122903883Y-63501178D01*
X122993186Y-63692689D01*
X122993189Y-63692694D01*
X122995512Y-63697676D01*
X122998668Y-63702183D01*
X122998669Y-63702185D01*
X123098206Y-63844338D01*
X123123023Y-63879781D01*
X123280219Y-64036977D01*
X123284727Y-64040134D01*
X123284730Y-64040136D01*
X123360495Y-64093187D01*
X123462323Y-64164488D01*
X123467305Y-64166811D01*
X123467310Y-64166814D01*
X123557783Y-64209002D01*
X123567396Y-64213484D01*
X123572373Y-64215805D01*
X123625658Y-64262722D01*
X123645119Y-64330999D01*
X123624577Y-64398959D01*
X123572373Y-64444195D01*
X123467311Y-64493186D01*
X123467306Y-64493189D01*
X123462324Y-64495512D01*
X123457817Y-64498668D01*
X123457815Y-64498669D01*
X123284730Y-64619864D01*
X123284727Y-64619866D01*
X123280219Y-64623023D01*
X123123023Y-64780219D01*
X123119866Y-64784727D01*
X123119864Y-64784730D01*
X123011228Y-64939879D01*
X122995512Y-64962324D01*
X122993189Y-64967306D01*
X122993186Y-64967311D01*
X122907229Y-65151646D01*
X122901560Y-65163804D01*
X122844022Y-65378537D01*
X122824647Y-65600000D01*
X122825126Y-65605475D01*
X122825126Y-65605476D01*
X122835831Y-65727838D01*
X122821842Y-65797442D01*
X122799405Y-65827914D01*
X122261089Y-66366230D01*
X122246677Y-66378616D01*
X122235082Y-66387149D01*
X122235077Y-66387154D01*
X122229182Y-66391492D01*
X122224443Y-66397070D01*
X122224440Y-66397073D01*
X122194965Y-66431768D01*
X122188035Y-66439284D01*
X122182340Y-66444979D01*
X122180060Y-66447861D01*
X122164719Y-66467251D01*
X122161928Y-66470655D01*
X122135580Y-66501669D01*
X122114667Y-66526285D01*
X122111339Y-66532801D01*
X122107972Y-66537850D01*
X122104805Y-66542979D01*
X122100266Y-66548716D01*
X122069345Y-66614875D01*
X122067442Y-66618769D01*
X122034231Y-66683808D01*
X122032492Y-66690916D01*
X122030393Y-66696559D01*
X122028476Y-66702322D01*
X122025378Y-66708950D01*
X122023888Y-66716112D01*
X122023888Y-66716113D01*
X122010514Y-66780412D01*
X122009544Y-66784696D01*
X121992192Y-66855610D01*
X121991500Y-66866764D01*
X121991464Y-66866762D01*
X121991225Y-66870755D01*
X121990851Y-66874947D01*
X121989360Y-66882115D01*
X121989558Y-66889432D01*
X121991454Y-66959521D01*
X121991500Y-66962928D01*
X121991500Y-79882930D01*
X121990067Y-79901880D01*
X121986801Y-79923349D01*
X121987394Y-79930641D01*
X121987394Y-79930644D01*
X121991085Y-79976018D01*
X121991500Y-79986233D01*
X121991500Y-79994293D01*
X121991925Y-79997937D01*
X121994789Y-80022507D01*
X121995222Y-80026882D01*
X122001140Y-80099637D01*
X122003396Y-80106601D01*
X122004587Y-80112560D01*
X122005971Y-80118415D01*
X122006818Y-80125681D01*
X122031735Y-80194327D01*
X122033152Y-80198455D01*
X122055649Y-80267899D01*
X122059445Y-80274154D01*
X122061951Y-80279628D01*
X122064670Y-80285058D01*
X122067167Y-80291937D01*
X122071180Y-80298057D01*
X122071180Y-80298058D01*
X122107186Y-80352976D01*
X122109523Y-80356680D01*
X122147405Y-80419107D01*
X122151121Y-80423315D01*
X122151122Y-80423316D01*
X122154803Y-80427484D01*
X122154776Y-80427508D01*
X122157429Y-80430500D01*
X122160132Y-80433733D01*
X122164144Y-80439852D01*
X122202670Y-80476348D01*
X122220383Y-80493128D01*
X122222825Y-80495506D01*
X125256468Y-83529149D01*
X125258010Y-83530717D01*
X125313455Y-83588132D01*
X125319346Y-83591987D01*
X125319351Y-83591991D01*
X125351512Y-83613036D01*
X125360698Y-83619655D01*
X125392973Y-83645191D01*
X125392978Y-83645194D01*
X125398716Y-83649734D01*
X125405345Y-83652832D01*
X125405348Y-83652834D01*
X125414113Y-83656930D01*
X125421649Y-83660452D01*
X125437281Y-83669161D01*
X125455846Y-83681310D01*
X125462446Y-83683765D01*
X125462455Y-83683769D01*
X125502130Y-83698524D01*
X125511557Y-83702472D01*
X125558950Y-83724622D01*
X125579932Y-83728986D01*
X125598190Y-83734248D01*
X125608737Y-83738170D01*
X125615341Y-83740626D01*
X125656021Y-83746054D01*
X125668139Y-83747671D01*
X125677132Y-83749204D01*
X125721826Y-83758500D01*
X125732115Y-83760640D01*
X125749667Y-83760165D01*
X125769725Y-83761225D01*
X125784015Y-83763132D01*
X125791027Y-83762494D01*
X125791032Y-83762494D01*
X125840927Y-83757953D01*
X125848938Y-83757480D01*
X125890271Y-83756361D01*
X125908920Y-83755857D01*
X125922150Y-83752349D01*
X125943012Y-83748662D01*
X125943059Y-83748658D01*
X125953483Y-83747709D01*
X126011568Y-83728836D01*
X126018189Y-83726885D01*
X126072814Y-83712401D01*
X126072817Y-83712400D01*
X126079884Y-83710526D01*
X126088520Y-83705905D01*
X126109149Y-83697130D01*
X126109502Y-83697015D01*
X126180472Y-83695061D01*
X126241232Y-83731786D01*
X126272492Y-83795530D01*
X126273659Y-83829729D01*
X126266500Y-83899600D01*
X126266500Y-84900400D01*
X126266837Y-84903646D01*
X126266837Y-84903650D01*
X126277474Y-85006166D01*
X126277193Y-85006195D01*
X126279000Y-85023120D01*
X126279000Y-88476973D01*
X126277076Y-88495126D01*
X126277203Y-88495139D01*
X126266500Y-88599600D01*
X126266500Y-89600400D01*
X126277474Y-89706166D01*
X126333450Y-89873946D01*
X126426522Y-90024348D01*
X126551697Y-90149305D01*
X126557927Y-90153145D01*
X126557928Y-90153146D01*
X126695090Y-90237694D01*
X126702262Y-90242115D01*
X126782005Y-90268564D01*
X126863611Y-90295632D01*
X126863613Y-90295632D01*
X126870139Y-90297797D01*
X126876975Y-90298497D01*
X126876978Y-90298498D01*
X126920031Y-90302909D01*
X126974600Y-90308500D01*
X127600400Y-90308500D01*
X127603646Y-90308163D01*
X127603650Y-90308163D01*
X127699308Y-90298238D01*
X127699312Y-90298237D01*
X127706166Y-90297526D01*
X127712702Y-90295345D01*
X127712704Y-90295345D01*
X127844806Y-90251272D01*
X127873946Y-90241550D01*
X128024348Y-90148478D01*
X128110784Y-90061891D01*
X128173066Y-90027812D01*
X128243886Y-90032815D01*
X128288976Y-90061736D01*
X128376697Y-90149305D01*
X128382927Y-90153145D01*
X128382928Y-90153146D01*
X128520090Y-90237694D01*
X128527262Y-90242115D01*
X128607005Y-90268564D01*
X128688611Y-90295632D01*
X128688613Y-90295632D01*
X128695139Y-90297797D01*
X128701975Y-90298497D01*
X128701978Y-90298498D01*
X128745031Y-90302909D01*
X128799600Y-90308500D01*
X129425400Y-90308500D01*
X129428646Y-90308163D01*
X129428650Y-90308163D01*
X129524308Y-90298238D01*
X129524312Y-90298237D01*
X129531166Y-90297526D01*
X129537702Y-90295345D01*
X129537704Y-90295345D01*
X129669806Y-90251272D01*
X129698946Y-90241550D01*
X129849348Y-90148478D01*
X129974305Y-90023303D01*
X130003392Y-89976115D01*
X130058740Y-89886325D01*
X130111513Y-89838832D01*
X130181584Y-89827408D01*
X130246708Y-89855682D01*
X130286207Y-89914676D01*
X130292000Y-89952441D01*
X130292000Y-91645499D01*
X130292324Y-91663630D01*
X130292645Y-91672618D01*
X130293615Y-91690726D01*
X130313008Y-91961884D01*
X130316887Y-91997954D01*
X130319445Y-92015742D01*
X130319647Y-92016859D01*
X130325568Y-92049679D01*
X130325881Y-92051416D01*
X130382706Y-92312637D01*
X130391668Y-92347751D01*
X130396731Y-92364997D01*
X130408190Y-92399428D01*
X130408584Y-92400485D01*
X130408586Y-92400490D01*
X130428939Y-92455057D01*
X130501619Y-92649921D01*
X130515502Y-92683437D01*
X130522968Y-92699784D01*
X130539195Y-92732199D01*
X130539743Y-92733202D01*
X130539750Y-92733216D01*
X130607269Y-92856866D01*
X130667316Y-92966834D01*
X130685820Y-92998021D01*
X130695539Y-93013144D01*
X130696178Y-93014064D01*
X130714646Y-93040663D01*
X130716221Y-93042932D01*
X130776471Y-93123416D01*
X130875757Y-93256047D01*
X130875771Y-93256065D01*
X130876429Y-93256944D01*
X130899192Y-93285190D01*
X130910965Y-93298776D01*
X130935666Y-93325306D01*
X131124694Y-93514334D01*
X131151224Y-93539035D01*
X131164810Y-93550808D01*
X131193056Y-93573571D01*
X131193935Y-93574229D01*
X131193953Y-93574243D01*
X131246726Y-93613748D01*
X131407068Y-93733779D01*
X131436856Y-93754461D01*
X131451979Y-93764180D01*
X131483165Y-93782684D01*
X131505634Y-93794953D01*
X131558221Y-93823668D01*
X131558223Y-93823669D01*
X131715528Y-93909564D01*
X131715525Y-93909569D01*
X131715555Y-93909579D01*
X131717734Y-93910769D01*
X131750216Y-93927032D01*
X131751213Y-93927488D01*
X131751229Y-93927495D01*
X131760123Y-93931557D01*
X131766563Y-93934498D01*
X131767579Y-93934919D01*
X131767600Y-93934928D01*
X131782967Y-93941293D01*
X131800079Y-93948381D01*
X131801129Y-93948772D01*
X131801135Y-93948775D01*
X132049523Y-94041419D01*
X132049536Y-94041423D01*
X132050572Y-94041810D01*
X132051628Y-94042161D01*
X132051638Y-94042165D01*
X132083934Y-94052914D01*
X132084998Y-94053268D01*
X132086075Y-94053584D01*
X132086084Y-94053587D01*
X132101163Y-94058014D01*
X132101173Y-94058017D01*
X132102240Y-94058330D01*
X132103295Y-94058599D01*
X132103305Y-94058602D01*
X132132336Y-94066011D01*
X132137359Y-94067293D01*
X132205912Y-94082206D01*
X132275895Y-94097430D01*
X132275904Y-94097431D01*
X132279184Y-94098145D01*
X132282534Y-94098506D01*
X132282536Y-94098506D01*
X132383660Y-94109393D01*
X132383664Y-94109393D01*
X132387015Y-94109754D01*
X132414165Y-94109762D01*
X132437138Y-94109769D01*
X132440510Y-94109770D01*
X132470633Y-94106544D01*
X132540542Y-94099059D01*
X132540546Y-94099058D01*
X132548373Y-94098220D01*
X132599829Y-94079060D01*
X132679657Y-94049335D01*
X132683876Y-94047764D01*
X132721835Y-94027064D01*
X132742258Y-94015927D01*
X132742263Y-94015924D01*
X132746207Y-94013773D01*
X132755171Y-94007071D01*
X132819095Y-93959273D01*
X132862001Y-93927191D01*
X132873081Y-93912408D01*
X132946022Y-93815084D01*
X132946023Y-93815083D01*
X132948717Y-93811488D01*
X132974917Y-93763571D01*
X132980620Y-93753141D01*
X132980623Y-93753135D01*
X132982777Y-93749195D01*
X133033383Y-93613748D01*
X133034405Y-93599578D01*
X133034883Y-93592940D01*
X133059731Y-93526434D01*
X133116591Y-93483920D01*
X133160557Y-93476000D01*
X133838134Y-93476000D01*
X133899874Y-93469293D01*
X133900316Y-93469245D01*
X133900321Y-93469293D01*
X133949679Y-93469293D01*
X133949684Y-93469245D01*
X134011866Y-93476000D01*
X135108134Y-93476000D01*
X135169874Y-93469293D01*
X135170316Y-93469245D01*
X135170321Y-93469293D01*
X135219679Y-93469293D01*
X135219684Y-93469245D01*
X135281866Y-93476000D01*
X136378134Y-93476000D01*
X136439874Y-93469293D01*
X136440316Y-93469245D01*
X136440321Y-93469293D01*
X136489679Y-93469293D01*
X136489684Y-93469245D01*
X136551866Y-93476000D01*
X137648134Y-93476000D01*
X137709874Y-93469293D01*
X137710316Y-93469245D01*
X137710321Y-93469293D01*
X137759679Y-93469293D01*
X137759684Y-93469245D01*
X137821866Y-93476000D01*
X138918134Y-93476000D01*
X138979874Y-93469293D01*
X138980316Y-93469245D01*
X138980321Y-93469293D01*
X139029679Y-93469293D01*
X139029684Y-93469245D01*
X139091866Y-93476000D01*
X140188134Y-93476000D01*
X140249874Y-93469293D01*
X140250316Y-93469245D01*
X140250321Y-93469293D01*
X140299679Y-93469293D01*
X140299684Y-93469245D01*
X140361866Y-93476000D01*
X141458134Y-93476000D01*
X141519874Y-93469293D01*
X141520316Y-93469245D01*
X141520321Y-93469293D01*
X141569679Y-93469293D01*
X141569684Y-93469245D01*
X141631866Y-93476000D01*
X142240534Y-93476000D01*
X142308655Y-93496002D01*
X142355148Y-93549658D01*
X142365251Y-93584068D01*
X142372586Y-93635081D01*
X142374535Y-93648639D01*
X142375801Y-93652951D01*
X142375802Y-93652955D01*
X142399727Y-93734434D01*
X142415271Y-93787372D01*
X142493443Y-93909010D01*
X142539936Y-93962666D01*
X142649212Y-94057355D01*
X142780738Y-94117421D01*
X142790223Y-94120206D01*
X142844536Y-94136154D01*
X142844540Y-94136155D01*
X142848859Y-94137423D01*
X142853307Y-94138063D01*
X142853314Y-94138064D01*
X142987530Y-94157361D01*
X142987537Y-94157362D01*
X142991978Y-94158000D01*
X152568022Y-94158000D01*
X152570808Y-94157751D01*
X152570819Y-94157751D01*
X152655154Y-94150228D01*
X152655160Y-94150227D01*
X152657931Y-94149980D01*
X152701829Y-94142086D01*
X152788907Y-94118278D01*
X152804531Y-94109770D01*
X152837370Y-94091886D01*
X152915890Y-94049127D01*
X152972774Y-94006645D01*
X153075130Y-93904523D01*
X153124101Y-93815084D01*
X153142408Y-93781648D01*
X153142409Y-93781645D01*
X153144571Y-93777697D01*
X153169458Y-93711205D01*
X153179595Y-93664860D01*
X153199233Y-93575077D01*
X153233329Y-93512803D01*
X153295680Y-93478849D01*
X153322323Y-93476000D01*
X153928134Y-93476000D01*
X153989874Y-93469293D01*
X153990316Y-93469245D01*
X153990321Y-93469293D01*
X154039679Y-93469293D01*
X154039684Y-93469245D01*
X154101866Y-93476000D01*
X155198134Y-93476000D01*
X155259874Y-93469293D01*
X155260316Y-93469245D01*
X155260321Y-93469293D01*
X155309679Y-93469293D01*
X155309684Y-93469245D01*
X155371866Y-93476000D01*
X156468134Y-93476000D01*
X156471529Y-93475631D01*
X156471533Y-93475631D01*
X156526554Y-93469654D01*
X156596436Y-93482182D01*
X156629256Y-93505822D01*
X156646673Y-93523239D01*
X156703509Y-93565786D01*
X156830414Y-93635081D01*
X156839216Y-93636996D01*
X156839219Y-93636997D01*
X156967301Y-93664860D01*
X156967304Y-93664860D01*
X156971701Y-93665817D01*
X157042516Y-93670882D01*
X157047004Y-93670561D01*
X157047005Y-93670561D01*
X157170594Y-93661721D01*
X157239968Y-93676812D01*
X157290170Y-93727014D01*
X157305262Y-93796388D01*
X157280452Y-93862908D01*
X157269145Y-93876027D01*
X157139466Y-94007071D01*
X157137225Y-94009929D01*
X157051947Y-94118689D01*
X156925386Y-94280098D01*
X156744105Y-94575921D01*
X156742580Y-94579206D01*
X156742578Y-94579210D01*
X156669873Y-94735840D01*
X156598027Y-94890620D01*
X156541716Y-95060888D01*
X156509811Y-95157361D01*
X156489087Y-95220023D01*
X156418730Y-95559764D01*
X156387888Y-95905341D01*
X156387983Y-95908971D01*
X156387983Y-95908972D01*
X156389492Y-95966612D01*
X156396970Y-96252171D01*
X156445856Y-96595660D01*
X156533897Y-96931253D01*
X156659927Y-97254503D01*
X156822275Y-97561126D01*
X156824325Y-97564109D01*
X156824327Y-97564112D01*
X157016733Y-97844064D01*
X157016739Y-97844071D01*
X157018790Y-97847056D01*
X157021178Y-97849793D01*
X157224788Y-98083196D01*
X157246866Y-98108505D01*
X157249551Y-98110948D01*
X157427431Y-98272806D01*
X157464354Y-98333447D01*
X157462631Y-98404422D01*
X157422809Y-98463199D01*
X157357531Y-98491116D01*
X157342632Y-98492000D01*
X121949398Y-98492000D01*
X121881277Y-98471998D01*
X121834784Y-98418342D01*
X121824680Y-98348068D01*
X121838810Y-98305615D01*
X121881117Y-98228136D01*
X121960805Y-98082199D01*
X121977032Y-98049784D01*
X121984498Y-98033437D01*
X121998381Y-97999921D01*
X122048597Y-97865288D01*
X122091414Y-97750490D01*
X122091416Y-97750485D01*
X122091810Y-97749428D01*
X122103269Y-97714997D01*
X122108332Y-97697751D01*
X122117294Y-97662637D01*
X122174119Y-97401416D01*
X122180555Y-97365742D01*
X122183113Y-97347954D01*
X122186992Y-97311884D01*
X122206385Y-97040726D01*
X122207355Y-97022618D01*
X122207676Y-97013630D01*
X122208000Y-96995499D01*
X122208000Y-92454501D01*
X122207676Y-92436370D01*
X122207355Y-92427382D01*
X122206385Y-92409274D01*
X122186992Y-92138116D01*
X122183113Y-92102046D01*
X122180555Y-92084258D01*
X122177235Y-92065853D01*
X122174317Y-92049679D01*
X122174312Y-92049655D01*
X122174119Y-92048584D01*
X122144215Y-91911115D01*
X122117529Y-91788444D01*
X122117293Y-91787359D01*
X122108329Y-91752237D01*
X122103266Y-91734992D01*
X122091809Y-91700569D01*
X122086565Y-91686507D01*
X121998768Y-91451117D01*
X121998381Y-91450079D01*
X121984498Y-91416563D01*
X121977032Y-91400216D01*
X121960805Y-91367801D01*
X121960250Y-91366784D01*
X121833225Y-91134156D01*
X121833215Y-91134138D01*
X121832684Y-91133166D01*
X121814180Y-91101979D01*
X121804461Y-91086856D01*
X121783779Y-91057068D01*
X121701960Y-90947771D01*
X121624243Y-90843953D01*
X121624229Y-90843935D01*
X121623571Y-90843056D01*
X121600808Y-90814810D01*
X121589035Y-90801224D01*
X121564334Y-90774694D01*
X121375306Y-90585666D01*
X121348776Y-90560965D01*
X121335190Y-90549192D01*
X121306944Y-90526429D01*
X121306065Y-90525771D01*
X121306047Y-90525757D01*
X121202229Y-90448040D01*
X121092932Y-90366221D01*
X121063144Y-90345539D01*
X121060936Y-90344120D01*
X121048938Y-90336409D01*
X121048925Y-90336401D01*
X121048021Y-90335820D01*
X121016834Y-90317316D01*
X121015862Y-90316785D01*
X121015844Y-90316775D01*
X120783216Y-90189750D01*
X120783202Y-90189743D01*
X120782199Y-90189195D01*
X120749784Y-90172968D01*
X120733437Y-90165502D01*
X120732421Y-90165081D01*
X120732400Y-90165072D01*
X120700952Y-90152046D01*
X120700949Y-90152045D01*
X120699921Y-90151619D01*
X120679853Y-90144134D01*
X120450477Y-90058581D01*
X120450464Y-90058577D01*
X120449428Y-90058190D01*
X120448372Y-90057839D01*
X120448362Y-90057835D01*
X120416066Y-90047086D01*
X120416059Y-90047084D01*
X120415002Y-90046732D01*
X120413925Y-90046416D01*
X120413916Y-90046413D01*
X120398837Y-90041986D01*
X120398827Y-90041983D01*
X120397760Y-90041670D01*
X120396705Y-90041401D01*
X120396695Y-90041398D01*
X120363695Y-90032976D01*
X120362641Y-90032707D01*
X120202158Y-89997796D01*
X120102493Y-89976115D01*
X120102478Y-89976112D01*
X120101416Y-89975881D01*
X120100344Y-89975688D01*
X120100326Y-89975684D01*
X120066855Y-89969645D01*
X120066841Y-89969643D01*
X120065734Y-89969443D01*
X120047951Y-89966886D01*
X120033268Y-89965307D01*
X120026078Y-89964534D01*
X120023092Y-89963658D01*
X120010105Y-89962500D01*
X120009274Y-89962500D01*
X120000285Y-89962179D01*
X119995364Y-89961827D01*
X119790111Y-89947147D01*
X119740727Y-89943615D01*
X119740237Y-89943589D01*
X119740225Y-89943588D01*
X119733779Y-89943243D01*
X119722618Y-89942645D01*
X119713630Y-89942324D01*
X119713133Y-89942315D01*
X119713092Y-89942314D01*
X119701293Y-89942104D01*
X119695499Y-89942000D01*
X119506680Y-89942000D01*
X119425244Y-89948570D01*
X119422737Y-89948977D01*
X119422730Y-89948978D01*
X119401409Y-89952441D01*
X119385369Y-89955046D01*
X119382628Y-89955721D01*
X119382236Y-89955790D01*
X119380416Y-89956161D01*
X119380405Y-89956109D01*
X119365482Y-89958709D01*
X119336011Y-89961766D01*
X119335426Y-89961827D01*
X119322424Y-89962500D01*
X116377111Y-89962500D01*
X116364269Y-89961844D01*
X116364103Y-89961827D01*
X116346814Y-89960056D01*
X116346808Y-89960055D01*
X116346807Y-89960054D01*
X116335911Y-89958938D01*
X116318791Y-89955979D01*
X116317329Y-89955621D01*
X116314413Y-89954907D01*
X116311928Y-89954506D01*
X116311925Y-89954505D01*
X116301672Y-89952849D01*
X116274746Y-89948500D01*
X116234245Y-89945250D01*
X116196267Y-89942202D01*
X116196256Y-89942202D01*
X116193744Y-89942000D01*
X111804501Y-89942000D01*
X111798707Y-89942104D01*
X111786908Y-89942314D01*
X111786867Y-89942315D01*
X111786370Y-89942324D01*
X111777382Y-89942645D01*
X111766221Y-89943243D01*
X111759775Y-89943588D01*
X111759763Y-89943589D01*
X111759273Y-89943615D01*
X111709889Y-89947147D01*
X111500000Y-89962159D01*
X111500000Y-89950000D01*
X100634500Y-89950000D01*
X100566379Y-89929998D01*
X100519886Y-89876342D01*
X100508500Y-89824000D01*
X100508500Y-89401866D01*
X100501745Y-89339684D01*
X100450615Y-89203295D01*
X100363261Y-89086739D01*
X100246705Y-88999385D01*
X100110316Y-88948255D01*
X100048134Y-88941500D01*
X98284500Y-88941500D01*
X98216379Y-88921498D01*
X98169886Y-88867842D01*
X98162611Y-88834399D01*
X115689500Y-88834399D01*
X115695711Y-88837500D01*
X117269385Y-88837500D01*
X117284624Y-88833025D01*
X117285829Y-88831635D01*
X117287500Y-88823952D01*
X117287500Y-88819385D01*
X118412500Y-88819385D01*
X118416975Y-88834624D01*
X118418365Y-88835829D01*
X118426048Y-88837500D01*
X119997578Y-88837500D01*
X120011109Y-88833527D01*
X120012090Y-88826701D01*
X119993412Y-88770716D01*
X119987239Y-88757538D01*
X119901937Y-88619693D01*
X119892901Y-88608292D01*
X119778171Y-88493761D01*
X119766760Y-88484749D01*
X119628757Y-88399684D01*
X119615576Y-88393537D01*
X119461290Y-88342362D01*
X119447914Y-88339495D01*
X119353562Y-88329828D01*
X119347145Y-88329500D01*
X118430615Y-88329500D01*
X118415376Y-88333975D01*
X118414171Y-88335365D01*
X118412500Y-88343048D01*
X118412500Y-88819385D01*
X117287500Y-88819385D01*
X117287500Y-88347616D01*
X117283025Y-88332377D01*
X117281635Y-88331172D01*
X117273952Y-88329501D01*
X116352905Y-88329501D01*
X116346386Y-88329838D01*
X116250794Y-88339757D01*
X116237400Y-88342649D01*
X116083216Y-88394088D01*
X116070038Y-88400261D01*
X115932193Y-88485563D01*
X115920792Y-88494599D01*
X115806261Y-88609329D01*
X115797249Y-88620740D01*
X115712184Y-88758743D01*
X115706037Y-88771924D01*
X115689989Y-88820306D01*
X115689500Y-88834399D01*
X98162611Y-88834399D01*
X98158500Y-88815500D01*
X98158500Y-85922111D01*
X98178502Y-85853990D01*
X98232158Y-85807497D01*
X98302432Y-85797393D01*
X98369297Y-85828916D01*
X98603481Y-86042006D01*
X98885233Y-86244466D01*
X99188388Y-86413200D01*
X99508928Y-86545972D01*
X99512422Y-86546967D01*
X99512424Y-86546968D01*
X99839103Y-86640025D01*
X99839108Y-86640026D01*
X99842604Y-86641022D01*
X100039304Y-86673233D01*
X100181412Y-86696504D01*
X100181419Y-86696505D01*
X100184993Y-86697090D01*
X100358276Y-86705262D01*
X100527931Y-86713263D01*
X100527932Y-86713263D01*
X100531558Y-86713434D01*
X100540415Y-86712830D01*
X100874073Y-86690084D01*
X100874081Y-86690083D01*
X100877704Y-86689836D01*
X100881279Y-86689173D01*
X100881282Y-86689173D01*
X101215279Y-86627270D01*
X101215283Y-86627269D01*
X101218844Y-86626609D01*
X101485477Y-86544582D01*
X101546978Y-86525662D01*
X101550456Y-86524592D01*
X101868145Y-86385136D01*
X102054623Y-86276168D01*
X102164560Y-86211926D01*
X102164562Y-86211925D01*
X102167700Y-86210091D01*
X102356468Y-86068360D01*
X102442244Y-86003958D01*
X102442248Y-86003955D01*
X102445151Y-86001775D01*
X102696819Y-85762950D01*
X102919370Y-85496783D01*
X102951101Y-85448478D01*
X103029922Y-85328483D01*
X103109853Y-85206799D01*
X103263956Y-84900400D01*
X103264117Y-84900080D01*
X103264120Y-84900072D01*
X103265744Y-84896844D01*
X103384977Y-84571026D01*
X103385822Y-84567504D01*
X103385825Y-84567496D01*
X103465124Y-84237191D01*
X103465125Y-84237187D01*
X103465971Y-84233662D01*
X103506397Y-83899600D01*
X103507316Y-83892004D01*
X103507316Y-83891997D01*
X103507652Y-83889225D01*
X103507801Y-83884500D01*
X103513511Y-83702797D01*
X103513599Y-83700000D01*
X103513438Y-83697204D01*
X103493836Y-83357246D01*
X103493835Y-83357241D01*
X103493627Y-83353626D01*
X103480805Y-83280160D01*
X103434600Y-83015415D01*
X103434598Y-83015408D01*
X103433976Y-83011842D01*
X103427312Y-82989343D01*
X103383518Y-82841499D01*
X103335437Y-82679180D01*
X103243001Y-82462466D01*
X103200740Y-82363386D01*
X103200738Y-82363383D01*
X103199316Y-82360048D01*
X103181342Y-82328535D01*
X103029208Y-82061816D01*
X103027417Y-82058676D01*
X102822018Y-81779060D01*
X102585842Y-81524904D01*
X102322019Y-81299578D01*
X102034047Y-81106069D01*
X101725741Y-80946940D01*
X101401189Y-80824302D01*
X101397668Y-80823418D01*
X101397663Y-80823416D01*
X101233406Y-80782158D01*
X101064692Y-80739780D01*
X101042476Y-80736855D01*
X100724315Y-80694968D01*
X100724307Y-80694967D01*
X100720711Y-80694494D01*
X100576045Y-80692221D01*
X100377446Y-80689101D01*
X100377442Y-80689101D01*
X100373804Y-80689044D01*
X100370190Y-80689405D01*
X100370184Y-80689405D01*
X100173830Y-80709004D01*
X100028569Y-80723503D01*
X99689583Y-80797414D01*
X99686156Y-80798587D01*
X99686150Y-80798589D01*
X99366085Y-80908172D01*
X99361339Y-80909797D01*
X99048188Y-81059163D01*
X98754279Y-81243532D01*
X98751443Y-81245804D01*
X98751436Y-81245809D01*
X98507384Y-81441332D01*
X98483509Y-81460459D01*
X98480958Y-81463037D01*
X98374061Y-81571059D01*
X98311927Y-81605410D01*
X98241086Y-81600716D01*
X98184028Y-81558467D01*
X98158870Y-81492078D01*
X98158500Y-81482431D01*
X98158500Y-79633913D01*
X98178502Y-79565792D01*
X98232158Y-79519299D01*
X98302432Y-79509195D01*
X98317111Y-79512206D01*
X98473309Y-79554059D01*
X98484104Y-79555962D01*
X98694522Y-79574372D01*
X98705483Y-79574371D01*
X98863306Y-79560563D01*
X98874314Y-79556257D01*
X98868904Y-79546534D01*
X98700000Y-79377631D01*
X98195405Y-78873036D01*
X98161380Y-78810724D01*
X98158500Y-78783940D01*
X98158500Y-78301132D01*
X99782828Y-78301132D01*
X99782959Y-78302965D01*
X99787210Y-78309580D01*
X99946172Y-78468542D01*
X99956547Y-78474208D01*
X99960519Y-78463813D01*
X99974371Y-78305486D01*
X99974371Y-78294514D01*
X99960563Y-78136694D01*
X99956257Y-78125686D01*
X99946534Y-78131096D01*
X99790442Y-78287188D01*
X99782828Y-78301132D01*
X98158500Y-78301132D01*
X98158500Y-77816059D01*
X98178502Y-77747938D01*
X98195405Y-77726964D01*
X98700000Y-77222369D01*
X98877001Y-77045369D01*
X98933484Y-77012757D01*
X99130889Y-76959862D01*
X99136196Y-76958440D01*
X99141184Y-76956114D01*
X99332690Y-76866814D01*
X99332695Y-76866811D01*
X99337677Y-76864488D01*
X99439565Y-76793145D01*
X99515270Y-76740136D01*
X99515273Y-76740134D01*
X99519781Y-76736977D01*
X99676977Y-76579781D01*
X99734690Y-76497359D01*
X99801331Y-76402185D01*
X99801332Y-76402183D01*
X99804488Y-76397676D01*
X99806811Y-76392694D01*
X99806814Y-76392689D01*
X99896117Y-76201178D01*
X99896118Y-76201177D01*
X99898440Y-76196196D01*
X99907840Y-76161117D01*
X99930164Y-76077801D01*
X99955978Y-75981463D01*
X99975353Y-75760000D01*
X99955978Y-75538537D01*
X99898440Y-75323804D01*
X99889179Y-75303943D01*
X99806814Y-75127311D01*
X99806811Y-75127306D01*
X99804488Y-75122324D01*
X99771358Y-75075009D01*
X99680136Y-74944730D01*
X99680134Y-74944727D01*
X99676977Y-74940219D01*
X99519781Y-74783023D01*
X99515273Y-74779866D01*
X99515270Y-74779864D01*
X99439505Y-74726813D01*
X99337677Y-74655512D01*
X99332695Y-74653189D01*
X99332690Y-74653186D01*
X99227627Y-74604195D01*
X99174342Y-74557278D01*
X99154881Y-74489001D01*
X99175423Y-74421041D01*
X99227627Y-74375805D01*
X99332690Y-74326814D01*
X99332695Y-74326811D01*
X99337677Y-74324488D01*
X99483752Y-74222205D01*
X99515270Y-74200136D01*
X99515273Y-74200134D01*
X99519781Y-74196977D01*
X99676977Y-74039781D01*
X99682264Y-74032231D01*
X99683546Y-74031206D01*
X99683669Y-74031059D01*
X99683698Y-74031084D01*
X99737718Y-73987902D01*
X99785477Y-73978500D01*
X105953629Y-73978500D01*
X106021750Y-73998502D01*
X106042724Y-74015405D01*
X110856468Y-78829149D01*
X110858010Y-78830717D01*
X110913455Y-78888132D01*
X110919346Y-78891987D01*
X110919351Y-78891991D01*
X110951512Y-78913036D01*
X110960698Y-78919655D01*
X110992973Y-78945191D01*
X110992978Y-78945194D01*
X110998716Y-78949734D01*
X111005345Y-78952832D01*
X111005348Y-78952834D01*
X111014113Y-78956930D01*
X111021649Y-78960452D01*
X111037281Y-78969161D01*
X111055846Y-78981310D01*
X111062446Y-78983765D01*
X111062455Y-78983769D01*
X111102130Y-78998524D01*
X111111557Y-79002472D01*
X111158950Y-79024622D01*
X111179249Y-79028844D01*
X111179932Y-79028986D01*
X111198190Y-79034248D01*
X111208737Y-79038170D01*
X111215341Y-79040626D01*
X111252102Y-79045531D01*
X111268139Y-79047671D01*
X111277132Y-79049204D01*
X111324951Y-79059150D01*
X111332115Y-79060640D01*
X111349667Y-79060165D01*
X111369725Y-79061225D01*
X111384015Y-79063132D01*
X111391027Y-79062494D01*
X111391032Y-79062494D01*
X111440927Y-79057953D01*
X111448938Y-79057480D01*
X111501604Y-79056055D01*
X111501605Y-79056055D01*
X111508921Y-79055857D01*
X111515995Y-79053981D01*
X111515998Y-79053981D01*
X111522150Y-79052350D01*
X111543011Y-79048662D01*
X111544426Y-79048533D01*
X111546464Y-79048348D01*
X111546465Y-79048348D01*
X111553483Y-79047709D01*
X111560183Y-79045532D01*
X111560188Y-79045531D01*
X111611544Y-79028844D01*
X111618187Y-79026886D01*
X111672806Y-79012404D01*
X111672816Y-79012400D01*
X111679884Y-79010526D01*
X111686336Y-79007074D01*
X111688525Y-79005903D01*
X111707157Y-78997966D01*
X111708625Y-78997300D01*
X111715322Y-78995124D01*
X111771122Y-78961861D01*
X111776192Y-78958995D01*
X111829379Y-78930536D01*
X111835834Y-78927082D01*
X111841321Y-78922236D01*
X111845967Y-78919007D01*
X111849989Y-78916071D01*
X111849827Y-78915857D01*
X111855439Y-78911597D01*
X111861490Y-78907990D01*
X111911399Y-78860462D01*
X111914870Y-78857279D01*
X111968404Y-78810000D01*
X111972632Y-78804018D01*
X111974011Y-78802481D01*
X111976850Y-78798798D01*
X111979621Y-78795496D01*
X111984721Y-78790639D01*
X111990543Y-78781877D01*
X112025067Y-78729914D01*
X112027118Y-78726922D01*
X112066258Y-78671539D01*
X112070484Y-78665560D01*
X112073221Y-78658768D01*
X112074160Y-78657046D01*
X112075662Y-78653761D01*
X112078891Y-78648902D01*
X112106236Y-78576914D01*
X112107155Y-78574568D01*
X112133862Y-78508299D01*
X112136598Y-78501511D01*
X112137699Y-78494274D01*
X112137879Y-78493616D01*
X112139319Y-78489825D01*
X112150655Y-78409163D01*
X112150862Y-78407749D01*
X112158411Y-78358122D01*
X112163199Y-78326651D01*
X112162851Y-78322378D01*
X112163001Y-78321313D01*
X112163165Y-78309580D01*
X112163244Y-78303961D01*
X112163244Y-78303955D01*
X112163299Y-78300000D01*
X112155258Y-78228311D01*
X112154889Y-78224494D01*
X112149454Y-78157663D01*
X112149453Y-78157660D01*
X112148860Y-78150364D01*
X112146604Y-78143401D01*
X112146220Y-78141478D01*
X112145035Y-78137167D01*
X112144331Y-78130892D01*
X112119268Y-78058919D01*
X112118395Y-78056321D01*
X112096607Y-77989064D01*
X112096606Y-77989062D01*
X112094351Y-77982101D01*
X112090553Y-77975843D01*
X112089649Y-77973867D01*
X112088368Y-77970189D01*
X112045720Y-77901938D01*
X112044856Y-77900534D01*
X112005510Y-77835694D01*
X112005501Y-77835681D01*
X112002595Y-77830893D01*
X111998253Y-77825976D01*
X111998316Y-77825920D01*
X111998058Y-77825569D01*
X111997966Y-77825651D01*
X111995197Y-77822516D01*
X111945724Y-77773043D01*
X111878286Y-77705132D01*
X111877307Y-77704511D01*
X111876183Y-77703502D01*
X106996276Y-72823595D01*
X106962250Y-72761283D01*
X106967315Y-72690468D01*
X107009862Y-72633632D01*
X107076382Y-72608821D01*
X107085371Y-72608500D01*
X110983427Y-72608500D01*
X111042705Y-72626172D01*
X111043663Y-72624276D01*
X111049950Y-72627452D01*
X111055846Y-72631310D01*
X111062450Y-72633766D01*
X111062452Y-72633767D01*
X111135593Y-72660968D01*
X111215341Y-72690626D01*
X111384015Y-72713132D01*
X111391026Y-72712494D01*
X111391030Y-72712494D01*
X111546462Y-72698348D01*
X111553483Y-72697709D01*
X111560185Y-72695531D01*
X111560187Y-72695531D01*
X111708623Y-72647301D01*
X111708626Y-72647300D01*
X111715322Y-72645124D01*
X111861490Y-72557990D01*
X111866584Y-72553139D01*
X111866588Y-72553136D01*
X111933833Y-72489099D01*
X111984721Y-72440639D01*
X112006561Y-72407768D01*
X112074990Y-72304773D01*
X112078891Y-72298902D01*
X112139319Y-72139825D01*
X112163001Y-71971313D01*
X112163299Y-71950000D01*
X112144331Y-71780892D01*
X112088368Y-71620189D01*
X111998192Y-71475879D01*
X111878286Y-71355132D01*
X111734608Y-71263951D01*
X111574300Y-71206868D01*
X111405329Y-71186720D01*
X111398326Y-71187456D01*
X111398325Y-71187456D01*
X111243101Y-71203770D01*
X111243097Y-71203771D01*
X111236093Y-71204507D01*
X111229422Y-71206778D01*
X111081673Y-71257075D01*
X111081670Y-71257076D01*
X111075003Y-71259346D01*
X111053105Y-71272818D01*
X110987083Y-71291500D01*
X102834950Y-71291500D01*
X102766829Y-71271498D01*
X102745855Y-71254595D01*
X99985597Y-68494337D01*
X99951571Y-68432025D01*
X99952987Y-68372625D01*
X99954554Y-68366778D01*
X99954554Y-68366777D01*
X99955978Y-68361463D01*
X99975353Y-68140000D01*
X99970171Y-68080767D01*
X99984161Y-68011162D01*
X100033560Y-67960170D01*
X100102686Y-67943980D01*
X100169591Y-67967733D01*
X100184787Y-67980691D01*
X101996343Y-69792247D01*
X102003887Y-69800537D01*
X102008000Y-69807018D01*
X102013777Y-69812443D01*
X102057667Y-69853658D01*
X102060509Y-69856413D01*
X102080231Y-69876135D01*
X102083355Y-69878558D01*
X102083359Y-69878562D01*
X102083424Y-69878612D01*
X102092445Y-69886317D01*
X102124679Y-69916586D01*
X102131627Y-69920405D01*
X102131629Y-69920407D01*
X102142432Y-69926346D01*
X102158959Y-69937202D01*
X102168698Y-69944757D01*
X102168700Y-69944758D01*
X102174960Y-69949614D01*
X102215540Y-69967174D01*
X102226188Y-69972391D01*
X102264940Y-69993695D01*
X102272616Y-69995666D01*
X102272619Y-69995667D01*
X102284562Y-69998733D01*
X102303267Y-70005137D01*
X102321855Y-70013181D01*
X102329678Y-70014420D01*
X102329688Y-70014423D01*
X102365524Y-70020099D01*
X102377144Y-70022505D01*
X102412289Y-70031528D01*
X102419970Y-70033500D01*
X102440224Y-70033500D01*
X102459934Y-70035051D01*
X102479943Y-70038220D01*
X102487835Y-70037474D01*
X102523961Y-70034059D01*
X102535819Y-70033500D01*
X110945223Y-70033500D01*
X111014216Y-70054068D01*
X111055846Y-70081310D01*
X111062450Y-70083766D01*
X111062452Y-70083767D01*
X111098844Y-70097301D01*
X111215341Y-70140626D01*
X111384015Y-70163132D01*
X111391026Y-70162494D01*
X111391030Y-70162494D01*
X111546462Y-70148348D01*
X111553483Y-70147709D01*
X111560185Y-70145531D01*
X111560187Y-70145531D01*
X111708623Y-70097301D01*
X111708626Y-70097300D01*
X111715322Y-70095124D01*
X111861490Y-70007990D01*
X111866584Y-70003139D01*
X111866588Y-70003136D01*
X111935825Y-69937202D01*
X111984721Y-69890639D01*
X111994358Y-69876135D01*
X112045941Y-69798495D01*
X112078891Y-69748902D01*
X112139319Y-69589825D01*
X112163001Y-69421313D01*
X112163299Y-69400000D01*
X112144331Y-69230892D01*
X112088368Y-69070189D01*
X112074212Y-69047534D01*
X112060420Y-69025464D01*
X111998192Y-68925879D01*
X111878286Y-68805132D01*
X111734608Y-68713951D01*
X111574300Y-68656868D01*
X111405329Y-68636720D01*
X111398326Y-68637456D01*
X111398325Y-68637456D01*
X111243101Y-68653770D01*
X111243097Y-68653771D01*
X111236093Y-68654507D01*
X111075003Y-68709346D01*
X111012468Y-68747818D01*
X110946448Y-68766500D01*
X102814594Y-68766500D01*
X102746473Y-68746498D01*
X102725499Y-68729595D01*
X99978126Y-65982221D01*
X99944100Y-65919909D01*
X99945515Y-65860514D01*
X99954553Y-65826783D01*
X99954554Y-65826776D01*
X99955978Y-65821463D01*
X99975353Y-65600000D01*
X99974874Y-65594522D01*
X99973561Y-65579510D01*
X99987552Y-65509905D01*
X100036952Y-65458914D01*
X100106078Y-65442725D01*
X100172983Y-65466479D01*
X100188177Y-65479436D01*
X101966341Y-67257600D01*
X101974331Y-67266381D01*
X101974339Y-67266390D01*
X101978584Y-67273080D01*
X101984359Y-67278503D01*
X102030274Y-67321620D01*
X102033116Y-67324375D01*
X102053667Y-67344926D01*
X102056801Y-67347357D01*
X102057163Y-67347638D01*
X102066191Y-67355348D01*
X102099867Y-67386972D01*
X102106818Y-67390793D01*
X102106819Y-67390794D01*
X102118655Y-67397301D01*
X102135184Y-67408158D01*
X102145869Y-67416447D01*
X102145871Y-67416448D01*
X102152131Y-67421304D01*
X102194544Y-67439657D01*
X102205181Y-67444868D01*
X102245663Y-67467124D01*
X102253342Y-67469096D01*
X102253343Y-67469096D01*
X102266434Y-67472457D01*
X102285136Y-67478859D01*
X102304823Y-67487379D01*
X102312652Y-67488619D01*
X102350448Y-67494605D01*
X102362074Y-67497013D01*
X102399135Y-67506529D01*
X102399136Y-67506529D01*
X102406812Y-67508500D01*
X102428258Y-67508500D01*
X102447968Y-67510051D01*
X102469151Y-67513406D01*
X102515135Y-67509059D01*
X102526994Y-67508500D01*
X110983427Y-67508500D01*
X111042705Y-67526172D01*
X111043663Y-67524276D01*
X111049950Y-67527452D01*
X111055846Y-67531310D01*
X111062450Y-67533766D01*
X111062452Y-67533767D01*
X111098844Y-67547301D01*
X111215341Y-67590626D01*
X111384015Y-67613132D01*
X111391026Y-67612494D01*
X111391030Y-67612494D01*
X111546462Y-67598348D01*
X111553483Y-67597709D01*
X111560185Y-67595531D01*
X111560187Y-67595531D01*
X111708623Y-67547301D01*
X111708626Y-67547300D01*
X111715322Y-67545124D01*
X111861490Y-67457990D01*
X111866584Y-67453139D01*
X111866588Y-67453136D01*
X111969274Y-67355349D01*
X111984721Y-67340639D01*
X111996467Y-67322961D01*
X112044308Y-67250954D01*
X112078891Y-67198902D01*
X112139319Y-67039825D01*
X112163001Y-66871313D01*
X112163167Y-66859457D01*
X112163244Y-66853961D01*
X112163244Y-66853955D01*
X112163299Y-66850000D01*
X112144331Y-66680892D01*
X112088368Y-66520189D01*
X111998192Y-66375879D01*
X111878286Y-66255132D01*
X111734608Y-66163951D01*
X111574300Y-66106868D01*
X111405329Y-66086720D01*
X111398326Y-66087456D01*
X111398325Y-66087456D01*
X111243101Y-66103770D01*
X111243097Y-66103771D01*
X111236093Y-66104507D01*
X111229422Y-66106778D01*
X111081673Y-66157075D01*
X111081670Y-66157076D01*
X111075003Y-66159346D01*
X111053105Y-66172818D01*
X110987083Y-66191500D01*
X102814949Y-66191500D01*
X102746828Y-66171498D01*
X102725854Y-66154595D01*
X99985597Y-63414338D01*
X99951571Y-63352026D01*
X99952984Y-63292636D01*
X99954554Y-63286777D01*
X99954554Y-63286776D01*
X99955978Y-63281463D01*
X99975353Y-63060000D01*
X99970171Y-63000767D01*
X99984161Y-62931162D01*
X100033560Y-62880170D01*
X100102686Y-62863980D01*
X100169591Y-62887733D01*
X100184786Y-62900690D01*
X101110209Y-63826114D01*
X102026348Y-64742253D01*
X102033888Y-64750539D01*
X102038000Y-64757018D01*
X102043777Y-64762443D01*
X102087651Y-64803643D01*
X102090493Y-64806398D01*
X102110230Y-64826135D01*
X102113427Y-64828615D01*
X102122447Y-64836318D01*
X102154679Y-64866586D01*
X102161625Y-64870405D01*
X102161628Y-64870407D01*
X102172434Y-64876348D01*
X102188953Y-64887199D01*
X102204959Y-64899614D01*
X102212228Y-64902759D01*
X102212232Y-64902762D01*
X102245537Y-64917174D01*
X102256187Y-64922391D01*
X102294940Y-64943695D01*
X102302615Y-64945666D01*
X102302616Y-64945666D01*
X102314562Y-64948733D01*
X102333266Y-64955137D01*
X102339455Y-64957815D01*
X102351855Y-64963181D01*
X102359678Y-64964420D01*
X102359688Y-64964423D01*
X102395524Y-64970099D01*
X102407144Y-64972505D01*
X102442289Y-64981528D01*
X102449970Y-64983500D01*
X102470224Y-64983500D01*
X102489934Y-64985051D01*
X102509943Y-64988220D01*
X102517835Y-64987474D01*
X102553961Y-64984059D01*
X102565819Y-64983500D01*
X110945223Y-64983500D01*
X111014216Y-65004068D01*
X111055846Y-65031310D01*
X111062450Y-65033766D01*
X111062452Y-65033767D01*
X111098844Y-65047301D01*
X111215341Y-65090626D01*
X111384015Y-65113132D01*
X111391026Y-65112494D01*
X111391030Y-65112494D01*
X111546462Y-65098348D01*
X111553483Y-65097709D01*
X111560185Y-65095531D01*
X111560187Y-65095531D01*
X111708623Y-65047301D01*
X111708626Y-65047300D01*
X111715322Y-65045124D01*
X111861490Y-64957990D01*
X111866584Y-64953139D01*
X111866588Y-64953136D01*
X111957474Y-64866586D01*
X111984721Y-64840639D01*
X111990292Y-64832255D01*
X112045939Y-64748498D01*
X112078891Y-64698902D01*
X112139319Y-64539825D01*
X112163001Y-64371313D01*
X112163118Y-64362964D01*
X112163244Y-64353961D01*
X112163244Y-64353955D01*
X112163299Y-64350000D01*
X112144331Y-64180892D01*
X112139429Y-64166814D01*
X112090686Y-64026846D01*
X112088368Y-64020189D01*
X111998192Y-63875879D01*
X111878286Y-63755132D01*
X111834755Y-63727506D01*
X111787750Y-63697676D01*
X111734608Y-63663951D01*
X111574300Y-63606868D01*
X111405329Y-63586720D01*
X111398326Y-63587456D01*
X111398325Y-63587456D01*
X111243101Y-63603770D01*
X111243097Y-63603771D01*
X111236093Y-63604507D01*
X111075003Y-63659346D01*
X111012468Y-63697818D01*
X110946448Y-63716500D01*
X102844594Y-63716500D01*
X102776473Y-63696498D01*
X102755499Y-63679595D01*
X99978126Y-60902221D01*
X99944100Y-60839909D01*
X99945515Y-60780514D01*
X99954553Y-60746783D01*
X99954554Y-60746776D01*
X99955978Y-60741463D01*
X99975353Y-60520000D01*
X99955978Y-60298537D01*
X99898440Y-60083804D01*
X99892771Y-60071646D01*
X99806814Y-59887311D01*
X99806811Y-59887306D01*
X99804488Y-59882324D01*
X99801331Y-59877815D01*
X99680136Y-59704730D01*
X99680134Y-59704727D01*
X99676977Y-59700219D01*
X99519781Y-59543023D01*
X99515273Y-59539866D01*
X99515270Y-59539864D01*
X99426136Y-59477452D01*
X99337677Y-59415512D01*
X99332695Y-59413189D01*
X99332690Y-59413186D01*
X99227627Y-59364195D01*
X99174342Y-59317278D01*
X99154881Y-59249001D01*
X99175423Y-59181041D01*
X99227627Y-59135805D01*
X99332690Y-59086814D01*
X99332695Y-59086811D01*
X99337677Y-59084488D01*
X99439505Y-59013187D01*
X99515270Y-58960136D01*
X99515273Y-58960134D01*
X99519781Y-58956977D01*
X99676977Y-58799781D01*
X99688867Y-58782801D01*
X99801331Y-58622185D01*
X99801332Y-58622183D01*
X99804488Y-58617676D01*
X99806811Y-58612694D01*
X99806814Y-58612689D01*
X99896117Y-58421178D01*
X99896118Y-58421177D01*
X99898440Y-58416196D01*
X99955978Y-58201463D01*
X99975353Y-57980000D01*
X99955978Y-57758537D01*
X99898440Y-57543804D01*
X99892000Y-57529993D01*
X99806814Y-57347311D01*
X99806811Y-57347306D01*
X99804488Y-57342324D01*
X99801331Y-57337815D01*
X99680136Y-57164730D01*
X99680134Y-57164727D01*
X99676977Y-57160219D01*
X99519781Y-57003023D01*
X99515273Y-56999866D01*
X99515270Y-56999864D01*
X99422707Y-56935051D01*
X99337677Y-56875512D01*
X99332695Y-56873189D01*
X99332690Y-56873186D01*
X99227627Y-56824195D01*
X99174342Y-56777278D01*
X99154881Y-56709001D01*
X99175423Y-56641041D01*
X99227627Y-56595805D01*
X99332690Y-56546814D01*
X99332695Y-56546811D01*
X99337677Y-56544488D01*
X99495900Y-56433699D01*
X99515270Y-56420136D01*
X99515273Y-56420134D01*
X99519781Y-56416977D01*
X99676977Y-56259781D01*
X99681219Y-56253724D01*
X99801331Y-56082185D01*
X99801332Y-56082183D01*
X99804488Y-56077676D01*
X99806811Y-56072694D01*
X99806814Y-56072689D01*
X99896117Y-55881178D01*
X99896118Y-55881177D01*
X99898440Y-55876196D01*
X99955978Y-55661463D01*
X99975353Y-55440000D01*
X99955978Y-55218537D01*
X99898440Y-55003804D01*
X99892771Y-54991646D01*
X99806814Y-54807311D01*
X99806811Y-54807306D01*
X99804488Y-54802324D01*
X99791244Y-54783409D01*
X99680136Y-54624730D01*
X99680134Y-54624727D01*
X99676977Y-54620219D01*
X99519781Y-54463023D01*
X99515273Y-54459866D01*
X99515270Y-54459864D01*
X99366351Y-54355590D01*
X99337677Y-54335512D01*
X99332695Y-54333189D01*
X99332690Y-54333186D01*
X99227627Y-54284195D01*
X99174342Y-54237278D01*
X99154881Y-54169001D01*
X99175423Y-54101041D01*
X99227627Y-54055805D01*
X99332690Y-54006814D01*
X99332695Y-54006811D01*
X99337677Y-54004488D01*
X99439505Y-53933187D01*
X99515270Y-53880136D01*
X99515273Y-53880134D01*
X99519781Y-53876977D01*
X99676977Y-53719781D01*
X99681219Y-53713724D01*
X99801331Y-53542185D01*
X99801332Y-53542183D01*
X99804488Y-53537676D01*
X99806811Y-53532694D01*
X99806814Y-53532689D01*
X99896117Y-53341178D01*
X99896118Y-53341177D01*
X99898440Y-53336196D01*
X99955978Y-53121463D01*
X99975353Y-52900000D01*
X99955978Y-52678537D01*
X99898440Y-52463804D01*
X99892000Y-52449993D01*
X99806814Y-52267311D01*
X99806811Y-52267306D01*
X99804488Y-52262324D01*
X99801331Y-52257815D01*
X99680136Y-52084730D01*
X99680134Y-52084727D01*
X99676977Y-52080219D01*
X99519781Y-51923023D01*
X99515273Y-51919866D01*
X99515270Y-51919864D01*
X99366351Y-51815590D01*
X99337677Y-51795512D01*
X99332695Y-51793189D01*
X99332690Y-51793186D01*
X99227627Y-51744195D01*
X99174342Y-51697278D01*
X99154881Y-51629001D01*
X99175423Y-51561041D01*
X99227627Y-51515805D01*
X99332690Y-51466814D01*
X99332695Y-51466811D01*
X99337677Y-51464488D01*
X99439505Y-51393187D01*
X99515270Y-51340136D01*
X99515273Y-51340134D01*
X99519781Y-51336977D01*
X99676977Y-51179781D01*
X99681219Y-51173724D01*
X99801331Y-51002185D01*
X99801332Y-51002183D01*
X99804488Y-50997676D01*
X99806811Y-50992694D01*
X99806814Y-50992689D01*
X99896117Y-50801178D01*
X99896118Y-50801177D01*
X99898440Y-50796196D01*
X99955978Y-50581463D01*
X99975353Y-50360000D01*
X99955978Y-50138537D01*
X99898440Y-49923804D01*
X99892000Y-49909993D01*
X99806814Y-49727311D01*
X99806811Y-49727306D01*
X99804488Y-49722324D01*
X99801331Y-49717815D01*
X99680136Y-49544730D01*
X99680134Y-49544727D01*
X99676977Y-49540219D01*
X99519781Y-49383023D01*
X99515273Y-49379866D01*
X99515270Y-49379864D01*
X99439505Y-49326813D01*
X99337677Y-49255512D01*
X99332695Y-49253189D01*
X99332690Y-49253186D01*
X99227627Y-49204195D01*
X99174342Y-49157278D01*
X99154881Y-49089001D01*
X99175423Y-49021041D01*
X99227627Y-48975805D01*
X99332690Y-48926814D01*
X99332695Y-48926811D01*
X99337677Y-48924488D01*
X99439505Y-48853187D01*
X99515270Y-48800136D01*
X99515273Y-48800134D01*
X99519781Y-48796977D01*
X99676977Y-48639781D01*
X99681219Y-48633724D01*
X99801331Y-48462185D01*
X99801332Y-48462183D01*
X99804488Y-48457676D01*
X99806811Y-48452694D01*
X99806814Y-48452689D01*
X99896117Y-48261178D01*
X99896118Y-48261177D01*
X99898440Y-48256196D01*
X99955978Y-48041463D01*
X99975353Y-47820000D01*
X99955978Y-47598537D01*
X99898440Y-47383804D01*
X99888362Y-47362192D01*
X99806814Y-47187311D01*
X99806811Y-47187306D01*
X99804488Y-47182324D01*
X99801331Y-47177815D01*
X99680136Y-47004730D01*
X99680134Y-47004727D01*
X99676977Y-47000219D01*
X99519781Y-46843023D01*
X99515273Y-46839866D01*
X99515270Y-46839864D01*
X99439505Y-46786813D01*
X99337677Y-46715512D01*
X99332695Y-46713189D01*
X99332690Y-46713186D01*
X99227627Y-46664195D01*
X99174342Y-46617278D01*
X99154881Y-46549001D01*
X99175423Y-46481041D01*
X99227627Y-46435805D01*
X99230096Y-46434654D01*
X99243780Y-46428273D01*
X99332690Y-46386814D01*
X99332695Y-46386811D01*
X99337677Y-46384488D01*
X99514400Y-46260745D01*
X99515270Y-46260136D01*
X99515273Y-46260134D01*
X99519781Y-46256977D01*
X99676977Y-46099781D01*
X99681219Y-46093724D01*
X99801331Y-45922185D01*
X99801332Y-45922183D01*
X99804488Y-45917676D01*
X99806811Y-45912694D01*
X99806814Y-45912689D01*
X99896117Y-45721178D01*
X99896118Y-45721177D01*
X99898440Y-45716196D01*
X99955978Y-45501463D01*
X99975353Y-45280000D01*
X99955978Y-45058537D01*
X99898440Y-44843804D01*
X99892000Y-44829993D01*
X99806814Y-44647311D01*
X99806811Y-44647306D01*
X99804488Y-44642324D01*
X99801331Y-44637815D01*
X99680136Y-44464730D01*
X99680134Y-44464727D01*
X99676977Y-44460219D01*
X99519781Y-44303023D01*
X99515273Y-44299866D01*
X99515270Y-44299864D01*
X99456869Y-44258971D01*
X99429365Y-44239713D01*
X99385037Y-44184256D01*
X99377728Y-44113637D01*
X99409759Y-44050276D01*
X99470960Y-44014291D01*
X99501636Y-44010500D01*
X99510134Y-44010500D01*
X99572316Y-44003745D01*
X99708705Y-43952615D01*
X99825261Y-43865261D01*
X99912615Y-43748705D01*
X99963745Y-43612316D01*
X99970500Y-43550134D01*
X99970500Y-42410277D01*
X99990502Y-42342156D01*
X100044158Y-42295663D01*
X100116861Y-42285933D01*
X100140695Y-42289836D01*
X100181412Y-42296504D01*
X100181419Y-42296505D01*
X100184993Y-42297090D01*
X100358275Y-42305262D01*
X100527931Y-42313263D01*
X100527932Y-42313263D01*
X100531558Y-42313434D01*
X100540415Y-42312830D01*
X100874073Y-42290084D01*
X100874081Y-42290083D01*
X100877704Y-42289836D01*
X100881279Y-42289173D01*
X100881282Y-42289173D01*
X101215279Y-42227270D01*
X101215283Y-42227269D01*
X101218844Y-42226609D01*
X101550456Y-42124592D01*
X101868145Y-41985136D01*
X102112511Y-41842341D01*
X102164560Y-41811926D01*
X102164562Y-41811925D01*
X102167700Y-41810091D01*
X102170609Y-41807907D01*
X102442244Y-41603958D01*
X102442248Y-41603955D01*
X102445151Y-41601775D01*
X102696819Y-41362950D01*
X102919370Y-41096783D01*
X103109853Y-40806799D01*
X103258995Y-40510263D01*
X103264117Y-40500080D01*
X103264120Y-40500072D01*
X103265744Y-40496844D01*
X103384977Y-40171026D01*
X103385822Y-40167504D01*
X103385825Y-40167496D01*
X103465124Y-39837191D01*
X103465125Y-39837187D01*
X103465971Y-39833662D01*
X103466408Y-39830052D01*
X103507316Y-39492004D01*
X103507316Y-39491997D01*
X103507652Y-39489225D01*
X103513599Y-39300000D01*
X103513438Y-39297204D01*
X103493836Y-38957246D01*
X103493835Y-38957241D01*
X103493627Y-38953626D01*
X103476626Y-38856214D01*
X103434600Y-38615415D01*
X103434598Y-38615408D01*
X103433976Y-38611842D01*
X103335437Y-38279180D01*
X103265974Y-38116325D01*
X103200740Y-37963386D01*
X103200738Y-37963383D01*
X103199316Y-37960048D01*
X103149569Y-37872831D01*
X103029208Y-37661816D01*
X103027417Y-37658676D01*
X102822018Y-37379060D01*
X102585842Y-37124904D01*
X102322019Y-36899578D01*
X102082430Y-36738581D01*
X102037046Y-36683986D01*
X102028383Y-36613520D01*
X102059191Y-36549556D01*
X102119690Y-36512403D01*
X102152707Y-36508000D01*
X157751192Y-36508000D01*
X157819313Y-36528002D01*
G37*
G04 #@! TD.AperFunction*
G04 #@! TA.AperFunction,Conductor*
G36*
X116233411Y-90456407D02*
G01*
X116245139Y-90460297D01*
X116251975Y-90460997D01*
X116251978Y-90460998D01*
X116295031Y-90465409D01*
X116349600Y-90471000D01*
X119350400Y-90471000D01*
X119353646Y-90470663D01*
X119353650Y-90470663D01*
X119383583Y-90467557D01*
X119456166Y-90460026D01*
X119466805Y-90456476D01*
X119506680Y-90450000D01*
X119695499Y-90450000D01*
X119704487Y-90450321D01*
X119753871Y-90453853D01*
X119975650Y-90469715D01*
X119993433Y-90472272D01*
X120254658Y-90529098D01*
X120271900Y-90534160D01*
X120522393Y-90627589D01*
X120538740Y-90635055D01*
X120773375Y-90763176D01*
X120788498Y-90772895D01*
X121002510Y-90933103D01*
X121016096Y-90944876D01*
X121205124Y-91133904D01*
X121216897Y-91147490D01*
X121377105Y-91361502D01*
X121386824Y-91376625D01*
X121514945Y-91611260D01*
X121522411Y-91627607D01*
X121615839Y-91878097D01*
X121620902Y-91895342D01*
X121677728Y-92156567D01*
X121680286Y-92174355D01*
X121699679Y-92445513D01*
X121700000Y-92454501D01*
X121700000Y-96995499D01*
X121699679Y-97004487D01*
X121680286Y-97275645D01*
X121677728Y-97293433D01*
X121620903Y-97554654D01*
X121615840Y-97571900D01*
X121522411Y-97822393D01*
X121514945Y-97838740D01*
X121386824Y-98073375D01*
X121377105Y-98088498D01*
X121216897Y-98302510D01*
X121205124Y-98316096D01*
X121066125Y-98455095D01*
X121003813Y-98489121D01*
X120977030Y-98492000D01*
X110522970Y-98492000D01*
X110454849Y-98471998D01*
X110433875Y-98455095D01*
X110294876Y-98316096D01*
X110283103Y-98302510D01*
X110122895Y-98088498D01*
X110113176Y-98073375D01*
X109985055Y-97838740D01*
X109977589Y-97822393D01*
X109884160Y-97571900D01*
X109879097Y-97554654D01*
X109822272Y-97293433D01*
X109819714Y-97275645D01*
X109800321Y-97004487D01*
X109800000Y-96995499D01*
X109800000Y-95976589D01*
X112028080Y-95976589D01*
X112035972Y-95980067D01*
X112170166Y-96005544D01*
X112179423Y-96006598D01*
X112438607Y-96016783D01*
X112447921Y-96016457D01*
X112705754Y-95988219D01*
X112714932Y-95986518D01*
X112723038Y-95984384D01*
X112735112Y-95977096D01*
X112734940Y-95975600D01*
X112731953Y-95971166D01*
X112392808Y-95632022D01*
X112378870Y-95624411D01*
X112377034Y-95624543D01*
X112370422Y-95628792D01*
X112034642Y-95964571D01*
X112028080Y-95976589D01*
X109800000Y-95976589D01*
X109800000Y-94162211D01*
X110567775Y-94162211D01*
X110580220Y-94421288D01*
X110581356Y-94430543D01*
X110604184Y-94545304D01*
X110610597Y-94557563D01*
X110617699Y-94553088D01*
X110952978Y-94217808D01*
X110959355Y-94206130D01*
X113799411Y-94206130D01*
X113799543Y-94207966D01*
X113803792Y-94214578D01*
X114143643Y-94554430D01*
X114156022Y-94561189D01*
X114157483Y-94560095D01*
X114190187Y-94303019D01*
X114190668Y-94296733D01*
X114191936Y-94248299D01*
X115687910Y-94248299D01*
X115706588Y-94304284D01*
X115712761Y-94317462D01*
X115798063Y-94455307D01*
X115807099Y-94466708D01*
X115921829Y-94581239D01*
X115933240Y-94590251D01*
X116071243Y-94675316D01*
X116084424Y-94681463D01*
X116238710Y-94732638D01*
X116252086Y-94735505D01*
X116346438Y-94745172D01*
X116352854Y-94745500D01*
X117269385Y-94745500D01*
X117284624Y-94741025D01*
X117285829Y-94739635D01*
X117287500Y-94731952D01*
X117287500Y-94727384D01*
X118412500Y-94727384D01*
X118416975Y-94742623D01*
X118418365Y-94743828D01*
X118426048Y-94745499D01*
X119347095Y-94745499D01*
X119353614Y-94745162D01*
X119449206Y-94735243D01*
X119462600Y-94732351D01*
X119616784Y-94680912D01*
X119629962Y-94674739D01*
X119767807Y-94589437D01*
X119779208Y-94580401D01*
X119893739Y-94465671D01*
X119902751Y-94454260D01*
X119987816Y-94316257D01*
X119993963Y-94303076D01*
X120010011Y-94254694D01*
X120010500Y-94240601D01*
X120004289Y-94237500D01*
X118430615Y-94237500D01*
X118415376Y-94241975D01*
X118414171Y-94243365D01*
X118412500Y-94251048D01*
X118412500Y-94727384D01*
X117287500Y-94727384D01*
X117287500Y-94255615D01*
X117283025Y-94240376D01*
X117281635Y-94239171D01*
X117273952Y-94237500D01*
X115702422Y-94237500D01*
X115688891Y-94241473D01*
X115687910Y-94248299D01*
X114191936Y-94248299D01*
X114192987Y-94208160D01*
X114192836Y-94201846D01*
X114173502Y-93941674D01*
X114172122Y-93932448D01*
X114156679Y-93864199D01*
X114149819Y-93851881D01*
X114149481Y-93851908D01*
X114143289Y-93855924D01*
X113807022Y-94192192D01*
X113799411Y-94206130D01*
X110959355Y-94206130D01*
X110960589Y-94203870D01*
X110960457Y-94202034D01*
X110956208Y-94195422D01*
X110618724Y-93857937D01*
X110606345Y-93851178D01*
X110605375Y-93851904D01*
X110602848Y-93857194D01*
X110595628Y-93885625D01*
X110594006Y-93894822D01*
X110568020Y-94152885D01*
X110567775Y-94162211D01*
X109800000Y-94162211D01*
X109800000Y-93109399D01*
X115689500Y-93109399D01*
X115695711Y-93112500D01*
X117269385Y-93112500D01*
X117284624Y-93108025D01*
X117285829Y-93106635D01*
X117287500Y-93098952D01*
X117287500Y-93094385D01*
X118412500Y-93094385D01*
X118416975Y-93109624D01*
X118418365Y-93110829D01*
X118426048Y-93112500D01*
X119997578Y-93112500D01*
X120011109Y-93108527D01*
X120012090Y-93101701D01*
X119993412Y-93045716D01*
X119987239Y-93032538D01*
X119901937Y-92894693D01*
X119892901Y-92883292D01*
X119778171Y-92768761D01*
X119766760Y-92759749D01*
X119628757Y-92674684D01*
X119615576Y-92668537D01*
X119461290Y-92617362D01*
X119447914Y-92614495D01*
X119353562Y-92604828D01*
X119347145Y-92604500D01*
X118430615Y-92604500D01*
X118415376Y-92608975D01*
X118414171Y-92610365D01*
X118412500Y-92618048D01*
X118412500Y-93094385D01*
X117287500Y-93094385D01*
X117287500Y-92622616D01*
X117283025Y-92607377D01*
X117281635Y-92606172D01*
X117273952Y-92604501D01*
X116352905Y-92604501D01*
X116346386Y-92604838D01*
X116250794Y-92614757D01*
X116237400Y-92617649D01*
X116083216Y-92669088D01*
X116070038Y-92675261D01*
X115932193Y-92760563D01*
X115920792Y-92769599D01*
X115806261Y-92884329D01*
X115797249Y-92895740D01*
X115712184Y-93033743D01*
X115706037Y-93046924D01*
X115689989Y-93095306D01*
X115689500Y-93109399D01*
X109800000Y-93109399D01*
X109800000Y-92454501D01*
X109800321Y-92445513D01*
X109801273Y-92432196D01*
X112024947Y-92432196D01*
X112030001Y-92440788D01*
X112367192Y-92777978D01*
X112381130Y-92785589D01*
X112382966Y-92785457D01*
X112389578Y-92781208D01*
X112726382Y-92444404D01*
X112732727Y-92432785D01*
X112724162Y-92429144D01*
X112542631Y-92399580D01*
X112533342Y-92398768D01*
X112273992Y-92395373D01*
X112264680Y-92395943D01*
X112036590Y-92426984D01*
X112024947Y-92432196D01*
X109801273Y-92432196D01*
X109819714Y-92174355D01*
X109822272Y-92156567D01*
X109879098Y-91895342D01*
X109884161Y-91878097D01*
X109977589Y-91627607D01*
X109985055Y-91611260D01*
X110113176Y-91376625D01*
X110122895Y-91361502D01*
X110283103Y-91147490D01*
X110294876Y-91133904D01*
X110483904Y-90944876D01*
X110497490Y-90933103D01*
X110711502Y-90772895D01*
X110726625Y-90763176D01*
X110961260Y-90635055D01*
X110977607Y-90627589D01*
X111228100Y-90534160D01*
X111245342Y-90529098D01*
X111506567Y-90472272D01*
X111524350Y-90469715D01*
X111746129Y-90453853D01*
X111795513Y-90450321D01*
X111804501Y-90450000D01*
X116193744Y-90450000D01*
X116233411Y-90456407D01*
G37*
G04 #@! TD.AperFunction*
G04 #@! TA.AperFunction,Conductor*
G36*
X152376521Y-75180002D02*
G01*
X152423014Y-75233658D01*
X152433118Y-75303932D01*
X152426382Y-75330230D01*
X152381522Y-75449894D01*
X152377895Y-75465149D01*
X152372369Y-75516014D01*
X152372000Y-75522828D01*
X152372000Y-75949385D01*
X152376475Y-75964624D01*
X152377865Y-75965829D01*
X152385548Y-75967500D01*
X156909884Y-75967500D01*
X156925123Y-75963025D01*
X156926328Y-75961635D01*
X156927999Y-75953952D01*
X156927999Y-75770969D01*
X156948001Y-75702848D01*
X157001657Y-75656355D01*
X157071931Y-75646251D01*
X157136511Y-75675745D01*
X157143094Y-75681874D01*
X157305124Y-75843904D01*
X157316897Y-75857490D01*
X157477105Y-76071502D01*
X157486824Y-76086625D01*
X157614945Y-76321260D01*
X157622411Y-76337607D01*
X157715839Y-76588097D01*
X157720902Y-76605342D01*
X157777728Y-76866567D01*
X157780285Y-76884350D01*
X157786652Y-76973365D01*
X157799679Y-77155513D01*
X157800000Y-77164501D01*
X157800000Y-91645499D01*
X157799679Y-91654487D01*
X157780286Y-91925645D01*
X157777728Y-91943433D01*
X157720903Y-92204654D01*
X157715840Y-92221900D01*
X157622411Y-92472393D01*
X157614945Y-92488740D01*
X157486824Y-92723375D01*
X157477105Y-92738498D01*
X157316897Y-92952510D01*
X157305124Y-92966096D01*
X157141070Y-93130150D01*
X157078758Y-93164176D01*
X157007943Y-93159111D01*
X156951107Y-93116564D01*
X156926296Y-93050044D01*
X156926712Y-93027449D01*
X156927631Y-93018991D01*
X156928000Y-93012172D01*
X156928000Y-92585615D01*
X156923525Y-92570376D01*
X156922135Y-92569171D01*
X156914452Y-92567500D01*
X155784500Y-92567500D01*
X155716379Y-92547498D01*
X155669886Y-92493842D01*
X155658500Y-92441500D01*
X155658500Y-91549385D01*
X156420000Y-91549385D01*
X156424475Y-91564624D01*
X156425865Y-91565829D01*
X156433548Y-91567500D01*
X156909884Y-91567500D01*
X156925123Y-91563025D01*
X156926328Y-91561635D01*
X156927999Y-91553952D01*
X156927999Y-91122831D01*
X156927629Y-91116010D01*
X156922105Y-91065148D01*
X156918479Y-91049896D01*
X156873324Y-90929446D01*
X156864786Y-90913851D01*
X156788285Y-90811776D01*
X156775724Y-90799215D01*
X156673649Y-90722714D01*
X156658054Y-90714176D01*
X156537606Y-90669022D01*
X156522351Y-90665395D01*
X156471486Y-90659869D01*
X156464672Y-90659500D01*
X156438115Y-90659500D01*
X156422876Y-90663975D01*
X156421671Y-90665365D01*
X156420000Y-90673048D01*
X156420000Y-91549385D01*
X155658500Y-91549385D01*
X155658500Y-91119366D01*
X155651745Y-91057184D01*
X155600615Y-90920795D01*
X155513261Y-90804239D01*
X155470433Y-90772141D01*
X155427920Y-90715284D01*
X155422936Y-90687615D01*
X155415525Y-90662377D01*
X155414135Y-90661172D01*
X155406452Y-90659501D01*
X155375331Y-90659501D01*
X155368510Y-90659871D01*
X155317651Y-90665394D01*
X155315244Y-90665967D01*
X155312380Y-90665967D01*
X155309793Y-90666248D01*
X155309762Y-90665967D01*
X155260882Y-90665967D01*
X155260316Y-90665755D01*
X155252459Y-90664901D01*
X155252457Y-90664901D01*
X155201531Y-90659369D01*
X155198134Y-90659000D01*
X154101866Y-90659000D01*
X154098469Y-90659369D01*
X154047534Y-90664902D01*
X154047532Y-90664902D01*
X154039684Y-90665755D01*
X154039118Y-90665967D01*
X153990237Y-90665968D01*
X153990207Y-90666248D01*
X153987629Y-90665968D01*
X153984763Y-90665968D01*
X153982352Y-90665395D01*
X153931486Y-90659869D01*
X153924672Y-90659500D01*
X153898115Y-90659500D01*
X153882876Y-90663975D01*
X153881671Y-90665365D01*
X153877121Y-90686283D01*
X153875697Y-90685973D01*
X153859998Y-90739438D01*
X153829569Y-90772140D01*
X153786739Y-90804239D01*
X153699385Y-90920795D01*
X153648255Y-91057184D01*
X153641500Y-91119366D01*
X153641500Y-92441500D01*
X153621498Y-92509621D01*
X153567842Y-92556114D01*
X153515500Y-92567500D01*
X152390116Y-92567500D01*
X152374877Y-92571975D01*
X152373672Y-92573365D01*
X152372001Y-92581048D01*
X152372001Y-93012169D01*
X152372371Y-93018990D01*
X152377895Y-93069852D01*
X152381521Y-93085104D01*
X152426676Y-93205554D01*
X152435214Y-93221149D01*
X152511715Y-93323224D01*
X152524276Y-93335785D01*
X152626354Y-93412288D01*
X152628533Y-93413481D01*
X152630273Y-93415225D01*
X152633538Y-93417672D01*
X152633185Y-93418143D01*
X152678678Y-93463740D01*
X152693691Y-93533132D01*
X152668804Y-93599624D01*
X152611920Y-93642106D01*
X152568022Y-93650000D01*
X142991978Y-93650000D01*
X142923857Y-93629998D01*
X142877364Y-93576342D01*
X142867260Y-93506068D01*
X142896754Y-93441488D01*
X142931467Y-93413481D01*
X142933646Y-93412288D01*
X143035724Y-93335785D01*
X143048285Y-93323224D01*
X143124786Y-93221149D01*
X143133324Y-93205554D01*
X143178478Y-93085106D01*
X143182105Y-93069851D01*
X143187631Y-93018986D01*
X143188000Y-93012172D01*
X143188000Y-92585615D01*
X143183525Y-92570376D01*
X143182135Y-92569171D01*
X143174452Y-92567500D01*
X142044500Y-92567500D01*
X141976379Y-92547498D01*
X141929886Y-92493842D01*
X141918500Y-92441500D01*
X141918500Y-91549385D01*
X142680000Y-91549385D01*
X142684475Y-91564624D01*
X142685865Y-91565829D01*
X142693548Y-91567500D01*
X143169884Y-91567500D01*
X143185123Y-91563025D01*
X143186328Y-91561635D01*
X143187999Y-91553952D01*
X143187999Y-91549385D01*
X152372000Y-91549385D01*
X152376475Y-91564624D01*
X152377865Y-91565829D01*
X152385548Y-91567500D01*
X152861885Y-91567500D01*
X152877124Y-91563025D01*
X152878329Y-91561635D01*
X152880000Y-91553952D01*
X152880000Y-90677616D01*
X152875525Y-90662377D01*
X152874135Y-90661172D01*
X152866452Y-90659501D01*
X152835331Y-90659501D01*
X152828510Y-90659871D01*
X152777648Y-90665395D01*
X152762396Y-90669021D01*
X152641946Y-90714176D01*
X152626351Y-90722714D01*
X152524276Y-90799215D01*
X152511715Y-90811776D01*
X152435214Y-90913851D01*
X152426676Y-90929446D01*
X152381522Y-91049894D01*
X152377895Y-91065149D01*
X152372369Y-91116014D01*
X152372000Y-91122828D01*
X152372000Y-91549385D01*
X143187999Y-91549385D01*
X143187999Y-91122831D01*
X143187629Y-91116010D01*
X143182105Y-91065148D01*
X143178479Y-91049896D01*
X143133324Y-90929446D01*
X143124786Y-90913851D01*
X143048285Y-90811776D01*
X143035724Y-90799215D01*
X142933649Y-90722714D01*
X142918054Y-90714176D01*
X142797606Y-90669022D01*
X142782351Y-90665395D01*
X142731486Y-90659869D01*
X142724672Y-90659500D01*
X142698115Y-90659500D01*
X142682876Y-90663975D01*
X142681671Y-90665365D01*
X142680000Y-90673048D01*
X142680000Y-91549385D01*
X141918500Y-91549385D01*
X141918500Y-91119366D01*
X141911745Y-91057184D01*
X141860615Y-90920795D01*
X141773261Y-90804239D01*
X141730433Y-90772141D01*
X141687920Y-90715284D01*
X141682936Y-90687615D01*
X141675525Y-90662377D01*
X141674135Y-90661172D01*
X141666452Y-90659501D01*
X141635331Y-90659501D01*
X141628510Y-90659871D01*
X141577651Y-90665394D01*
X141575244Y-90665967D01*
X141572380Y-90665967D01*
X141569793Y-90666248D01*
X141569762Y-90665967D01*
X141520882Y-90665967D01*
X141520316Y-90665755D01*
X141512459Y-90664901D01*
X141512457Y-90664901D01*
X141461531Y-90659369D01*
X141458134Y-90659000D01*
X140361866Y-90659000D01*
X140358469Y-90659369D01*
X140316069Y-90663975D01*
X140299684Y-90665755D01*
X140299679Y-90665707D01*
X140250321Y-90665707D01*
X140250316Y-90665755D01*
X140249874Y-90665707D01*
X140233931Y-90663975D01*
X140191531Y-90659369D01*
X140188134Y-90659000D01*
X139091866Y-90659000D01*
X139088469Y-90659369D01*
X139046069Y-90663975D01*
X139029684Y-90665755D01*
X139029679Y-90665707D01*
X138980321Y-90665707D01*
X138980316Y-90665755D01*
X138979874Y-90665707D01*
X138963931Y-90663975D01*
X138921531Y-90659369D01*
X138918134Y-90659000D01*
X137821866Y-90659000D01*
X137818469Y-90659369D01*
X137776069Y-90663975D01*
X137759684Y-90665755D01*
X137759679Y-90665707D01*
X137710321Y-90665707D01*
X137710316Y-90665755D01*
X137709874Y-90665707D01*
X137693931Y-90663975D01*
X137651531Y-90659369D01*
X137648134Y-90659000D01*
X136551866Y-90659000D01*
X136548469Y-90659369D01*
X136506069Y-90663975D01*
X136489684Y-90665755D01*
X136489679Y-90665707D01*
X136440321Y-90665707D01*
X136440316Y-90665755D01*
X136439874Y-90665707D01*
X136423931Y-90663975D01*
X136381531Y-90659369D01*
X136378134Y-90659000D01*
X135281866Y-90659000D01*
X135278469Y-90659369D01*
X135227534Y-90664902D01*
X135227532Y-90664902D01*
X135219684Y-90665755D01*
X135219118Y-90665967D01*
X135170237Y-90665968D01*
X135170207Y-90666248D01*
X135167629Y-90665968D01*
X135164763Y-90665968D01*
X135162352Y-90665395D01*
X135111486Y-90659869D01*
X135104672Y-90659500D01*
X135078115Y-90659500D01*
X135062876Y-90663975D01*
X135061671Y-90665365D01*
X135057121Y-90686283D01*
X135055697Y-90685973D01*
X135039998Y-90739438D01*
X135009569Y-90772140D01*
X134966739Y-90804239D01*
X134879385Y-90920795D01*
X134828255Y-91057184D01*
X134821500Y-91119366D01*
X134821500Y-92441500D01*
X134801498Y-92509621D01*
X134747842Y-92556114D01*
X134695500Y-92567500D01*
X134424500Y-92567500D01*
X134356379Y-92547498D01*
X134309886Y-92493842D01*
X134298500Y-92441500D01*
X134298500Y-91119366D01*
X134291745Y-91057184D01*
X134240615Y-90920795D01*
X134153261Y-90804239D01*
X134110433Y-90772141D01*
X134067920Y-90715284D01*
X134062936Y-90687615D01*
X134055525Y-90662377D01*
X134054135Y-90661172D01*
X134046452Y-90659501D01*
X134015331Y-90659501D01*
X134008510Y-90659871D01*
X133957651Y-90665394D01*
X133955244Y-90665967D01*
X133952380Y-90665967D01*
X133949793Y-90666248D01*
X133949762Y-90665967D01*
X133900882Y-90665967D01*
X133900316Y-90665755D01*
X133892459Y-90664901D01*
X133892457Y-90664901D01*
X133841531Y-90659369D01*
X133838134Y-90659000D01*
X132741866Y-90659000D01*
X132679684Y-90665755D01*
X132543295Y-90716885D01*
X132426739Y-90804239D01*
X132339385Y-90920795D01*
X132288255Y-91057184D01*
X132281500Y-91119366D01*
X132281500Y-93015634D01*
X132288255Y-93077816D01*
X132339385Y-93214205D01*
X132426739Y-93330761D01*
X132464636Y-93359163D01*
X132489514Y-93377808D01*
X132532028Y-93434668D01*
X132537053Y-93505486D01*
X132502993Y-93567779D01*
X132440662Y-93601770D01*
X132387167Y-93601754D01*
X132245342Y-93570902D01*
X132228100Y-93565840D01*
X131977607Y-93472411D01*
X131961260Y-93464945D01*
X131959054Y-93463740D01*
X131801681Y-93377808D01*
X131726625Y-93336824D01*
X131711502Y-93327105D01*
X131497490Y-93166897D01*
X131483904Y-93155124D01*
X131294876Y-92966096D01*
X131283103Y-92952510D01*
X131122895Y-92738498D01*
X131113176Y-92723375D01*
X130985055Y-92488740D01*
X130977589Y-92472393D01*
X130884160Y-92221900D01*
X130879097Y-92204654D01*
X130822272Y-91943433D01*
X130819714Y-91925645D01*
X130800321Y-91654487D01*
X130800000Y-91645499D01*
X130800000Y-88524871D01*
X130820002Y-88456750D01*
X130836905Y-88435776D01*
X138858911Y-80413770D01*
X138873323Y-80401384D01*
X138884918Y-80392851D01*
X138884923Y-80392846D01*
X138890818Y-80388508D01*
X138895557Y-80382930D01*
X138895560Y-80382927D01*
X138925035Y-80348232D01*
X138931965Y-80340716D01*
X138937661Y-80335020D01*
X138939924Y-80332159D01*
X138939929Y-80332154D01*
X138955293Y-80312734D01*
X138958082Y-80309333D01*
X139000592Y-80259296D01*
X139000594Y-80259294D01*
X139005333Y-80253715D01*
X139008662Y-80247195D01*
X139012028Y-80242148D01*
X139015193Y-80237024D01*
X139019735Y-80231283D01*
X139050637Y-80165164D01*
X139052565Y-80161218D01*
X139082442Y-80102708D01*
X139082443Y-80102706D01*
X139085769Y-80096192D01*
X139087508Y-80089086D01*
X139089609Y-80083436D01*
X139091524Y-80077679D01*
X139094622Y-80071050D01*
X139109491Y-79999565D01*
X139110461Y-79995282D01*
X139126473Y-79929844D01*
X139127808Y-79924390D01*
X139128353Y-79915614D01*
X139128500Y-79913236D01*
X139128535Y-79913238D01*
X139128775Y-79909266D01*
X139129152Y-79905045D01*
X139130641Y-79897885D01*
X139128546Y-79820458D01*
X139128500Y-79817050D01*
X139128500Y-78002000D01*
X139148502Y-77933879D01*
X139202158Y-77887386D01*
X139254500Y-77876000D01*
X140188134Y-77876000D01*
X140196134Y-77875131D01*
X140242464Y-77870098D01*
X140249874Y-77869293D01*
X140250316Y-77869245D01*
X140250321Y-77869293D01*
X140299679Y-77869293D01*
X140299684Y-77869245D01*
X140307536Y-77870098D01*
X140353867Y-77875131D01*
X140361866Y-77876000D01*
X141458134Y-77876000D01*
X141462746Y-77875499D01*
X141512466Y-77870098D01*
X141512468Y-77870098D01*
X141520316Y-77869245D01*
X141520882Y-77869033D01*
X141569763Y-77869032D01*
X141569793Y-77868752D01*
X141572371Y-77869032D01*
X141575237Y-77869032D01*
X141577648Y-77869605D01*
X141628514Y-77875131D01*
X141635328Y-77875500D01*
X141661885Y-77875500D01*
X141677124Y-77871025D01*
X141678329Y-77869635D01*
X141680994Y-77857384D01*
X142680000Y-77857384D01*
X142684475Y-77872623D01*
X142685865Y-77873828D01*
X142693548Y-77875499D01*
X142724669Y-77875499D01*
X142731490Y-77875129D01*
X142782352Y-77869605D01*
X142797604Y-77865979D01*
X142918054Y-77820824D01*
X142933649Y-77812286D01*
X143035724Y-77735785D01*
X143048285Y-77723224D01*
X143124786Y-77621149D01*
X143133324Y-77605554D01*
X143178478Y-77485106D01*
X143182105Y-77469851D01*
X143187631Y-77418986D01*
X143188000Y-77412172D01*
X143188000Y-77412169D01*
X152372001Y-77412169D01*
X152372371Y-77418990D01*
X152377895Y-77469852D01*
X152381521Y-77485104D01*
X152426676Y-77605554D01*
X152435214Y-77621149D01*
X152511715Y-77723224D01*
X152524276Y-77735785D01*
X152626351Y-77812286D01*
X152641946Y-77820824D01*
X152762394Y-77865978D01*
X152777649Y-77869605D01*
X152828514Y-77875131D01*
X152835328Y-77875500D01*
X152861885Y-77875500D01*
X152877124Y-77871025D01*
X152878329Y-77869635D01*
X152880000Y-77861952D01*
X152880000Y-77857384D01*
X153880000Y-77857384D01*
X153884475Y-77872623D01*
X153885865Y-77873828D01*
X153893548Y-77875499D01*
X153924669Y-77875499D01*
X153931490Y-77875129D01*
X153982352Y-77869605D01*
X153985852Y-77868773D01*
X153990014Y-77868773D01*
X153990207Y-77868752D01*
X153990209Y-77868773D01*
X154039791Y-77868773D01*
X154039793Y-77868752D01*
X154039986Y-77868773D01*
X154044149Y-77868773D01*
X154047650Y-77869606D01*
X154098514Y-77875131D01*
X154105328Y-77875500D01*
X154131885Y-77875500D01*
X154147124Y-77871025D01*
X154148329Y-77869635D01*
X154150000Y-77861952D01*
X154150000Y-77857384D01*
X155150000Y-77857384D01*
X155154475Y-77872623D01*
X155155865Y-77873828D01*
X155163548Y-77875499D01*
X155194669Y-77875499D01*
X155201490Y-77875129D01*
X155252352Y-77869605D01*
X155255852Y-77868773D01*
X155260014Y-77868773D01*
X155260207Y-77868752D01*
X155260209Y-77868773D01*
X155309791Y-77868773D01*
X155309793Y-77868752D01*
X155309986Y-77868773D01*
X155314149Y-77868773D01*
X155317650Y-77869606D01*
X155368514Y-77875131D01*
X155375328Y-77875500D01*
X155401885Y-77875500D01*
X155417124Y-77871025D01*
X155418329Y-77869635D01*
X155420000Y-77861952D01*
X155420000Y-77857384D01*
X156420000Y-77857384D01*
X156424475Y-77872623D01*
X156425865Y-77873828D01*
X156433548Y-77875499D01*
X156464669Y-77875499D01*
X156471490Y-77875129D01*
X156522352Y-77869605D01*
X156537604Y-77865979D01*
X156658054Y-77820824D01*
X156673649Y-77812286D01*
X156775724Y-77735785D01*
X156788285Y-77723224D01*
X156864786Y-77621149D01*
X156873324Y-77605554D01*
X156918478Y-77485106D01*
X156922105Y-77469851D01*
X156927631Y-77418986D01*
X156928000Y-77412172D01*
X156928000Y-76985615D01*
X156923525Y-76970376D01*
X156922135Y-76969171D01*
X156914452Y-76967500D01*
X156438115Y-76967500D01*
X156422876Y-76971975D01*
X156421671Y-76973365D01*
X156420000Y-76981048D01*
X156420000Y-77857384D01*
X155420000Y-77857384D01*
X155420000Y-76985615D01*
X155415525Y-76970376D01*
X155414135Y-76969171D01*
X155406452Y-76967500D01*
X155168115Y-76967500D01*
X155152876Y-76971975D01*
X155151671Y-76973365D01*
X155150000Y-76981048D01*
X155150000Y-77857384D01*
X154150000Y-77857384D01*
X154150000Y-76985615D01*
X154145525Y-76970376D01*
X154144135Y-76969171D01*
X154136452Y-76967500D01*
X153898115Y-76967500D01*
X153882876Y-76971975D01*
X153881671Y-76973365D01*
X153880000Y-76981048D01*
X153880000Y-77857384D01*
X152880000Y-77857384D01*
X152880000Y-76985615D01*
X152875525Y-76970376D01*
X152874135Y-76969171D01*
X152866452Y-76967500D01*
X152390116Y-76967500D01*
X152374877Y-76971975D01*
X152373672Y-76973365D01*
X152372001Y-76981048D01*
X152372001Y-77412169D01*
X143188000Y-77412169D01*
X143188000Y-76985615D01*
X143183525Y-76970376D01*
X143182135Y-76969171D01*
X143174452Y-76967500D01*
X142698115Y-76967500D01*
X142682876Y-76971975D01*
X142681671Y-76973365D01*
X142680000Y-76981048D01*
X142680000Y-77857384D01*
X141680994Y-77857384D01*
X141682879Y-77848717D01*
X141684303Y-77849027D01*
X141700002Y-77795562D01*
X141730431Y-77762860D01*
X141773261Y-77730761D01*
X141860615Y-77614205D01*
X141911745Y-77477816D01*
X141918500Y-77415634D01*
X141918500Y-76093500D01*
X141938502Y-76025379D01*
X141992158Y-75978886D01*
X142044500Y-75967500D01*
X143169884Y-75967500D01*
X143185123Y-75963025D01*
X143186328Y-75961635D01*
X143187999Y-75953952D01*
X143187999Y-75522831D01*
X143187629Y-75516010D01*
X143182105Y-75465148D01*
X143178479Y-75449896D01*
X143133618Y-75330230D01*
X143128435Y-75259422D01*
X143162356Y-75197054D01*
X143224611Y-75162924D01*
X143251600Y-75160000D01*
X152308400Y-75160000D01*
X152376521Y-75180002D01*
G37*
G04 #@! TD.AperFunction*
G04 #@! TA.AperFunction,Conductor*
G36*
X132265545Y-75308809D02*
G01*
X132299570Y-75371121D01*
X132294431Y-75442134D01*
X132291522Y-75449895D01*
X132287895Y-75465149D01*
X132282369Y-75516014D01*
X132282000Y-75522828D01*
X132282000Y-75949385D01*
X132286475Y-75964624D01*
X132287865Y-75965829D01*
X132295548Y-75967500D01*
X133425500Y-75967500D01*
X133493621Y-75987502D01*
X133540114Y-76041158D01*
X133551500Y-76093500D01*
X133551500Y-77415634D01*
X133558255Y-77477816D01*
X133609385Y-77614205D01*
X133696739Y-77730761D01*
X133739567Y-77762859D01*
X133782080Y-77819716D01*
X133787064Y-77847385D01*
X133794475Y-77872623D01*
X133795865Y-77873828D01*
X133803548Y-77875499D01*
X133834669Y-77875499D01*
X133841490Y-77875129D01*
X133892349Y-77869606D01*
X133894756Y-77869033D01*
X133897620Y-77869033D01*
X133900207Y-77868752D01*
X133900238Y-77869033D01*
X133949118Y-77869033D01*
X133949684Y-77869245D01*
X133957541Y-77870099D01*
X133957543Y-77870099D01*
X134007254Y-77875499D01*
X134011866Y-77876000D01*
X134173651Y-77876000D01*
X134241772Y-77896002D01*
X134288265Y-77949658D01*
X134298369Y-78019932D01*
X134268875Y-78084512D01*
X134262746Y-78091095D01*
X133449246Y-78904595D01*
X133386934Y-78938621D01*
X133360151Y-78941500D01*
X130926000Y-78941500D01*
X130857879Y-78921498D01*
X130811386Y-78867842D01*
X130800000Y-78815500D01*
X130800000Y-77412169D01*
X132282001Y-77412169D01*
X132282371Y-77418990D01*
X132287895Y-77469852D01*
X132291521Y-77485104D01*
X132336676Y-77605554D01*
X132345214Y-77621149D01*
X132421715Y-77723224D01*
X132434276Y-77735785D01*
X132536351Y-77812286D01*
X132551946Y-77820824D01*
X132672394Y-77865978D01*
X132687649Y-77869605D01*
X132738514Y-77875131D01*
X132745328Y-77875500D01*
X132771885Y-77875500D01*
X132787124Y-77871025D01*
X132788329Y-77869635D01*
X132790000Y-77861952D01*
X132790000Y-76985615D01*
X132785525Y-76970376D01*
X132784135Y-76969171D01*
X132776452Y-76967500D01*
X132300116Y-76967500D01*
X132284877Y-76971975D01*
X132283672Y-76973365D01*
X132282001Y-76981048D01*
X132282001Y-77412169D01*
X130800000Y-77412169D01*
X130800000Y-77164501D01*
X130800321Y-77155513D01*
X130813348Y-76973365D01*
X130819715Y-76884350D01*
X130822272Y-76866567D01*
X130879098Y-76605342D01*
X130884161Y-76588097D01*
X130977589Y-76337607D01*
X130985055Y-76321260D01*
X131113176Y-76086625D01*
X131122895Y-76071502D01*
X131283103Y-75857490D01*
X131294876Y-75843904D01*
X131483904Y-75654876D01*
X131497490Y-75643103D01*
X131711502Y-75482895D01*
X131726625Y-75473176D01*
X131961260Y-75345055D01*
X131977607Y-75337589D01*
X132132417Y-75279848D01*
X132203233Y-75274784D01*
X132265545Y-75308809D01*
G37*
G04 #@! TD.AperFunction*
M02*
