G04 #@! TF.GenerationSoftware,KiCad,Pcbnew,(6.0.2)*
G04 #@! TF.CreationDate,2022-09-28T01:41:44+02:00*
G04 #@! TF.ProjectId,LoRa-Gateway-E220,4c6f5261-2d47-4617-9465-7761792d4532,v1r1a*
G04 #@! TF.SameCoordinates,Original*
G04 #@! TF.FileFunction,Legend,Top*
G04 #@! TF.FilePolarity,Positive*
%FSLAX46Y46*%
G04 Gerber Fmt 4.6, Leading zero omitted, Abs format (unit mm)*
G04 Created by KiCad (PCBNEW (6.0.2)) date 2022-09-28 01:41:44*
%MOMM*%
%LPD*%
G01*
G04 APERTURE LIST*
%ADD10C,0.250000*%
%ADD11C,0.150000*%
%ADD12C,0.120000*%
%ADD13C,0.130000*%
%ADD14C,0.200000*%
G04 APERTURE END LIST*
D10*
X121250000Y-95791595D02*
X120630952Y-95791595D01*
X120630952Y-94491595D01*
X121869047Y-95791595D02*
X121745238Y-95729690D01*
X121683333Y-95667785D01*
X121621428Y-95543976D01*
X121621428Y-95172547D01*
X121683333Y-95048738D01*
X121745238Y-94986833D01*
X121869047Y-94924928D01*
X122054761Y-94924928D01*
X122178571Y-94986833D01*
X122240476Y-95048738D01*
X122302380Y-95172547D01*
X122302380Y-95543976D01*
X122240476Y-95667785D01*
X122178571Y-95729690D01*
X122054761Y-95791595D01*
X121869047Y-95791595D01*
X123602380Y-95791595D02*
X123169047Y-95172547D01*
X122859523Y-95791595D02*
X122859523Y-94491595D01*
X123354761Y-94491595D01*
X123478571Y-94553500D01*
X123540476Y-94615404D01*
X123602380Y-94739214D01*
X123602380Y-94924928D01*
X123540476Y-95048738D01*
X123478571Y-95110642D01*
X123354761Y-95172547D01*
X122859523Y-95172547D01*
X124716666Y-95791595D02*
X124716666Y-95110642D01*
X124654761Y-94986833D01*
X124530952Y-94924928D01*
X124283333Y-94924928D01*
X124159523Y-94986833D01*
X124716666Y-95729690D02*
X124592857Y-95791595D01*
X124283333Y-95791595D01*
X124159523Y-95729690D01*
X124097619Y-95605880D01*
X124097619Y-95482071D01*
X124159523Y-95358261D01*
X124283333Y-95296357D01*
X124592857Y-95296357D01*
X124716666Y-95234452D01*
X127007142Y-94553500D02*
X126883333Y-94491595D01*
X126697619Y-94491595D01*
X126511904Y-94553500D01*
X126388095Y-94677309D01*
X126326190Y-94801119D01*
X126264285Y-95048738D01*
X126264285Y-95234452D01*
X126326190Y-95482071D01*
X126388095Y-95605880D01*
X126511904Y-95729690D01*
X126697619Y-95791595D01*
X126821428Y-95791595D01*
X127007142Y-95729690D01*
X127069047Y-95667785D01*
X127069047Y-95234452D01*
X126821428Y-95234452D01*
X128183333Y-95791595D02*
X128183333Y-95110642D01*
X128121428Y-94986833D01*
X127997619Y-94924928D01*
X127750000Y-94924928D01*
X127626190Y-94986833D01*
X128183333Y-95729690D02*
X128059523Y-95791595D01*
X127750000Y-95791595D01*
X127626190Y-95729690D01*
X127564285Y-95605880D01*
X127564285Y-95482071D01*
X127626190Y-95358261D01*
X127750000Y-95296357D01*
X128059523Y-95296357D01*
X128183333Y-95234452D01*
X128616666Y-94924928D02*
X129111904Y-94924928D01*
X128802380Y-94491595D02*
X128802380Y-95605880D01*
X128864285Y-95729690D01*
X128988095Y-95791595D01*
X129111904Y-95791595D01*
X130040476Y-95729690D02*
X129916666Y-95791595D01*
X129669047Y-95791595D01*
X129545238Y-95729690D01*
X129483333Y-95605880D01*
X129483333Y-95110642D01*
X129545238Y-94986833D01*
X129669047Y-94924928D01*
X129916666Y-94924928D01*
X130040476Y-94986833D01*
X130102380Y-95110642D01*
X130102380Y-95234452D01*
X129483333Y-95358261D01*
X130535714Y-94924928D02*
X130783333Y-95791595D01*
X131030952Y-95172547D01*
X131278571Y-95791595D01*
X131526190Y-94924928D01*
X132578571Y-95791595D02*
X132578571Y-95110642D01*
X132516666Y-94986833D01*
X132392857Y-94924928D01*
X132145238Y-94924928D01*
X132021428Y-94986833D01*
X132578571Y-95729690D02*
X132454761Y-95791595D01*
X132145238Y-95791595D01*
X132021428Y-95729690D01*
X131959523Y-95605880D01*
X131959523Y-95482071D01*
X132021428Y-95358261D01*
X132145238Y-95296357D01*
X132454761Y-95296357D01*
X132578571Y-95234452D01*
X133073809Y-94924928D02*
X133383333Y-95791595D01*
X133692857Y-94924928D02*
X133383333Y-95791595D01*
X133259523Y-96101119D01*
X133197619Y-96163023D01*
X133073809Y-96224928D01*
X120630952Y-97884595D02*
X120630952Y-96584595D01*
X121064285Y-97513166D01*
X121497619Y-96584595D01*
X121497619Y-97884595D01*
X122673809Y-97884595D02*
X122673809Y-97203642D01*
X122611904Y-97079833D01*
X122488095Y-97017928D01*
X122240476Y-97017928D01*
X122116666Y-97079833D01*
X122673809Y-97822690D02*
X122550000Y-97884595D01*
X122240476Y-97884595D01*
X122116666Y-97822690D01*
X122054761Y-97698880D01*
X122054761Y-97575071D01*
X122116666Y-97451261D01*
X122240476Y-97389357D01*
X122550000Y-97389357D01*
X122673809Y-97327452D01*
X123850000Y-97884595D02*
X123850000Y-96584595D01*
X123850000Y-97822690D02*
X123726190Y-97884595D01*
X123478571Y-97884595D01*
X123354761Y-97822690D01*
X123292857Y-97760785D01*
X123230952Y-97636976D01*
X123230952Y-97265547D01*
X123292857Y-97141738D01*
X123354761Y-97079833D01*
X123478571Y-97017928D01*
X123726190Y-97017928D01*
X123850000Y-97079833D01*
X124964285Y-97822690D02*
X124840476Y-97884595D01*
X124592857Y-97884595D01*
X124469047Y-97822690D01*
X124407142Y-97698880D01*
X124407142Y-97203642D01*
X124469047Y-97079833D01*
X124592857Y-97017928D01*
X124840476Y-97017928D01*
X124964285Y-97079833D01*
X125026190Y-97203642D01*
X125026190Y-97327452D01*
X124407142Y-97451261D01*
X126573809Y-97884595D02*
X126573809Y-96584595D01*
X126573809Y-97079833D02*
X126697619Y-97017928D01*
X126945238Y-97017928D01*
X127069047Y-97079833D01*
X127130952Y-97141738D01*
X127192857Y-97265547D01*
X127192857Y-97636976D01*
X127130952Y-97760785D01*
X127069047Y-97822690D01*
X126945238Y-97884595D01*
X126697619Y-97884595D01*
X126573809Y-97822690D01*
X127626190Y-97017928D02*
X127935714Y-97884595D01*
X128245238Y-97017928D02*
X127935714Y-97884595D01*
X127811904Y-98194119D01*
X127750000Y-98256023D01*
X127626190Y-98317928D01*
X129669047Y-97513166D02*
X130288095Y-97513166D01*
X129545238Y-97884595D02*
X129978571Y-96584595D01*
X130411904Y-97884595D01*
X130845238Y-97017928D02*
X130845238Y-97884595D01*
X130845238Y-97141738D02*
X130907142Y-97079833D01*
X131030952Y-97017928D01*
X131216666Y-97017928D01*
X131340476Y-97079833D01*
X131402380Y-97203642D01*
X131402380Y-97884595D01*
X132578571Y-97884595D02*
X132578571Y-96584595D01*
X132578571Y-97822690D02*
X132454761Y-97884595D01*
X132207142Y-97884595D01*
X132083333Y-97822690D01*
X132021428Y-97760785D01*
X131959523Y-97636976D01*
X131959523Y-97265547D01*
X132021428Y-97141738D01*
X132083333Y-97079833D01*
X132207142Y-97017928D01*
X132454761Y-97017928D01*
X132578571Y-97079833D01*
X133073809Y-97017928D02*
X133383333Y-97884595D01*
X133692857Y-97017928D02*
X133383333Y-97884595D01*
X133259523Y-98194119D01*
X133197619Y-98256023D01*
X133073809Y-98317928D01*
D11*
X134138095Y-97378571D02*
X134328571Y-97911904D01*
X134519047Y-97378571D01*
X135242857Y-97911904D02*
X134785714Y-97911904D01*
X135014285Y-97911904D02*
X135014285Y-97111904D01*
X134938095Y-97226190D01*
X134861904Y-97302380D01*
X134785714Y-97340476D01*
X135585714Y-97911904D02*
X135585714Y-97378571D01*
X135585714Y-97530952D02*
X135623809Y-97454761D01*
X135661904Y-97416666D01*
X135738095Y-97378571D01*
X135814285Y-97378571D01*
X136500000Y-97911904D02*
X136042857Y-97911904D01*
X136271428Y-97911904D02*
X136271428Y-97111904D01*
X136195238Y-97226190D01*
X136119047Y-97302380D01*
X136042857Y-97340476D01*
X137185714Y-97911904D02*
X137185714Y-97492857D01*
X137147619Y-97416666D01*
X137071428Y-97378571D01*
X136919047Y-97378571D01*
X136842857Y-97416666D01*
X137185714Y-97873809D02*
X137109523Y-97911904D01*
X136919047Y-97911904D01*
X136842857Y-97873809D01*
X136804761Y-97797619D01*
X136804761Y-97721428D01*
X136842857Y-97645238D01*
X136919047Y-97607142D01*
X137109523Y-97607142D01*
X137185714Y-97569047D01*
D12*
X98050000Y-97071428D02*
X98050000Y-97500000D01*
X98021428Y-97585714D01*
X97964285Y-97642857D01*
X97878571Y-97671428D01*
X97821428Y-97671428D01*
X98335714Y-97671428D02*
X98335714Y-97071428D01*
X98564285Y-97071428D01*
X98621428Y-97100000D01*
X98650000Y-97128571D01*
X98678571Y-97185714D01*
X98678571Y-97271428D01*
X98650000Y-97328571D01*
X98621428Y-97357142D01*
X98564285Y-97385714D01*
X98335714Y-97385714D01*
X99250000Y-97671428D02*
X98907142Y-97671428D01*
X99078571Y-97671428D02*
X99078571Y-97071428D01*
X99021428Y-97157142D01*
X98964285Y-97214285D01*
X98907142Y-97242857D01*
D13*
X101838095Y-93838095D02*
X101038095Y-94028571D01*
X101609523Y-94180952D01*
X101038095Y-94333333D01*
X101838095Y-94523809D01*
X101038095Y-94828571D02*
X101571428Y-94828571D01*
X101838095Y-94828571D02*
X101800000Y-94790476D01*
X101761904Y-94828571D01*
X101800000Y-94866666D01*
X101838095Y-94828571D01*
X101761904Y-94828571D01*
X101342857Y-95209523D02*
X101342857Y-95819047D01*
X101457142Y-96466666D02*
X101457142Y-96200000D01*
X101038095Y-96200000D02*
X101838095Y-96200000D01*
X101838095Y-96580952D01*
X101038095Y-96885714D02*
X101571428Y-96885714D01*
X101838095Y-96885714D02*
X101800000Y-96847619D01*
X101761904Y-96885714D01*
X101800000Y-96923809D01*
X101838095Y-96885714D01*
X101761904Y-96885714D01*
X101457142Y-89404761D02*
X101457142Y-89671428D01*
X101038095Y-89785714D02*
X101038095Y-89404761D01*
X101838095Y-89404761D01*
X101838095Y-89785714D01*
X101838095Y-90014285D02*
X101838095Y-90471428D01*
X101038095Y-90242857D02*
X101838095Y-90242857D01*
X101038095Y-90738095D02*
X101838095Y-90738095D01*
X101457142Y-90738095D02*
X101457142Y-91195238D01*
X101038095Y-91195238D02*
X101838095Y-91195238D01*
D12*
X157750000Y-42314285D02*
X157721428Y-42342857D01*
X157635714Y-42371428D01*
X157578571Y-42371428D01*
X157492857Y-42342857D01*
X157435714Y-42285714D01*
X157407142Y-42228571D01*
X157378571Y-42114285D01*
X157378571Y-42028571D01*
X157407142Y-41914285D01*
X157435714Y-41857142D01*
X157492857Y-41800000D01*
X157578571Y-41771428D01*
X157635714Y-41771428D01*
X157721428Y-41800000D01*
X157750000Y-41828571D01*
X157978571Y-41828571D02*
X158007142Y-41800000D01*
X158064285Y-41771428D01*
X158207142Y-41771428D01*
X158264285Y-41800000D01*
X158292857Y-41828571D01*
X158321428Y-41885714D01*
X158321428Y-41942857D01*
X158292857Y-42028571D01*
X157950000Y-42371428D01*
X158321428Y-42371428D01*
X156621428Y-44835714D02*
X156621428Y-45178571D01*
X156621428Y-45007142D02*
X156021428Y-45007142D01*
X156107142Y-45064285D01*
X156164285Y-45121428D01*
X156192857Y-45178571D01*
X156021428Y-44464285D02*
X156021428Y-44407142D01*
X156050000Y-44350000D01*
X156078571Y-44321428D01*
X156135714Y-44292857D01*
X156250000Y-44264285D01*
X156392857Y-44264285D01*
X156507142Y-44292857D01*
X156564285Y-44321428D01*
X156592857Y-44350000D01*
X156621428Y-44407142D01*
X156621428Y-44464285D01*
X156592857Y-44521428D01*
X156564285Y-44550000D01*
X156507142Y-44578571D01*
X156392857Y-44607142D01*
X156250000Y-44607142D01*
X156135714Y-44578571D01*
X156078571Y-44550000D01*
X156050000Y-44521428D01*
X156021428Y-44464285D01*
X156221428Y-44007142D02*
X156821428Y-44007142D01*
X156535714Y-43721428D02*
X156592857Y-43692857D01*
X156621428Y-43635714D01*
X156535714Y-44007142D02*
X156592857Y-43978571D01*
X156621428Y-43921428D01*
X156621428Y-43807142D01*
X156592857Y-43750000D01*
X156535714Y-43721428D01*
X156221428Y-43721428D01*
X156307142Y-43178571D02*
X156307142Y-43378571D01*
X156621428Y-43378571D02*
X156021428Y-43378571D01*
X156021428Y-43092857D01*
X155385714Y-98471428D02*
X155385714Y-97871428D01*
X155585714Y-98300000D01*
X155785714Y-97871428D01*
X155785714Y-98471428D01*
X156042857Y-97928571D02*
X156071428Y-97900000D01*
X156128571Y-97871428D01*
X156271428Y-97871428D01*
X156328571Y-97900000D01*
X156357142Y-97928571D01*
X156385714Y-97985714D01*
X156385714Y-98042857D01*
X156357142Y-98128571D01*
X156014285Y-98471428D01*
X156385714Y-98471428D01*
X156642857Y-98414285D02*
X156671428Y-98442857D01*
X156642857Y-98471428D01*
X156614285Y-98442857D01*
X156642857Y-98414285D01*
X156642857Y-98471428D01*
X157214285Y-97871428D02*
X156928571Y-97871428D01*
X156900000Y-98157142D01*
X156928571Y-98128571D01*
X156985714Y-98100000D01*
X157128571Y-98100000D01*
X157185714Y-98128571D01*
X157214285Y-98157142D01*
X157242857Y-98214285D01*
X157242857Y-98357142D01*
X157214285Y-98414285D01*
X157185714Y-98442857D01*
X157128571Y-98471428D01*
X156985714Y-98471428D01*
X156928571Y-98442857D01*
X156900000Y-98414285D01*
X128100000Y-83371428D02*
X127900000Y-83085714D01*
X127757142Y-83371428D02*
X127757142Y-82771428D01*
X127985714Y-82771428D01*
X128042857Y-82800000D01*
X128071428Y-82828571D01*
X128100000Y-82885714D01*
X128100000Y-82971428D01*
X128071428Y-83028571D01*
X128042857Y-83057142D01*
X127985714Y-83085714D01*
X127757142Y-83085714D01*
X128328571Y-82828571D02*
X128357142Y-82800000D01*
X128414285Y-82771428D01*
X128557142Y-82771428D01*
X128614285Y-82800000D01*
X128642857Y-82828571D01*
X128671428Y-82885714D01*
X128671428Y-82942857D01*
X128642857Y-83028571D01*
X128300000Y-83371428D01*
X128671428Y-83371428D01*
X127287500Y-85671428D02*
X127287500Y-86071428D01*
X127144642Y-85442857D02*
X127001785Y-85871428D01*
X127373214Y-85871428D01*
X127630357Y-86042857D02*
X127630357Y-86071428D01*
X127601785Y-86128571D01*
X127573214Y-86157142D01*
X127830357Y-85471428D02*
X128230357Y-85471428D01*
X127973214Y-86071428D01*
X128458928Y-86071428D02*
X128458928Y-85471428D01*
X128516071Y-85842857D02*
X128687500Y-86071428D01*
X128687500Y-85671428D02*
X128458928Y-85900000D01*
X128916071Y-86071428D02*
X129058928Y-86071428D01*
X129058928Y-85957142D01*
X129001785Y-85928571D01*
X128944642Y-85871428D01*
X128916071Y-85785714D01*
X128916071Y-85642857D01*
X128944642Y-85557142D01*
X129001785Y-85500000D01*
X129087500Y-85471428D01*
X129201785Y-85471428D01*
X129287500Y-85500000D01*
X129344642Y-85557142D01*
X129373214Y-85642857D01*
X129373214Y-85785714D01*
X129344642Y-85871428D01*
X129287500Y-85928571D01*
X129230357Y-85957142D01*
X129230357Y-86071428D01*
X129373214Y-86071428D01*
X127042857Y-36871428D02*
X127042857Y-37357142D01*
X127071428Y-37414285D01*
X127100000Y-37442857D01*
X127157142Y-37471428D01*
X127271428Y-37471428D01*
X127328571Y-37442857D01*
X127357142Y-37414285D01*
X127385714Y-37357142D01*
X127385714Y-36871428D01*
X127614285Y-36871428D02*
X127985714Y-36871428D01*
X127785714Y-37100000D01*
X127871428Y-37100000D01*
X127928571Y-37128571D01*
X127957142Y-37157142D01*
X127985714Y-37214285D01*
X127985714Y-37357142D01*
X127957142Y-37414285D01*
X127928571Y-37442857D01*
X127871428Y-37471428D01*
X127700000Y-37471428D01*
X127642857Y-37442857D01*
X127614285Y-37414285D01*
D14*
X136754761Y-72347619D02*
X136659523Y-72300000D01*
X136564285Y-72204761D01*
X136421428Y-72061904D01*
X136326190Y-72014285D01*
X136230952Y-72014285D01*
X136278571Y-72252380D02*
X136183333Y-72204761D01*
X136088095Y-72109523D01*
X136040476Y-71919047D01*
X136040476Y-71585714D01*
X136088095Y-71395238D01*
X136183333Y-71300000D01*
X136278571Y-71252380D01*
X136469047Y-71252380D01*
X136564285Y-71300000D01*
X136659523Y-71395238D01*
X136707142Y-71585714D01*
X136707142Y-71919047D01*
X136659523Y-72109523D01*
X136564285Y-72204761D01*
X136469047Y-72252380D01*
X136278571Y-72252380D01*
X137564285Y-71585714D02*
X137564285Y-72252380D01*
X137135714Y-71585714D02*
X137135714Y-72109523D01*
X137183333Y-72204761D01*
X137278571Y-72252380D01*
X137421428Y-72252380D01*
X137516666Y-72204761D01*
X137564285Y-72157142D01*
X138040476Y-72252380D02*
X138040476Y-71585714D01*
X138040476Y-71252380D02*
X137992857Y-71300000D01*
X138040476Y-71347619D01*
X138088095Y-71300000D01*
X138040476Y-71252380D01*
X138040476Y-71347619D01*
X138516666Y-71585714D02*
X138516666Y-72252380D01*
X138516666Y-71680952D02*
X138564285Y-71633333D01*
X138659523Y-71585714D01*
X138802380Y-71585714D01*
X138897619Y-71633333D01*
X138945238Y-71728571D01*
X138945238Y-72252380D01*
X139897619Y-72252380D02*
X139421428Y-72252380D01*
X139421428Y-71252380D01*
X140230952Y-71728571D02*
X140564285Y-71728571D01*
X140707142Y-72252380D02*
X140230952Y-72252380D01*
X140230952Y-71252380D01*
X140707142Y-71252380D01*
X141135714Y-72252380D02*
X141135714Y-71252380D01*
X141373809Y-71252380D01*
X141516666Y-71300000D01*
X141611904Y-71395238D01*
X141659523Y-71490476D01*
X141707142Y-71680952D01*
X141707142Y-71823809D01*
X141659523Y-72014285D01*
X141611904Y-72109523D01*
X141516666Y-72204761D01*
X141373809Y-72252380D01*
X141135714Y-72252380D01*
X142135714Y-71871428D02*
X142897619Y-71871428D01*
X143373809Y-71728571D02*
X143707142Y-71728571D01*
X143850000Y-72252380D02*
X143373809Y-72252380D01*
X143373809Y-71252380D01*
X143850000Y-71252380D01*
X144230952Y-72204761D02*
X144373809Y-72252380D01*
X144611904Y-72252380D01*
X144707142Y-72204761D01*
X144754761Y-72157142D01*
X144802380Y-72061904D01*
X144802380Y-71966666D01*
X144754761Y-71871428D01*
X144707142Y-71823809D01*
X144611904Y-71776190D01*
X144421428Y-71728571D01*
X144326190Y-71680952D01*
X144278571Y-71633333D01*
X144230952Y-71538095D01*
X144230952Y-71442857D01*
X144278571Y-71347619D01*
X144326190Y-71300000D01*
X144421428Y-71252380D01*
X144659523Y-71252380D01*
X144802380Y-71300000D01*
X145230952Y-72252380D02*
X145230952Y-71252380D01*
X145611904Y-71252380D01*
X145707142Y-71300000D01*
X145754761Y-71347619D01*
X145802380Y-71442857D01*
X145802380Y-71585714D01*
X145754761Y-71680952D01*
X145707142Y-71728571D01*
X145611904Y-71776190D01*
X145230952Y-71776190D01*
X146135714Y-71252380D02*
X146754761Y-71252380D01*
X146421428Y-71633333D01*
X146564285Y-71633333D01*
X146659523Y-71680952D01*
X146707142Y-71728571D01*
X146754761Y-71823809D01*
X146754761Y-72061904D01*
X146707142Y-72157142D01*
X146659523Y-72204761D01*
X146564285Y-72252380D01*
X146278571Y-72252380D01*
X146183333Y-72204761D01*
X146135714Y-72157142D01*
X147135714Y-71347619D02*
X147183333Y-71300000D01*
X147278571Y-71252380D01*
X147516666Y-71252380D01*
X147611904Y-71300000D01*
X147659523Y-71347619D01*
X147707142Y-71442857D01*
X147707142Y-71538095D01*
X147659523Y-71680952D01*
X147088095Y-72252380D01*
X147707142Y-72252380D01*
X148135714Y-71871428D02*
X148897619Y-71871428D01*
X149373809Y-71728571D02*
X149707142Y-71728571D01*
X149850000Y-72252380D02*
X149373809Y-72252380D01*
X149373809Y-71252380D01*
X149850000Y-71252380D01*
X150135714Y-71252380D02*
X150707142Y-71252380D01*
X150421428Y-72252380D02*
X150421428Y-71252380D01*
X151040476Y-72252380D02*
X151040476Y-71252380D01*
X151040476Y-71728571D02*
X151611904Y-71728571D01*
X151611904Y-72252380D02*
X151611904Y-71252380D01*
D12*
X102785714Y-37571428D02*
X102785714Y-36971428D01*
X102985714Y-37400000D01*
X103185714Y-36971428D01*
X103185714Y-37571428D01*
X103442857Y-37028571D02*
X103471428Y-37000000D01*
X103528571Y-36971428D01*
X103671428Y-36971428D01*
X103728571Y-37000000D01*
X103757142Y-37028571D01*
X103785714Y-37085714D01*
X103785714Y-37142857D01*
X103757142Y-37228571D01*
X103414285Y-37571428D01*
X103785714Y-37571428D01*
X104042857Y-37514285D02*
X104071428Y-37542857D01*
X104042857Y-37571428D01*
X104014285Y-37542857D01*
X104042857Y-37514285D01*
X104042857Y-37571428D01*
X104614285Y-36971428D02*
X104328571Y-36971428D01*
X104300000Y-37257142D01*
X104328571Y-37228571D01*
X104385714Y-37200000D01*
X104528571Y-37200000D01*
X104585714Y-37228571D01*
X104614285Y-37257142D01*
X104642857Y-37314285D01*
X104642857Y-37457142D01*
X104614285Y-37514285D01*
X104585714Y-37542857D01*
X104528571Y-37571428D01*
X104385714Y-37571428D01*
X104328571Y-37542857D01*
X104300000Y-37514285D01*
X156842857Y-74171428D02*
X156842857Y-74657142D01*
X156871428Y-74714285D01*
X156900000Y-74742857D01*
X156957142Y-74771428D01*
X157071428Y-74771428D01*
X157128571Y-74742857D01*
X157157142Y-74714285D01*
X157185714Y-74657142D01*
X157185714Y-74171428D01*
X157442857Y-74228571D02*
X157471428Y-74200000D01*
X157528571Y-74171428D01*
X157671428Y-74171428D01*
X157728571Y-74200000D01*
X157757142Y-74228571D01*
X157785714Y-74285714D01*
X157785714Y-74342857D01*
X157757142Y-74428571D01*
X157414285Y-74771428D01*
X157785714Y-74771428D01*
D14*
X136719047Y-94328571D02*
X137052380Y-94328571D01*
X137195238Y-94852380D02*
X136719047Y-94852380D01*
X136719047Y-93852380D01*
X137195238Y-93852380D01*
X137957142Y-94328571D02*
X138100000Y-94376190D01*
X138147619Y-94423809D01*
X138195238Y-94519047D01*
X138195238Y-94661904D01*
X138147619Y-94757142D01*
X138100000Y-94804761D01*
X138004761Y-94852380D01*
X137623809Y-94852380D01*
X137623809Y-93852380D01*
X137957142Y-93852380D01*
X138052380Y-93900000D01*
X138100000Y-93947619D01*
X138147619Y-94042857D01*
X138147619Y-94138095D01*
X138100000Y-94233333D01*
X138052380Y-94280952D01*
X137957142Y-94328571D01*
X137623809Y-94328571D01*
X138528571Y-94185714D02*
X138766666Y-94852380D01*
X139004761Y-94185714D02*
X138766666Y-94852380D01*
X138671428Y-95090476D01*
X138623809Y-95138095D01*
X138528571Y-95185714D01*
X139242857Y-94185714D02*
X139623809Y-94185714D01*
X139385714Y-93852380D02*
X139385714Y-94709523D01*
X139433333Y-94804761D01*
X139528571Y-94852380D01*
X139623809Y-94852380D01*
X140338095Y-94804761D02*
X140242857Y-94852380D01*
X140052380Y-94852380D01*
X139957142Y-94804761D01*
X139909523Y-94709523D01*
X139909523Y-94328571D01*
X139957142Y-94233333D01*
X140052380Y-94185714D01*
X140242857Y-94185714D01*
X140338095Y-94233333D01*
X140385714Y-94328571D01*
X140385714Y-94423809D01*
X139909523Y-94519047D01*
X141576190Y-94328571D02*
X141909523Y-94328571D01*
X142052380Y-94852380D02*
X141576190Y-94852380D01*
X141576190Y-93852380D01*
X142052380Y-93852380D01*
X142433333Y-93947619D02*
X142480952Y-93900000D01*
X142576190Y-93852380D01*
X142814285Y-93852380D01*
X142909523Y-93900000D01*
X142957142Y-93947619D01*
X143004761Y-94042857D01*
X143004761Y-94138095D01*
X142957142Y-94280952D01*
X142385714Y-94852380D01*
X143004761Y-94852380D01*
X143385714Y-93947619D02*
X143433333Y-93900000D01*
X143528571Y-93852380D01*
X143766666Y-93852380D01*
X143861904Y-93900000D01*
X143909523Y-93947619D01*
X143957142Y-94042857D01*
X143957142Y-94138095D01*
X143909523Y-94280952D01*
X143338095Y-94852380D01*
X143957142Y-94852380D01*
X144576190Y-93852380D02*
X144671428Y-93852380D01*
X144766666Y-93900000D01*
X144814285Y-93947619D01*
X144861904Y-94042857D01*
X144909523Y-94233333D01*
X144909523Y-94471428D01*
X144861904Y-94661904D01*
X144814285Y-94757142D01*
X144766666Y-94804761D01*
X144671428Y-94852380D01*
X144576190Y-94852380D01*
X144480952Y-94804761D01*
X144433333Y-94757142D01*
X144385714Y-94661904D01*
X144338095Y-94471428D01*
X144338095Y-94233333D01*
X144385714Y-94042857D01*
X144433333Y-93947619D01*
X144480952Y-93900000D01*
X144576190Y-93852380D01*
X145338095Y-94471428D02*
X146100000Y-94471428D01*
X147004761Y-94185714D02*
X147004761Y-94852380D01*
X146766666Y-93804761D02*
X146528571Y-94519047D01*
X147147619Y-94519047D01*
X147719047Y-93852380D02*
X147814285Y-93852380D01*
X147909523Y-93900000D01*
X147957142Y-93947619D01*
X148004761Y-94042857D01*
X148052380Y-94233333D01*
X148052380Y-94471428D01*
X148004761Y-94661904D01*
X147957142Y-94757142D01*
X147909523Y-94804761D01*
X147814285Y-94852380D01*
X147719047Y-94852380D01*
X147623809Y-94804761D01*
X147576190Y-94757142D01*
X147528571Y-94661904D01*
X147480952Y-94471428D01*
X147480952Y-94233333D01*
X147528571Y-94042857D01*
X147576190Y-93947619D01*
X147623809Y-93900000D01*
X147719047Y-93852380D01*
X148671428Y-93852380D02*
X148766666Y-93852380D01*
X148861904Y-93900000D01*
X148909523Y-93947619D01*
X148957142Y-94042857D01*
X149004761Y-94233333D01*
X149004761Y-94471428D01*
X148957142Y-94661904D01*
X148909523Y-94757142D01*
X148861904Y-94804761D01*
X148766666Y-94852380D01*
X148671428Y-94852380D01*
X148576190Y-94804761D01*
X148528571Y-94757142D01*
X148480952Y-94661904D01*
X148433333Y-94471428D01*
X148433333Y-94233333D01*
X148480952Y-94042857D01*
X148528571Y-93947619D01*
X148576190Y-93900000D01*
X148671428Y-93852380D01*
X150147619Y-93804761D02*
X149290476Y-95090476D01*
X150528571Y-94852380D02*
X150719047Y-94852380D01*
X150814285Y-94804761D01*
X150861904Y-94757142D01*
X150957142Y-94614285D01*
X151004761Y-94423809D01*
X151004761Y-94042857D01*
X150957142Y-93947619D01*
X150909523Y-93900000D01*
X150814285Y-93852380D01*
X150623809Y-93852380D01*
X150528571Y-93900000D01*
X150480952Y-93947619D01*
X150433333Y-94042857D01*
X150433333Y-94280952D01*
X150480952Y-94376190D01*
X150528571Y-94423809D01*
X150623809Y-94471428D01*
X150814285Y-94471428D01*
X150909523Y-94423809D01*
X150957142Y-94376190D01*
X151004761Y-94280952D01*
X151623809Y-93852380D02*
X151719047Y-93852380D01*
X151814285Y-93900000D01*
X151861904Y-93947619D01*
X151909523Y-94042857D01*
X151957142Y-94233333D01*
X151957142Y-94471428D01*
X151909523Y-94661904D01*
X151861904Y-94757142D01*
X151814285Y-94804761D01*
X151719047Y-94852380D01*
X151623809Y-94852380D01*
X151528571Y-94804761D01*
X151480952Y-94757142D01*
X151433333Y-94661904D01*
X151385714Y-94471428D01*
X151385714Y-94233333D01*
X151433333Y-94042857D01*
X151480952Y-93947619D01*
X151528571Y-93900000D01*
X151623809Y-93852380D01*
X152576190Y-93852380D02*
X152671428Y-93852380D01*
X152766666Y-93900000D01*
X152814285Y-93947619D01*
X152861904Y-94042857D01*
X152909523Y-94233333D01*
X152909523Y-94471428D01*
X152861904Y-94661904D01*
X152814285Y-94757142D01*
X152766666Y-94804761D01*
X152671428Y-94852380D01*
X152576190Y-94852380D01*
X152480952Y-94804761D01*
X152433333Y-94757142D01*
X152385714Y-94661904D01*
X152338095Y-94471428D01*
X152338095Y-94233333D01*
X152385714Y-94042857D01*
X152433333Y-93947619D01*
X152480952Y-93900000D01*
X152576190Y-93852380D01*
X153195238Y-93852380D02*
X153766666Y-93852380D01*
X153480952Y-94852380D02*
X153480952Y-93852380D01*
X154052380Y-93947619D02*
X154100000Y-93900000D01*
X154195238Y-93852380D01*
X154433333Y-93852380D01*
X154528571Y-93900000D01*
X154576190Y-93947619D01*
X154623809Y-94042857D01*
X154623809Y-94138095D01*
X154576190Y-94280952D01*
X154004761Y-94852380D01*
X154623809Y-94852380D01*
X155004761Y-93947619D02*
X155052380Y-93900000D01*
X155147619Y-93852380D01*
X155385714Y-93852380D01*
X155480952Y-93900000D01*
X155528571Y-93947619D01*
X155576190Y-94042857D01*
X155576190Y-94138095D01*
X155528571Y-94280952D01*
X154957142Y-94852380D01*
X155576190Y-94852380D01*
X155957142Y-94804761D02*
X156100000Y-94852380D01*
X156338095Y-94852380D01*
X156433333Y-94804761D01*
X156480952Y-94757142D01*
X156528571Y-94661904D01*
X156528571Y-94566666D01*
X156480952Y-94471428D01*
X156433333Y-94423809D01*
X156338095Y-94376190D01*
X156147619Y-94328571D01*
X156052380Y-94280952D01*
X156004761Y-94233333D01*
X155957142Y-94138095D01*
X155957142Y-94042857D01*
X156004761Y-93947619D01*
X156052380Y-93900000D01*
X156147619Y-93852380D01*
X156385714Y-93852380D01*
X156528571Y-93900000D01*
D12*
X128100000Y-78671428D02*
X127900000Y-78385714D01*
X127757142Y-78671428D02*
X127757142Y-78071428D01*
X127985714Y-78071428D01*
X128042857Y-78100000D01*
X128071428Y-78128571D01*
X128100000Y-78185714D01*
X128100000Y-78271428D01*
X128071428Y-78328571D01*
X128042857Y-78357142D01*
X127985714Y-78385714D01*
X127757142Y-78385714D01*
X128300000Y-78071428D02*
X128671428Y-78071428D01*
X128471428Y-78300000D01*
X128557142Y-78300000D01*
X128614285Y-78328571D01*
X128642857Y-78357142D01*
X128671428Y-78414285D01*
X128671428Y-78557142D01*
X128642857Y-78614285D01*
X128614285Y-78642857D01*
X128557142Y-78671428D01*
X128385714Y-78671428D01*
X128328571Y-78642857D01*
X128300000Y-78614285D01*
X127300000Y-80971428D02*
X127300000Y-81371428D01*
X127157142Y-80742857D02*
X127014285Y-81171428D01*
X127385714Y-81171428D01*
X127642857Y-81342857D02*
X127642857Y-81371428D01*
X127614285Y-81428571D01*
X127585714Y-81457142D01*
X127842857Y-80771428D02*
X128242857Y-80771428D01*
X127985714Y-81371428D01*
X128471428Y-81371428D02*
X128471428Y-80771428D01*
X128528571Y-81142857D02*
X128700000Y-81371428D01*
X128700000Y-80971428D02*
X128471428Y-81200000D01*
X128928571Y-81371428D02*
X129071428Y-81371428D01*
X129071428Y-81257142D01*
X129014285Y-81228571D01*
X128957142Y-81171428D01*
X128928571Y-81085714D01*
X128928571Y-80942857D01*
X128957142Y-80857142D01*
X129014285Y-80800000D01*
X129100000Y-80771428D01*
X129214285Y-80771428D01*
X129300000Y-80800000D01*
X129357142Y-80857142D01*
X129385714Y-80942857D01*
X129385714Y-81085714D01*
X129357142Y-81171428D01*
X129300000Y-81228571D01*
X129242857Y-81257142D01*
X129242857Y-81371428D01*
X129385714Y-81371428D01*
X117650000Y-94857142D02*
X117450000Y-94857142D01*
X117450000Y-95171428D02*
X117450000Y-94571428D01*
X117735714Y-94571428D01*
X118278571Y-95171428D02*
X117935714Y-95171428D01*
X118107142Y-95171428D02*
X118107142Y-94571428D01*
X118050000Y-94657142D01*
X117992857Y-94714285D01*
X117935714Y-94742857D01*
D11*
X120902380Y-91692857D02*
X120902380Y-92264285D01*
X120902380Y-91978571D02*
X119902380Y-91978571D01*
X120045238Y-92073809D01*
X120140476Y-92169047D01*
X120188095Y-92264285D01*
X120616666Y-91311904D02*
X120616666Y-90835714D01*
X120902380Y-91407142D02*
X119902380Y-91073809D01*
X120902380Y-90740476D01*
D12*
X128100000Y-88071428D02*
X127900000Y-87785714D01*
X127757142Y-88071428D02*
X127757142Y-87471428D01*
X127985714Y-87471428D01*
X128042857Y-87500000D01*
X128071428Y-87528571D01*
X128100000Y-87585714D01*
X128100000Y-87671428D01*
X128071428Y-87728571D01*
X128042857Y-87757142D01*
X127985714Y-87785714D01*
X127757142Y-87785714D01*
X128671428Y-88071428D02*
X128328571Y-88071428D01*
X128500000Y-88071428D02*
X128500000Y-87471428D01*
X128442857Y-87557142D01*
X128385714Y-87614285D01*
X128328571Y-87642857D01*
X127300000Y-90371428D02*
X127300000Y-90771428D01*
X127157142Y-90142857D02*
X127014285Y-90571428D01*
X127385714Y-90571428D01*
X127642857Y-90742857D02*
X127642857Y-90771428D01*
X127614285Y-90828571D01*
X127585714Y-90857142D01*
X127842857Y-90171428D02*
X128242857Y-90171428D01*
X127985714Y-90771428D01*
X128471428Y-90771428D02*
X128471428Y-90171428D01*
X128528571Y-90542857D02*
X128700000Y-90771428D01*
X128700000Y-90371428D02*
X128471428Y-90600000D01*
X128928571Y-90771428D02*
X129071428Y-90771428D01*
X129071428Y-90657142D01*
X129014285Y-90628571D01*
X128957142Y-90571428D01*
X128928571Y-90485714D01*
X128928571Y-90342857D01*
X128957142Y-90257142D01*
X129014285Y-90200000D01*
X129100000Y-90171428D01*
X129214285Y-90171428D01*
X129300000Y-90200000D01*
X129357142Y-90257142D01*
X129385714Y-90342857D01*
X129385714Y-90485714D01*
X129357142Y-90571428D01*
X129300000Y-90628571D01*
X129242857Y-90657142D01*
X129242857Y-90771428D01*
X129385714Y-90771428D01*
X131285714Y-73700000D02*
X131257142Y-73671428D01*
X131228571Y-73585714D01*
X131228571Y-73528571D01*
X131257142Y-73442857D01*
X131314285Y-73385714D01*
X131371428Y-73357142D01*
X131485714Y-73328571D01*
X131571428Y-73328571D01*
X131685714Y-73357142D01*
X131742857Y-73385714D01*
X131800000Y-73442857D01*
X131828571Y-73528571D01*
X131828571Y-73585714D01*
X131800000Y-73671428D01*
X131771428Y-73700000D01*
X131228571Y-74271428D02*
X131228571Y-73928571D01*
X131228571Y-74100000D02*
X131828571Y-74100000D01*
X131742857Y-74042857D01*
X131685714Y-73985714D01*
X131657142Y-73928571D01*
X132914285Y-72571428D02*
X132571428Y-72571428D01*
X132742857Y-72571428D02*
X132742857Y-71971428D01*
X132685714Y-72057142D01*
X132628571Y-72114285D01*
X132571428Y-72142857D01*
X133285714Y-71971428D02*
X133342857Y-71971428D01*
X133400000Y-72000000D01*
X133428571Y-72028571D01*
X133457142Y-72085714D01*
X133485714Y-72200000D01*
X133485714Y-72342857D01*
X133457142Y-72457142D01*
X133428571Y-72514285D01*
X133400000Y-72542857D01*
X133342857Y-72571428D01*
X133285714Y-72571428D01*
X133228571Y-72542857D01*
X133200000Y-72514285D01*
X133171428Y-72457142D01*
X133142857Y-72342857D01*
X133142857Y-72200000D01*
X133171428Y-72085714D01*
X133200000Y-72028571D01*
X133228571Y-72000000D01*
X133285714Y-71971428D01*
X133742857Y-72171428D02*
X133742857Y-72771428D01*
X134028571Y-72485714D02*
X134057142Y-72542857D01*
X134114285Y-72571428D01*
X133742857Y-72485714D02*
X133771428Y-72542857D01*
X133828571Y-72571428D01*
X133942857Y-72571428D01*
X134000000Y-72542857D01*
X134028571Y-72485714D01*
X134028571Y-72171428D01*
X134571428Y-72257142D02*
X134371428Y-72257142D01*
X134371428Y-72571428D02*
X134371428Y-71971428D01*
X134657142Y-71971428D01*
X103700000Y-88971428D02*
X103700000Y-89400000D01*
X103671428Y-89485714D01*
X103614285Y-89542857D01*
X103528571Y-89571428D01*
X103471428Y-89571428D01*
X104300000Y-89571428D02*
X103957142Y-89571428D01*
X104128571Y-89571428D02*
X104128571Y-88971428D01*
X104071428Y-89057142D01*
X104014285Y-89114285D01*
X103957142Y-89142857D01*
D11*
X102038095Y-97650000D02*
X101942857Y-97602380D01*
X101800000Y-97602380D01*
X101657142Y-97650000D01*
X101561904Y-97745238D01*
X101514285Y-97840476D01*
X101466666Y-98030952D01*
X101466666Y-98173809D01*
X101514285Y-98364285D01*
X101561904Y-98459523D01*
X101657142Y-98554761D01*
X101800000Y-98602380D01*
X101895238Y-98602380D01*
X102038095Y-98554761D01*
X102085714Y-98507142D01*
X102085714Y-98173809D01*
X101895238Y-98173809D01*
X102514285Y-98602380D02*
X102514285Y-97602380D01*
X103085714Y-98602380D01*
X103085714Y-97602380D01*
X103561904Y-98602380D02*
X103561904Y-97602380D01*
X103800000Y-97602380D01*
X103942857Y-97650000D01*
X104038095Y-97745238D01*
X104085714Y-97840476D01*
X104133333Y-98030952D01*
X104133333Y-98173809D01*
X104085714Y-98364285D01*
X104038095Y-98459523D01*
X103942857Y-98554761D01*
X103800000Y-98602380D01*
X103561904Y-98602380D01*
X115564285Y-98221428D02*
X116326190Y-98221428D01*
X115945238Y-98602380D02*
X115945238Y-97840476D01*
X117278571Y-97602380D02*
X116802380Y-97602380D01*
X116754761Y-98078571D01*
X116802380Y-98030952D01*
X116897619Y-97983333D01*
X117135714Y-97983333D01*
X117230952Y-98030952D01*
X117278571Y-98078571D01*
X117326190Y-98173809D01*
X117326190Y-98411904D01*
X117278571Y-98507142D01*
X117230952Y-98554761D01*
X117135714Y-98602380D01*
X116897619Y-98602380D01*
X116802380Y-98554761D01*
X116754761Y-98507142D01*
X117611904Y-97602380D02*
X117945238Y-98602380D01*
X118278571Y-97602380D01*
D12*
X155585714Y-37271428D02*
X155585714Y-36671428D01*
X155785714Y-37100000D01*
X155985714Y-36671428D01*
X155985714Y-37271428D01*
X156242857Y-36728571D02*
X156271428Y-36700000D01*
X156328571Y-36671428D01*
X156471428Y-36671428D01*
X156528571Y-36700000D01*
X156557142Y-36728571D01*
X156585714Y-36785714D01*
X156585714Y-36842857D01*
X156557142Y-36928571D01*
X156214285Y-37271428D01*
X156585714Y-37271428D01*
X156842857Y-37214285D02*
X156871428Y-37242857D01*
X156842857Y-37271428D01*
X156814285Y-37242857D01*
X156842857Y-37214285D01*
X156842857Y-37271428D01*
X157414285Y-36671428D02*
X157128571Y-36671428D01*
X157100000Y-36957142D01*
X157128571Y-36928571D01*
X157185714Y-36900000D01*
X157328571Y-36900000D01*
X157385714Y-36928571D01*
X157414285Y-36957142D01*
X157442857Y-37014285D01*
X157442857Y-37157142D01*
X157414285Y-37214285D01*
X157385714Y-37242857D01*
X157328571Y-37271428D01*
X157185714Y-37271428D01*
X157128571Y-37242857D01*
X157100000Y-37214285D01*
X122442857Y-88571428D02*
X122442857Y-89057142D01*
X122471428Y-89114285D01*
X122500000Y-89142857D01*
X122557142Y-89171428D01*
X122671428Y-89171428D01*
X122728571Y-89142857D01*
X122757142Y-89114285D01*
X122785714Y-89057142D01*
X122785714Y-88571428D01*
X123385714Y-89171428D02*
X123042857Y-89171428D01*
X123214285Y-89171428D02*
X123214285Y-88571428D01*
X123157142Y-88657142D01*
X123100000Y-88714285D01*
X123042857Y-88742857D01*
D11*
X110138095Y-85682380D02*
X110138095Y-86491904D01*
X110185714Y-86587142D01*
X110233333Y-86634761D01*
X110328571Y-86682380D01*
X110519047Y-86682380D01*
X110614285Y-86634761D01*
X110661904Y-86587142D01*
X110709523Y-86491904D01*
X110709523Y-85682380D01*
X111138095Y-86634761D02*
X111280952Y-86682380D01*
X111519047Y-86682380D01*
X111614285Y-86634761D01*
X111661904Y-86587142D01*
X111709523Y-86491904D01*
X111709523Y-86396666D01*
X111661904Y-86301428D01*
X111614285Y-86253809D01*
X111519047Y-86206190D01*
X111328571Y-86158571D01*
X111233333Y-86110952D01*
X111185714Y-86063333D01*
X111138095Y-85968095D01*
X111138095Y-85872857D01*
X111185714Y-85777619D01*
X111233333Y-85730000D01*
X111328571Y-85682380D01*
X111566666Y-85682380D01*
X111709523Y-85730000D01*
X112471428Y-86158571D02*
X112614285Y-86206190D01*
X112661904Y-86253809D01*
X112709523Y-86349047D01*
X112709523Y-86491904D01*
X112661904Y-86587142D01*
X112614285Y-86634761D01*
X112519047Y-86682380D01*
X112138095Y-86682380D01*
X112138095Y-85682380D01*
X112471428Y-85682380D01*
X112566666Y-85730000D01*
X112614285Y-85777619D01*
X112661904Y-85872857D01*
X112661904Y-85968095D01*
X112614285Y-86063333D01*
X112566666Y-86110952D01*
X112471428Y-86158571D01*
X112138095Y-86158571D01*
D12*
X97885714Y-87071428D02*
X97885714Y-86471428D01*
X98085714Y-86900000D01*
X98285714Y-86471428D01*
X98285714Y-87071428D01*
X98542857Y-86528571D02*
X98571428Y-86500000D01*
X98628571Y-86471428D01*
X98771428Y-86471428D01*
X98828571Y-86500000D01*
X98857142Y-86528571D01*
X98885714Y-86585714D01*
X98885714Y-86642857D01*
X98857142Y-86728571D01*
X98514285Y-87071428D01*
X98885714Y-87071428D01*
X99142857Y-87014285D02*
X99171428Y-87042857D01*
X99142857Y-87071428D01*
X99114285Y-87042857D01*
X99142857Y-87014285D01*
X99142857Y-87071428D01*
X99714285Y-86471428D02*
X99428571Y-86471428D01*
X99400000Y-86757142D01*
X99428571Y-86728571D01*
X99485714Y-86700000D01*
X99628571Y-86700000D01*
X99685714Y-86728571D01*
X99714285Y-86757142D01*
X99742857Y-86814285D01*
X99742857Y-86957142D01*
X99714285Y-87014285D01*
X99685714Y-87042857D01*
X99628571Y-87071428D01*
X99485714Y-87071428D01*
X99428571Y-87042857D01*
X99400000Y-87014285D01*
X100480000Y-91570000D02*
X100480000Y-96710000D01*
X97820000Y-88970000D02*
X99150000Y-88970000D01*
X97820000Y-91570000D02*
X100480000Y-91570000D01*
X97820000Y-96710000D02*
X100480000Y-96710000D01*
X97820000Y-91570000D02*
X97820000Y-96710000D01*
X97820000Y-90300000D02*
X97820000Y-88970000D01*
X157115000Y-44411252D02*
X157115000Y-43888748D01*
X158585000Y-44411252D02*
X158585000Y-43888748D01*
X127972936Y-85135000D02*
X128427064Y-85135000D01*
X127972936Y-83665000D02*
X128427064Y-83665000D01*
X158930000Y-36405000D02*
X128880000Y-36405000D01*
X159430000Y-40305000D02*
X159430000Y-36905000D01*
X128380000Y-40405000D02*
X128380000Y-36905000D01*
X159930000Y-70505000D02*
X127880000Y-70505000D01*
X161430000Y-69005000D02*
X161430000Y-42305000D01*
X126380000Y-69005000D02*
X126380000Y-42405000D01*
X128880000Y-36405000D02*
G75*
G03*
X128380000Y-36905000I1J-500001D01*
G01*
X159430000Y-40305000D02*
G75*
G03*
X161430000Y-42305000I1999999J-1D01*
G01*
X159930000Y-70505000D02*
G75*
G03*
X161430000Y-69005000I-1J1500001D01*
G01*
X126380000Y-42405000D02*
G75*
G03*
X128380000Y-40405000I1J1999999D01*
G01*
X159430000Y-36905000D02*
G75*
G03*
X158930000Y-36405000I-500001J-1D01*
G01*
X126380000Y-69005000D02*
G75*
G03*
X127880000Y-70505000I1500001J1D01*
G01*
X131220000Y-76167500D02*
X131920000Y-76167500D01*
X157420000Y-92367500D02*
X156720000Y-92367500D01*
X131220000Y-90267500D02*
X131220000Y-92367500D01*
X157420000Y-78267500D02*
X157420000Y-76167500D01*
X131220000Y-92367500D02*
X131920000Y-92367500D01*
X131220000Y-78267500D02*
X131220000Y-76167500D01*
X157420000Y-90267500D02*
X157420000Y-92367500D01*
X157420000Y-76167500D02*
X156720000Y-76167500D01*
X127972936Y-80435000D02*
X128427064Y-80435000D01*
X127972936Y-78965000D02*
X128427064Y-78965000D01*
X116140000Y-90151248D02*
X116140000Y-92923752D01*
X119560000Y-90151248D02*
X119560000Y-92923752D01*
X127972936Y-88365000D02*
X128427064Y-88365000D01*
X127972936Y-89835000D02*
X128427064Y-89835000D01*
X133338748Y-73065000D02*
X133861252Y-73065000D01*
X133338748Y-74535000D02*
X133861252Y-74535000D01*
X104700000Y-88944000D02*
X104700000Y-98865000D01*
X104460000Y-98365000D02*
X104460000Y-99105000D01*
X114980000Y-88944000D02*
X114980000Y-98865000D01*
X104700000Y-91904000D02*
X114980000Y-91904000D01*
X104700000Y-88944000D02*
X114980000Y-88944000D01*
X104460000Y-99105000D02*
X104960000Y-99105000D01*
X111346000Y-95444000D02*
X111311000Y-95479000D01*
X113655000Y-93136000D02*
X113608000Y-93182000D01*
X104700000Y-96805000D02*
X114980000Y-96805000D01*
X111153000Y-95228000D02*
X111106000Y-95274000D01*
X113450000Y-92930000D02*
X113415000Y-92966000D01*
X104700000Y-98865000D02*
X114980000Y-98865000D01*
X104700000Y-98305000D02*
X114980000Y-98305000D01*
X107984000Y-92670000D02*
G75*
G03*
X106616958Y-92669573I-684001J-1534993D01*
G01*
X105765000Y-93521000D02*
G75*
G03*
X105764573Y-94888042I1534993J-684001D01*
G01*
X108835000Y-94889000D02*
G75*
G03*
X108835427Y-93521958I-1534993J684001D01*
G01*
X107300000Y-95885000D02*
G75*
G03*
X107983318Y-95739756I1J1679992D01*
G01*
X106616000Y-95740000D02*
G75*
G03*
X107328805Y-95885253I683999J1535001D01*
G01*
X114060000Y-94205000D02*
G75*
G03*
X114060000Y-94205000I-1680000J0D01*
G01*
X115400000Y-82200000D02*
X115400000Y-88200000D01*
X107400000Y-82200000D02*
X115400000Y-82200000D01*
X99400000Y-36700000D02*
X123400000Y-36700000D01*
X107400000Y-82200000D02*
X107400000Y-88200000D01*
X125400000Y-86200000D02*
X125400000Y-38700000D01*
X99400000Y-88200000D02*
X123400000Y-88200000D01*
X97400000Y-38700000D02*
X97400000Y-86200000D01*
X123400000Y-88200000D02*
G75*
G03*
X125400000Y-86200000I1J1999999D01*
G01*
X99400000Y-36700000D02*
G75*
G03*
X97400000Y-38700000I-1J-1999999D01*
G01*
X97400000Y-86200000D02*
G75*
G03*
X99400000Y-88200000I1999999J-1D01*
G01*
X125400000Y-38700000D02*
G75*
G03*
X123400000Y-36700000I-1999999J1D01*
G01*
M02*
